<svg xmlns="http://www.w3.org/2000/svg" xmlns:xlink="http://www.w3.org/1999/xlink" width="570" height="372" viewBox="0 0 570 372"><defs><style>.a{fill:#f2f8ff;}.b,.i{fill:none;}.b{clip-rule:evenodd;}.c{clip-path:url(#a);}.ar,.d,.q{fill:#fff;}.e,.l{fill:#003398;}.aa,.ab,.ac,.ad,.ae,.af,.ag,.ah,.ai,.aj,.ak,.al,.am,.an,.ao,.aq,.ar,.at,.au,.av,.aw,.ax,.e,.j,.k,.m,.n,.o,.p,.q,.r,.s,.t,.u,.v,.w,.x,.y,.z{fill-rule:evenodd;}.f{clip-path:url(#b);}.g{fill:url(#c);}.h{fill:#102b6e;}.i{stroke:#102b6e;stroke-miterlimit:22.926;stroke-width:0.5px;}.j{fill:#4596d1;}.k{fill:#e4f5fb;}.m{fill:#ee4354;}.n{fill:#a5dbfd;}.o{fill:#fdfdfd;}.p{fill:#b2defc;}.r{fill:#f8babc;}.s{fill:#ea8287;}.t{fill:#f7ab2b;}.u{fill:#76c5fb;}.v{fill:#fca700;}.as,.w{fill:#608dfc;}.x{fill:#4d7efb;}.y{fill:#ed979b;}.z{fill:#f7aaac;}.aa{fill:#e88e92;}.ab{fill:#3460d1;}.ac{fill:#c4dfff;}.ad{fill:#053398;}.ae{fill:#eca01f;}.af{fill:#eb8e91;}.ag{fill:#ffc86b;}.ah{fill:#ffbc4a;}.ai{fill:#8ccdfb;}.aj{fill:#992842;}.ak{fill:#ba3954;}.al{fill:#efd817;}.am{fill:#90a7d1;}.an{fill:#7c93c3;}.ao{fill:#00a551;}.ap{fill:#cbe6d2;}.aq{fill:#608dff;}.ar{opacity:0.1;}.at{fill:#ec1c24;}.au{fill:#3dabf9;}.av{fill:#ff5269;}.aw{fill:#26a0f8;}.ax{fill:#219ef8;}.ay{fill:#f68c21;}</style><clipPath id="a"><rect class="a" width="529" height="372" transform="translate(718 98)"/></clipPath><clipPath id="b"><path class="b" d="M1156.169,666.693H1406.09a.246.246,0,0,1,.245.244V825.724a.246.246,0,0,1-.245.244H1156.169a.245.245,0,0,1-.244-.244V666.937a.245.245,0,0,1,.244-.244" transform="translate(-1155.925 -666.693)"/></clipPath><linearGradient id="c" x1="0.5" y1="0.935" x2="0.5" y2="0.125" gradientUnits="objectBoundingBox"><stop offset="0" stop-color="#3d9dff"/><stop offset="1" stop-color="#ceecfa"/></linearGradient></defs><g transform="translate(-677 -98)"><g class="c"><circle class="d" cx="264.5" cy="264.5" r="264.5" transform="translate(718 98)"/></g><g transform="translate(88.584 -203.643)"><path class="e" d="M1134.837,628.56h241.335a15.774,15.774,0,0,1,15.728,15.728v151a15.775,15.775,0,0,1-15.728,15.729H1134.837a15.775,15.775,0,0,1-15.729-15.729v-151a15.775,15.775,0,0,1,15.729-15.728" transform="translate(-349.247 -219.182)"/><g transform="translate(781.053 420.97)"><g class="f"><rect class="g" width="250.409" height="159.276" transform="translate(0 0)"/></g></g><rect class="h" width="97.613" height="151.748" transform="translate(919.645 404.934)"/><rect class="i" width="97.613" height="151.748" transform="translate(919.645 404.934)"/><path class="j" d="M1441.744,1216.76c-1.108,21.59-4.038,27.049-24.351,39.353h90.043c-20.312-12.3-23.244-17.763-24.352-39.353l-20.67-1.754Z" transform="translate(-556.854 -627.348)"/><path class="k" d="M1391.9,1143.018v10.337a15.775,15.775,0,0,1-15.728,15.729H1134.837a15.775,15.775,0,0,1-15.729-15.729v-10.337Z" transform="translate(-349.247 -577.245)"/><rect class="l" width="272.792" height="16.525" transform="translate(769.861 555.581)"/><path class="m" d="M1600.335,598.964h101.69a3.271,3.271,0,1,0,0-6.542h-101.69a3.271,3.271,0,0,0,0,6.542" transform="translate(-681.905 -194.03)"/><path class="n" d="M1579.191,773.134h95.471l11.449-136.418h-95.625Z" transform="translate(-669.465 -224.859)"/><path class="o" d="M1550.591,613.942c-5.472,49.924-16.316,92.5-25.707,142.892,33.608.45,67.392.45,100.822.45,7.321-37.087,16.179-104.11,23.218-143.342Z" transform="translate(-631.667 -209.008)"/><path class="p" d="M1592.617,982.486h65.852a1.7,1.7,0,0,1,1.693,1.693h0a1.7,1.7,0,0,1-1.693,1.693h-65.852a1.7,1.7,0,0,1-1.693-1.693h0a1.7,1.7,0,0,1,1.693-1.693" transform="translate(-677.631 -465.515)"/><path class="p" d="M1584.757,1018.14h65.851a1.7,1.7,0,0,1,1.693,1.693h0a1.7,1.7,0,0,1-1.693,1.693h-65.851a1.7,1.7,0,0,1-1.693-1.693h0a1.7,1.7,0,0,1,1.693-1.693" transform="translate(-672.16 -490.33)"/><path class="e" d="M1387.62,798.984c6.2,13.616,13.9,29.217,31.653,31.863,14.4,2.145,35.479-24.965,37.551-29.387s-5.8-15.973-8.338-14.637-23.417,17.456-25.323,17.334c-2.228-.145-9.829-24.32-23.62-32.278-2.152-1.241-14.591,21.248-11.923,27.1" transform="translate(-535.872 -318.898)"/><path class="e" d="M1220.767,749.646c-8.759,0-16.27,2.692-21.573,8.185-7.382,7.647,5.445,59.275,6.352,101.144h74.715c.45-18.582.076-62.388-4.115-93.885-2.458-3.877-8.168-8.823-13.838-12.059-9.952-5.679-29.385-3.385-41.541-3.385" transform="translate(-403.4 -303.139)"/><path class="q" d="M1303.853,748.915c10.876,5.882,19.356,46.214,19.12,109.264H1292.99c-1.147-65.99-11.559-97.838-15.684-109.077,8.849-.584,15.561-1.119,26.547-.187" transform="translate(-459.353 -302.597)"/><path class="k" d="M1288.242,748.859a138.472,138.472,0,0,1,22.122-.005c2.653,3.6,3.64,14.9-5.466,19.576-7.578-1.437-19.836-11.62-16.657-19.571" transform="translate(-466.605 -302.598)"/><path class="q" d="M1360.263,751.141a9.652,9.652,0,0,0-2.017-1.571c.395.028.794.059,1.2.091a7.292,7.292,0,0,1,.817,1.48" transform="translate(-515.687 -303.405)"/><path class="r" d="M1320.907,647.264c1.235,7.837-8.181,13.81-14.572,13.288v3.586l.639.864c3.752,7.4-.284,13.105-4.162,15.1-6.07-2.177-14.459-7.742-14.6-15.485l.394-.478V650.4a6.415,6.415,0,0,1-1.408-.591c-1.408-.82-1.957-2.823-1.58-4.891s3.382-.669,3.382-.669h0c-2.607-6.129-5.944-11.415.773-14.822s20.266-3.151,20.266-3.151l9.069-.759c-2.2,3.338.976,16.553,1.793,21.746" transform="translate(-465.061 -217.065)"/><path class="s" d="M1328.026,731.287c-.509-.011-1.009-.036-1.5-.076h0c-4.03-.069-8.26-2.8-12.007-4.173,0,0,1.9,6.708,6.693,8.824a18.139,18.139,0,0,0,5.315,1.481v-6.133l1.448.033Z" transform="translate(-485.255 -287.723)"/><path class="e" d="M1265.589,589.883c-3.3,2.574-1.006,9.356-.072,11.306,1.014,2.119,2.08,4.878,1.345,5.2-2.867,1.252-5.246-3.99-6.6-4.638a2.033,2.033,0,0,0-1.7-.04c-1.264.953-.575,3.965.871,4.974.425.3,1.081.878,1.081.878-5.817-.159-19.606-14.03-12.9-22.528,1.633-16.835,11.311-21.34,22.487-21.054,4.362.111,8.45,2.551,12.849,4.413a17.934,17.934,0,0,0,4.451,1.657c3.2.317,3.914-2.69,5.829-.942,7.86,7.169,1.849,27.508-16.331,21.682-5.942-1.9-8.975-2.726-11.307-.907" transform="translate(-437.434 -174.225)"/><path class="e" d="M1171.938,786.109c3.2-6.583-.392-13.472-7.172-16.369h0c-6.781-2.9-14.085,1.2-17.285,7.785-6.279,12.919-24.611,42.29-15.606,56.82,7.3,11.786,27.12,6.11,31.684,4.883s7.316-15.586,7.316-15.586-13.594.331-15.121-3.21c-2.531-5.865,13.941-29.707,16.184-34.323" transform="translate(-356.433 -316.786)"/><path class="q" d="M1245.938,951.59c-3.849,2.3-6.778,8.918-6.529,13.275,1.039-.2,9.98-3.166,9.98-3.166,3.122-3.539,4.16-8.1,3.344-11.019Z" transform="translate(-432.966 -443.377)"/><path class="m" d="M1296.971,925.569l.987.774a.754.754,0,0,1,.128,1.057l-16.691,21.112c-.257.325-2.216,1.26-2.542,1s.144-2.423.4-2.748l16.661-21.073a.756.756,0,0,1,1.057-.127" transform="translate(-460.352 -425.789)"/><path class="r" d="M1274.453,942.307l4.713-.776,5.386-3.573a1.436,1.436,0,0,1,1.8.19c7.83,6.023.9,8.238-4.255,13.6-2.393.059-2.134.069-3.755-2.108-.315-.423-7.2,1.985-7.2,1.985a14.6,14.6,0,0,1,3.316-9.315" transform="translate(-455.051 -434.368)"/><path class="q" d="M1590.891,816.412c-.666,4.178,3.231,10.919,6.192,12.115.33-.588,2.311-3.139,3.621-5.1,2.817-4.21-3.832-13.007-5.781-11.055Z" transform="translate(-677.556 -346.922)"/><path class="t" d="M1677.448,717.367c3.059,5.312,5.913,12.4,6.537,17.613h16.178c1.239-2.573,5.024-7.637,8.481-12.046s6.582-8.179,6.52-8.155a23.2,23.2,0,0,0,5.145-11.347c.924-5.161-.431-11.79-3.8-15.842a18.888,18.888,0,0,0-14.831-6.567,27.075,27.075,0,0,0-17.185,6.567c-4.816,4.05-8.54,10.689-9.463,15.842s-.3,7.981,1.062,11.3c.49.89.785,1.747,1.355,2.637" transform="translate(-735.865 -255.695)"/><path class="q" d="M1726.241,779.726a3.347,3.347,0,0,1,2.184-1.445,2.7,2.7,0,0,1,1.677.238,2.841,2.841,0,0,1,1.186,1.176,3.556,3.556,0,0,1,.392,1.961,6.16,6.16,0,0,1-.669,2.4c-.573,1.17-2.417,1.978-4.69,2.438q-.883,4.979-1.776,9.942H1723.1q.869-4.849,1.739-9.7a26.156,26.156,0,0,1-6.448.016q-.87,4.848-1.73,9.688h-1.542q.882-4.967,1.774-9.942c-2.123-.461-3.656-1.271-3.818-2.438a5.561,5.561,0,0,1,.179-2.4,5.263,5.263,0,0,1,1.106-1.961,4.651,4.651,0,0,1,1.605-1.176,3.155,3.155,0,0,1,1.766-.238,2.077,2.077,0,0,1,1.668,1.445,5.387,5.387,0,0,1-.045,2.835c-.035.119-.062.238-.089.357-.5-.04-.981-.087-1.471-.135.018-.111.054-.223.08-.333a3.675,3.675,0,0,0,.072-1.882.907.907,0,0,0-.749-.635,1.659,1.659,0,0,0-.928.127,2.628,2.628,0,0,0-.918.675,2.981,2.981,0,0,0-.651,1.151,3.823,3.823,0,0,0-.116,1.612c.3,2.192,14.026,2.19,15.107,0a4.238,4.238,0,0,0,.464-1.612,2.2,2.2,0,0,0-.223-1.151,1.569,1.569,0,0,0-.687-.675,1.456,1.456,0,0,0-1.855.508,4.319,4.319,0,0,0-.607,1.882c-.009.112-.027.223-.035.333-.518.048-1.017.1-1.517.135.009-.119.032-.237.045-.357a6.223,6.223,0,0,1,.963-2.835" transform="translate(-762.61 -323.359)"/><path class="u" d="M1707.338,862.147h10.64a1.95,1.95,0,0,1,1.962,2.39h0a3,3,0,0,1-2.818,2.39h-10.64a1.951,1.951,0,0,1-1.962-2.39h0a3,3,0,0,1,2.818-2.39" transform="translate(-756.666 -381.759)"/><path class="u" d="M1709.221,879.805h8.865a1.31,1.31,0,0,1,1.311,1.612h0a2,2,0,0,1-1.891,1.611h-8.865a1.319,1.319,0,0,1-1.329-1.611h0a2.032,2.032,0,0,1,1.909-1.612" transform="translate(-758.62 -394.049)"/><path class="u" d="M1711.948,892.317h5.948a1.253,1.253,0,0,1,1.267,1.54h0a1.929,1.929,0,0,1-1.811,1.54H1711.4a1.256,1.256,0,0,1-1.266-1.54h0a1.938,1.938,0,0,1,1.819-1.54" transform="translate(-760.581 -402.757)"/><path class="v" d="M1687.49,646.266h0a1.163,1.163,0,0,1,.151,1.715c-1.209,1.591-2.413,3.172-3.611,4.764a1.388,1.388,0,0,1-1.793.461h0a1.169,1.169,0,0,1-.161-1.715q1.8-2.379,3.6-4.764a1.406,1.406,0,0,1,1.811-.461m-37.475,0h0a1.12,1.12,0,0,1,1.632.461q.94,2.381,1.9,4.764a1.438,1.438,0,0,1-.776,1.715h0a1.123,1.123,0,0,1-1.632-.461c-.634-1.591-1.27-3.174-1.9-4.764A1.445,1.445,0,0,1,1650.015,646.266Zm-16.178,13.714h0a1.41,1.41,0,0,1,1.8-.46c1.42.917,2.845,1.843,4.272,2.755a1.181,1.181,0,0,1,.16,1.716h0a1.417,1.417,0,0,1-1.819.46c-1.418-.912-2.846-1.825-4.264-2.747A1.174,1.174,0,0,1,1633.836,659.979Zm64.908,0h0a1.448,1.448,0,0,1-.776,1.723c-1.749.92-3.505,1.836-5.244,2.747a1.125,1.125,0,0,1-1.641-.46h0a1.443,1.443,0,0,1,.766-1.716c1.749-.911,3.5-1.839,5.254-2.755A1.139,1.139,0,0,1,1698.745,659.979Zm1.668,18.74h0a1.586,1.586,0,0,1-1.489,1.263h-5.5a1.03,1.03,0,0,1-1.034-1.263h0a1.571,1.571,0,0,1,1.49-1.255h5.494A1.029,1.029,0,0,1,1700.412,678.72Zm-66.932,0h0a1.586,1.586,0,0,1-1.489,1.263h-5.5a1.022,1.022,0,0,1-1.016-1.263h0a1.567,1.567,0,0,1,1.471-1.255h5.5A1.023,1.023,0,0,1,1633.48,678.72Zm36.173-37.481h0a1.028,1.028,0,0,1,1.026,1.263q-.5,2.751-.981,5.5a1.574,1.574,0,0,1-1.48,1.255h0a1.02,1.02,0,0,1-1.035-1.255q.486-2.751.981-5.5A1.585,1.585,0,0,1,1669.653,641.239Z" transform="translate(-701.662 -228.007)"/><path class="r" d="M1609.7,764.987c.415-1.921,2.16-9.51,3.575-10.786.722-.651.894-.356,1.215.057a3.449,3.449,0,0,1,.44,2.017,29.023,29.023,0,0,1-.488,3.448c4.281-2.241,8.382-7.495,11.513-11.092,1.272-1.462,3.3-1.305,2.072,1.3-1,2.134-6.716,9.1-6.716,9.1l8.523-4.614c1.5-.812,1.491,1.033.776,1.808-1.174,1.272-8.5,5.848-8.5,5.848l8.024-1.176a.893.893,0,0,1-.179,1.458c-1,.6-8.692,3.072-8.692,3.072l5.2.1s.487,1.048-.825,1.461c-.7.22-2.513.429-4.245,1a18.733,18.733,0,0,0-3.529,1.689c-3.074,1.843-4.532,4.891-6.712,7.451a14.032,14.032,0,0,1-4.573-8.605Z" transform="translate(-688.526 -302.108)"/><path class="w" d="M1036.363,1034.347c16.3,15.647,13.054,68.044,33.77,74.571,0,0,14.8,3.419,13.8,7.767s-2.924,5.989-2.924,5.989-17.431,1.587-32.072-1.479c-8.235-1.724-9.451-12.568-12.573-13.825-8.674-3.493-13.271-38.579-13.271-38.579Z" transform="translate(-282.421 -501.61)"/><g transform="translate(664.427 525.136)"><path class="x" d="M842.6,1009.342H806.588a32.305,32.305,0,0,0-31.648,26.843c-.274,0-1.463,10.025-1.546,10.9-1.777,18.752-1.915,46.148,3.363,65.878h84.68l.364-46.53v-49.489c-5.591-4.738-11.367-7.6-19.2-7.6" transform="translate(-772.285 -1009.342)"/></g><path class="r" d="M929.784,885.8a23.81,23.81,0,0,0,1.174,8.721c2.514,7.21-2.99,19.615-12.62,18.79l.034,6.568h-.151c4.264,5.007-.994,16.889-5.833,16.927-4.175.031-11.819-8.978-12.353-16.927V906.413a3.789,3.789,0,0,1-1.462-.643c-.967-.59-5.835-5.4-5.443-7.647S898,895.617,898,895.617l1.034-.91c-2.706-6.657-4.762-6.776,2.209-10.476s21.033-3.421,21.033-3.421l7.277,2.182Z" transform="translate(-191.951 -394.745)"/><path class="y" d="M946.319,982.212l.034,6.487a24.705,24.705,0,0,1-6.663-2.095,12.291,12.291,0,0,1-6.38-6.826,33.068,33.068,0,0,0,11.668,2.4Z" transform="translate(-219.932 -463.631)"/><path class="z" d="M1123.861,1228.766s9.953-.095,13.174,1.125a9.556,9.556,0,0,1,4.382,2.9l3.289.823s.622,2.466,0,2.466-18.092,1.645-18.092,1.645l-3.723-.48s1.221-5.573.827-6.659-2.263-2.307-2.263-2.307Z" transform="translate(-350.881 -636.588)"/><path class="r" d="M825.2,1056.474c-3.425-7.6-11.421-16.428-15.151-8.966h0c-4.413,4.413-5.342,5.024-5.448,10.884-.323,18.127,6.555,63.773,26.407,68.9,10.644,2.746,28.786,5.1,40.731,4.69,4.824-.165,10.142,1.711,12.034.292,6.578-4.933-.8-10.51-.8-10.51s-41.3-12.273-45.507-13.554c-6.965-2.124-9.859-46.4-12.261-51.731" transform="translate(-130.339 -508.802)"/><path class="aa" d="M1064.735,1275.25a15.729,15.729,0,0,0-2.5,6.594,11.9,11.9,0,0,0,.4,5.748c9.968.8,29.987.048,29.948.042-.673-.1.932-1.537-1.213-2.64-1.542-.794-6.623-1.049-8.409-2.236-7.928-5.269-13.261-4.236-18.227-7.508" transform="translate(-309.572 -669.278)"/><path class="ab" d="M1047.795,1161.68h71.542c2.759,0,5.625,2.325,5.017,5.016l-10.691,47.284c-.608,2.691-2.258,5.017-5.016,5.017H1037.1c-2.759,0-5.625-2.326-5.017-5.017l10.691-47.284c.608-2.692,2.257-5.016,5.017-5.016" transform="translate(-288.623 -590.234)"/><path class="ac" d="M1058.343,1161.68h71.543c2.759,0,5.625,2.325,5.017,5.016l-10.691,47.284c-.608,2.691-2.258,5.017-5.016,5.017h-71.543c-2.759,0-5.625-2.326-5.017-5.017l10.691-47.284c.609-2.692,2.257-5.016,5.016-5.016" transform="translate(-295.965 -590.234)"/><path class="x" d="M1186.48,1240.117c2.162.695,3.239,3.362,2.4,5.956s-3.263,4.134-5.425,3.439-3.239-3.362-2.4-5.955,3.262-4.134,5.425-3.439" transform="translate(-392.166 -644.71)"/><path class="ab" d="M889.546,1331.842h42.2l4.006,5.589h-49v-2.8a2.8,2.8,0,0,1,2.794-2.793" transform="translate(-187.528 -708.666)"/><path class="e" d="M883.464,838.154c-2.048,3.857-1.157,10.708-.183,12.744,1.395,2.914.366,4.079-.85,3.664-2.7-.922-3.509-2.1-5.53-3.069-.475-.227-1.446-.4-1.774-.043-1.344,1.483,1.605,5.658,3.407,6.774-8.817,1.042-20.383-13.941-13.116-23.148-4.14-28.724,34.381-28.336,48.667-12.063,2.465,2.807,2.81,8.6,1.322,10.861-6.773,10.295-24.067-.357-30.3,2.69a3.611,3.611,0,0,0-1.646,1.588" transform="translate(-171.084 -346.776)"/><path class="ad" d="M689.875,1350.223h505.9a2.44,2.44,0,1,1,0,4.879h-505.9a2.44,2.44,0,1,1,0-4.879" transform="translate(-48.803 -721.46)"/><path class="t" d="M1921.9,1046.353c-16.114,15.469-26.612,63.3-47.091,69.757,0,0-1.9,4.794-.917,9.092s2.891,5.92,2.891,5.92,17.231,1.569,31.7-1.462c8.141-1.7,9.343-12.423,12.429-13.667,8.575-3.454,13.119-38.138,13.119-38.138Z" transform="translate(-874.383 -509.966)"/><path class="ae" d="M1873.422,1166.323c-.005.911-.314.159.284,2.767a21.881,21.881,0,0,0,2.89,5.92s17.232,1.568,31.7-1.463c8.141-1.7,11.916-8.255,15-9.5,3.728-1.5,1.785-30.916,4.564-34.106l.406-1.813-5.926-18.721s-8.823,45.152-26.4,50.593-18.419,5.382-22.518,6.321" transform="translate(-874.19 -553.854)"/><path class="e" d="M2054.169,854.885c4.156,30.321-16.219,39.677,3.731,67.718,0,0,12.219-13.449,17.452-14.4s5.928-17.4,5.928-18.247-4.657-33.646-4.657-33.646Z" transform="translate(-996.443 -376.704)"/><g transform="translate(1046.539 526.326)"><path class="t" d="M2052.686,1013.257h31.076c15.624,0,29.866,10.81,32.45,25.828,5.157,28.756-5.009,73.957-5.267,76.606h-81.353l-.361-46,.982-46.376c4.82-5.39,14.728-10.061,22.472-10.061" transform="translate(-2029.232 -1013.257)"/></g><path class="q" d="M2103.138,1013.2c-5.058,14.1-11.681,4.651-18.127,0-1.251,0-3.292-.084-5.339.062-18.129,60.561-4.766,60.561-2.829,91.616l17.738,8.91c3.955-2.407,9.383-4.578,13.337-6.986.608-31.593-12.16-31.838,4.417-93.6Z" transform="translate(-1011.265 -486.876)"/><path class="r" d="M2077.59,891.131a23.551,23.551,0,0,1-1.16,8.621c-2.486,7.128,2.956,19.391,12.475,18.576l-.034,6.493h.148c-2.359,7.926,2.288,15.441,5.917,15.6,3.221.136,11.623-5,12.063-15.6l-.943-10.6c.47-.146,1.431-2.174,2.387-2.757s2.009-3.031,1.621-5.252a46.884,46.884,0,0,0-2.351-6.847c2.675-6.581,4.979-6.129-1.913-9.786s-20.792-3.383-20.792-3.383l-7.194,2.157Z" transform="translate(-1015.125 -398.495)"/><path class="af" d="M2118.763,986.439l-.034,6.414a24.433,24.433,0,0,0,6.587-2.071,12.153,12.153,0,0,0,6.306-6.748,32.684,32.684,0,0,1-11.534,2.374Z" transform="translate(-1044.983 -466.591)"/><path class="z" d="M1919.524,1230.17s-9.84-.093-13.024,1.112a9.444,9.444,0,0,0-4.332,2.867l-3.252.813s-.614,2.439,0,2.439,17.885,1.626,17.885,1.626l3.68-.474s-1.207-5.509-.818-6.582,2.237-2.28,2.237-2.28Z" transform="translate(-891.804 -637.569)"/><path class="ag" d="M2097.8,1056.822c3.386-7.518,13.469-11.6,19.3-5.77h0c4.362,4.362,5.281,4.967,5.386,10.759.319,17.92-7.005,68.388-27.048,71.405-10.993,1.655-28.927,3.412-40.735,3.006-4.768-.163-8.612.023-10.481-1.38-6.5-4.877,2.785-12.3,2.785-12.3s35.539-12.758,39.7-14.025c6.885-2.1,8.723-46.427,11.1-51.7" transform="translate(-991.52 -511.311)"/><path class="ah" d="M2126.255,1072.639c10.919,15.945-6.019,74.761-25.526,77.529-11.006,1.562-28.927,3.41-40.735,3.005-4.768-.163-8.611.023-10.481-1.379,0,0,35.1-4.494,51.769-9.3,15.04-4.34,25.479-52.279,24.973-69.852" transform="translate(-996.81 -528.261)"/><path class="aa" d="M1962.231,1276.121a15.56,15.56,0,0,1,2.466,6.519,11.752,11.752,0,0,1-.393,5.682c-9.854.792-29.643.047-29.605.042.666-.1-.921-1.521,1.2-2.61,1.525-.785,6.548-1.037,8.313-2.211,7.837-5.209,13.109-4.187,18.019-7.423" transform="translate(-916.898 -669.884)"/><path class="ai" d="M1838.772,1163.851h-70.724c-2.728,0-5.56,2.3-4.959,4.959l10.568,46.743c.6,2.66,2.232,4.959,4.959,4.959h70.723c2.728,0,5.561-2.3,4.96-4.959l-10.569-46.743c-.6-2.661-2.232-4.959-4.959-4.959" transform="translate(-797.402 -591.745)"/><path class="q" d="M1828.344,1163.851H1757.62c-2.728,0-5.56,2.3-4.959,4.959l10.568,46.743c.6,2.66,2.232,4.959,4.959,4.959h70.723c2.728,0,5.561-2.3,4.959-4.959L1833.3,1168.81c-.6-2.661-2.231-4.959-4.959-4.959" transform="translate(-790.143 -591.745)"/><path class="u" d="M1891.872,1241.39c-2.137.687-3.2,3.323-2.377,5.888s3.225,4.087,5.363,3.4,3.2-3.323,2.377-5.888-3.226-4.087-5.363-3.4" transform="translate(-885.242 -645.597)"/><path class="ai" d="M2091.467,1335h-35.913v4.632h38.229v-2.316a2.322,2.322,0,0,0-2.315-2.316" transform="translate(-1001.013 -710.866)"/><path class="aj" d="M1190.251,1290.7h27.8a9.047,9.047,0,1,1,0,18.095h-27.8a9.047,9.047,0,0,1,0-18.095" transform="translate(-392.466 -680.033)"/><path class="k" d="M1281.94,1312.093h62.828c-4.066-1.305-6.1-9.24,0-12.667h-62.828c-2.27,0-4.133,2.854-4.133,6.333s1.862,6.334,4.134,6.334" transform="translate(-459.701 -686.105)"/><path class="ak" d="M1340.425,1308.512h-65.174c-3.271,0-6.729-4.154-6.729-9.164s3.458-9.055,6.729-9.055h65.174l-.031,2.73-64.917.047c-2.27,0-4.133,2.854-4.133,6.333s1.862,6.334,4.133,6.334l64.917-.047Z" transform="translate(-453.24 -679.748)"/><path class="al" d="M1322.847,1320.877h7.355c2.822,1.069,2.007,5.305,3.682,8.08l-4.345-2.291-3.152,2.145c-2.443-2.516-1.046-6.809-3.541-7.934" transform="translate(-491.05 -701.035)"/><path class="aj" d="M1424.186,1254.8h-26.895a5.592,5.592,0,0,0-5.575,5.576h0a5.592,5.592,0,0,0,5.575,5.576h26.895a5.592,5.592,0,0,0,5.576-5.576h0a5.592,5.592,0,0,0-5.576-5.576" transform="translate(-538.982 -655.042)"/><path class="k" d="M1306.257,1267.976h-52.086c2.033-.835,3.668-4.939,0-7.807h52.087a3.937,3.937,0,0,1,0,7.807" transform="translate(-443.251 -658.782)"/><path class="ak" d="M1248.391,1265.77h54.033a5.889,5.889,0,0,0,5.577-5.648,5.827,5.827,0,0,0-5.577-5.581h-54.033l.026,1.682,53.819.029a3.937,3.937,0,0,1,0,7.807l-53.819-.029Z" transform="translate(-439.228 -654.865)"/><path class="am" d="M1700.538,1260.943c0,14.928-2.033,27.142-4.518,27.142h-15.472c-2.485,0-4.518-12.214-4.518-27.142Z" transform="translate(-736.865 -659.321)"/><path class="an" d="M1700.429,1267.082c-.455,12.09-2.262,21.19-4.407,21.19H1680.55c-2.469,0-4.491-12.056-4.517-26.852l.14-.208s2.525,16.75,6.8,19.353,7.812,2.046,12.369-4.836c1.947-2.94,3.707-6.049,5.084-8.647" transform="translate(-736.867 -659.508)"/><path class="ao" d="M1695.511,1178.127c.923-11.561,7.148-35.634,17.13-36.173,8.693,6.336-1,28.385-3.849,36.173Z" transform="translate(-750.423 -576.504)"/><rect class="ap" width="31.429" height="0.434" transform="matrix(0.258, -0.966, 0.966, 0.258, 951.519, 601.566)"/><path class="ap" d="M1707.289,1226.466l3.73,2.357,1.6-6,4.307-2.349.207.381-4.142,2.259-1.708,6.394-4.228-2.671Z" transform="translate(-758.46 -631.151)"/><path class="ap" d="M1716.076,1193.67l3.73,2.356,1.6-6,4.307-2.349.207.38-4.142,2.259-1.708,6.395-4.228-2.672Z" transform="translate(-764.576 -608.325)"/><path class="ap" d="M1721.539,1173.282l3.73,2.357,1.6-6,4.308-2.349.207.38-4.143,2.259-1.707,6.394-4.229-2.672Z" transform="translate(-768.378 -594.135)"/><path class="ao" d="M1686,1206.9c-.6-7.478-4.625-23.05-11.081-23.4-5.624,4.1.648,18.362,2.49,23.4Z" transform="translate(-734.5 -605.424)"/><rect class="ap" width="0.281" height="20.332" transform="translate(941.828 581.874) rotate(-14.95)"/><path class="ap" d="M1694.073,1238.176l-2.413,1.525-1.037-3.885-2.787-1.519-.134.247,2.681,1.46,1.1,4.137,2.736-1.728Z" transform="translate(-744.989 -640.775)"/><path class="ap" d="M1688.389,1216.961l-2.413,1.525-1.037-3.884-2.786-1.519-.134.246,2.68,1.461,1.1,4.137,2.736-1.728Z" transform="translate(-741.034 -626.009)"/><path class="ap" d="M1684.855,1203.772l-2.413,1.525-1.037-3.884-2.787-1.519-.134.246,2.68,1.461,1.1,4.136,2.735-1.728Z" transform="translate(-738.573 -616.83)"/><rect class="d" width="24.36" height="1.413" transform="translate(939.307 601.704)"/><path class="aq" d="M827.01,1047.666c-3.208-7.123-12.12-11.319-18.352-7.628a13.282,13.282,0,0,0-5.715,7.4c-4.426,16.329,5.819,55.5,9.778,65.31a48.544,48.544,0,0,1,22.537-11.58c-4-13.88-6.31-49.2-8.248-53.5" transform="translate(-128.439 -504.619)"/><path class="ar" d="M801.312,1064.652c-7.208,15.909,4.139,53.109,9.41,66.175a56.664,56.664,0,0,1,5.735-4.477c-7.683-16.849-14.63-48.071-15.145-61.7" transform="translate(-126.441 -522.702)"/><path class="j" d="M907.413,1244.24a2.646,2.646,0,0,1-.565,1.322c-.417.343-.643.508-.643.508l-.679-1.386Z" transform="translate(-200.594 -647.695)"/><path class="q" d="M918.854,1038.791a1.524,1.524,0,1,0,1.356,1.515,1.442,1.442,0,0,0-1.356-1.515m0-8.788a1.524,1.524,0,1,0,1.356,1.515A1.442,1.442,0,0,0,918.854,1030Zm5.1-22.8c2.724,7.716-1.783,13.493-5.985,16.11-6.514-4.725-12.372-9.33-12.372-18.217,0,0-2.248-.046-3.706,3.939-2.407,6.454,1.627,20.95,1.627,20.95s4.526-6.542,8.289-6.9a12.018,12.018,0,0,1,6.2.918c4.813-3.946,8.093,1.167,11.314,4.916,1.015-9.561,1.021-16.274-5.381-23.67A14.805,14.805,0,0,0,923.95,1007.2Z" transform="translate(-197.529 -481.252)"/><rect class="as" width="14.485" height="3.518" transform="translate(735.61 567.119)"/><path class="at" d="M1523.084,1177.974a2.8,2.8,0,1,1-2.8,2.8,2.8,2.8,0,0,1,2.8-2.8" transform="translate(-628.465 -601.574)"/><path class="au" d="M1557.2,1177.974a2.8,2.8,0,1,1-2.8,2.8,2.8,2.8,0,0,1,2.8-2.8" transform="translate(-652.208 -601.574)"/><path class="au" d="M1591.309,1177.974a2.8,2.8,0,1,1-2.8,2.8,2.8,2.8,0,0,1,2.8-2.8" transform="translate(-675.95 -601.574)"/><path class="av" d="M2083.769,630.207h29.362a.43.43,0,0,1,.429.429v1.25a.43.43,0,0,1-.429.429h-29.362a.43.43,0,0,1-.429-.429v-1.25a.43.43,0,0,1,.429-.429" transform="translate(-1020.353 -220.328)"/><path class="aw" d="M2083.769,662.57h66.608a.43.43,0,0,1,.429.429v1.251a.43.43,0,0,1-.429.429h-66.608a.43.43,0,0,1-.429-.429V663a.43.43,0,0,1,.429-.429" transform="translate(-1020.353 -242.853)"/><path class="aw" d="M2083.769,694.935h66.608a.43.43,0,0,1,.429.429v1.25a.43.43,0,0,1-.429.43h-66.608a.43.43,0,0,1-.429-.43v-1.25a.43.43,0,0,1,.429-.429" transform="translate(-1020.353 -265.379)"/><path class="aw" d="M2083.769,727.3h66.608a.43.43,0,0,1,.429.43v1.25a.429.429,0,0,1-.429.429h-66.608a.429.429,0,0,1-.429-.429v-1.25a.43.43,0,0,1,.429-.43" transform="translate(-1020.353 -287.904)"/><path class="aw" d="M2083.769,759.665h66.608a.43.43,0,0,1,.429.429v1.251a.43.43,0,0,1-.429.429h-66.608a.43.43,0,0,1-.429-.429v-1.251a.43.43,0,0,1,.429-.429" transform="translate(-1020.353 -310.431)"/><path class="p" d="M1600.449,944.119H1666.3a1.7,1.7,0,0,1,1.693,1.694h0a1.7,1.7,0,0,1-1.693,1.693h-65.851a1.7,1.7,0,0,1-1.693-1.693h0a1.7,1.7,0,0,1,1.693-1.694" transform="translate(-683.082 -438.811)"/><path class="e" d="M2073.839,835.3s-16.548,4.332-25.872-1.318c-6.116-4.241-6.807-12.829,2.156-19.162,11.546-8.158,33.694-5.755,42.192,7.247,2.965,4.538,5.929,12.425,9.449,20.464,8.183,18.691,30.093,7.015,36.345,38.383.289,1.45-4.922-1.822-9.533-3a18.707,18.707,0,0,1-2.591,19.368c-4.976-22.716-25.679-23.6-41.573-25.421-2.358-2.182-2.684-8.324-2.7-11.391,0,0,4.786-3.367,4.551-7.276s-1.338-3.808-1.785-3.713a30.262,30.262,0,0,0-3.006,1.582c-.907-5.077-.7-15.2-7.629-15.759" transform="translate(-992.538 -345.531)"/><path class="q" d="M2167.609,961.778a1.817,1.817,0,1,1-1.817,1.817,1.817,1.817,0,0,1,1.817-1.817" transform="translate(-1077.739 -451.102)"/><path class="ax" d="M1848.763,414.619h0a1.282,1.282,0,0,1,1.278,1.278v11.173a1.282,1.282,0,0,1-1.278,1.277h0a1.281,1.281,0,0,1-1.278-1.277V415.9a1.281,1.281,0,0,1,1.278-1.278" transform="translate(-856.197 -70.279)"/><path class="ax" d="M1842.837,434.272h0a1.282,1.282,0,0,1-1.278,1.278h-11.172a1.282,1.282,0,0,1-1.278-1.278h0a1.282,1.282,0,0,1,1.278-1.278h11.172a1.281,1.281,0,0,1,1.278,1.278" transform="translate(-843.407 -83.068)"/><path class="ax" d="M1372.188,456.163h0a1.042,1.042,0,0,1,1.039,1.039v9.088a1.042,1.042,0,0,1-1.039,1.039h0a1.042,1.042,0,0,1-1.039-1.039V457.2a1.042,1.042,0,0,1,1.039-1.039" transform="translate(-524.668 -99.194)"/><path class="ax" d="M1367.369,472.147h0a1.043,1.043,0,0,1-1.04,1.039h-9.088a1.042,1.042,0,0,1-1.039-1.039h0a1.042,1.042,0,0,1,1.039-1.04h9.088a1.043,1.043,0,0,1,1.04,1.04" transform="translate(-514.265 -109.595)"/><path class="ay" d="M1521.4,316.442a3.293,3.293,0,0,0-4.653,0l0,0a3.293,3.293,0,0,0,0,4.652v0a3.293,3.293,0,0,0,4.657-4.656Zm-2.326-2.8a5.111,5.111,0,0,1,3.624,1.5l0,0a5.122,5.122,0,1,1-7.244,7.243l0,0a5.12,5.12,0,0,1,0-7.244h0v0A5.111,5.111,0,0,1,1519.076,313.643Z" transform="translate(-624.058 0)"/><path class="ay" d="M1673.615,509.617a2.813,2.813,0,0,0-3.972,0l0,0a2.812,2.812,0,0,0,0,3.971v0a2.81,2.81,0,0,0,3.974-3.975Zm-1.986-2.388a4.363,4.363,0,0,1,3.093,1.281v0a4.372,4.372,0,1,1-6.183,6.183v0a4.369,4.369,0,0,1,0-6.183v0A4.363,4.363,0,0,1,1671.629,507.229Z" transform="translate(-730.758 -134.736)"/><path class="ay" d="M2047.407,443.372a2.812,2.812,0,0,0-3.972,0l0,0a2.812,2.812,0,0,0,0,3.972v0a2.811,2.811,0,0,0,3.975-3.975Zm-1.986-2.389a4.358,4.358,0,0,1,3.093,1.282h0a4.372,4.372,0,1,1-6.183,6.183v0a4.369,4.369,0,0,1,0-6.183v0h0A4.362,4.362,0,0,1,2045.421,440.983Z" transform="translate(-990.916 -88.629)"/><path class="ay" d="M1193.008,429.671a2.813,2.813,0,0,0-3.971,0l0,0a2.812,2.812,0,0,0,0,3.971v0a2.81,2.81,0,0,0,3.974-3.974Zm-1.986-2.389a4.362,4.362,0,0,1,3.093,1.281v0a4.372,4.372,0,1,1-6.183,6.183l0,0a4.37,4.37,0,0,1,0-6.183h0v0A4.362,4.362,0,0,1,1191.022,427.282Z" transform="translate(-396.255 -79.093)"/><path class="ax" d="M2175.63,533.466h0a.91.91,0,0,1,.907.908v7.937a.909.909,0,0,1-.907.907h0a.91.91,0,0,1-.908-.907v-7.937a.91.91,0,0,1,.908-.908" transform="translate(-1083.954 -152.997)"/><path class="ax" d="M2171.419,547.428h0a.911.911,0,0,1-.907.908h-7.937a.911.911,0,0,1-.908-.908h0a.911.911,0,0,1,.908-.908h7.937a.91.91,0,0,1,.907.908" transform="translate(-1074.868 -162.082)"/><path class="ax" d="M1116.589,531.216h0a.793.793,0,0,1,.791.79v6.909a.792.792,0,0,1-.791.789h0a.792.792,0,0,1-.79-.789v-6.909a.792.792,0,0,1,.79-.79" transform="translate(-346.944 -151.431)"/><path class="ax" d="M1112.925,543.369h0a.792.792,0,0,1-.79.79h-6.908a.793.793,0,0,1-.79-.79h0a.792.792,0,0,1,.79-.79h6.908a.792.792,0,0,1,.79.79" transform="translate(-339.036 -159.339)"/></g><circle class="d" cx="31" cy="31" r="31" transform="translate(677 110)"/></g></svg>