<svg xmlns="http://www.w3.org/2000/svg" xmlns:xlink="http://www.w3.org/1999/xlink" width="480.412" height="352.633" viewBox="0 0 480.412 352.633"><defs><style>.a,.b,.d,.g,.h,.q,.t,.u,.x,.y{fill:none;}.b,.d,.f,.g,.h,.l,.n,.o,.q,.r,.u,.w,.z{stroke:#000;}.b,.g,.i,.k,.l,.s,.t,.u,.w,.x,.y,.z{stroke-miterlimit:10;}.b{stroke-dasharray:3;}.c,.f,.j,.l,.n,.r,.s{fill:#fff;}.e,.i{fill:#e60078;}.f,.h{stroke-linecap:round;}.f,.h,.j,.n,.o,.q{stroke-linejoin:round;}.i,.j,.k{stroke:#1a1818;}.k{fill:#e6e6e6;}.m{clip-path:url(#a);}.p{fill:#ffa850;}.t{stroke:#231f20;}.u{stroke-width:2px;}.v{fill:#141414;}.w{fill:#f7f6f6;}.x{stroke:#e60078;}.y{stroke:#090909;}.z{fill:#ebeaea;}.aa,.ab{stroke:none;}.ab{fill:#231f20;}</style><clipPath id="a"><rect class="a" width="207.764" height="173.623" rx="17.586" transform="translate(207.764 173.623) rotate(180)"/></clipPath></defs><g transform="translate(-670 -102.5)"><g transform="translate(-36 16)"><path class="b" d="M213.2,201.582A195.671,195.671,0,0,1,384.286,101c108.1,0,195.727,87.63,195.727,195.727A194.922,194.922,0,0,1,535.584,420.9" transform="translate(605.899 -14)"/><g transform="translate(1093.291 104.476)"><g transform="translate(0 0)"><circle class="c" cx="32.767" cy="32.767" r="32.767" transform="translate(0 0)"/><g class="d" transform="translate(3.495 0.874)"><circle class="aa" cx="32.767" cy="32.767" r="32.767"/><circle class="a" cx="32.767" cy="32.767" r="32.267"/></g></g><path class="e" d="M3237.346,592.983v28.436l22.343-14.218Z" transform="translate(-3204.005 -573.362)"/><path class="f" d="M3232.156,591.5v29.49l23.171-14.745Z" transform="translate(-3206.188 -573.985)"/></g><g transform="translate(1097.66 359.619)"><g transform="translate(0 0)"><circle class="c" cx="39.32" cy="39.32" r="39.32" transform="translate(0 0)"/><g class="d" transform="translate(4.369 0.874)"><circle class="aa" cx="39.32" cy="39.32" r="39.32"/><circle class="a" cx="39.32" cy="39.32" r="38.82"/></g></g><g transform="translate(23.971 13.342)"><path class="e" d="M3130.965-151.446l-.3,1.143.095,10.232s.344,9.514.208,10.55c.209,0,.259.1.259.1s4.026-.285,4.912-.52l.053-.515s-.191-5.276-.227-9.619c.139-4.343.157-10.182.267-10.985C3135.834-151.215,3135.308-151.653,3130.965-151.446Z" transform="translate(-3118.762 179.469)"/><path class="e" d="M3148.191-163.472l-.333,1.379.227,17.733.1,14.5,5.04-.211.415-1.474s-.311-14.2-.207-15.649c0-2.689-.2-15.867-.2-15.867s-.727-.564-3.105-.416A11.5,11.5,0,0,1,3148.191-163.472Z" transform="translate(-3118.591 179.35)"/><path class="c" d="M3145.149-155.951s-5.575-.384-5.889.325c.2,1,.241,13.336.241,13.336l.338,12.423,4.462.208.311-.813s-.187-22,.588-24.359A4.443,4.443,0,0,1,3145.149-155.951Z" transform="translate(-3118.676 179.424)"/><path class="c" d="M3127.226-129.47l-4.654.1-.416-6.618-.207-10.549h6l-.828,8.065Z" transform="translate(-3118.849 179.519)"/><g transform="translate(3 32.883)"><path class="g" d="M3122.771-146.533h4.757" transform="translate(-3121.841 146.636)"/><path class="g" d="M3121.849-146.635s.208,15.511.621,17.786" transform="translate(-3121.849 146.635)"/><path class="g" d="M3127.8-146.021a79.227,79.227,0,0,0-.62,16.752" transform="translate(-3121.798 146.641)"/><path class="g" d="M3121.849-129.431a14.714,14.714,0,0,1,5.585,0" transform="translate(-3121.849 146.803)"/></g><g transform="translate(11.686 28.033)"><path class="g" d="M3130.655-151.344a34.913,34.913,0,0,1,4.757,0" transform="translate(-3130.448 151.437)"/><path class="g" d="M3130.655-150.731s.415,18.821.207,21.3" transform="translate(-3130.448 151.444)"/><path class="g" d="M3136.186-151.345s-.621,19.234,0,21.095" transform="translate(-3130.396 151.437)"/><path class="g" d="M3130.45-129.634a35.428,35.428,0,0,0,5.584-.416" transform="translate(-3130.45 151.649)"/></g><g transform="translate(20.578 23.317)"><path class="g" d="M3139.255-156.055c0,1.034.416,25.024.622,26.678" transform="translate(-3139.255 156.107)"/><path class="g" d="M3145.2-155.44a208.959,208.959,0,0,0-.621,25.644" transform="translate(-3139.204 156.113)"/><path class="g" d="M3144.833-156.055s-4.343-.208-4.963.208" transform="translate(-3139.249 156.107)"/><path class="g" d="M3144.837-129.84s-3.928-.621-5.378-.208" transform="translate(-3139.253 156.364)"/></g><path class="g" d="M3152.406-163.425a32.249,32.249,0,0,0-4.55,0" transform="translate(-3118.591 179.35)"/><path class="g" d="M3153.181-163.426c0,1.034.415,31.848.415,32.469" transform="translate(-3118.539 179.351)"/><path class="g" d="M3147.856-162.607c0,2.481.414,31.021.414,32.468" transform="translate(-3118.591 179.359)"/><path class="g" d="M3153.646-130.458a48.352,48.352,0,0,1-5.791.208" transform="translate(-3118.591 179.678)"/><path class="h" d="M3151.348-178.887c-.621,2.688-1.654,14.269-15.717,20.267-5.377,2.067-12.41,4.757-16.752,6.2" transform="translate(-3118.879 179.197)"/><path class="h" d="M3147.856-176.3s1.448-.415,3.309-2.894c.208,1.24.416,2.894.416,2.894" transform="translate(-3118.591 179.194)"/></g></g><g transform="translate(780.478 128.941)"><g transform="translate(0 0)"><circle class="c" cx="36.699" cy="36.699" r="36.699" transform="translate(0 0)"/><g class="d" transform="translate(3.495 0.874)"><circle class="aa" cx="36.699" cy="36.699" r="36.699"/><circle class="a" cx="36.699" cy="36.699" r="36.199"/></g></g><g transform="translate(-898.55 -998.012)"><path class="i" d="M931.776,1018.4s3.6.277,5.5,2.293c1.146-.474,2.728-1.225,2.728-1.225s.593-.2.909.158,1.384,1.384,1.384,1.661a11.666,11.666,0,0,1-1.186,2.925,11.77,11.77,0,0,1,1.858,5.693c1.384.632,2.609,1.067,2.688,1.542a13.9,13.9,0,0,1-.474,3.44,16.269,16.269,0,0,1-2.767.316,8.986,8.986,0,0,1-3.2,4.982,9.3,9.3,0,0,1,1.067,2.649,6.875,6.875,0,0,1-2.253,1.621c-.356,0-1.226-.948-2.333-1.66a9.148,9.148,0,0,1-6.286,1.186,23.988,23.988,0,0,1-1.858,2.688,11.06,11.06,0,0,0-2.372-.633c-.079-.672.158-2.689-.238-3a10.552,10.552,0,0,1-5.772-5.179c-.474-.2-1.344-.118-3.2.4-.4-.2-1.107-3.2-1.9-3.716a14.031,14.031,0,0,0,2.767-1.977c-.237-1.621-.909-3.756,1.581-6.721-.949-1.225-2.451-1.621-2.372-2.1s1.542-2.728,2.056-2.846c.593.2,1.977.949,2.412,1.107a10.1,10.1,0,0,1,6.681-3.716,7.75,7.75,0,0,1,.751-2.728,4.609,4.609,0,0,1,2.926.039A10.976,10.976,0,0,1,931.776,1018.4Z" transform="translate(0 0)"/><path class="j" d="M938.359,1041.383a4.185,4.185,0,0,1,6.641-.237,5.142,5.142,0,0,1,0,6.563c-.79.988-3.993,1.7-6.483-.988C937.252,1045.455,936.857,1043.557,938.359,1041.383Z" transform="translate(-12.157 -12.66)"/><path class="k" d="M992.695,1054.85s2.253,1.582,2.451,3.558c.712.079,2.333.435,2.333.435a6.317,6.317,0,0,1,.118,1.7,6.334,6.334,0,0,0-1.7,1.186,8.023,8.023,0,0,1-1.661,4.9c.672,1.226,1.226,1.661,1.226,1.977a20.743,20.743,0,0,1-1.74,2.174c-.514-.238-1.7-1.186-2.1-1.3-.435.435-1.621,2.056-4.626,1.107-.356,1.384-.237,1.937-.593,2.1a6.5,6.5,0,0,1-2.293-.4,13.814,13.814,0,0,1-.079-2.016,6.151,6.151,0,0,1-4.191-3.005,8.126,8.126,0,0,1-1.976.356c-.079-.4-.988-1.581-.949-1.858a9.388,9.388,0,0,1,1.621-1.226s-.672-1.3-.158-4.388c-1.265-.87-1.858-1.147-1.9-1.5s.87-1.621.87-1.621a6.9,6.9,0,0,1,2.135-.119,9.572,9.572,0,0,1,2.965-2.728c0-1.107-.158-2.016.118-2.174a7.679,7.679,0,0,1,2.491-.791,6.128,6.128,0,0,1,.87,1.819,4.985,4.985,0,0,1,3.874.435c.712-.672,1.463-1.3,1.463-1.3a2.693,2.693,0,0,1,1.66.909C992.971,1053.467,992.615,1054.732,992.695,1054.85Z" transform="translate(-32.533 -18.695)"/><path class="j" d="M993.473,1068.436c-.356.672-.87,3.281,1.265,4.27,1.424.514,3.282.593,4.151-2.293.159-1.423.04-2.609-1.463-3.518A3.317,3.317,0,0,0,993.473,1068.436Z" transform="translate(-41.218 -26.785)"/></g></g></g><g transform="translate(844.02 164.733)"><g class="g" transform="translate(238.159 184.707) rotate(180)"><rect class="aa" width="238.159" height="156.824" rx="18"/><rect class="a" x="-0.5" y="-0.5" width="239.159" height="157.824" rx="18.5"/></g><g transform="translate(0.478 37.114)"><g transform="translate(8.052 0)"><path class="l" d="M4379.948,4244.353a3.512,3.512,0,1,1-3.513-3.546A3.53,3.53,0,0,1,4379.948,4244.353Z" transform="translate(-4372.924 -4240.806)"/><path class="l" d="M4392.534,4244.353a3.513,3.513,0,1,1-3.512-3.546A3.529,3.529,0,0,1,4392.534,4244.353Z" transform="translate(-4371.518 -4240.806)"/><path class="l" d="M4405.122,4244.353a3.512,3.512,0,1,1-3.511-3.546A3.529,3.529,0,0,1,4405.122,4244.353Z" transform="translate(-4370.114 -4240.806)"/></g><line class="l" x2="237.681" transform="translate(0 15.998)"/></g><g transform="translate(30.394 11.085)"><g class="m" transform="translate(0 0)"><g transform="translate(44.046 6.217)"><path class="c" d="M4538.574,4226.869s-.5,12.367-2.337,16.705a15.83,15.83,0,0,0,0,6.959l-.32,6.709,2.657,2.35,4.01.688v7.014l14.687,1.932-.843-17.3.843-15.777-13.76-6.654Z" transform="translate(-4415.939 -4220.973)"/><path class="n" d="M4505.777,4308.745s-9.979-6-13.017-8.284-9.112-8.353-10.632-8.353c-1.519.76-3.795,5.316-5.315,6.834,2.28,2.279,7.594,6.074,9.112,9.872s11.389,12.909,13.668,15.187" transform="translate(-4422.521 -4213.696)"/><path class="o" d="M4542.739,4226.869c1.519,1.518.759,2.277,9.872,2.277,3.038.76,4.556.76,4.556,9.112s-1.519,22.892,0,28.152" transform="translate(-4415.168 -4220.973)"/><path class="p" d="M4444.785,4351.464s34.93,6.075,41,6.835l1.518-1.521s6.074-5.315,6.074-9.113c.76-3.8,6.835-14.425,10.632-20.5,4.555-10.632,14.426-43.283,33.412-59.228,9.872-6.075,14.427-9.113,25.058-6.835s33.411,9.113,34.17,38.726c-.76,22.021-1.519,40.246-1.519,40.246v66.064s-20.5,3.8-48.6-2.279c-22.021-3.037-35.689-4.556-35.689-4.556s3.218-20.458,4.653-32.128c-11.539,14.665-22.873,11.284-30.092,12.006-13.667-3.037-44.8-17.465-44.8-17.465Z" transform="translate(-4426.56 -4217.239)"/><path class="q" d="M4532.489,4333.1s-6.075,9.872-15.187,23.539c-12.149,17.466-24.3,13.668-31.892,14.429-13.667-3.038-44.8-17.464-44.8-17.464l4.178-10.253s34.93,6.076,41,6.836" transform="translate(-4426.56 -4209.125)"/><path class="q" d="M4482.622,4356.779s6.074-5.315,6.074-9.113c.76-3.8,6.834-14.425,10.631-20.5,4.556-10.632,14.427-43.283,33.411-59.228,9.872-6.075,14.428-9.113,25.059-6.835s33.412,9.113,34.17,38.726c-.759,22.021-1.518,40.246-1.518,40.246v66.064a323.588,323.588,0,0,1-50-2.932c-22.02-3.038-34.289-3.9-34.289-3.9s4.7-25.656,5.007-32.572" transform="translate(-4421.875 -4217.239)"/><path class="o" d="M4543.671,4225.942c-.758-3.8-6.834-6.833-9.112-1.519-.76,2.279.76,4.557,6.835,6.834,3.037,3.038,6.832,4.557,5.315,15.947,1.517-3.038,4.556-3.8,5.315-1.518s-1.52,6.073-5.315,6.073c0,2.277-.759,5.316,3.8,5.316,3.039,0,7.016,1.66,6.924,3.109" transform="translate(-4416.1 -4221.565)"/><path class="n" d="M4542.573,4261.765v-4s-6.665,0-6.665-3.037a18.571,18.571,0,0,1,.758-5.316" transform="translate(-4415.93 -4218.458)"/><path class="n" d="M4538.65,4229.234s-1.071,14.835-4.108,17.873c2.278,1.519,1.519,6.074,4.556,6.074h3.8" transform="translate(-4416.084 -4220.709)"/><path class="q" d="M4539.323,4237.129a3.375,3.375,0,0,1,3.8,1.519" transform="translate(-4415.55 -4219.844)"/><circle class="g" cx="1.519" cy="1.519" r="1.519" transform="translate(123.773 19.564)"/><path class="q" d="M4522.629,4340.272s-9.112,9.871-10.632,28.093" transform="translate(-4418.598 -4208.325)"/><path class="f" d="M4482.1,4292.533s1.518-7.593,0-10.632c-.761.76-3.037,3.039-2.278,5.316-2.277-3.8-5.314-9.112-5.314-9.112l1.517,7.594-5.316-7.594,2.28,7.594-4.558-4.556,3.04,6.833-4.556-3.8s5.623,12.2,11.923,15.211C4480.042,4297.064,4482.1,4292.533,4482.1,4292.533Z" transform="translate(-4423.626 -4215.258)"/><path class="n" d="M4446.194,4342.549l-8.353-2.277-9.871,2.277v5.125" transform="translate(-4427.971 -4208.325)"/></g></g></g><g transform="translate(19.436 63.304)"><path class="e" d="M4399.573,4287.368v-21.089a21.114,21.114,0,1,0,20.609,16.642Z" transform="translate(-4378.485 -4262.579)"/><path class="r" d="M4420.4,4279.592a21.089,21.089,0,0,0-20.609-16.641v21.088Z" transform="translate(-4376.11 -4262.951)"/></g><line class="q" x2="75.295" transform="translate(17.442 121.608)"/><line class="q" x2="44.21" transform="translate(18.133 129.898)"/><line class="q" x2="27.631" transform="translate(18.133 138.187)"/><line class="q" x2="73.222" transform="translate(18.133 157.529)"/><g transform="translate(105.982)"><path class="l" d="M4465.834,4206h41a9.487,9.487,0,0,1,9.486,9.487v40.935l-9.644-8.853h-40.847a9.487,9.487,0,0,1-9.487-9.487v-22.595A9.487,9.487,0,0,1,4465.834,4206Z" transform="translate(-4456.347 -4206)"/><g transform="translate(10.677 17.412)"><path class="l" d="M4491.769,4225.789a4.125,4.125,0,1,0,4.124-4.124A4.123,4.123,0,0,0,4491.769,4225.789Z" transform="translate(-4463.074 -4221.665)"/><path class="l" d="M4478.86,4225.789a4.125,4.125,0,1,0,4.125-4.124A4.125,4.125,0,0,0,4478.86,4225.789Z" transform="translate(-4464.513 -4221.665)"/><path class="l" d="M4465.954,4225.789a4.124,4.124,0,1,0,4.123-4.124A4.123,4.123,0,0,0,4465.954,4225.789Z" transform="translate(-4465.954 -4221.665)"/></g></g></g><g transform="translate(670 266.26)"><path d="M0,0H269.212a0,0,0,0,1,0,0V.574a1,1,0,0,1-1,1H.92A.92.92,0,0,1,0,.654V0A0,0,0,0,1,0,0Z" transform="translate(0 161.537)"/><g transform="translate(167.087 118.015)"><g transform="translate(4.326)"><g class="s" transform="translate(-4456.199 -4434.615)"><path class="aa" d="M 4463.90185546875 4452.92529296875 C 4463.9013671875 4452.92529296875 4463.9013671875 4452.92529296875 4463.9013671875 4452.92529296875 C 4463.6484375 4452.92529296875 4463.38623046875 4452.912109375 4463.1220703125 4452.88623046875 C 4462.42333984375 4452.81689453125 4461.76953125 4452.6318359375 4461.17822265625 4452.3359375 C 4459.9619140625 4451.72607421875 4459.3046875 4450.66845703125 4459.41943359375 4449.50732421875 C 4459.44091796875 4449.29052734375 4459.48779296875 4449.08251953125 4459.55859375 4448.884765625 C 4459.23828125 4448.755859375 4458.931640625 4448.6044921875 4458.64208984375 4448.43212890625 C 4457.6650390625 4447.84716796875 4456.9306640625 4447.07275390625 4456.45751953125 4446.12939453125 C 4456.0537109375 4445.32373046875 4455.80810546875 4444.4462890625 4455.7275390625 4443.52099609375 C 4455.65380859375 4442.65185546875 4455.7216796875 4441.7353515625 4455.9296875 4440.79638671875 C 4456.4033203125 4438.6708984375 4457.515625 4436.95703125 4459.2353515625 4435.7021484375 C 4460.6826171875 4434.64892578125 4462.341796875 4434.115234375 4464.16796875 4434.115234375 C 4464.5283203125 4434.115234375 4464.89990234375 4434.13671875 4465.2724609375 4434.17822265625 C 4466.98583984375 4434.36083984375 4468.3857421875 4434.92529296875 4469.43017578125 4435.85498046875 C 4470.16796875 4436.51220703125 4470.658203125 4437.28125 4470.88720703125 4438.1416015625 C 4470.91552734375 4438.2353515625 4470.935546875 4438.38134765625 4470.93359375 4438.626953125 C 4470.9306640625 4438.95751953125 4470.88330078125 4439.35302734375 4470.79248046875 4439.8037109375 C 4470.474609375 4441.66845703125 4469.21484375 4448.7470703125 4468.91796875 4449.52783203125 C 4468.1357421875 4451.71875 4466.3544921875 4452.92529296875 4463.90185546875 4452.92529296875 Z"/><path class="ab" d="M 4464.16796875 4434.615234375 C 4462.44384765625 4434.615234375 4460.88818359375 4435.1181640625 4459.5302734375 4436.10595703125 C 4457.9130859375 4437.2861328125 4456.865234375 4438.8974609375 4456.41796875 4440.90478515625 C 4456.220703125 4441.794921875 4456.15625 4442.66162109375 4456.2255859375 4443.4775390625 C 4456.30078125 4444.341796875 4456.529296875 4445.1572265625 4456.904296875 4445.9052734375 C 4457.333984375 4446.76171875 4458.0048828125 4447.4677734375 4458.8974609375 4448.00244140625 C 4459.310546875 4448.248046875 4459.7646484375 4448.45068359375 4460.2587890625 4448.603515625 C 4460.0703125 4448.880859375 4459.9521484375 4449.20458984375 4459.9169921875 4449.556640625 C 4459.8720703125 4450.0107421875 4459.9267578125 4451.14892578125 4461.40234375 4451.888671875 C 4461.939453125 4452.15771484375 4462.53515625 4452.32568359375 4463.1708984375 4452.388671875 C 4463.42138671875 4452.4130859375 4463.6650390625 4452.42529296875 4463.9013671875 4452.42529296875 C 4466.138671875 4452.42529296875 4467.74462890625 4451.33544921875 4468.44921875 4449.353515625 C 4468.6767578125 4448.79345703125 4469.7958984375 4442.67822265625 4470.30078125 4439.7119140625 C 4470.5078125 4438.69140625 4470.412109375 4438.29052734375 4470.4091796875 4438.29052734375 C 4470.2119140625 4437.5322265625 4469.771484375 4436.82861328125 4469.09765625 4436.228515625 C 4468.1328125 4435.36962890625 4466.8251953125 4434.8466796875 4465.216796875 4434.67529296875 C 4464.86083984375 4434.63525390625 4464.5107421875 4434.615234375 4464.16796875 4434.615234375 M 4464.16748046875 4433.615234375 L 4464.16748046875 4434.615234375 L 4464.16748046875 4433.615234375 L 4464.16796875 4433.615234375 C 4464.5458984375 4433.615234375 4464.93505859375 4433.6376953125 4465.32470703125 4433.68115234375 C 4467.1455078125 4433.87548828125 4468.638671875 4434.4814453125 4469.7626953125 4435.4814453125 C 4470.57080078125 4436.201171875 4471.12890625 4437.08544921875 4471.376953125 4438.03857421875 L 4471.37451171875 4438.03955078125 C 4471.45654296875 4438.3505859375 4471.48486328125 4438.89794921875 4471.28369140625 4439.89599609375 C 4471.2099609375 4440.32373046875 4469.7705078125 4448.62109375 4469.39111328125 4449.6884765625 L 4469.3916015625 4449.6884765625 C 4468.546875 4452.0634765625 4466.5458984375 4453.42529296875 4463.9013671875 4453.42529296875 C 4463.63232421875 4453.42529296875 4463.35400390625 4453.41162109375 4463.0732421875 4453.3837890625 C 4462.31298828125 4453.30859375 4461.6005859375 4453.1064453125 4460.95458984375 4452.78271484375 C 4459.54541015625 4452.07666015625 4458.78564453125 4450.83349609375 4458.921875 4449.4580078125 C 4458.931640625 4449.361328125 4458.94580078125 4449.26513671875 4458.96435546875 4449.169921875 C 4458.765625 4449.07568359375 4458.57275390625 4448.97265625 4458.38623046875 4448.86181640625 C 4457.3251953125 4448.2265625 4456.52685546875 4447.3828125 4456.01025390625 4446.353515625 C 4455.578125 4445.4912109375 4455.3154296875 4444.552734375 4455.2294921875 4443.564453125 C 4455.15087890625 4442.6435546875 4455.22265625 4441.6767578125 4455.44189453125 4440.6884765625 C 4455.9423828125 4438.4404296875 4457.11962890625 4436.626953125 4458.94091796875 4435.29833984375 C 4460.4755859375 4434.18115234375 4462.23388671875 4433.615234375 4464.16748046875 4433.615234375 Z"/></g><path class="e" d="M4468.132,4439.021a1.53,1.53,0,0,1-1.778,1.372,1.667,1.667,0,0,1-.785-.277q-.344-.234-.247-.415a2.766,2.766,0,0,0,.186-.74,2.146,2.146,0,0,0-.057-.738,1.06,1.06,0,0,0-.441-.618,1.9,1.9,0,0,0-.934-.308,2.509,2.509,0,0,0-2.046.938,5.706,5.706,0,0,0-1.4,2.743,4.432,4.432,0,0,0,.192,2.905,2.369,2.369,0,0,0,2.069,1.336,2.622,2.622,0,0,0,.7-.027,3.489,3.489,0,0,0,.606-.156,2.972,2.972,0,0,1,.305-.1c.022-.105.1-.477.246-1.118s.245-1.111.308-1.413c.028-.072.067-.105.121-.1a7.737,7.737,0,0,1,1.2-.009,7.563,7.563,0,0,1,1.063.2.1.1,0,0,1,.069.118c0,.031-.067.322-.19.875s-.273,1.235-.45,2.052-.322,1.487-.438,2.006a4.382,4.382,0,0,1-1.107,2.252,2.6,2.6,0,0,1-2.156.6,1.979,1.979,0,0,1-.743-.216c-.224-.118-.323-.239-.3-.366s.149-.21.41-.285a1.424,1.424,0,0,0,.682-.437,5.577,5.577,0,0,0,.92-2.381l-.03-.019a4.843,4.843,0,0,1-1.152.366,4.047,4.047,0,0,1-1.19.089,4.282,4.282,0,0,1-3.461-1.928,5.544,5.544,0,0,1-.474-4.25,7.3,7.3,0,0,1,1.225-2.717,6.352,6.352,0,0,1,2.345-1.955,5.839,5.839,0,0,1,3.2-.577,4.664,4.664,0,0,1,2.789,1.087A2.17,2.17,0,0,1,4468.132,4439.021Z" transform="translate(-4455.904 -4434.394)"/></g><path class="t" d="M4455.373,4436.127s-8.229,10.6,3.734,15.508" transform="translate(-4452.613 -4434.303)"/></g><g transform="translate(5.9 0)"><path class="u" d="M4365.751,4381.48a7.8,7.8,0,1,0,7.8-7.734A7.763,7.763,0,0,0,4365.751,4381.48Z" transform="translate(-4309.341 -4329.154)"/><path class="c" d="M4373.233,4399.147c9.649,3.62,13.759,3.25,13.759,3.25,6.509,0,11.836-6.064,11.836-13.477v-15.178c0-7.412-5.328-13.476-11.836-13.476H4377.2c-6.51,0-11.835,6.064-11.835,13.476v15.178c0,.43.021.852.056,1.269-.107.447-.91-9.8-.168,1.391a60.366,60.366,0,0,1-1.478,18.885h-5.845s2.662,11.826,15.3,14.827a27.141,27.141,0,0,0,25.043-12.133,16.479,16.479,0,0,0-5.625-1.728s-4.944-2.216-4.12-11.76" transform="translate(-4296.619 -4331.933)"/><path class="g" d="M4395.6,4399.147c9.649,3.62,13.76,3.25,13.76,3.25,6.508,0,11.836-6.064,11.836-13.477v-15.178c0-7.412-5.328-13.476-11.836-13.476h-9.793c-6.51,0-11.835,6.064-11.835,13.476v15.178c0,.43.021.852.056,1.269-.106.447-.909-9.8-.168,1.391s-1.67,18.424-1.67,18.424-18.093-2.413-42.218,21.712c-10.856,10.856-18.095,22.918-24.125,32.568,6.031,6.032,13.269,15.682,44.631,14.476,13.27,0,32.569-2.413,32.569-2.413l17.264,8.807-2.425,6.536h-15.628a202.749,202.749,0,0,1-32.985,2.75H4329.4s-13.417,1.289-9.8-16.242c1.207-5.47,2.412-9.089,2.412-9.089" transform="translate(-4318.986 -4331.933)"/><g transform="translate(33.584)"><path d="M4381.194,4387.684,4383,4375.8s32.894,4.123,43.557-11.855-.542-22.3-5.964-21.4-11.762,8.675-11.762,8.675,5.047-6.868,0-7.953-10.622,4.157-13.527,9.579c0,0-21.682-2.021-29.011,11.1s-1.389,22.428,12.016,35.982l.9-7.581Z" transform="translate(-4343.467 -4335.608)"/><path d="M4346.828,4350.711a13.932,13.932,0,1,0,13.931-13.933A13.931,13.931,0,0,0,4346.828,4350.711Z" transform="translate(-4346.828 -4336.778)"/></g><g transform="translate(76.286 37.434)"><g transform="translate(8.122 7.126)"><path class="v" d="M4388.962,4375.72a2,2,0,1,0,2-2A2,2,0,0,0,4388.962,4375.72Z" transform="translate(-4388.962 -4373.72)"/><path class="v" d="M4399.815,4375.427a1.707,1.707,0,1,0,1.706-1.707A1.706,1.706,0,0,0,4399.815,4375.427Z" transform="translate(-4386.724 -4373.72)"/></g><path class="w" d="M4399.435,4382.064s-1,2.929-3.129,3.13-3.79-2.154-3.905-3.991Z" transform="translate(-4380.131 -4365.05)"/><path class="x" d="M4382.229,4375.742c0,4.308,3.125,7.8,6.979,7.8s6.981-3.492,6.981-7.8-3.125-7.8-6.981-7.8S4382.229,4371.431,4382.229,4375.742Z" transform="translate(-4382.229 -4367.786)"/><ellipse class="x" cx="5.747" cy="6.977" rx="5.747" ry="6.977" transform="translate(18.629)"/><path class="x" d="M4398.652,4375.4s-2.811-1.179-4.851.505" transform="translate(-4379.842 -4366.331)"/></g><g transform="translate(56.41 44.593)"><path class="c" d="M4365.751,4381.48a7.8,7.8,0,1,0,7.8-7.734A7.763,7.763,0,0,0,4365.751,4381.48Z" transform="translate(-4365.751 -4373.747)"/><path class="y" d="M4376.572,4381.81s.344-5.251-5.049-4.668" transform="translate(-4364.561 -4373.056)"/></g></g><path class="g" d="M4395.409,4395.073s-2.377,6.494,2.84,8.63c5.617.656,22.109,6.963,31.759,19.024" transform="translate(-4297.436 -4324.755)"/><path class="g" d="M4477.987,4412.509h-45.837s-7.238-1.207-8.444,8.443l-1.206,8.443" transform="translate(-4291.736 -4321.17)"/><line class="g" x2="5.375" transform="translate(191.492 91.29)"/><path class="g" d="M4496.055,4412.46h17.707s5.476.049,4.269,9.7c-1.205,8.443-9.649,51.868-9.649,51.868s-1.205,4.826-7.237,4.826h-80.766s-4.878,0-4.878-4.826c0-2.413,6.031-32.569,6.031-32.569" transform="translate(-4293.18 -4321.17)"/><path class="g" d="M4373.619,4401.45s-.142,12.124,16.745,10.917c3.618,0,11.475-.222,13.579-9.76" transform="translate(-4301.819 -4323.441)"/><path class="g" d="M4369.926,4401.716s1.8,15.228,18.436,15.022c11.555,0,14.75-2.816,22.327-12.367" transform="translate(-4302.58 -4323.386)"/><line class="g" x1="4.222" y2="28.347" transform="translate(51.151 118.479)"/><path class="g" d="M4406.146,4412.46s14.326,10.426,12.8,52.281" transform="translate(-4295.109 -4321.17)"/><rect class="z" width="104.944" height="3.619" rx="1.5" transform="translate(104.226 157.682)"/></g></g></svg>