<svg xmlns="http://www.w3.org/2000/svg" width="36" height="36" viewBox="0 0 36 36"><defs><style>.a{fill:#4d7efb;}</style></defs><path class="a" d="M33.375,0H2.625A2.628,2.628,0,0,0,0,2.625v3.75A2.628,2.628,0,0,0,2.625,9h30.75A2.628,2.628,0,0,0,36,6.375V2.625A2.628,2.628,0,0,0,33.375,0Z"/><path class="a" d="M2.625,32h3.75A2.628,2.628,0,0,0,9,29.375V10.625A2.628,2.628,0,0,0,6.375,8H2.625A2.628,2.628,0,0,0,0,10.625v18.75A2.628,2.628,0,0,0,2.625,32Z" transform="translate(0 4)"/><path class="a" d="M29.375,8H10.625A2.628,2.628,0,0,0,8,10.625v18.75A2.628,2.628,0,0,0,10.625,32h18.75A2.628,2.628,0,0,0,32,29.375V10.625A2.628,2.628,0,0,0,29.375,8Z" transform="translate(4 4)"/></svg>