<svg xmlns="http://www.w3.org/2000/svg" width="40.259" height="39.136" viewBox="0 0 40.259 39.136"><defs><style>.a{fill:#ebebeb;}.b{fill:#e30c78;}.c{fill:none;stroke:#000;stroke-miterlimit:10;}</style></defs><g transform="translate(-2936.379 -2914.421)"><g transform="translate(2936.5 2914.92)"><path class="a" d="M2954.756,2938l-1.081,23.784L2938,2963.4l.541-11.351L2938,2938Z" transform="translate(-2937.189 -2925.524)"/><path class="b" d="M2975.918,2915.541a19.176,19.176,0,0,0-.541,3.784v4.325l-21.622.54H2937V2915l12.416.54Z" transform="translate(-2936.73 -2914.957)"/><path class="c" d="M2937.345,2923.126V2915.8" transform="translate(-2936.888 -2915.326)"/><path class="c" d="M2937.05,2931.311s35.919.271,39.7-.811" transform="translate(-2936.752 -2922.079)"/><path class="c" d="M2938.817,2914.92s24.1,1.268,38.747.313" transform="translate(-2937.564 -2914.92)"/><path class="c" d="M3008.162,2924.694a22.665,22.665,0,0,1,0-8.6" transform="translate(-2969.231 -2915.461)"/><path class="c" d="M2937,2938s12.432.541,17.3,0" transform="translate(-2936.73 -2925.524)"/><path class="c" d="M2937.5,2936.5s1.622,18.919,0,25.946" transform="translate(-2936.959 -2924.835)"/><path class="c" d="M2936.5,2984.048a67.053,67.053,0,0,1,17.838-1.623" transform="translate(-2936.5 -2945.896)"/><path class="c" d="M2968.487,2936.5s-1.622,17.838-1.082,26.486" transform="translate(-2950.649 -2924.835)"/><path class="c" d="M2975.5,2944.041c3.784-1.081,15.135.541,17.837-.541" transform="translate(-2954.419 -2928.052)"/><path class="c" d="M2993.337,2952.84c-3.784-1.081-15.135.54-17.837-.541" transform="translate(-2954.419 -2932.095)"/><path class="c" d="M2975.5,2961.64c3.784-1.081,15.135.541,17.837-.54" transform="translate(-2954.419 -2936.138)"/><path class="c" d="M2993.337,2970.44c-3.784-1.081-15.135.541-17.837-.54" transform="translate(-2954.419 -2940.181)"/><path class="c" d="M2975.5,2979.24c3.784-1.081,15.135.54,17.837-.54" transform="translate(-2954.419 -2944.225)"/></g></g></svg>