<svg xmlns="http://www.w3.org/2000/svg" width="34.548" height="36" viewBox="0 0 34.548 36"><defs><style>.a{fill:#4d7efb;}</style></defs><g transform="translate(-9.8)"><path class="a" d="M31.178,31.459v1.052a1.668,1.668,0,0,1-1.415,1.652l-.259.956A1.189,1.189,0,0,1,28.356,36h-2.57a1.189,1.189,0,0,1-1.148-.881l-.252-.956A1.676,1.676,0,0,1,22.963,32.5V31.452a1.012,1.012,0,0,1,1.015-1.015h6.185A1.023,1.023,0,0,1,31.178,31.459Zm4.763-14.178a8.824,8.824,0,0,1-2.489,6.156,8.133,8.133,0,0,0-2.178,4.415,1.466,1.466,0,0,1-1.452,1.237h-5.5a1.452,1.452,0,0,1-1.444-1.23,8.223,8.223,0,0,0-2.193-4.43,8.868,8.868,0,1,1,15.259-6.148Zm-7.867-5.37a1,1,0,0,0-1-1,6.406,6.406,0,0,0-6.4,6.4,1,1,0,1,0,2,0,4.405,4.405,0,0,1,4.4-4.4A1,1,0,0,0,28.074,11.911Zm-1-6.407a1,1,0,0,0,1-1V1a1,1,0,1,0-2,0V4.5A1,1,0,0,0,27.074,5.5ZM15.3,17.274a1,1,0,0,0-1-1H10.8a1,1,0,0,0,0,2h3.5A1,1,0,0,0,15.3,17.274Zm28.044-1h-3.5a1,1,0,0,0,0,2h3.5a1,1,0,0,0,0-2ZM17.341,25.6l-2.481,2.481A1,1,0,0,0,16.267,29.5l2.481-2.481A1,1,0,0,0,17.341,25.6ZM36.1,9.244a1,1,0,0,0,.7-.289l2.481-2.481a1,1,0,0,0-1.415-1.415L35.393,7.541a1,1,0,0,0,0,1.415A1.016,1.016,0,0,0,36.1,9.244Zm-18.763-.3a1,1,0,1,0,1.407-1.415L16.267,5.052a1,1,0,0,0-1.415,1.415ZM36.807,25.6a1,1,0,0,0-1.415,1.415L37.874,29.5a1,1,0,1,0,1.407-1.415Z" transform="translate(0)"/></g></svg>