<svg xmlns="http://www.w3.org/2000/svg" width="33.156" height="41.526" viewBox="0 0 33.156 41.526"><defs><style>.a,.d{fill:none;}.a,.b{stroke:#231f20;stroke-miterlimit:10;}.a,.c{stroke-linecap:round;}.b{fill:#fff;}.c{fill:#e30c78;}.c,.d{stroke-linejoin:round;}.d{stroke:#000;}.e,.f{stroke:none;}</style></defs><g transform="translate(0.914 -7.392)"><path class="a" d="M3556.9,1652.2c1.007-3.789,7.7-3.227,7.062-5.233" transform="translate(-3532.253 -1633.542)"/><path class="a" d="M3526.236,1628.417a62.982,62.982,0,0,0,0,7.855" transform="translate(-3510.73 -1620.5)"/><path class="a" d="M3474.235,1646.923a21.981,21.981,0,0,1,7.613,5.344" transform="translate(-3474.499 -1633.334)"/><g transform="translate(6.788 20.854)"><path class="b" d="M3502.461,1695.042c-1.052-1.955-4.661-3.458-4.961-8.269,0-5.112,4.06-9.773,9.171-9.773s8.87,3.458,9.172,9.773c.3,4.51-4.812,7.217-5.054,8.513a12,12,0,0,0-3.817.959Z" transform="translate(-3497.5 -1677)"/><g class="c" transform="translate(-3503.094 -1718.958)"><path class="e" d="M 3515.4716796875 1746.521240234375 L 3514.9716796875 1746.521240234375 L 3510.46142578125 1746.521240234375 L 3510.365234375 1746.521240234375 L 3510.275634765625 1746.485473632812 C 3510.191162109375 1746.45166015625 3509.444580078125 1746.133178710938 3509.2421875 1745.364624023438 C 3509.131103515625 1744.943969726562 3509.20947265625 1744.498168945312 3509.474365234375 1744.034545898438 C 3507.53759765625 1742.595458984375 3505.968017578125 1741.032104492188 3505.89794921875 1740.9619140625 L 3505.54443359375 1740.608520507812 L 3505.89794921875 1740.2548828125 L 3506.11328125 1740.039306640625 L 3505.313720703125 1739.719360351562 L 3504.2802734375 1739.305786132812 L 3505.27587890625 1738.807861328125 L 3506.389404296875 1738.251098632812 L 3505.333251953125 1737.386962890625 L 3504.208984375 1736.467163085938 L 3505.661376953125 1736.500122070312 L 3518.892333984375 1736.800903320312 L 3520.061279296875 1736.827514648438 L 3519.234375 1737.654296875 L 3518.38525390625 1738.50341796875 L 3518.93408203125 1739.05224609375 L 3519.4248046875 1739.542846679688 L 3518.80419921875 1739.85302734375 L 3518.415771484375 1740.046997070312 L 3519.13818359375 1740.48046875 L 3519.987060546875 1740.989868164062 L 3519.0732421875 1741.370727539062 C 3517.69921875 1741.944091796875 3515.69873046875 1743.120239257812 3515.4716796875 1743.972534179688 L 3515.4716796875 1746.021240234375 L 3515.4716796875 1746.521240234375 Z"/><path class="f" d="M 3505.64990234375 1737 L 3507.3037109375 1738.35302734375 L 3505.49951171875 1739.255126953125 L 3507.0029296875 1739.856689453125 L 3506.25146484375 1740.6083984375 C 3506.25146484375 1740.6083984375 3508.0556640625 1742.41259765625 3510.16064453125 1743.916015625 C 3508.95751953125 1745.419677734375 3510.46142578125 1746.021240234375 3510.46142578125 1746.021240234375 L 3514.9716796875 1746.021240234375 L 3514.9716796875 1743.916015625 C 3515.2724609375 1742.41259765625 3518.880859375 1740.9091796875 3518.880859375 1740.9091796875 L 3517.37744140625 1740.007080078125 L 3518.58056640625 1739.40576171875 L 3517.67822265625 1738.50341796875 L 3518.880859375 1737.30078125 L 3505.64990234375 1737 M 3505.649658203125 1736 C 3505.657470703125 1736 3505.6650390625 1736.000122070312 3505.672607421875 1736.000244140625 L 3518.903564453125 1736.301025390625 C 3519.3037109375 1736.310180664062 3519.66015625 1736.557006835938 3519.80908203125 1736.928588867188 C 3519.9580078125 1737.300170898438 3519.87109375 1737.724853515625 3519.587890625 1738.007934570312 L 3519.092529296875 1738.50341796875 L 3519.28759765625 1738.698608398438 C 3519.514892578125 1738.926025390625 3519.619140625 1739.248657226562 3519.567626953125 1739.566040039062 C 3519.53955078125 1739.738647460938 3519.46728515625 1739.898315429688 3519.36083984375 1740.031005859375 L 3519.395263671875 1740.0517578125 C 3519.718994140625 1740.245849609375 3519.90576171875 1740.605590820312 3519.878173828125 1740.98193359375 C 3519.850830078125 1741.358276367188 3519.61376953125 1741.687133789062 3519.265380859375 1741.832275390625 C 3519.25732421875 1741.835571289062 3518.40234375 1742.19482421875 3517.53515625 1742.717407226562 C 3516.4736328125 1743.35693359375 3516.065185546875 1743.839477539062 3515.9716796875 1744.053833007812 L 3515.9716796875 1746.021240234375 C 3515.9716796875 1746.573486328125 3515.52392578125 1747.021240234375 3514.9716796875 1747.021240234375 L 3510.46142578125 1747.021240234375 C 3510.334228515625 1747.021240234375 3510.208251953125 1746.996948242188 3510.090087890625 1746.94970703125 C 3509.981689453125 1746.906372070312 3509.0234375 1746.497192382812 3508.758544921875 1745.492065429688 C 3508.673828125 1745.170654296875 3508.646240234375 1744.7236328125 3508.849853515625 1744.189697265625 C 3507.035888671875 1742.801513671875 3505.611572265625 1741.3828125 3505.54443359375 1741.315551757812 C 3505.258544921875 1741.029663085938 3505.181884765625 1740.61376953125 3505.314453125 1740.258178710938 L 3505.1279296875 1740.18359375 C 3504.762451171875 1740.037231445312 3504.5166015625 1739.690063476562 3504.50048828125 1739.296630859375 C 3504.484130859375 1738.903198242188 3504.7001953125 1738.536743164062 3505.05224609375 1738.360717773438 L 3505.475341796875 1738.149169921875 L 3505.0166015625 1737.77392578125 C 3504.686279296875 1737.503662109375 3504.56396484375 1737.053466796875 3504.7119140625 1736.653198242188 C 3504.857421875 1736.260009765625 3505.232177734375 1736 3505.649658203125 1736 Z"/></g><path class="d" d="M3517.5,1705.206a9.861,9.861,0,0,1,2.406,1.8c.3-1.5,1.5-3.909,3.909-4.511" transform="translate(-3511.486 -1694.832)"/></g></g></svg>