<svg xmlns="http://www.w3.org/2000/svg" width="41" height="32.714" viewBox="0 0 41 32.714"><defs><style>.a{fill:#fff;}.b{fill:none;stroke-linecap:round;stroke-linejoin:round;}.b,.c,.d{stroke:#000;}.c,.e{fill:#d1d1d1;}.c,.d{stroke-miterlimit:10;}.d{fill:#e60078;}</style></defs><g transform="translate(2292 -779)"><rect class="a" width="40" height="27.429" rx="4" transform="translate(-2291.5 783.786)"/><path class="b" d="M-2277.433,787h23.647a2.292,2.292,0,0,1,2.286,2.286v22.857a2.292,2.292,0,0,1-2.286,2.286h-35.428a2.293,2.293,0,0,1-2.286-2.286V789.286a2.292,2.292,0,0,1,2.286-2.286" transform="translate(0 -3.214)"/><g transform="translate(-2283.834 779.5)"><rect class="c" width="2.555" height="9.37" rx="1.278" transform="translate(0 0)"/><rect class="c" width="2.555" height="9.37" rx="1.278" transform="translate(22.147 0)"/></g><circle class="d" cx="2.087" cy="2.087" r="2.087" transform="translate(-2285.916 792.755)"/><circle class="e" cx="2.087" cy="2.087" r="2.087" transform="translate(-2285.916 800.946)"/><circle class="d" cx="2.087" cy="2.087" r="2.087" transform="translate(-2277.725 792.755)"/><circle class="e" cx="2.087" cy="2.087" r="2.087" transform="translate(-2277.725 800.946)"/><circle class="d" cx="2.087" cy="2.087" r="2.087" transform="translate(-2270.279 792.755)"/><circle class="e" cx="2.087" cy="2.087" r="2.087" transform="translate(-2270.279 800.946)"/><circle class="d" cx="2.087" cy="2.087" r="2.087" transform="translate(-2262.089 792.755)"/><circle class="e" cx="2.087" cy="2.087" r="2.087" transform="translate(-2262.089 800.946)"/></g></svg>