<svg xmlns="http://www.w3.org/2000/svg" width="37.444" height="36" viewBox="0 0 37.444 36"><defs><style>.a{fill:#3b3b3b;}.b{fill:#fff;}</style></defs><g transform="translate(-1393 -8294)"><path class="a" d="M29.767,36,7.3,35.346A7.485,7.485,0,0,1,.033,27.172L1.463,9.478a7.486,7.486,0,0,1,6.5-6.734L25.477.062a7.486,7.486,0,0,1,8.316,6.045l3.521,21.027A7.486,7.486,0,0,1,29.767,36Z" transform="translate(1430.444 8330) rotate(180)"/><path class="b" d="M2286.954,862.208h-2.247v-3.089h2.247v-1.826a5.007,5.007,0,0,1,.772-3.071,3.46,3.46,0,0,1,2.879-1h3.089v3.089h-2.141q-.807,0-1.018.281a1.7,1.7,0,0,0-.21.983v1.545h3.37l-.316,3.089h-3.054v8.987h-3.37Z" transform="translate(-877.478 7449.766)"/></g></svg>