<svg xmlns="http://www.w3.org/2000/svg" width="36.904" height="37" viewBox="0 0 36.904 37"><defs><style>.a{fill:#4d7efb;}.b{fill:none;stroke:#4d7efb;stroke-width:2px;}</style></defs><g transform="translate(1 1)"><rect class="a" width="17.658" height="17.658" rx="4" transform="translate(18.246 18.342)"/><rect class="b" width="17.658" height="17.658" rx="4"/><path class="a" d="M274.145,2.71h-4.384l1.08-1.08a.955.955,0,0,0-1.35-1.35l-2.7,2.709a.943.943,0,0,0-.278.675.977.977,0,0,0,.278.675L269.5,7.047a.956.956,0,0,0,.675.278.97.97,0,0,0,.675-.278.954.954,0,0,0,0-1.35l-1.08-1.08h4.384a5.168,5.168,0,0,1,5.163,5.163v3.2a.953.953,0,1,0,1.906,0V9.78A7.081,7.081,0,0,0,274.145,2.71Z" transform="translate(-245.343 0)"/><path class="a" d="M12.036,283.511a.955.955,0,0,0-1.35,1.35l1.08,1.08H7.381a5.168,5.168,0,0,1-5.163-5.163v-3.2a.953.953,0,0,0-1.906,0v3.2a7.075,7.075,0,0,0,7.069,7.069h4.384l-1.08,1.08a.953.953,0,0,0,.675,1.628.97.97,0,0,0,.675-.278l2.709-2.708a.954.954,0,0,0,0-1.35Z" transform="translate(-0.287 -254.653)"/></g></svg>