<svg xmlns="http://www.w3.org/2000/svg" width="40.823" height="41" viewBox="0 0 40.823 41"><defs><style>.a{fill:#d1d1d1;}.a,.b,.c{stroke:#000;}.a,.b{stroke-miterlimit:10;}.b{fill:#e60078;}.c{fill:none;stroke-linecap:round;stroke-linejoin:round;}</style></defs><g transform="translate(-161.269 -293.5)"><rect class="a" width="19.424" height="19.424" rx="4" transform="translate(161.769 294)"/><rect class="b" width="19.424" height="19.424" rx="4" transform="translate(182.168 314.577)"/><g transform="translate(185.224 294.73)"><path class="c" d="M326.077,322.923h8.293a7.14,7.14,0,0,1,7.14,7.14v4.006" transform="translate(-325.851 -319.484)"/><path class="c" d="M327.95,305.941l-3.439-3.439,3.439-3.439" transform="translate(-324.511 -299.063)"/></g><g transform="translate(162.32 319.009)"><path class="c" d="M181.02,478.671h-8.293a7.14,7.14,0,0,1-7.14-7.14v-4.006" transform="translate(-165.588 -467.525)"/><path class="c" d="M250.371,521l3.439,3.439-3.439,3.439" transform="translate(-238.152 -513.291)"/></g></g></svg>