<svg xmlns="http://www.w3.org/2000/svg" width="40" height="37.332" viewBox="0 0 40 37.332"><defs><style>.a{fill:#e30c78;}</style></defs><g transform="translate(-101.455 -14.866)"><path class="a" d="M289,122.109l5-7.219.786,4.789,2.5.286-5.432,8.077-.214-5.218Z" transform="translate(-172.453 -91.074)"/><g transform="translate(101.455 14.866)"><g transform="translate(0 0)"><path d="M140.787,28.2a4,4,0,0,0-3.437-3.952,8.714,8.714,0,0,0-8.563-7.381c-.17,0-.349.02-.523.03a3.988,3.988,0,0,0-6.421-.729,6.972,6.972,0,0,0-4.056-1.3,7.046,7.046,0,0,0-5.695,2.945,4.99,4.99,0,0,0-6.633,4.619,3.922,3.922,0,0,0-2.539,4.733,8.229,8.229,0,0,0-1.467,4.7,8.325,8.325,0,0,0,10.6,8.015,6.315,6.315,0,0,0,10.209,1.785,9.885,9.885,0,0,0,2.537.5c.123,2.493,1.082,3.988,5.106,5.329a4.737,4.737,0,0,1,3.493,3.615,1.343,1.343,0,0,0,1.324,1.084h2.034a1.333,1.333,0,0,0,1.333-1.411c-.1-1.6-.543-5.3-2.474-7.656a8.63,8.63,0,0,0,4.313-5.825,6.306,6.306,0,0,0,.521-7.518,4.021,4.021,0,0,0,.333-1.589Zm-1.951,8.341-.015.016a5.024,5.024,0,0,1-3.7,1.643,4.876,4.876,0,0,1-2.267-.55,4.748,4.748,0,0,1-.889-.594,3.326,3.326,0,0,0,.472-3.681.667.667,0,0,0-1.192.6,1.972,1.972,0,0,1,.209.891,2,2,0,0,1-3.79.894.667.667,0,0,0-1.192.6,3.315,3.315,0,0,0,4.389,1.523,6.063,6.063,0,0,0,1.386.958,6.252,6.252,0,0,0,5.758-.015,7.276,7.276,0,0,1-5.342,3.937.667.667,0,0,0,.1,1.325.642.642,0,0,0,.107-.009,8.516,8.516,0,0,0,1.471-.378c1.893,1.99,2.321,5.641,2.415,7.167h-2.047a6.093,6.093,0,0,0-4.382-4.634c-3.438-1.146-4.1-2.187-4.195-4.061h.036a9.938,9.938,0,0,0,2.223-.411A.667.667,0,0,0,128,40.487a8.6,8.6,0,0,1-1.938.356,8.4,8.4,0,0,1-3.744-.564.674.674,0,0,0-.747.185,5,5,0,0,1-8.509-1.632v0a4.97,4.97,0,0,1,.435-4.2.667.667,0,1,0-1.143-.687,6.3,6.3,0,0,0-.674,1.576,1.971,1.971,0,0,1-2.23-1.985v-.027a.655.655,0,0,0-.667-.653.679.679,0,0,0-.667.68,3.337,3.337,0,0,0,3.333,3.333h.023c-.006.112-.023.223-.023.333a6.3,6.3,0,0,0,.167,1.423,7,7,0,0,1-8.834-6.757A6.919,6.919,0,0,1,103.6,28.6a3.988,3.988,0,0,0,1.129,1.032.667.667,0,0,0,.686-1.143,2.667,2.667,0,0,1,1.371-4.955,2.639,2.639,0,0,1,2.133,1.072.667.667,0,1,0,1.067-.8A3.959,3.959,0,0,0,106.8,22.2a3.671,3.671,0,0,1,3.65-3.333,3.631,3.631,0,0,1,.953.133,7.016,7.016,0,0,0-.393,1.086.667.667,0,1,0,1.291.337,5.644,5.644,0,0,1,.6-1.447,5.715,5.715,0,0,1,4.883-2.777,5.645,5.645,0,0,1,3.329,1.083,3.972,3.972,0,0,0-.329,1.583.667.667,0,1,0,1.333,0,2.667,2.667,0,0,1,5.333,0,.667.667,0,1,0,1.333,0,3.963,3.963,0,0,0-.06-.667h.06a7.378,7.378,0,0,1,7.224,6.082,3.965,3.965,0,0,0-1.625.717.667.667,0,0,0,.8,1.067,2.667,2.667,0,0,1,3.922,3.446,2.7,2.7,0,0,1-1.2,1.1.667.667,0,0,0,.565,1.208,4.016,4.016,0,0,0,1.133-.808,4.972,4.972,0,0,1-.775,5.525Z" transform="translate(-101.455 -14.866)"/><path d="M280.6,96.967h-2.121V92.195a.53.53,0,0,0-.962-.308l-5.3,7.423a.53.53,0,0,0,.432.838h2.121v4.772a.53.53,0,0,0,.962.308l5.3-7.423a.53.53,0,0,0-.432-.838Zm-4.772,6.3V99.617a.53.53,0,0,0-.53-.53h-1.621l3.742-5.238V97.5a.53.53,0,0,0,.53.53h1.621Z" transform="translate(-257.537 -83.098)"/></g></g></g></svg>