<svg xmlns="http://www.w3.org/2000/svg" width="38.769" height="36" viewBox="0 0 38.769 36"><defs><style>.a{fill:#4d7efb;}</style></defs><g transform="translate(539 14.714)"><g transform="translate(-539 -14.714)"><path class="a" d="M-500.759.672a4.174,4.174,0,0,1-1.177.839.692.692,0,0,1-.921-.334.692.692,0,0,1,.334-.921,2.805,2.805,0,0,0,1.246-1.145,2.769,2.769,0,0,0-.579-3.452,2.769,2.769,0,0,0-3.5-.127.692.692,0,0,1-.687.083.693.693,0,0,1-.415-.554.692.692,0,0,1,.272-.637,4.116,4.116,0,0,1,1.686-.746,7.662,7.662,0,0,0-7.5-6.316h-.062a4.108,4.108,0,0,1,.062.692.692.692,0,0,1-.692.692.692.692,0,0,1-.692-.692,2.769,2.769,0,0,0-2.769-2.769,2.769,2.769,0,0,0-2.769,2.769.692.692,0,0,1-.692.692.692.692,0,0,1-.692-.692,4.122,4.122,0,0,1,.341-1.644,5.862,5.862,0,0,0-3.457-1.125,5.935,5.935,0,0,0-5.069,2.882,5.861,5.861,0,0,0-.623,1.5.693.693,0,0,1-.487.493.692.692,0,0,1-.67-.175.693.693,0,0,1-.183-.668,7.285,7.285,0,0,1,.407-1.126,3.772,3.772,0,0,0-.99-.138,3.812,3.812,0,0,0-3.79,3.462,4.112,4.112,0,0,1,3.306,1.67.692.692,0,0,1-.138.969.692.692,0,0,1-.969-.138A2.741,2.741,0,0,0-534.846-7.1a2.769,2.769,0,0,0-2.667,2.03,2.769,2.769,0,0,0,1.243,3.113.692.692,0,0,1,.237.95.692.692,0,0,1-.95.237,4.141,4.141,0,0,1-1.173-1.069A7.184,7.184,0,0,0-539,1.555a7.274,7.274,0,0,0,2.855,5.773,7.274,7.274,0,0,0,6.319,1.243A6.544,6.544,0,0,1-530,7.094c0-.117.017-.232.024-.346H-530a3.465,3.465,0,0,1-3.461-3.462.7.7,0,0,1,.692-.706.681.681,0,0,1,.488.194.681.681,0,0,1,.2.484v.028a2.047,2.047,0,0,0,.685,1.559,2.046,2.046,0,0,0,1.628.5,6.548,6.548,0,0,1,.7-1.637.692.692,0,0,1,.95-.236.692.692,0,0,1,.236.95,5.161,5.161,0,0,0-.451,4.362v0A5.188,5.188,0,0,0-524.4,12.2a5.189,5.189,0,0,0,4.911-1.711.761.761,0,0,1,.775-.192,8.723,8.723,0,0,0,3.888.586,8.924,8.924,0,0,0,2.013-.37.692.692,0,0,1,.865.459.692.692,0,0,1-.459.865,10.321,10.321,0,0,1-2.308.426h-.037c.1,1.946.786,3.027,4.356,4.217a6.329,6.329,0,0,1,4.551,4.809h2.126c-.1-1.585-.542-5.376-2.508-7.443a8.83,8.83,0,0,1-1.527.393.654.654,0,0,1-.111.009.692.692,0,0,1-.692-.638.692.692,0,0,1,.583-.739,7.556,7.556,0,0,0,5.548-4.089,6.493,6.493,0,0,1-5.979.016,6.3,6.3,0,0,1-1.439-.995A3.442,3.442,0,0,1-514.4,6.219a.693.693,0,0,1,.04-.692.693.693,0,0,1,.619-.312.693.693,0,0,1,.579.38,2.077,2.077,0,0,0,2.787.93,2.077,2.077,0,0,0,.93-2.787.693.693,0,0,1,.307-.93.693.693,0,0,1,.931.307,3.454,3.454,0,0,1-.49,3.822,4.936,4.936,0,0,0,.923.617,5.064,5.064,0,0,0,2.356.577,5.218,5.218,0,0,0,3.843-1.706l.016-.017a5.163,5.163,0,0,0,.805-5.738ZM-514.9-1.85l-6.923,9.692a.693.693,0,0,1-.775.257.692.692,0,0,1-.481-.659V1.209h-2.769a.692.692,0,0,1-.615-.375.692.692,0,0,1,.052-.719l6.923-9.692a.692.692,0,0,1,.775-.257.692.692,0,0,1,.481.659v6.231h2.769a.692.692,0,0,1,.616.375.692.692,0,0,1-.052.719Z" transform="translate(539 14.714)"/></g></g></svg>