<svg xmlns="http://www.w3.org/2000/svg" width="36" height="36" viewBox="0 0 36 36"><defs><style>.a{fill:#4d7efb;}</style></defs><path class="a" d="M190.57,20.13a2.368,2.368,0,0,1-3.906.5,2.367,2.367,0,0,1,.5-3.906,6.373,6.373,0,0,0,1.374-.909l-4.289-4.289,4.289-4.289a6.367,6.367,0,0,1,.909,1.374,2.367,2.367,0,0,0,3.907.5,2.368,2.368,0,0,0-.5-3.907,6.381,6.381,0,0,1-1.374-.909L195.769,0l4.289,4.289a6.381,6.381,0,0,0,.909-1.374,2.368,2.368,0,0,1,3.906-.5,2.368,2.368,0,0,1-.5,3.906A6.381,6.381,0,0,0,203,7.233l4.289,4.289L203,15.811a6.38,6.38,0,0,1-.909-1.374,2.368,2.368,0,0,0-3.907-.5,2.367,2.367,0,0,0,.5,3.907,6.369,6.369,0,0,1,1.374.909l-4.289,4.289-4.289-4.289A6.373,6.373,0,0,0,190.57,20.13Zm0,0" transform="translate(-171.291)"/><path class="a" d="M4.289,191.479a6.381,6.381,0,0,0-1.374-.909,2.368,2.368,0,0,1-.5-3.906,2.368,2.368,0,0,1,3.906.5,6.368,6.368,0,0,0,.909,1.374l4.289-4.289,2.547,2.547q-.13.111-.252.233a4.392,4.392,0,0,0,.12,6.327,4.392,4.392,0,0,0,6.327.12q.122-.122.233-.252l2.548,2.548-4.289,4.289a6.373,6.373,0,0,0,1.374.909,2.367,2.367,0,0,1,.5,3.906,2.367,2.367,0,0,1-3.906-.5A6.381,6.381,0,0,0,15.812,203l-4.289,4.289L7.234,203a6.367,6.367,0,0,1,1.374-.909,2.367,2.367,0,0,0,.5-3.907,2.368,2.368,0,0,0-3.907.5,6.381,6.381,0,0,1-.909,1.374L0,195.768Zm0,0" transform="translate(0 -171.291)"/></svg>