<svg xmlns="http://www.w3.org/2000/svg" width="41.09" height="33.99" viewBox="0 0 41.09 33.99"><defs><style>.a,.b{fill:none;}.a,.b,.c,.d{stroke:#000;}.a{stroke-miterlimit:10;}.b,.c,.d{stroke-linecap:round;stroke-linejoin:round;}.c{fill:#e6e6e6;}.d{fill:#e60078;}</style></defs><g transform="translate(-1296.615 -1622.435)"><path class="a" d="M1389.019,1738.984l5.155,2.306s.407-.428,0-1.5c0-.522.448-2.439,2.666-1.486a1.615,1.615,0,0,1,.454,2.853c-.814.407-1.221.814-1.221.949.407.271,5.019,2.306,5.019,2.306l-4.476,10.038a1.593,1.593,0,0,1-2.17.678L1384,1750.379l1.967-4.544a2.669,2.669,0,0,1,.814,1.221c.271.271,1.891,1.887,3.455-.82a1.831,1.831,0,0,0-1.013-2.436c-.814-.271-1.561.284-2.2-.061C1387.358,1742.911,1389.019,1738.984,1389.019,1738.984Z" transform="translate(-75.099 -99.445)"/><path class="b" d="M1301.779,1704.5l-4.476,9.9s-.678,1.356.543,1.9,10.716,4.883,10.716,4.883" transform="translate(0 -70.455)"/><path class="c" d="M1349.592,1627.94l-2.035,4.612a4.7,4.7,0,0,1-1.085-1.357,2.11,2.11,0,0,0-2.306,3.527c.949.543,2.035-.136,2.442.136-.543,1.085-2.035,4.341-2.035,4.341l-5.087-2.224s-.408.317-.238,1.881a1.621,1.621,0,0,1-2.407,1.157c-.814-.542-1.628-1.492-.407-2.713.678-.407,1.171-.665,1.4-1.214.093-.007-5.334-2.313-5.334-2.313l4.612-10.038s.543-1.221,2.17-.543C1340.775,1623.871,1349.592,1627.94,1349.592,1627.94Z" transform="translate(-30.585 0)"/><path class="d" d="M1471.309,1655.309l-3.06-4.006a4.7,4.7,0,0,1,1.712-.3,2.11,2.11,0,0,0-1.979-3.72c-.933.57-.862,1.848-1.3,2.074-.689-1-2.823-3.875-2.823-3.875l4.4-3.385s-.081-.51-1.533-1.115a1.62,1.62,0,0,1,.146-2.667c.868-.452,2.092-.707,2.573.951a2.894,2.894,0,0,0,.389,1.812c-.039.084,4.6-3.558,4.6-3.558l6.572,8.879s.808,1.064-.571,2.163C1479.124,1649.545,1471.309,1655.309,1471.309,1655.309Z" transform="translate(-144.129 -12.563)"/></g></svg>