<svg xmlns="http://www.w3.org/2000/svg" width="41" height="30.559" viewBox="0 0 41 30.559"><defs><style>.a{fill:#ebebeb;}.a,.b,.c{stroke:#000;stroke-miterlimit:10;}.b{fill:none;}.c{fill:#e30c78;}</style></defs><g transform="translate(-2662 -2914.5)"><rect class="a" width="10.588" height="12.059" rx="5.294" transform="translate(2677.059 2915)"/><rect class="b" width="7.647" height="9.379" rx="3.824" transform="translate(2691.323 2917.794)"/><rect class="b" width="7.647" height="9.379" rx="3.824" transform="translate(2665.735 2917.794)"/><path class="c" d="M2693.5,2974.559h21.47v-13.529s.294-3.235-6.177-3.53l-4.412,2.647-5-2.647s-5.588.294-5.882,3.53Z" transform="translate(-21.882 -30)"/><path class="b" d="M2770.5,2961.241l4.118-1.765h1.765a2.093,2.093,0,0,1,2.353,2.353v10.882h-7.941" transform="translate(-76.235 -31.388)"/><path class="b" d="M2670.735,2961.241l-4.118-1.765h-1.765a2.093,2.093,0,0,0-2.353,2.353v10.882h7.941" transform="translate(0 -31.388)"/></g></svg>