<svg xmlns="http://www.w3.org/2000/svg" width="40.687" height="39.585" viewBox="0 0 40.687 39.585"><defs><style>.a{fill:#fff;}.b,.c{fill:none;}.b,.c,.d{stroke:#000;}.b,.d{stroke-miterlimit:10;}.c{stroke-linecap:round;stroke-linejoin:round;}.d{fill:#e60078;}</style></defs><g transform="translate(-2318.778 -1687.894)"><path class="a" d="M2331,1690.742s-13.047,4.349-11.8,20.5,20.368,19.047,31.064,12.426c13.047-8.077,13.668-34.171-11.8-35.413A13.4,13.4,0,0,0,2331,1690.742Z" transform="translate(0 0)"/><path class="b" d="M2351.11,1697.5l-.766,15.078,11.369,10.767" transform="translate(-12.496 -3.118)"/><path class="c" d="M2331.155,1690.965s-12.938,4.313-11.706,20.332,20.2,18.889,30.805,12.322c12.938-8.01,13.554-33.886-11.706-35.118" transform="translate(-0.085 -0.082)"/><path class="d" d="M2348.885,1716.41a2.224,2.224,0,0,0-2.226-1.724c-1.638,0-2.184,3.275,2.226,6.823,2.686-1.365,5.665-5.481,4.323-6.823S2348.617,1714,2348.885,1716.41Z" transform="translate(-10.386 -10.135)"/><path class="d" d="M2349.807,1693.5l1.74.58.58,4.059h-2.32Z" transform="translate(-11.853 -1.769)"/><path class="d" d="M2368.465,1735.531l-1.625.849-3.324-2.4,1.61-1.669Z" transform="translate(-17.297 -17.117)"/></g></svg>