<svg xmlns="http://www.w3.org/2000/svg" width="36.003" height="36" viewBox="0 0 36.003 36"><defs><style>.a{fill:#4d7efb;}</style></defs><path class="a" d="M34.105,8.645a18,18,0,1,0,0,25.46A18.009,18.009,0,0,0,34.105,8.645ZM6.976,22.05a.692.692,0,1,1,.545-.545A.692.692,0,0,1,6.976,22.05Zm2.267,7.113a.69.69,0,1,1,.2-.736A.691.691,0,0,1,9.243,29.163Zm.2-14.841a.688.688,0,1,1-.2-.736A.692.692,0,0,1,9.442,14.322Zm5.322,19.861a.688.688,0,1,1-.2-.736A.692.692,0,0,1,14.764,34.183Zm-.2-24.88a.69.69,0,1,1,.2-.736A.691.691,0,0,1,14.565,9.3Zm3.063,6.6a.693.693,0,0,1,1.186-.718l2.916,5.391a2.8,2.8,0,0,1,.338,1.315V32.452a.692.692,0,0,1-1.385,0V21.894a1.424,1.424,0,0,0-.164-.658Zm3.886,20.683a.692.692,0,1,1,.545-.545A.692.692,0,0,1,21.514,36.588Zm0-29.077a.692.692,0,1,1,.545-.545A.692.692,0,0,1,21.514,7.512ZM29.1,34.486a.69.69,0,1,1,.2-.736A.691.691,0,0,1,29.1,34.486ZM29.3,9a.688.688,0,1,1-.2-.736A.692.692,0,0,1,29.3,9Zm5.322,19.861a.688.688,0,1,1-.2-.736A.692.692,0,0,1,34.625,28.861Zm-.2-14.236a.69.69,0,1,1,.2-.736A.691.691,0,0,1,34.426,14.625Zm1.627,7.425A.692.692,0,1,1,36.6,21.5.692.692,0,0,1,36.053,22.05Z" transform="translate(-3.372 -3.375)"/></svg>