<svg xmlns="http://www.w3.org/2000/svg" width="41.419" height="31.528" viewBox="0 0 41.419 31.528"><defs><style>.a{fill:#e6e6e6;}.a,.b,.c{stroke:#000;}.a,.c{stroke-miterlimit:10;}.b{fill:#fff;stroke-linejoin:round;}.c{fill:#e30c78;}</style></defs><g transform="translate(-913.149 -1014.613)"><path class="a" d="M927.948,1017.741a7.57,7.57,0,0,1,4.307,1.8c.9-.372,2.138-.96,2.138-.96s.465-.155.713.124,1.085,1.085,1.085,1.3a5.255,5.255,0,0,0,.527,6.755c1.085.5,2.045.837,2.107,1.208a10.885,10.885,0,0,1-.372,2.7,12.781,12.781,0,0,1-2.169.248,7.042,7.042,0,0,1-2.51,3.9,7.288,7.288,0,0,1,.837,2.076,5.39,5.39,0,0,1-1.766,1.271c-.279,0-.961-.743-1.828-1.3a7.17,7.17,0,0,1-4.927.93,18.79,18.79,0,0,1-1.457,2.107,8.671,8.671,0,0,0-1.859-.5c-.062-.527.124-2.107-.186-2.355a8.271,8.271,0,0,1-4.524-4.06c-.372-.155-1.053-.093-2.51.31-.31-.155-.868-2.51-1.487-2.913a11,11,0,0,0,2.169-1.549,5.447,5.447,0,0,1,1.239-5.268c-.743-.96-1.921-1.27-1.859-1.642a5.826,5.826,0,0,1,1.612-2.231c.465.155,1.549.744,1.89.868a7.913,7.913,0,0,1,5.237-2.913,6.075,6.075,0,0,1,.589-2.138,3.611,3.611,0,0,1,2.293.031A8.6,8.6,0,0,1,927.948,1017.741Z" transform="translate(0 0)"/><path class="b" d="M938.15,1041a3.28,3.28,0,0,1,5.206-.186,4.031,4.031,0,0,1,0,5.144c-.62.775-3.13,1.332-5.082-.775C937.282,1044.2,936.972,1042.708,938.15,1041Z" transform="translate(-14.571 -15.175)"/><path class="c" d="M989.19,1054.063a4.793,4.793,0,0,1,1.921,2.789c.558.062,1.828.341,1.828.341a4.952,4.952,0,0,1,.093,1.333,4.96,4.96,0,0,0-1.332.929,6.288,6.288,0,0,1-1.3,3.842c.527.961.961,1.3.961,1.55a16.3,16.3,0,0,1-1.363,1.7c-.4-.186-1.333-.93-1.642-1.023a3.036,3.036,0,0,1-3.626.868c-.279,1.085-.186,1.519-.465,1.642a5.1,5.1,0,0,1-1.8-.31,10.831,10.831,0,0,1-.062-1.58,4.82,4.82,0,0,1-3.285-2.355,6.364,6.364,0,0,1-1.549.279c-.062-.309-.775-1.239-.744-1.456a7.356,7.356,0,0,1,1.27-.961,6.019,6.019,0,0,1-.124-3.44c-.992-.682-1.457-.9-1.487-1.177s.682-1.271.682-1.271a5.409,5.409,0,0,1,1.673-.093,7.505,7.505,0,0,1,2.324-2.138c0-.868-.124-1.58.093-1.7a6.021,6.021,0,0,1,1.952-.62,4.8,4.8,0,0,1,.682,1.426,3.908,3.908,0,0,1,3.037.341c.558-.527,1.147-1.023,1.147-1.023a2.11,2.11,0,0,1,1.3.713C989.407,1052.978,989.128,1053.97,989.19,1054.063Z" transform="translate(-38.994 -22.408)"/><path class="b" d="M993.4,1068.067c-.279.527-.682,2.572.992,3.347,1.116.4,2.572.465,3.254-1.8a2.444,2.444,0,0,0-1.146-2.758A2.6,2.6,0,0,0,993.4,1068.067Z" transform="translate(-49.404 -32.105)"/></g></svg>