<svg xmlns="http://www.w3.org/2000/svg" width="36.147" height="36" viewBox="0 0 36.147 36"><defs><style>.a{fill:#4d7efb;}</style></defs><g transform="translate(0 -0.114)"><g transform="translate(0 10.316)"><path class="a" d="M23.769,29.738a10.82,10.82,0,0,0-.069-2.616l1.981-.883a13.049,13.049,0,0,0-2.392-5.371l-1.982.882a10.855,10.855,0,0,0-1.9-1.8l.777-2.025A13.107,13.107,0,0,0,14.7,15.816l-.778,2.027a10.82,10.82,0,0,0-2.616.069l-.878-1.971A13.1,13.1,0,0,0,5.06,18.345L5.932,20.3a10.837,10.837,0,0,0-1.8,1.9l-2.019-.774A12.874,12.874,0,0,0,.738,24.05,13.253,13.253,0,0,0,0,26.914l2.025.777a10.82,10.82,0,0,0,.069,2.616l-1.981.882A13.039,13.039,0,0,0,2.5,36.56l1.981-.882a10.816,10.816,0,0,0,1.9,1.8L5.607,39.5A13.107,13.107,0,0,0,11.1,41.614l.778-2.027a10.853,10.853,0,0,0,2.616-.07l.878,1.971a13.1,13.1,0,0,0,5.367-2.405l-.873-1.958a10.838,10.838,0,0,0,1.8-1.9L23.682,36a12.886,12.886,0,0,0,1.373-2.622,13.111,13.111,0,0,0,.74-2.865Zm-5.382,1.083A5.881,5.881,0,1,1,15,23.224,5.881,5.881,0,0,1,18.388,30.821Z" transform="translate(0 -15.816)"/></g><g transform="translate(20.729 0.114)"><g transform="translate(0 0)"><path class="a" d="M45.913,8.093A6.324,6.324,0,0,0,45.8,6.944l1.518-.877a7.97,7.97,0,0,0-2.1-3.639L43.7,3.307a6.256,6.256,0,0,0-1.99-1.147V.4a7.77,7.77,0,0,0-4.2,0V2.16a6.275,6.275,0,0,0-1.99,1.147L34,2.428a7.987,7.987,0,0,0-2.1,3.639l1.519.877a6.07,6.07,0,0,0,0,2.3l-1.519.877A7.984,7.984,0,0,0,34,13.76l1.522-.879a6.263,6.263,0,0,0,1.99,1.147v1.757a7.77,7.77,0,0,0,4.2,0V14.028a6.268,6.268,0,0,0,1.99-1.147l1.522.879a7.97,7.97,0,0,0,2.1-3.639L45.8,9.243A6.279,6.279,0,0,0,45.913,8.093Zm-6.3,2.941a2.94,2.94,0,1,1,2.939-2.941A2.941,2.941,0,0,1,39.613,11.034Z" transform="translate(-31.903 -0.114)"/></g></g></g></svg>