<svg version="1.2" baseProfile="tiny-ps" xmlns="http://www.w3.org/2000/svg" viewBox="0 0 128 128" width="128" height="128">
	<title>New Project</title>
	<style>
		tspan { white-space:pre }
		.shp0 { fill: #f3f3f4 } 
		.shp1 { fill: #c6c6c6 } 
	</style>
	<path id="Shape 1" class="shp0" d="M40 0L88 0C110.12 0 128 17.88 128 40L128 88C128 110.12 110.12 128 88 128L40 128C17.88 128 0 110.12 0 88L0 40C0 17.88 17.88 0 40 0Z" />
	<g id="Layer">
		<path id="Layer" class="shp1" d="M63.51 38C68.48 38 72.95 40.99 74.86 45.58C76.76 50.17 75.71 55.45 72.19 58.96C68.68 62.47 63.4 63.52 58.81 61.62C54.22 59.72 51.23 55.25 51.23 50.28C51.23 48.67 51.55 47.07 52.17 45.58C52.78 44.09 53.69 42.74 54.83 41.6C55.97 40.46 57.32 39.55 58.81 38.93C60.3 38.32 61.9 38 63.51 38" />
		<path id="Layer" class="shp1" d="M74.77 68.7L52.26 68.7C50.78 68.7 49.31 68.99 47.95 69.56C46.58 70.12 45.34 70.95 44.3 72C43.25 73.04 42.42 74.28 41.86 75.65C41.29 77.01 41 78.48 41 79.95L41 86.09C41 86.5 41.08 86.9 41.23 87.27C41.39 87.64 41.61 87.98 41.9 88.26C42.18 88.55 42.52 88.78 42.9 88.93C43.27 89.08 43.67 89.16 44.07 89.16L82.95 89.16C83.36 89.16 83.76 89.08 84.13 88.93C84.5 88.78 84.84 88.55 85.12 88.26C85.41 87.98 85.64 87.64 85.79 87.27C85.94 86.9 86.02 86.5 86.02 86.09L86.02 79.95C86.02 78.48 85.73 77.01 85.17 75.65C84.6 74.28 83.77 73.04 82.72 72C81.68 70.95 80.44 70.12 79.07 69.56C77.71 68.99 76.25 68.7 74.77 68.7" />
	</g>
</svg>