<svg xmlns="http://www.w3.org/2000/svg" width="85.833" height="56.172" viewBox="0 0 85.833 56.172"><defs><style>.a{fill:#4d7efb;}.b{opacity:0.2;}.c{fill:#24d6f4;}</style></defs><g transform="translate(-844.333 -1238.852)"><path class="a" d="M924.54,526.739c-13.931,0-25.218,10.174-25.218,22.724a21.125,21.125,0,0,0,4.608,13.1,3.14,3.14,0,0,1,.7,1.45c.137.484-.348,1.8-1.732,4.5a24.439,24.439,0,0,1-3.776,5.127c-.416.52.451.554.451.554a48.042,48.042,0,0,0,14.548-3.186,5.547,5.547,0,0,1,1.647-.233,27.659,27.659,0,0,0,8.768,1.41c13.931,0,25.216-10.173,25.216-22.723S938.468,526.739,924.54,526.739Zm-.047,36.16a3.363,3.363,0,1,1,3.362-3.362A3.362,3.362,0,0,1,924.493,562.9Zm2.923-9.6v.28a1.165,1.165,0,0,1-1.162,1.166h-3.522a1.165,1.165,0,0,1-1.164-1.166V553.1c0-3,2.275-4.2,4-5.166,1.474-.828,2.379-1.39,2.379-2.485,0-1.449-1.848-2.409-3.341-2.409-1.9,0-2.8.877-4.021,2.4a1.164,1.164,0,0,1-1.614.2l-2.095-1.588a1.166,1.166,0,0,1-.251-1.6,9.408,9.408,0,0,1,8.354-4.419c4.124,0,8.523,3.217,8.523,7.457C933.5,551.13,927.416,551.216,927.416,553.3Z" transform="translate(-54.68 712.113)"/><path class="b" d="M22162.666,4730.65a21.551,21.551,0,0,1,12.563-19.833,20.817,20.817,0,0,1,2.516,9.908c0,8.482-5.158,15.877-12.8,19.78A22.272,22.272,0,0,1,22162.666,4730.65Z" transform="translate(-21282.664 -3459.148)"/><path class="c" d="M1009.7,329.988c12.671,0,22.943,9.256,22.943,20.674a19.219,19.219,0,0,1-4.192,11.916,2.857,2.857,0,0,0-.64,1.32c-.125.441.317,1.64,1.576,4.1a22.255,22.255,0,0,0,3.436,4.664c.378.473-.41.5-.41.5a43.728,43.728,0,0,1-13.236-2.9,5.03,5.03,0,0,0-1.5-.212,25.189,25.189,0,0,1-7.977,1.283c-12.671,0-22.942-9.255-22.942-20.674S997.03,329.988,1009.7,329.988Zm9.944,23.427a3.3,3.3,0,1,0-3.3-3.3A3.3,3.3,0,0,0,1019.645,353.415Zm-10.253,0a3.3,3.3,0,1,0-3.3-3.3A3.3,3.3,0,0,0,1009.392,353.415Zm-10.169,0a3.3,3.3,0,1,0-3.3-3.3A3.3,3.3,0,0,0,999.223,353.415Z" transform="translate(-102.76 921.86)"/></g></svg>