<svg xmlns="http://www.w3.org/2000/svg" xmlns:xlink="http://www.w3.org/1999/xlink" width="16" height="16.41" viewBox="0 0 16 16.41"><defs><style>.a{fill:#89a4b4;}.b{clip-path:url(#a);}</style><clipPath id="a"><rect class="a" width="16" height="16.41" transform="translate(0 0)"/></clipPath></defs><g class="b"><path class="a" d="M11.8,0V2.885A1.313,1.313,0,0,0,13.115,4.2H16Z"/><path class="a" d="M13.115,5.508a2.63,2.63,0,0,1-2.623-2.623V0H0V13.787A2.631,2.631,0,0,0,2.623,16.41H13.377A2.631,2.631,0,0,0,16,13.787V5.508ZM6,11.25l-.975.877L2.265,9.066,5.021,6,6,6.881,4.029,9.066Zm1.711.9-1.25-.4L8.3,5.98l1.25.4Zm3.272-.023L10,11.25l1.965-2.184L10,6.882,10.978,6l2.756,3.063Z"/></g></svg>