<svg xmlns="http://www.w3.org/2000/svg" width="16" height="16" viewBox="0 0 16 16"><defs><style>.a{fill:#89a4b4;}</style></defs><g transform="translate(-3467 -1595)"><path class="a" d="M13.938,1.25H12.5V.5a.5.5,0,0,0-1,0v.75h-7V.5a.5.5,0,0,0-1,0v.75H2.063A2.065,2.065,0,0,0,0,3.313V13.938A2.065,2.065,0,0,0,2.063,16H13.938A2.065,2.065,0,0,0,16,13.938V3.313A2.065,2.065,0,0,0,13.938,1.25M15,13.938A1.062,1.062,0,0,1,13.938,15H2.063A1.062,1.062,0,0,1,1,13.938V5.656A.156.156,0,0,1,1.156,5.5H14.844A.156.156,0,0,1,15,5.656Z" transform="translate(3467 1595)"/><path class="a" d="M133.994,200.058a3.936,3.936,0,1,0,3.936,3.936,3.94,3.94,0,0,0-3.936-3.936m-2.939,3.936a2.938,2.938,0,0,1,4.828-2.25l-4.139,4.139a2.926,2.926,0,0,1-.689-1.889m2.939,2.939a2.921,2.921,0,0,1-1.486-.4l4.021-4.021a2.938,2.938,0,0,1-2.535,4.426" transform="translate(3341.006 1401.194)"/></g></svg>