<svg xmlns="http://www.w3.org/2000/svg" xmlns:xlink="http://www.w3.org/1999/xlink" width="16" height="13.803" viewBox="0 0 16 13.803"><defs><style>.a{fill:#89a4b4;}.b{clip-path:url(#a);}</style><clipPath id="a"><rect class="a" width="16" height="13.803"/></clipPath></defs><g transform="translate(0 0)"><g class="b" transform="translate(0 0)"><path class="a" d="M11.644,0A7.947,7.947,0,0,0,6.79,2.012L8.882,4.1a5.013,5.013,0,0,1,2.762-1.145Z" transform="translate(-4.113 0)"/><path class="a" d="M4.106,8.874,2.015,6.782A7.946,7.946,0,0,0,0,11.636H2.96A5.013,5.013,0,0,1,4.106,8.874" transform="translate(-0.001 -4.108)"/><path class="a" d="M31.315,11.636h2.959A7.946,7.946,0,0,0,32.26,6.782L30.168,8.874a5.016,5.016,0,0,1,1.147,2.762" transform="translate(-18.274 -4.108)"/><path class="a" d="M32.267,21.471a5,5,0,0,1-.515,1.807c.238.367.436.677.567.882a1.4,1.4,0,0,1-.192,1.75,1.421,1.421,0,0,1-.386.274l.487.487a.47.47,0,0,0,.664,0,7.955,7.955,0,0,0,2.334-5.2Z" transform="translate(-19.227 -13.006)"/><path class="a" d="M2.96,21.471H0a7.955,7.955,0,0,0,2.334,5.2.47.47,0,0,0,.664,0l1.422-1.422a.47.47,0,0,0,0-.664A5.03,5.03,0,0,1,2.96,21.471" transform="translate(0 -13.006)"/><path class="a" d="M26.333,2.011A7.947,7.947,0,0,0,21.479,0V2.958A5.019,5.019,0,0,1,24.242,4.1Z" transform="translate(-13.011 0.001)"/><path class="a" d="M19.071,17a1.473,1.473,0,1,0-2.083,2.083,53.9,53.9,0,0,0,4.695,3.259.469.469,0,0,0,.647-.647A53.957,53.957,0,0,0,19.071,17" transform="translate(-10.029 -10.036)"/></g></g></svg>