<svg xmlns="http://www.w3.org/2000/svg" xmlns:xlink="http://www.w3.org/1999/xlink" width="16" height="16" viewBox="0 0 16 16"><defs><style>.a{fill:#89a4b4;}.b{clip-path:url(#a);}</style><clipPath id="a"><rect class="a" width="16" height="16"/></clipPath></defs><g class="b"><path class="a" d="M1.406,12.25h8a.469.469,0,0,0,.445-.617L6.1.321A.468.468,0,0,0,5.656,0H1.406A1.408,1.408,0,0,0,0,1.406v9.438A1.408,1.408,0,0,0,1.406,12.25M3.781,3.813A2.328,2.328,0,0,1,5.439,4.5a.469.469,0,0,1-.664.663,1.393,1.393,0,0,0-.994-.412A1.406,1.406,0,1,0,5.1,6.625H4.25a.469.469,0,1,1,0-.937H5.656a.469.469,0,0,1,.469.469A2.344,2.344,0,1,1,3.781,3.813"/><path class="a" d="M24.39,8.339H18.046l2.491,7.494a1.422,1.422,0,0,1-.054,1.024l-1.664,3.67h5.57A1.406,1.406,0,0,0,25.8,19.12V9.746A1.406,1.406,0,0,0,24.39,8.339M23.89,13h-.056a6.1,6.1,0,0,1-1.208,2.229c.366.427.653.715.658.721a.469.469,0,1,1-.663.662c-.019-.019-.269-.27-.6-.651-.341.386-.6.638-.613.654a.469.469,0,0,1-.657-.669c.2-.2.434-.445.668-.717-.137-.178-.275-.367-.406-.56a.469.469,0,0,1,.775-.527c.076.112.156.223.236.332A5.875,5.875,0,0,0,22.863,13H20.14a.469.469,0,1,1,0-.938h1.406v-.469a.469.469,0,1,1,.938,0v.469H23.89a.469.469,0,0,1,0,.938" transform="translate(-9.796 -4.527)"/><path class="a" d="M14.038,28.848c.886,2.678.813,2.654,1.07,2.771a.47.47,0,0,0,.621-.234l1.15-2.537Z" transform="translate(-7.621 -15.66)"/></g></svg>