<svg xmlns="http://www.w3.org/2000/svg" xmlns:xlink="http://www.w3.org/1999/xlink" width="16" height="16" viewBox="0 0 16 16"><defs><style>.a{fill:#89a4b4;}.b{clip-path:url(#a);}</style><clipPath id="a"><rect class="a" width="16" height="16"/></clipPath></defs><g transform="translate(0 0)"><g class="b" transform="translate(0 0)"><path class="a" d="M8,0a8,8,0,1,0,8,8A8.009,8.009,0,0,0,8,0M8,14.252A6.251,6.251,0,1,1,14.252,8,6.258,6.258,0,0,1,8,14.252" transform="translate(0 -0.001)"/><path class="a" d="M15.159,11.517V8.164a.678.678,0,0,0-1.355,0v3.57c0,.011,0,.021,0,.031a.674.674,0,0,0,.2.512L16.527,14.8a.678.678,0,0,0,.958-.959Z" transform="translate(-6.467 -3.507)"/></g></g></svg>