<svg xmlns="http://www.w3.org/2000/svg" xmlns:xlink="http://www.w3.org/1999/xlink" width="16" height="13.937" viewBox="0 0 16 13.937"><defs><style>.a{fill:#89a4b4;}.b{clip-path:url(#a);}</style><clipPath id="a"><rect class="a" width="16" height="13.937"/></clipPath></defs><g class="b"><path class="a" d="M5.754,3.879a.341.341,0,0,1,0-.346L7.7.161a.36.36,0,0,1,.6,0l1.947,3.372a.346.346,0,0,1-.3.519H6.054a.343.343,0,0,1-.3-.173m-2.43,4.9h9.353a.346.346,0,0,0,.3-.519l-1.7-2.942a.346.346,0,0,0-.3-.173H5.024a.348.348,0,0,0-.3.173l-1.7,2.942a.346.346,0,0,0,.3.519m12.63,4.639-1.946-3.372a.348.348,0,0,0-.3-.172H2.294a.344.344,0,0,0-.3.172L.047,13.418a.341.341,0,0,0,0,.346.344.344,0,0,0,.3.173H15.654a.346.346,0,0,0,.3-.519" transform="translate(0 0)"/></g></svg>