<svg xmlns="http://www.w3.org/2000/svg" xmlns:xlink="http://www.w3.org/1999/xlink" width="32" height="32" viewBox="0 0 32 32"><defs><style>.a{fill:#fff;}.b{fill:#feb22a;}.c{clip-path:url(#a);}</style><clipPath id="a"><rect class="a" width="14.329" height="13.503" transform="translate(0 0)"/></clipPath></defs><g transform="translate(-944 -1042)"><circle class="b" cx="16" cy="16" r="16" transform="translate(944 1042)"/><g transform="translate(953 1051)"><g class="c" transform="translate(0 0)"><path class="a" d="M14.031,10.332l-5.062-9.3a2.1,2.1,0,0,0-3.61,0L.3,10.332A2.1,2.1,0,0,0,2.1,13.5H12.226a2.1,2.1,0,0,0,1.805-3.171M7.164,11.824A.839.839,0,1,1,8,10.984a.841.841,0,0,1-.839.839M8,8.466a.84.84,0,0,1-1.679,0v-4.2A.84.84,0,0,1,8,4.267Z" transform="translate(0 0)"/></g></g></g></svg>