<svg xmlns="http://www.w3.org/2000/svg" xmlns:xlink="http://www.w3.org/1999/xlink" width="16" height="9.4" viewBox="0 0 16 9.4"><defs><style>.a{fill:#89a4b4;}.b{clip-path:url(#a);}</style><clipPath id="a"><rect class="a" width="16" height="9.4"/></clipPath></defs><g class="b"><path class="a" d="M9.05,0h-7.3A1.756,1.756,0,0,0,0,1.751v5.9A1.756,1.756,0,0,0,1.751,9.4h7.3A1.756,1.756,0,0,0,10.8,7.65v-5.9A1.744,1.744,0,0,0,9.05,0"/><path class="a" d="M344.532,27.364a.892.892,0,0,0-.3.123L341.5,29.062v4.061l2.748,1.575a1.041,1.041,0,0,0,1.435-.385,1.069,1.069,0,0,0,.14-.525V28.379a1.054,1.054,0,0,0-1.3-1.015" transform="translate(-329.828 -26.401)"/></g></svg>