<svg xmlns="http://www.w3.org/2000/svg" width="79.021" height="88.916" viewBox="0 0 79.021 88.916">
                <g transform="translate(-88.697 -269.6)">
                    <g transform="translate(102.227 271.092)">
                    <path fill="#ff9d00" d="M673.361,206.424c9.363,9.111,14.021,6.175,19.736.3s7.325-14.927.621-21.451a14.19,14.19,0,0,0-20.3.5A14.6,14.6,0,0,0,673.361,206.424Z" transform="translate(-652.751 -180.839)"/>
                    <g transform="translate(16.013 0)">
                        <path stroke="#000" stroke-miterlimit="10" fill="#3e5b85" stroke-width="0" d="M668.266,194.765a14.119,14.119,0,0,0,3.064,9.272,20.265,20.265,0,0,0,8,5.993q1.14.5,2.322.9a8.485,8.485,0,0,0,2.657.6,8.576,8.576,0,0,0,3.785-1.2,17.157,17.157,0,0,0,6.078-5.807,16.761,16.761,0,0,0,2.085-4.141,19.632,19.632,0,0,0,.943-4.521,15.488,15.488,0,0,0-.306-4.684,12.275,12.275,0,0,0-1.58-3.645,17.151,17.151,0,0,0-2.79-3.586,14.531,14.531,0,0,0-6.959-3.551,13.405,13.405,0,0,0-4.518.085,13.805,13.805,0,0,0-7.539,3.667,21.523,21.523,0,0,0-2.4,2.944,14.526,14.526,0,0,0-1.607,3.577c-.234.665-.456,1.334-.671,2-.048.148.186.212.234.064.424-1.323.863-2.647,1.4-3.927a12.9,12.9,0,0,1,1.9-3.007,13.183,13.183,0,0,1,6.083-4.422,13.681,13.681,0,0,1,8.855-.284,14.574,14.574,0,0,1,9.638,12.04,17.922,17.922,0,0,1-1.609,8.977,20.2,20.2,0,0,1-2.71,4.107,16.484,16.484,0,0,1-2.97,2.857,13.249,13.249,0,0,1-2.96,1.634,6.713,6.713,0,0,1-2.281.577,7.987,7.987,0,0,1-2.688-.592c-6.171-2.1-12.1-6.646-13.1-13.484a12.329,12.329,0,0,1-.1-2.45c.009-.155-.234-.155-.242,0Z" transform="translate(-668.248 -180.243)"/>
                    </g>
                    <path fill="#e60078" d="M634.608,283.046c10.261,8.086,14.588,4.68,19.66-1.757s5.729-15.609-1.618-21.4a14.19,14.19,0,0,0-20.132,2.616A14.6,14.6,0,0,0,634.608,283.046Z" transform="translate(-629.104 -225.672)"/>
                    <g transform="translate(0 30.812)">
                        <path stroke="#000" stroke-miterlimit="10" fill="#3e5b85" stroke-width="0" d="M628.891,273.115a14.032,14.032,0,0,0,4.354,8.277,20.07,20.07,0,0,0,9.292,4.761c.879.209,1.768.373,2.662.5a7.478,7.478,0,0,0,2.7.041,9.079,9.079,0,0,0,3.373-1.877A17.215,17.215,0,0,0,656.159,278a16.763,16.763,0,0,0,1.287-4.456,19.446,19.446,0,0,0,.1-4.632,14.936,14.936,0,0,0-2.942-7.156,13.654,13.654,0,0,0-6.628-5.049,14.174,14.174,0,0,0-15.7,4.846,20.669,20.669,0,0,0-1.962,3.5,14.713,14.713,0,0,0-.951,3.883c-.107.681-.2,1.365-.29,2.05-.02.154.222.152.242,0a43.556,43.556,0,0,1,.715-4.3,14.679,14.679,0,0,1,6.876-8.779,13.983,13.983,0,0,1,9.432-1.4,12.979,12.979,0,0,1,6.76,3.809,16.386,16.386,0,0,1,3.789,6.466,16.631,16.631,0,0,1-.035,8.658,19.851,19.851,0,0,1-1.857,4.426,16.809,16.809,0,0,1-2.328,3.32,13.281,13.281,0,0,1-2.577,2.184,8.365,8.365,0,0,1-1.909.99,6.63,6.63,0,0,1-3,.042c-6.513-.922-13.3-4.332-15.512-10.956a12.27,12.27,0,0,1-.533-2.335c-.02-.153-.262-.154-.242,0Z" transform="translate(-628.89 -255.977)"/>
                    </g>
                    <path fill="#0094e3" d="M715.783,266.954c1.174,13.012,6.621,13.816,14.783,13.08s15.279-6.561,14.438-15.878a14.19,14.19,0,0,0-15.733-12.832A14.6,14.6,0,0,0,715.783,266.954Z" transform="translate(-680.396 -222.367)"/>
                    <g transform="translate(35.595 28.383)">
                        <path stroke="#000" stroke-miterlimit="10" fill="#3e5b85" stroke-width="0" d="M720.961,254.279a13.931,13.931,0,0,0-4.3,7.892,19.535,19.535,0,0,0,.966,9.968,21.038,21.038,0,0,0,2.094,4.566,6.447,6.447,0,0,0,3.237,2.3,15.54,15.54,0,0,0,7.682.807,18.829,18.829,0,0,0,4.637-1.062,20.3,20.3,0,0,0,3.7-1.95,15.959,15.959,0,0,0,5.831-6.856,11.879,11.879,0,0,0,.906-4.2,16.406,16.406,0,0,0-.356-4.649,16.067,16.067,0,0,0-3.41-6.906,12.634,12.634,0,0,0-8.026-4.15,16.7,16.7,0,0,0-3.98.266,20.612,20.612,0,0,0-4.193,1.064q-1.091.42-2.137.943c-.139.07-.017.279.122.209a21.982,21.982,0,0,1,8.123-2.222,11.709,11.709,0,0,1,8.14,2.461,13.284,13.284,0,0,1,4.6,6.69,15.254,15.254,0,0,1,.849,3.949,16.285,16.285,0,0,1-.24,4.517,14.116,14.116,0,0,1-4.624,7.348,17.386,17.386,0,0,1-7.405,3.855,18.387,18.387,0,0,1-8.392.217,13.153,13.153,0,0,1-3.082-1.171c-1.569-.839-2.273-2.35-2.973-3.908-2.6-5.787-3.232-13,.927-18.253a12.212,12.212,0,0,1,1.479-1.553c.117-.1-.055-.274-.171-.171Z" transform="translate(-716.38 -250.005)"/>
                    </g>
                    <path fill="none" stroke="#000" stroke-miterlimit="10" d="M669.058,193.326c1.254-5.533,5.516-13.457,16.642-11.893,11.033,3.129,11.235,12.1,11.411,15.3-.247,1.991-.976,10.8-11.583,15.193-1.564.609-16.406-2.332-17.28-15.953" transform="translate(-652.235 -180.83)"/>
                    <path fill="none" stroke="#000" stroke-miterlimit="10" d="M692.352,306.408s9.4-31.624,7.474-49.733" transform="translate(-666.532 -225.578)"/>
                    <path fill="none" stroke="#000" stroke-miterlimit="10" d="M705.621,319.888s-5.015,11.028-13.274,17.159c0,0-3.14,1.291-3.14,5.844" transform="translate(-664.667 -263.073)"/>
                    <path fill="none" stroke="#000" stroke-miterlimit="10" d="M723.581,252.309s10.036-5.814,17.087,1.017,6.742,17.227-.83,22.836c-3.4,3.092-13.844,5.63-19.9.88-2.019-2.933-7.492-14.707,1-22.764" transform="translate(-680.755 -221.621)"/>
                    <path fill="none" stroke="#000" stroke-miterlimit="10" d="M629.067,271.513s.219-14.626,15.16-14.655c12.1,1.018,14.352,13.906,13.145,17.7-.742,2.784-3.31,10.766-9.716,12.635-4.151-.308-15.194-.823-18.763-13.555" transform="translate(-628.892 -225.687)"/>
                    <path fill="none" stroke="#000" stroke-miterlimit="10" d="M685.267,347.6c-.167-3.318-2.063-4.266-4.48-5.783a12.357,12.357,0,0,1-5.776-10.4" transform="translate(-656.247 -269.911)"/>
                    <path fill="none" stroke="#000" stroke-miterlimit="10" d="M640.447,275.919s-4.5,5.3-.537,13.924" transform="translate(-634.457 -236.993)"/>
                    <path fill="none" stroke="#000" stroke-miterlimit="10" d="M728.625,263.624s-5.713,2.217-7,11.994" transform="translate(-683.893 -229.7)"/>
                    <path fill="none" stroke="#000" stroke-miterlimit="10" d="M678.909,201.629s-3.562,8.464,1.341,13.841" transform="translate(-657.817 -192.928)"/>
                    </g>
                    <path stroke="#e31378" fill="none" d="M0,0S1.164,11.293,8.852,8.43c6.183-2.595,2.6-7.956,1.468-7.37S6.778,5.873,13.743,9.3c3.942,1.617,5.128-1.614,5.128-1.614" transform="translate(140.196 352.362) rotate(-56)"/>
                    <path stroke="#1896e0" stroke-linecap="round" fill="none" d="M-8334.007-5847.826s5.274,4.066,2.19,9.3c-1.44,2.318-2.7,2.119-3.359,1.09s3.843-3.17,7.272-1.09,6.941,3.58,5.218,15.4" transform="translate(8424.459 6122.837)"/>
                    <g transform="translate(156.102 269.949)">
                    <path stroke="#fd9c27" fill="none" d="M-8477.745-5747.426s6.615,6.8,1.64,16.852" transform="translate(8479.722 5747.426)"/>
                    <path stroke="#fd9c27" fill="none" d="M-8473.216-5741.493s2.818,5.257,0,8.17" transform="translate(8473.216 5747.017)"/>
                    </g>
                </g>
            </svg>