<svg xmlns="http://www.w3.org/2000/svg" width="71.581" height="87.092" viewBox="0 0 71.581 87.092"><defs><style>.a{fill:#3b67d6;}.b,.c{fill:#4d7efb;}.c{opacity:0.5;}.d{fill:#ffc174;}.e{fill:#c2c2c2;}.f,.l{fill:#24d6f4;}.f{opacity:0.1;}.g{fill:#e9c787;}.h{fill:#25314b;}.i,.m{fill:#fff;}.i{opacity:0.3;}.j{fill:#fd9d27;}.k{fill:#0fcaea;}.m{opacity:0.4;}.n{fill:#ffae4a;}</style></defs><g transform="translate(-980.32 -1302.263)"><path class="a" d="M621.734,335.1c-.176.831-.687,2.21-.187,2.278s.506-.655,1.082-.665.316.557.927.548.432-.991,1.17-.816-.105-.954-1.089-1.676Z" transform="translate(401.188 992.305)"/><path class="b" d="M10.478.071C16.265.11,20.993,5.4,21.038,11.877s-4.61,11.7-10.4,11.665S.125,18.217.081,11.736,4.691.032,10.478.071Z" transform="translate(1006.572 1308.346) rotate(-17)"/><path class="c" d="M924.1,431a3.237,3.237,0,0,0,.624,4.605,3.408,3.408,0,0,0,4.708-.611,3.237,3.237,0,0,0-.624-4.605A3.408,3.408,0,0,0,924.1,431Z" transform="translate(121.781 904.664)"/><path class="d" d="M290.782,173.742a3.237,3.237,0,0,0,.625,4.605,3.408,3.408,0,0,0,4.708-.611,3.238,3.238,0,0,0-.625-4.605A3.409,3.409,0,0,0,290.782,173.742Z" transform="translate(707.576 1143.087)"/><path class="e" d="M741.556,725.019a7.148,7.148,0,0,0-1.544,10.143,7.522,7.522,0,0,0,10.37,1.51,7.148,7.148,0,0,0,1.544-10.143A7.522,7.522,0,0,0,741.556,725.019Z" transform="translate(292.76 632.303)"/><path class="f" d="M786.014,217.865a2.745,2.745,0,0,0-.593,3.894,2.888,2.888,0,0,0,3.981.58,2.744,2.744,0,0,0,.593-3.894A2.888,2.888,0,0,0,786.014,217.865Z" transform="translate(249.928 1101.508)"/><path class="g" d="M672.745,379.137a1.57,1.57,0,0,0-.012,2.254,1.656,1.656,0,0,0,2.3.012,1.57,1.57,0,0,0,.012-2.254A1.656,1.656,0,0,0,672.745,379.137Z" transform="translate(354.08 951.965)"/><g transform="translate(1015.971 1329.687)"><path class="h" d="M677.478,829.073a.229.229,0,0,0-.125-.3.239.239,0,0,0-.31.122h0a37.6,37.6,0,0,0-3.242,9.447,26.61,26.61,0,0,0,2.129,15.054.239.239,0,0,0,.309.125.229.229,0,0,0,.129-.3,26.154,26.154,0,0,1-2.1-14.8A37.205,37.205,0,0,1,677.478,829.073Z" transform="translate(-663.018 -794.841)"/><path class="h" d="M629.175,400.986c-.025,7.212.862,14.52,3.871,20.982a31.98,31.98,0,0,0,1.732,3.227.24.24,0,0,0,.325.079.228.228,0,0,0,.081-.317,31.553,31.553,0,0,1-1.707-3.181c-4.525-9.709-4.208-21.442-3.211-31.871.5-5.215,1.163-10.1,1.469-14.254a44.351,44.351,0,0,0,.122-5.628,12.954,12.954,0,0,0-.83-4.242.239.239,0,0,0-.309-.126.229.229,0,0,0-.129.3h0a12.524,12.524,0,0,1,.795,4.091,69.055,69.055,0,0,1-.589,10.513A194.591,194.591,0,0,0,629.175,400.986Z" transform="translate(-622.036 -365.64)"/><path class="h" d="M549.108,803.368a34.873,34.873,0,0,1-11.843-13.819,34.215,34.215,0,0,1-2.754-9.077.236.236,0,0,0-.27-.193.232.232,0,0,0-.2.264h0a34.68,34.68,0,0,0,2.791,9.2A34.231,34.231,0,0,0,545,800.7a38.891,38.891,0,0,0,3.836,3.041c1.11.774,2.008,1.32,2.542,1.664a.24.24,0,0,0,.328-.066.228.228,0,0,0-.067-.32C551.092,804.672,550.207,804.134,549.108,803.368Z" transform="translate(-534.04 -749.916)"/></g><path class="i" d="M471.595,74.081a3.724,3.724,0,0,0,1.878,4.449c1.279.432,2.086-1.007,2.752-2.884s-.235-4.514-1.513-4.946S472.261,72.2,471.595,74.081Z" transform="translate(540.707 1237.943)"/><g transform="translate(1027.598 1364.953)"><path class="j" d="M689.121,849.57c.486.376.953-.388,1.571-.049s-.02.782.634,1.144,1.088-.788,1.76-.155.5-1.076-.087-2.437l-2.229-.8C690.055,848.043,688.634,849.194,689.121,849.57Z" transform="translate(-689.021 -847.268)"/></g><path class="k" d="M498.533,724.452c1.186-.2.827-1.744,2.15-2.169s1.013.961,2.416.516.484-2.4,2.275-2.55-.733-1.953-3.367-2.8l-4.213,2.032C497.816,721.372,497.347,724.656,498.533,724.452Z" transform="translate(515.525 637.996)"/><path class="l" d="M18.327.192C28.448.3,36.746,9.166,36.862,20s-8,19.527-18.118,19.421S.323,30.445.208,19.613,8.205.086,18.327.192Z" transform="translate(980.045 1332.733) rotate(-30)"/><path class="m" d="M149.74,401.436c-.26,3.9,3.091,7.3,5.609,7.463s3.252-2.984,3.512-6.884-2.682-8.433-5.2-8.593S150,397.536,149.74,401.436Z" transform="translate(840.408 937.327)"/><path class="n" d="M13.254-.094c7.32-.052,13.205,6.619,13.145,14.9S20.357,29.842,13.037,29.894-.168,23.275-.109,14.994,5.934-.042,13.254-.094Z" transform="matrix(0.951, 0.309, -0.309, 0.951, 1026.631, 1333.154)"/><path class="m" d="M674.326,483.361c-2.209,2.262-2.3,4.593-.771,6.013,1.144,1.065,7.936,3.054,10.145.792s3.234-4.683-.569-7.308C680.517,481.052,676.536,481.1,674.326,483.361Z" transform="translate(353.838 856.599)"/></g></svg>