<svg xmlns="http://www.w3.org/2000/svg" width="79.001" height="33.848" viewBox="0 0 79.001 33.848">
                <g transform="translate(-7733.492 12843.608)">
                    <g transform="translate(7740.921 -12843.107)">
                        <path stroke-miterlimit="10" stroke="#000" fill="#ff9d00" d="M7026.325,2251.183l-29.618-.981-33.566.883-.084,2.528,32.468-1.456a6.214,6.214,0,0,1,5.694,6.669h0a6.213,6.213,0,0,1-6.123,6.277l-32.382-1.072-.062,1.867,63.118,2.09c4.235.14,7.794-3.508,7.948-8.148h0C7033.87,2255.2,7030.561,2251.323,7026.325,2251.183Z" transform="translate(-6962.65 -2250.202)"/>
                    </g>
                    <g transform="translate(7740.921 -12843.107)">
                        <path stroke-miterlimit="10" stroke="#000" fill="#ff9d00" d="M7004.1,2258.859h0c.154-4.641-3.156-8.517-7.392-8.657l-33.566.883-.084,2.528,32.468-1.456a6.214,6.214,0,0,1,5.694,6.669h0a6.213,6.213,0,0,1-6.123,6.277l-32.382-1.072-.062,1.867,33.5,1.109C7000.386,2267.147,7003.944,2263.5,7004.1,2258.859Z" transform="translate(-6962.65 -2250.202)"/>
                    </g>
                    <g transform="translate(7740.983 -12841.146)">
                        <path stroke-linejoin="round" stroke-linecap="round" fill="#fff" stroke="#000" d="M6995.574,2253.788l-32.466,1.449h0c2.929.468,3.815,3.444,4.222,5.032.826,3.22-1.611,5.075-4.565,5.348v.045l32.383,1.072a6.212,6.212,0,0,0,6.121-6.277h0A6.212,6.212,0,0,0,6995.574,2253.788Z" transform="translate(-6962.764 -2253.788)"/>
                    </g>
                    <g transform="translate(7782.99 -12839.616)">
                        <path fill="#fff" stroke-miterlimit="10" stroke="#000" d="M7046.23,2267.348h-.011l-6.331-.209a.354.354,0,0,1-.294-.531,18.977,18.977,0,0,0,1.738-4.455c.613-2.449-1.058-5-1.075-5.022a.354.354,0,0,1-.015-.368.361.361,0,0,1,.32-.181l6.006.2a.355.355,0,0,1,.278.15c3.759,5.37-.306,10.245-.347,10.294A.357.357,0,0,1,7046.23,2267.348Z" transform="translate(-7039.547 -2256.582)"/>
                    </g>
                    <g transform="translate(7733.992 -12827.253)">
                        <path fill="#e60078" stroke-miterlimit="10" stroke="#000" d="M6957.656,2279.191l29.636-.01,33.521,1.982v2.53l-32.4-2.519a6.212,6.212,0,0,0-5.91,6.478h0a6.213,6.213,0,0,0,5.914,6.475l32.4-.01v1.869l-63.157.019c-4.238,0-7.674-3.761-7.677-8.4h0C6949.982,2282.957,6953.417,2279.193,6957.656,2279.191Z" transform="translate(-6949.984 -2279.182)"/>
                    </g>
                    <g transform="translate(7763.628 -12827.253)">
                        <path fill="#e61378" d="M7004.155,2287.591h0c0-4.644,3.434-8.408,7.672-8.41l33.521,1.982v2.53l-32.4-2.519a6.212,6.212,0,0,0-5.909,6.478h0a6.212,6.212,0,0,0,5.914,6.475l32.4-.01v1.869l-33.52.01C7007.593,2296,7004.156,2292.235,7004.155,2287.591Z" transform="translate(-7004.155 -2279.182)"/>
                    </g>
                    <g transform="translate(7766.508 -12825.253)">
                        <path fill="#fff" d="M7015.329,2282.836l32.4,2.513h0c-2.944.371-3.927,3.317-4.385,4.89-.93,3.191,1.443,5.126,4.388,5.5v.044l-32.4.01a6.213,6.213,0,0,1-5.914-6.474h0A6.213,6.213,0,0,1,7015.329,2282.836Z" transform="translate(-7009.42 -2282.836)"/>
                    </g>
                    <g transform="translate(7754.251 -12823.915)">
                        <path stroke-linejoin="round" stroke-linecap="round" fill="#fff" stroke="#000" d="M6990.154,2295.568a2.413,2.413,0,0,1-2.167-1.329,8.154,8.154,0,0,1,.025-7.738,2.391,2.391,0,0,1,2.106-1.218h1.429a2.42,2.42,0,0,1,1.916.931,2.389,2.389,0,0,1,.446,2.059,5.414,5.414,0,0,0-.08,2.438c.121.562.274,1.136.455,1.709a2.425,2.425,0,0,1-2.32,3.147h-1.811Zm-.035-10.075h0Z" transform="translate(-6987.016 -2285.284)"/>
                    </g>
                    <g transform="translate(7763.628 -12827.253)">
                        <path fill="none" stroke-linecap="round" stroke-miterlimit="10" stroke="#000" d="M7010.662,2280.135a7.122,7.122,0,0,1,3.55-.953l33.521,1.982v2.53l-32.4-2.519a6.211,6.211,0,0,0-5.909,6.478h0a6.213,6.213,0,0,0,5.914,6.475l32.4-.01v2.058H7014.28" transform="translate(-7006.54 -2279.182)"/>
                        <path fill="none" stroke-linecap="round" stroke-miterlimit="10" stroke="#000" d="M7007.763,2296.374a8.608,8.608,0,0,1-3.608-7.129h0a8.739,8.739,0,0,1,2.707-6.411" transform="translate(-7004.155 -2280.835)"/>
                    </g>
                    <line fill="none" stroke-linecap="round" stroke-miterlimit="10" stroke="#000" x1="20.242" y1="1.094" transform="translate(7780.396 -12819.286)"/>
                    <line fill="none" stroke-linecap="round" stroke-miterlimit="10" stroke="#000" x1="26.26" transform="translate(7774.104 -12816.276)"/>
                    <line fill="none" stroke-linecap="round" stroke-miterlimit="10" stroke="#000" y1="0.547" x2="20.242" transform="translate(7745.382 -12835.151)"/>
                    <line fill="none" stroke-linecap="round" stroke-miterlimit="10" stroke="#000" x2="25.166" y2="0.547" transform="translate(7745.382 -12832.416)"/>
                </g>
            </svg>