<svg xmlns="http://www.w3.org/2000/svg" width="78" height="32.64" viewBox="0 0 78 32.64"><defs><style>.a{fill:#255be6;}.b{fill:#628eff;}.c{fill:#dde7ff;}.d{fill:#628efc;}.d,.q,.u{opacity:0.2;}.e{fill:#4d7efb;}.f{fill:#a5b9ed;}.f,.g,.l,.t{mix-blend-mode:multiply;isolation:isolate;}.g{fill:#bfcced;}.h{fill:rgba(255,255,255,0.2);}.i{fill:#b6e2ff;}.j{fill:#1341b9;}.k{fill:#2d5ad0;}.l{fill:#efd5bf;}.m{fill:#e54d23;}.n{fill:#1ac5e2;}.o,.q{fill:#24d6f4;}.p{fill:#ebfcff;}.r{fill:#50def6;}.s{opacity:0.58;}.t{fill:#b6ccd0;}.v{fill:#fff;}.w{fill:#1aa6bf;}.x{fill:#12a6bf;}.y{fill:#ff8900;}</style></defs><g transform="translate(390.743 -566.382)"><g transform="translate(-390.743 574.983)"><g transform="translate(0 0)"><path class="a" d="M-350.29,620.026s-35.442-7.043-38.085-7.847-3.447-8.618-.46-9.594,36.768-3.045,36.768-3.045l39.325,2.255Z" transform="translate(390.743 -599.54)"/><path class="b" d="M-388.374,623.377c2.643.8,38.086,7.848,38.086,7.848l20.245-10.318-59.9-6.247C-391.531,616.983-390.613,622.7-388.374,623.377Z" transform="translate(390.741 -610.739)"/><g transform="translate(37.618 3.198)"><path class="c" d="M-206.274,611.87c-7.294.6-33.331,2.872-36.883,4.845-4.136,2.3-2.757,11.375.689,11.6,2.792.187,27.071-4.98,36.193-6.95Z" transform="translate(245.707 -611.87)"/></g><path class="d" d="M-241.244,619.559c3.288-1.827,25.857-3.908,34.97-4.684v-3c-7.295.6-33.331,2.872-36.883,4.845-3.756,2.086-2.965,9.76-.207,11.327C-244.264,625.122-243.844,621-241.244,619.559Z" transform="translate(283.326 -608.672)"/><g transform="translate(36.755 2.255)"><path class="e" d="M-207.791,617.592c-11.109,2.41-33.765,7.181-36.938,7.18-.054,0-.1,0-.146,0-.915-.061-1.8-1.326-2.211-3.148-.573-2.562-.111-5.736,1.883-6.843,3.149-1.75,27.156-3.99,37.412-4.812v-1.729c-6.2.5-34.309,2.845-38.25,5.034-2.86,1.59-3.419,5.638-2.728,8.728.594,2.653,1.841,4.365,3.577,4.481.055,0,.319.015.389.015,3.761,0,28.337-5.256,37.011-7.138Z" transform="translate(249.035 -608.235)"/></g><path class="f" d="M-233.215,622.152l35.734-4.883S-226.379,620.429-233.215,622.152Z" transform="translate(274.074 -612.671)"/><path class="f" d="M-234.871,625.993l35.734-4.883S-228.035,624.27-234.871,625.993Z" transform="translate(275.3 -615.515)"/><path class="g" d="M-238.412,629.675l36.364-5.107S-231.576,627.952-238.412,629.675Z" transform="translate(277.923 -618.077)"/><path class="g" d="M-238.575,632.975l36.348-5.472S-231.739,631.252-238.575,632.975Z" transform="translate(278.043 -620.25)"/><path class="g" d="M-238.575,636.225l36.348-5.7S-231.739,634.5-238.575,636.225Z" transform="translate(278.043 -622.487)"/><path class="g" d="M-238.575,639.038l36.348-6S-231.739,637.315-238.575,639.038Z" transform="translate(278.043 -624.352)"/><path class="g" d="M-237.505,641.8l36.128-5.939S-230.669,640.081-237.505,641.8Z" transform="translate(277.251 -626.444)"/><path class="g" d="M-237.505,644.755l36.071-6.011S-230.669,643.032-237.505,644.755Z" transform="translate(277.251 -628.576)"/><path class="g" d="M-235.525,647.138l35.7-6.456S-228.688,645.415-235.525,647.138Z" transform="translate(275.784 -630.011)"/><path class="g" d="M-233.215,649.758l35.3-6.667S-226.379,648.035-233.215,649.758Z" transform="translate(274.074 -631.795)"/><g transform="translate(0.467 4.421)"><path class="h" d="M-388.148,616.587s24,3.533,29,4.266,6.2.518,6.032,2.606-.861,2.083-7.971,1.1-25.723-4.607-27.059-4.822S-388.89,616.478-388.148,616.587Z" transform="translate(388.942 -616.584)"/></g><g transform="translate(6.146 5.547)"><path class="i" d="M-349.339,631.8a.823.823,0,0,1-.138-.011c-6.419-1.041-14.143-2.668-16.358-3.143a1.137,1.137,0,0,1-.864-.841c-.3-1.265-.845-4.429.666-6.476a1.026,1.026,0,0,1,.954-.4l16.273,1.993a.879.879,0,0,1,.615.372.872.872,0,0,1,.13.7,21.289,21.289,0,0,0-.435,6.866.853.853,0,0,1-.268.707A.839.839,0,0,1-349.339,631.8Zm-15.872-10.669a.811.811,0,0,0-.657.32c-1.46,1.977-.928,5.069-.631,6.307a.93.93,0,0,0,.708.688c2.213.474,9.934,2.1,16.347,3.142a.635.635,0,0,0,.541-.164.65.65,0,0,0,.2-.539,21.519,21.519,0,0,1,.44-6.934.664.664,0,0,0-.1-.535.671.671,0,0,0-.472-.285l-16.273-1.994A.993.993,0,0,0-365.212,621.131Z" transform="translate(367.047 -620.926)"/></g><g transform="translate(28.32 10.887)"><g transform="translate(0)"><ellipse class="j" cx="1.896" cy="2.646" rx="1.896" ry="2.646"/></g><path class="k" d="M-281.083,644.247c0-1.461.848-2.646,1.895-2.646a1.4,1.4,0,0,0-.473-.086c-1.047,0-1.9,1.185-1.9,2.646s.849,2.646,1.9,2.646h0A2.636,2.636,0,0,1-281.083,644.247Z" transform="translate(281.556 -641.514)"/></g><g transform="translate(2.884 6.703)"><ellipse class="j" cx="1.451" cy="2.025" rx="1.451" ry="2.025"/><path class="k" d="M-379.26,627.474c0-1.117.649-2.024,1.45-2.024a1.071,1.071,0,0,0-.362-.066c-.8,0-1.45.907-1.45,2.024s.649,2.025,1.45,2.025h0A2.018,2.018,0,0,1-379.26,627.474Z" transform="translate(379.622 -625.383)"/></g></g><path class="l" d="M-231.854,651.063s.308,4.38.279,7.123c.8-.061,3.26-.421,3.26-.421S-228.963,651.14-231.854,651.063Z" transform="translate(273.066 -637.699)"/><path class="m" d="M-231.854,648.6s2.947,1.872,3.12,10.693c1.379-1.433,2.326-2.342,2.326-2.342l2.491,1.456s-1.638-9.336-3.568-10.646A22.392,22.392,0,0,0-231.854,648.6Z" transform="translate(273.066 -635.254)"/></g><g transform="translate(-386.631 566.382)"><path class="n" d="M-342.827,581.479s30.945-3.751,33.227-4.579,2.976-7.613.4-8.305-31.739-2.212-31.739-2.212l-33.946,1.163Z" transform="translate(374.889 -566.382)"/><g transform="translate(17.009 2.914)"><path class="o" d="M-261.033,585.22c-2.281.828-33.227,4.579-33.227,4.579l-15.052-8.875,15.12-2.952,34.512-.355C-258.307,579.541-259.1,584.519-261.033,585.22Z" transform="translate(309.312 -577.617)"/></g><g transform="translate(0.818 1.929)"><path class="p" d="M-371.734,573.818c6.3.152,28.773.8,31.838,2.32,3.571,1.776,2.38,9.681-.6,10.053-2.41.3-23.368-2.933-31.243-4.173Z" transform="translate(371.734 -573.818)"/></g><path class="q" d="M-341.546,578.69c-2.839-1.411-22.32-2.069-30.188-2.279v-2.593c6.3.152,28.773.8,31.838,2.32,3.242,1.612,2.559,8.276.179,9.769C-338.939,583.34-339.3,579.806-341.546,578.69Z" transform="translate(372.553 -571.89)"/><g transform="translate(0 1.163)"><path class="r" d="M-374.889,578.941c9.589,1.52,29.146,4.5,31.886,4.334.046,0,.089-.006.126-.011.79-.1,1.557-1.235,1.909-2.829.5-2.241.1-4.957-1.625-5.812-2.719-1.352-23.442-2.074-32.3-2.267v-1.492c5.349.114,29.616.725,33.018,2.416,2.47,1.228,2.952,4.694,2.355,7.4-.513,2.321-1.763,3.88-3.262,4.068q-.072.009-.163.015c-3.247.189-24.461-3.108-31.948-4.294Z" transform="translate(374.889 -570.864)"/></g><g class="s" transform="translate(1.215 3.114)"><path class="t" d="M-339.359,580.8l-30.846-2.413S-345.26,579.659-339.359,580.8Z" transform="translate(370.205 -578.389)"/><path class="t" d="M-337.929,584.034l-30.846-2.413S-343.83,582.891-337.929,584.034Z" transform="translate(369.146 -580.783)"/><path class="t" d="M-336.425,587.124l-31.39-2.574S-342.326,585.981-336.425,587.124Z" transform="translate(368.435 -582.952)"/><path class="t" d="M-336.246,589.962l-31.377-2.889S-342.148,588.82-336.246,589.962Z" transform="translate(368.293 -584.821)"/><path class="t" d="M-336.246,592.767l-31.377-3.087S-342.148,591.625-336.246,592.767Z" transform="translate(368.293 -586.752)"/><path class="t" d="M-336.246,595.2l-31.377-3.343S-342.148,594.053-336.246,595.2Z" transform="translate(368.293 -588.361)"/><path class="t" d="M-336.628,597.606l-31.187-3.3S-342.53,596.463-336.628,597.606Z" transform="translate(368.435 -590.175)"/><path class="t" d="M-336.486,600.145l-31.137-3.369S-342.388,599-336.486,600.145Z" transform="translate(368.293 -592.007)"/><path class="t" d="M-337.283,602.249l-30.818-3.772S-343.185,601.106-337.283,602.249Z" transform="translate(368.647 -593.267)"/><path class="t" d="M-338.3,604.57l-30.476-3.974S-344.2,603.427-338.3,604.57Z" transform="translate(369.146 -594.836)"/></g><g class="u" transform="translate(36.274 3.617)"><path class="v" d="M-205.034,580.334s-19.429,1.512-24.518,2.019c-4.383.437-5.622.135-5.474,1.931s2.655,1.417,8.875.753c6.908-.738,19.929-1.986,21.082-2.239S-204.394,580.2-205.034,580.334Z" transform="translate(235.037 -580.329)"/></g><g transform="translate(63.15 3.088)"><path class="w" d="M-131.318,586.138a.113.113,0,0,1-.1-.081.1.1,0,0,1,.071-.122,2.7,2.7,0,0,0,1.564-1.5,34.628,34.628,0,0,0,.494-3.987,2.056,2.056,0,0,0-.894-1.973.107.107,0,0,1-.046-.14.1.1,0,0,1,.137-.037,2.309,2.309,0,0,1,1.006,2.178,34.691,34.691,0,0,1-.5,4.015,2.877,2.877,0,0,1-1.708,1.639A.106.106,0,0,1-131.318,586.138Z" transform="translate(131.42 -578.289)"/></g><g transform="translate(61.817 3.229)"><path class="w" d="M-136.455,586.678a.111.111,0,0,1-.1-.081.1.1,0,0,1,.071-.122,2.692,2.692,0,0,0,1.564-1.5,34.574,34.574,0,0,0,.495-3.986,2.056,2.056,0,0,0-.894-1.973.107.107,0,0,1-.046-.14.1.1,0,0,1,.137-.037,2.311,2.311,0,0,1,1.007,2.178,34.854,34.854,0,0,1-.5,4.015,2.877,2.877,0,0,1-1.708,1.639A.109.109,0,0,1-136.455,586.678Z" transform="translate(136.557 -578.83)"/></g><path class="x" d="M-222.078,586.967a13.159,13.159,0,0,1-1.278,6.615c.829-.1,1.705-.213,2.614-.328a16.912,16.912,0,0,0,1.075-5.9,5.788,5.788,0,0,0-.937-3.421l-2.425.162A5.837,5.837,0,0,1-222.078,586.967Z" transform="translate(262.66 -579.381)"/><path class="x" d="M-207.073,585.992a13.067,13.067,0,0,1-1.176,6.372l2.607-.333a17.4,17.4,0,0,0,.979-5.652,5.787,5.787,0,0,0-.94-3.424l-2.425.162A5.841,5.841,0,0,1-207.073,585.992Z" transform="translate(251.471 -578.656)"/><path class="l" d="M-265.636,596.776s-.286,4.581-.258,7.138c-.745-.057-3.118-.282-3.118-.282S-268.331,596.848-265.636,596.776Z" transform="translate(296.474 -588.893)"/><path class="y" d="M-277.121,595.438s-2.747,2.057-2.908,10.28c-1.285-1.335-2.169-2.183-2.169-2.183l-2.322,1.357s1.526-8.7,3.326-9.924C-278.551,595.259-277.121,595.438-277.121,595.438Z" transform="translate(307.959 -587.554)"/></g></g></svg>