<svg xmlns="http://www.w3.org/2000/svg" viewBox="0 0 15.75 18" id="book">
    <path d="M15.75,12.656V.844A.842.842,0,0,0,14.906,0H3.375A3.376,3.376,0,0,0,0,3.375v11.25A3.376,3.376,0,0,0,3.375,18H14.906a.842.842,0,0,0,.844-.844v-.562a.85.85,0,0,0-.313-.657,7.84,7.84,0,0,1,0-2.626A.838.838,0,0,0,15.75,12.656ZM4.5,4.711A.212.212,0,0,1,4.711,4.5h7.453a.212.212,0,0,1,.211.211v.7a.212.212,0,0,1-.211.211H4.711A.212.212,0,0,1,4.5,5.414Zm0,2.25a.212.212,0,0,1,.211-.211h7.453a.212.212,0,0,1,.211.211v.7a.212.212,0,0,1-.211.211H4.711A.212.212,0,0,1,4.5,7.664Zm8.909,8.789H3.375a1.125,1.125,0,0,1,0-2.25H13.409A12.657,12.657,0,0,0,13.409,15.75Z"></path>
</svg>