<svg xmlns="http://www.w3.org/2000/svg" viewBox="0 0 9.06 12" id="chain-icon">
    <g transform="translate(-643.777 -287.957)">
        <path d="M645.248,290.02a1.144,1.144,0,0,0,0,1.612l4.079,4.079a2.11,2.11,0,0,1-2.182-.592l-2.68-2.68a2.145,2.145,0,0,1-.688-1.6,2.225,2.225,0,0,1,.688-1.624l.593-.592a2.29,2.29,0,0,1,3.225,0l2.679,2.68a2.117,2.117,0,0,1,.57,2.2l-4.055-4.079a1.146,1.146,0,0,0-1.612,0Zm.4,6.593a2.121,2.121,0,0,1-.569-2.206l4.055,4.079a1.146,1.146,0,0,0,1.612,0l.617-.593a1.144,1.144,0,0,0,0-1.612l-4.079-4.079a2.112,2.112,0,0,1,2.182.592l2.68,2.68a2.148,2.148,0,0,1,.688,1.6,2.224,2.224,0,0,1-.688,1.624l-.593.592a2.29,2.29,0,0,1-3.226,0Z"></path>
    </g>
</svg>