<svg xmlns="http://www.w3.org/2000/svg" viewBox="0 0 14 14" id="clock">
    <path d="M13.012-11.887a6.745,6.745,0,0,0-4.95-2.05,6.745,6.745,0,0,0-4.95,2.05,6.745,6.745,0,0,0-2.05,4.95,6.745,6.745,0,0,0,2.05,4.95A6.745,6.745,0,0,0,8.063.063a6.745,6.745,0,0,0,4.95-2.05,6.745,6.745,0,0,0,2.05-4.95A6.745,6.745,0,0,0,13.012-11.887Zm1.113,4.95a5.844,5.844,0,0,1-1.772,4.291A5.844,5.844,0,0,1,8.063-.875,5.844,5.844,0,0,1,3.772-2.647,5.844,5.844,0,0,1,2-6.937a5.844,5.844,0,0,1,1.772-4.291A5.844,5.844,0,0,1,8.063-13a5.844,5.844,0,0,1,4.291,1.772A5.844,5.844,0,0,1,14.125-6.937Zm-3.28-.5H8.5v-3.28a.456.456,0,0,0-.132-.337.456.456,0,0,0-.337-.132.456.456,0,0,0-.337.132.456.456,0,0,0-.132.337v3.749A.456.456,0,0,0,7.7-6.63a.456.456,0,0,0,.337.132h2.812a.456.456,0,0,0,.337-.132.456.456,0,0,0,.132-.337.456.456,0,0,0-.132-.337A.456.456,0,0,0,10.845-7.435Z" transform="translate(-1.063 13.938)"></path>
</svg>