<svg xmlns="http://www.w3.org/2000/svg" viewBox="0 0 51.489 41" id="component-discussion-icon">
  <g transform="translate(-456.5 -1767.5)">
    <path fill="#4d7efb" d="M7371.339,2123.276h-9.659a8.815,8.815,0,0,1-8.8,7.227.564.564,0,0,1-.372-1c2.985-2.317,1.856-6.222,1.856-6.222h-4.489a8.611,8.611,0,0,1-8.585-8.585v-8.585a8.611,8.611,0,0,1,8.585-8.585h21.463a8.61,8.61,0,0,1,8.585,8.585v8.585A8.61,8.61,0,0,1,7371.339,2123.276Z" transform="translate(-6881.355 -327.564)"/>
    <path fill="#4d7efb" stroke="#000" stroke-linecap="round" stroke-linejoin="round" d="M7371.339,2123.276h-9.659a8.815,8.815,0,0,1-8.8,7.227.564.564,0,0,1-.372-1c2.985-2.317,1.856-6.222,1.856-6.222h-4.489a8.611,8.611,0,0,1-8.585-8.585v-8.585a8.611,8.611,0,0,1,8.585-8.585h21.463a8.61,8.61,0,0,1,8.585,8.585v8.585A8.61,8.61,0,0,1,7371.339,2123.276Z" transform="translate(-6884.291 -329.521)"/>
    <g transform="translate(463.801 1777.762)">
      <circle fill="#fff" stroke="#000" stroke-linecap="round" stroke-linejoin="round" cx="2.827" cy="2.827" r="2.827"/>
      <path fill="#fff" stroke="#000" stroke-linecap="round" stroke-linejoin="round" d="M7376.88,2118.07a2.827,2.827,0,1,0-2.828,2.827A2.827,2.827,0,0,0,7376.88,2118.07Z" transform="translate(-7361.537 -2115.243)"/>
      <circle fill="#fff" stroke="#000" stroke-linecap="round" stroke-linejoin="round" cx="2.827" cy="2.827" r="2.827" transform="translate(19.378)"/>
    </g>
    <g transform="translate(483.424 1786.647)">
      <path fill="#24d6f4" d="M7346.262,2112.431h5.591a5.1,5.1,0,0,0,5.094,4.184.326.326,0,0,0,.216-.581,3.535,3.535,0,0,1-1.074-3.6h2.6a4.986,4.986,0,0,0,4.971-4.97v-4.969a4.985,4.985,0,0,0-4.971-4.97h-12.424a4.985,4.985,0,0,0-4.97,4.97v4.969A4.985,4.985,0,0,0,7346.262,2112.431Z" transform="translate(-7341.292 -2097.521)"/>
      <path fill="none" stroke="#000" stroke-linecap="round" stroke-linejoin="round" d="M7346.262,2112.431h5.591a5.1,5.1,0,0,0,5.094,4.184.326.326,0,0,0,.216-.581,3.535,3.535,0,0,1-1.074-3.6h2.6a4.986,4.986,0,0,0,4.971-4.97v-4.969a4.985,4.985,0,0,0-4.971-4.97h-12.424a4.985,4.985,0,0,0-4.97,4.97v4.969A4.985,4.985,0,0,0,7346.262,2112.431Z" transform="translate(-7339.592 -2095.263)"/>
      <g transform="translate(5.637 7.91)">
        <ellipse fill="#fff" stroke="#000" stroke-linecap="round" stroke-linejoin="round" cx="1.637" cy="1.637" rx="1.637" ry="1.637" transform="translate(11.218)"/>
        <path fill="#fff" stroke="#000" stroke-linecap="round" stroke-linejoin="round" d="M7371.227,2116.88a1.637,1.637,0,1,1,1.636,1.636A1.636,1.636,0,0,1,7371.227,2116.88Z" transform="translate(-7365.617 -2115.243)"/>
        <ellipse fill="#fff" stroke="#000" stroke-linecap="round" stroke-linejoin="round" cx="1.637" cy="1.637" rx="1.637" ry="1.637"/>
      </g>
    </g>
  </g>
</svg>
