<svg xmlns="http://www.w3.org/2000/svg" viewBox="0 0 40.65 40.5" id="component-problem-icon">
  <g transform="translate(-801.5 -1767.5)">
    <g transform="translate(108 20)">
      <circle fill="#4d7efb" cx="18.604" cy="18.604" r="18.604" transform="translate(696.941 1750.791)"/>
      <circle fill="none" stroke="#000" stroke-linejoin="round" cx="18.604" cy="18.604" r="18.604" transform="translate(694 1748)"/>
      <path fill="#24d6f4" stroke="#000" d="M7.1,0A6.812,6.812,0,0,0,1.052,3.2a.845.845,0,0,0,.182,1.156L2.75,5.506A.844.844,0,0,0,3.919,5.36c.881-1.1,1.534-1.738,2.909-1.738,1.082,0,2.419.7,2.419,1.745,0,.793-.655,1.2-1.722,1.8-1.245.7-2.893,1.567-2.893,3.741v.344a.844.844,0,0,0,.844.844H8.024a.844.844,0,0,0,.844-.844v-.2c0-1.507,4.4-1.57,4.4-5.647C13.272,2.329,10.086,0,7.1,0ZM6.75,13.129a2.435,2.435,0,1,0,2.435,2.435A2.438,2.438,0,0,0,6.75,13.129Z" transform="translate(705.519 1757.604)"/>
    </g>
  </g>
</svg>
