<svg xmlns="http://www.w3.org/2000/svg" viewBox="0 0 55.523 32.697" id="component-html-icon">
  <g transform="translate(-624.268 -1776.303)">
    <g transform="translate(33.354 1.32)">
      <g transform="translate(593.291 1777.194)">
        <path fill="#4d7efb" d="M-14150.49-3722.32l13.418,10.309-13.418,14.987-3.777-4.393,9.277-9.569-9.277-6.562Z" transform="translate(14190.219 3727.51)"/>
        <path fill="#4d7efb" d="M-14140.85-3722.32l-13.418,10.309,13.418,14.987,3.777-4.393-9.277-9.569,9.277-6.562Z" transform="translate(14154.268 3722.32)"/>
        <path fill="#24d6f4" d="M-14172.563-3731.923h5.991l-10.278,30.222h-5.419Z" transform="translate(14200.994 3732.187)"/>
      </g>
      <g transform="translate(591.646 1775.68)">
        <path fill="none" stroke="#000" d="M-14150.49-3722.32l13.418,10.309-13.418,14.987-3.777-4.393,9.277-9.569-9.277-6.562Z" transform="translate(14190.219 3727.51)"/>
        <path fill="none" stroke="#000" d="M-14140.85-3722.32l-13.418,10.309,13.418,14.987,3.777-4.393-9.277-9.569,9.277-6.562Z" transform="translate(14154.268 3722.32)"/>
        <path fill="none" stroke="#000" d="M-14172.563-3731.923h5.991l-10.278,30.222h-5.419Z" transform="translate(14200.994 3732.187)"/>
      </g>
    </g>
  </g>
</svg>
