<svg xmlns="http://www.w3.org/2000/svg" viewBox="0 0 52 52" id="component-discussion-icon">
    <g>
        <g>
            <path fill="#cccccc" d="M33.48 33.21L23.83 33.21C23.64 34.23 23.27 35.21 22.75 36.1C22.23 36.99 21.55 37.78 20.75 38.44C19.95 39.09 19.04 39.6 18.06 39.95C17.09 40.29 16.06 40.45 15.03 40.44C14.91 40.44 14.79 40.41 14.69 40.34C14.6 40.28 14.52 40.18 14.48 40.07C14.44 39.96 14.44 39.84 14.47 39.73C14.5 39.61 14.56 39.51 14.65 39.44C17.64 37.12 16.51 33.22 16.51 33.22L12.02 33.22C10.89 33.21 9.78 32.99 8.74 32.56C7.7 32.12 6.75 31.49 5.96 30.69C5.16 29.9 4.53 28.95 4.1 27.91C3.66 26.87 3.44 25.76 3.44 24.63L3.44 16.05C3.44 14.92 3.66 13.81 4.1 12.77C4.53 11.73 5.16 10.78 5.96 9.98C6.75 9.19 7.7 8.56 8.74 8.12C9.78 7.69 10.89 7.47 12.02 7.46L33.48 7.46C34.61 7.47 35.72 7.69 36.76 8.12C37.8 8.55 38.75 9.19 39.55 9.98C40.34 10.78 40.98 11.73 41.41 12.77C41.84 13.81 42.06 14.92 42.07 16.05L42.07 24.63C42.06 25.76 41.84 26.87 41.41 27.91C40.97 28.95 40.34 29.9 39.54 30.69C38.75 31.49 37.8 32.12 36.76 32.55C35.72 32.98 34.61 33.21 33.48 33.21L33.48 33.21Z"></path>
            <path fill="none" stroke="#000000" stroke-linecap="round" stroke-linejoin="round" d="M30.55 31.25L20.89 31.25C20.7 32.27 20.34 33.25 19.81 34.14C19.29 35.03 18.61 35.82 17.81 36.48C17.01 37.14 16.1 37.65 15.13 37.99C14.15 38.33 13.12 38.5 12.09 38.48C11.97 38.49 11.86 38.45 11.76 38.39C11.66 38.32 11.59 38.22 11.55 38.11C11.5 38 11.5 37.88 11.53 37.77C11.56 37.66 11.63 37.56 11.72 37.48C14.7 35.16 13.57 31.26 13.57 31.26L9.08 31.26C7.96 31.26 6.84 31.03 5.8 30.6C4.76 30.17 3.82 29.53 3.02 28.74C2.22 27.94 1.59 27 1.16 25.96C0.73 24.92 0.5 23.8 0.5 22.67L0.5 14.09C0.5 12.96 0.73 11.85 1.16 10.81C1.59 9.77 2.22 8.82 3.02 8.03C3.82 7.23 4.76 6.6 5.8 6.17C6.84 5.73 7.96 5.51 9.08 5.5L30.55 5.5C31.67 5.51 32.79 5.73 33.83 6.17C34.87 6.6 35.81 7.23 36.61 8.03C37.41 8.82 38.04 9.77 38.47 10.81C38.9 11.85 39.13 12.96 39.13 14.09L39.13 22.67C39.13 23.8 38.9 24.92 38.47 25.95C38.04 26.99 37.41 27.94 36.61 28.73C35.81 29.53 34.87 30.16 33.83 30.6C32.79 31.03 31.67 31.25 30.55 31.26L30.55 31.25Z"></path>
            <g>
                <path fill="#ffffff" stroke="#000000" stroke-linecap="round" stroke-linejoin="round" d="M10.13 20.92C8.56 20.92 7.3 19.65 7.3 18.09C7.3 16.53 8.56 15.26 10.13 15.26C11.69 15.26 12.95 16.53 12.95 18.09C12.95 19.65 11.69 20.92 10.13 20.92Z"></path>
                <path fill="#ffffff" stroke="#000000" stroke-linecap="round" stroke-linejoin="round" d="M22.64 18.09C22.64 16.95 21.95 15.91 20.9 15.48C19.84 15.04 18.63 15.28 17.82 16.09C17.01 16.9 16.77 18.11 17.2 19.17C17.64 20.23 18.67 20.92 19.81 20.92C20.19 20.92 20.55 20.84 20.9 20.7C21.24 20.56 21.55 20.35 21.81 20.09C22.08 19.83 22.29 19.51 22.43 19.17C22.57 18.83 22.64 18.46 22.64 18.09L22.64 18.09Z"></path>
                <path fill="#ffffff" stroke="#000000" stroke-linecap="round" stroke-linejoin="round" d="M29.51 20.92C27.94 20.92 26.68 19.65 26.68 18.09C26.68 16.53 27.94 15.26 29.51 15.26C31.07 15.26 32.33 16.53 32.33 18.09C32.33 19.65 31.07 20.92 29.51 20.92Z"></path>
            </g>
        </g>
        <g>
            <path fill="#e6e6e6" d="M31.89 39.06L37.48 39.06C37.59 39.65 37.8 40.21 38.11 40.73C38.41 41.24 38.8 41.7 39.27 42.08C39.73 42.46 40.25 42.76 40.82 42.96C41.38 43.15 41.98 43.25 42.58 43.24C42.65 43.24 42.72 43.23 42.77 43.19C42.83 43.15 42.87 43.09 42.9 43.03C42.92 42.97 42.92 42.9 42.91 42.83C42.89 42.76 42.85 42.7 42.8 42.66C42.55 42.44 42.33 42.19 42.15 41.91C41.97 41.63 41.83 41.33 41.74 41.02C41.65 40.7 41.6 40.37 41.59 40.04C41.59 39.71 41.63 39.38 41.72 39.06L44.32 39.06C44.97 39.06 45.62 38.93 46.22 38.68C46.82 38.43 47.37 38.06 47.83 37.6C48.29 37.14 48.66 36.59 48.91 35.99C49.16 35.39 49.29 34.74 49.29 34.09L49.29 29.12C49.29 28.47 49.16 27.82 48.91 27.22C48.66 26.62 48.29 26.07 47.83 25.61C47.37 25.15 46.82 24.78 46.22 24.53C45.62 24.28 44.97 24.15 44.32 24.15L31.9 24.15C31.24 24.15 30.6 24.28 30 24.53C29.4 24.78 28.85 25.15 28.39 25.61C27.93 26.07 27.56 26.62 27.31 27.22C27.06 27.82 26.93 28.47 26.93 29.12L26.93 34.09C26.93 34.74 27.06 35.39 27.31 35.99C27.56 36.59 27.93 37.14 28.39 37.6C28.85 38.06 29.39 38.42 30 38.68C30.6 38.93 31.24 39.06 31.89 39.06Z"></path>
            <path fill="none" stroke="#000000" stroke-linecap="round" stroke-linejoin="round" d="M33.59 41.32L39.19 41.32C39.29 41.91 39.5 42.47 39.81 42.99C40.11 43.5 40.5 43.96 40.97 44.34C41.43 44.72 41.95 45.02 42.52 45.21C43.08 45.41 43.68 45.51 44.28 45.5C44.35 45.5 44.42 45.48 44.47 45.45C44.53 45.41 44.57 45.35 44.6 45.29C44.62 45.22 44.62 45.15 44.61 45.09C44.59 45.02 44.55 44.96 44.5 44.92C44.25 44.7 44.03 44.45 43.85 44.17C43.67 43.89 43.53 43.59 43.44 43.27C43.35 42.96 43.3 42.63 43.29 42.3C43.29 41.97 43.33 41.64 43.42 41.32L46.02 41.32C46.67 41.32 47.32 41.19 47.92 40.94C48.52 40.69 49.07 40.32 49.53 39.86C49.99 39.4 50.36 38.85 50.61 38.25C50.86 37.65 50.99 37 50.99 36.35L50.99 31.38C50.99 30.73 50.86 30.08 50.61 29.48C50.36 28.88 49.99 28.33 49.53 27.87C49.07 27.41 48.52 27.04 47.92 26.79C47.32 26.54 46.67 26.41 46.02 26.41L33.6 26.41C32.94 26.41 32.3 26.54 31.7 26.79C31.1 27.04 30.55 27.41 30.09 27.87C29.63 28.33 29.26 28.88 29.01 29.48C28.76 30.08 28.63 30.73 28.63 31.38L28.63 36.35C28.63 37 28.76 37.65 29.01 38.25C29.26 38.85 29.63 39.4 30.09 39.86C30.55 40.32 31.09 40.68 31.7 40.93C32.3 41.18 32.94 41.31 33.59 41.32Z"></path>
            <g>
                <path fill="#ffffff" stroke="#000000" stroke-linecap="round" stroke-linejoin="round" d="M45.42 35.33C44.51 35.33 43.78 34.6 43.78 33.7C43.78 32.79 44.51 32.06 45.42 32.06C46.32 32.06 47.05 32.79 47.05 33.7C47.05 34.6 46.32 35.33 45.42 35.33Z"></path>
                <path fill="#ffffff" stroke="#000000" stroke-linecap="round" stroke-linejoin="round" d="M38.17 33.7C38.17 33.03 38.57 32.44 39.18 32.18C39.79 31.93 40.5 32.07 40.97 32.54C41.43 33 41.57 33.71 41.32 34.32C41.07 34.93 40.47 35.33 39.81 35.33C39.59 35.33 39.38 35.29 39.18 35.21C38.98 35.12 38.8 35 38.65 34.85C38.5 34.7 38.38 34.52 38.3 34.32C38.21 34.12 38.17 33.91 38.17 33.7Z"></path>
                <path fill="#ffffff" stroke="#000000" stroke-linecap="round" stroke-linejoin="round" d="M34.2 35.33C33.29 35.33 32.56 34.6 32.56 33.7C32.56 32.79 33.29 32.06 34.2 32.06C35.1 32.06 35.83 32.79 35.83 33.7C35.83 34.6 35.1 35.33 34.2 35.33Z"></path>
            </g>
        </g>
    </g>
</svg>