<svg xmlns="http://www.w3.org/2000/svg" viewBox="0 0 41 41" id="component-advanced-icon">
    <style>tspan { white-space:pre }
      .shp0 { fill: #cccccc } 
      .shp1 { fill: none;stroke: #000000 }</style>
    <g>
        <path fill-rule="evenodd" class="shp0" d="M37.8 34.05C38.17 34.71 38.37 35.45 38.37 36.2C38.37 36.95 38.17 37.7 37.8 38.35C37.42 39 36.88 39.54 36.22 39.92C35.57 40.3 34.83 40.5 34.08 40.5L8.98 40.5C8.6 40.5 8.23 40.45 7.86 40.36C7.5 40.26 7.15 40.12 6.83 39.93C6.5 39.74 6.2 39.51 5.94 39.25C5.67 38.98 5.45 38.68 5.26 38.35C5.07 38.03 4.92 37.68 4.82 37.32C4.73 36.95 4.68 36.58 4.68 36.2C4.68 35.83 4.73 35.45 4.82 35.09C4.92 34.73 5.07 34.38 5.26 34.05L16.84 14.01L16.84 2.84L14.5 2.84L14.5 0.5L28.56 0.5L28.56 2.84L26.22 2.84L26.22 14.01L37.8 34.05L37.8 34.05ZM13.33 29.48C13.33 29.69 13.37 29.89 13.45 30.08C13.53 30.27 13.64 30.44 13.79 30.59C13.93 30.73 14.1 30.85 14.29 30.93C14.48 31.01 14.69 31.05 14.89 31.05C15.52 31.05 16.09 30.67 16.33 30.08C16.58 29.5 16.44 28.83 16 28.38C15.55 27.93 14.88 27.8 14.29 28.04C13.71 28.28 13.33 28.85 13.33 29.48ZM16.45 35.73C16.66 35.73 16.86 35.69 17.05 35.61C17.24 35.54 17.41 35.42 17.56 35.28C17.7 35.13 17.82 34.96 17.9 34.77C17.98 34.58 18.02 34.38 18.02 34.17C18.02 33.54 17.64 32.97 17.05 32.73C16.47 32.48 15.79 32.62 15.35 33.07C14.9 33.51 14.77 34.19 15.01 34.77C15.25 35.35 15.82 35.73 16.45 35.73ZM23.49 32.22C23.79 32.22 24.1 32.16 24.38 32.04C24.67 31.92 24.93 31.75 25.14 31.53C25.36 31.31 25.53 31.06 25.65 30.77C25.77 30.49 25.83 30.18 25.83 29.87C25.83 28.93 25.26 28.07 24.38 27.71C23.51 27.35 22.5 27.55 21.83 28.22C21.16 28.89 20.96 29.9 21.32 30.77C21.68 31.65 22.54 32.22 23.48 32.22L23.49 32.22ZM27.99 21.75L23.88 14.64L23.88 2.84L19.19 2.84L19.19 14.64L15.08 21.75L27.99 21.75ZM30.52 35.73C30.72 35.73 30.92 35.69 31.11 35.61C31.3 35.54 31.48 35.42 31.62 35.28C31.76 35.13 31.88 34.96 31.96 34.77C32.04 34.58 32.08 34.38 32.08 34.17C32.08 33.54 31.7 32.97 31.11 32.73C30.53 32.48 29.86 32.62 29.41 33.07C28.96 33.51 28.83 34.19 29.07 34.77C29.31 35.36 29.88 35.74 30.52 35.73Z"></path>
        <g>
            <path class="shp1" d="M11.5 0.5L25.5 0.5"></path>
            <path class="shp1" d="M14.7 0.5L14.7 13.1L3.37 32.63C3.37 32.63 0.27 37.91 5.76 38.4L31.33 38.4C31.33 38.4 36.15 37.86 34.48 32.63C32.31 28.91 22.72 13.1 22.72 13.1L22.72 0.5"></path>
        </g>
    </g>
</svg>