<svg xmlns="http://www.w3.org/2000/svg" viewBox="0 0 41 41" id="component-video-icon">
    <style>tspan { white-space:pre }
      .shp0 { fill: #cccccc } 
      .shp1 { fill: none;stroke: #000000;stroke-linejoin:round } 
      .shp2 { fill: #ffffff;stroke: #000000;stroke-linejoin:round }</style>
    <g>
        <path class="shp0" d="M22.05 40.5C11.76 40.5 3.44 32.18 3.44 21.9C3.44 11.61 11.76 3.29 22.05 3.29C32.33 3.29 40.65 11.61 40.65 21.9C40.65 32.18 32.33 40.5 22.05 40.5Z"></path>
        <g>
            <path class="shp1" d="M19.1 37.71C8.82 37.71 0.5 29.39 0.5 19.1C0.5 8.82 8.82 0.5 19.1 0.5C29.39 0.5 37.71 8.82 37.71 19.1C37.71 29.39 29.39 37.71 19.1 37.71Z"></path>
            <path class="shp2" d="M16.26 9.81C16.05 9.66 15.79 9.58 15.53 9.57C15.28 9.56 15.02 9.62 14.79 9.74C14.56 9.86 14.37 10.05 14.23 10.27C14.1 10.49 14.03 10.75 14.03 11.01L14.03 27.21C14.03 27.47 14.1 27.72 14.23 27.95C14.37 28.17 14.56 28.35 14.79 28.47C15.02 28.6 15.28 28.66 15.53 28.64C15.79 28.63 16.05 28.55 16.26 28.41L28.51 20.31C28.71 20.18 28.87 20 28.98 19.79C29.1 19.58 29.16 19.34 29.16 19.11C29.16 18.87 29.1 18.64 28.98 18.43C28.87 18.22 28.71 18.04 28.51 17.91L16.26 9.81Z"></path>
        </g>
    </g>
</svg>