<svg xmlns="http://www.w3.org/2000/svg" viewBox="0 0 15 20" id="compress-icon">
    <path d="M14.727,4.1,10.9.273A.937.937,0,0,0,10.238,0H10V5h5V4.762A.935.935,0,0,0,14.727,4.1ZM5.016,13.125A1.175,1.175,0,0,0,3.75,14.18a1.176,1.176,0,0,0,1.27,1.055A1.175,1.175,0,0,0,6.285,14.18,1.179,1.179,0,0,0,5.016,13.125ZM8.75,5.313V0H6.266V1.25H5.016V0H.938A.935.935,0,0,0,0,.938V19.063A.935.935,0,0,0,.938,20H14.063A.935.935,0,0,0,15,19.063V6.25H9.688A.94.94,0,0,1,8.75,5.313Zm-5-4.062H5V2.5H3.746Zm1.262,15A2.048,2.048,0,0,1,3,13.793L3.766,10V8.75h1.25V7.5H3.766V6.25h1.25V5H3.766V3.75h1.25V2.5h1.25V3.75H5.016V5h1.25V6.25H5.016V7.5h1.25V8.75H5.016V10h.863a.472.472,0,0,1,.461.379L7.016,13.8A2.048,2.048,0,0,1,5.008,16.25Z"></path>
</svg>