<svg xmlns="http://www.w3.org/2000/svg" viewBox="0 0 41 41" id="component-problem-icon">
    <g>
        <path fill="#cccccc" d="M22.05 40.5C11.76 40.5 3.44 32.18 3.44 21.89C3.44 11.61 11.76 3.29 22.05 3.29C32.33 3.29 40.65 11.61 40.65 21.89C40.65 32.18 32.33 40.5 22.05 40.5Z"></path>
        <path fill="none" stroke="#000000" stroke-linejoin="round" d="M19.1 37.71C8.82 37.71 0.5 29.39 0.5 19.1C0.5 8.82 8.82 0.5 19.1 0.5C29.39 0.5 37.71 8.82 37.71 19.1C37.71 29.39 29.39 37.71 19.1 37.71Z"></path>
        <path fill="#ffffff" stroke="#000000" d="M19.12 10.1C18.52 10.08 17.92 10.14 17.34 10.27C16.76 10.4 16.19 10.61 15.66 10.89C15.14 11.17 14.65 11.52 14.21 11.93C13.77 12.33 13.39 12.8 13.07 13.3C13.01 13.39 12.97 13.49 12.94 13.6C12.92 13.7 12.91 13.81 12.93 13.92C12.95 14.03 12.98 14.13 13.04 14.22C13.09 14.31 13.17 14.39 13.25 14.46L14.77 15.61C14.86 15.68 14.95 15.72 15.06 15.75C15.17 15.78 15.28 15.79 15.38 15.77C15.49 15.76 15.6 15.73 15.69 15.67C15.79 15.62 15.87 15.55 15.94 15.46C16.82 14.36 17.47 13.73 18.85 13.73C19.93 13.73 21.27 14.43 21.27 15.47C21.27 16.26 20.61 16.67 19.54 17.27C18.3 17.97 16.65 18.84 16.65 21.01L16.65 21.36C16.65 21.47 16.67 21.58 16.72 21.68C16.76 21.78 16.82 21.87 16.9 21.95C16.98 22.03 17.07 22.09 17.17 22.14C17.27 22.18 17.38 22.2 17.5 22.2L20.04 22.2C20.15 22.2 20.26 22.18 20.37 22.14C20.47 22.09 20.56 22.03 20.64 21.95C20.72 21.87 20.78 21.78 20.82 21.68C20.87 21.58 20.89 21.47 20.89 21.36L20.89 21.16C20.89 19.65 25.29 19.59 25.29 15.51C25.29 12.43 22.11 10.1 19.12 10.1ZM18.77 23.23C17.78 23.23 16.9 23.83 16.52 24.74C16.14 25.65 16.35 26.69 17.05 27.39C17.74 28.09 18.79 28.29 19.7 27.92C20.61 27.54 21.2 26.65 21.2 25.67C21.2 25.35 21.14 25.03 21.02 24.74C20.9 24.44 20.72 24.17 20.49 23.95C20.26 23.72 20 23.54 19.7 23.42C19.41 23.3 19.09 23.23 18.77 23.23L18.77 23.23Z"></path>
    </g>
</svg>