<svg xmlns="http://www.w3.org/2000/svg" viewBox="0 0 36.389 40.5" id="component-advanced-icon">
  <g transform="translate(-289.999 -1767.5)">
    <path fill="#4d7efb" d="M30.128,33.552,18.543,13.514V2.344h2.344V0H6.824V2.344H9.168v11.17L-2.417,33.552a4.252,4.252,0,0,0,0,4.3A4.252,4.252,0,0,0,1.3,40h25.1a4.3,4.3,0,0,0,3.72-6.448ZM5.652,28.984a1.562,1.562,0,1,1,1.563,1.563A1.563,1.563,0,0,1,5.652,28.984Zm3.125,6.25a1.563,1.563,0,1,1,1.562-1.562A1.563,1.563,0,0,1,8.777,35.234Zm7.031-3.516a2.344,2.344,0,1,1,2.344-2.344A2.344,2.344,0,0,1,15.809,31.719ZM7.4,21.25l4.109-7.107V2.344H16.2v11.8l4.109,7.107ZM22.84,35.234A1.563,1.563,0,1,1,24.4,33.672,1.563,1.563,0,0,1,22.84,35.234Zm0,0" transform="translate(295.676 1768)"/>
    <g transform="translate(141 52.5)">
      <line fill="none" stroke="#000" x2="14" transform="translate(158.5 1715.5)"/>
      <path fill="none" stroke="#000" d="M-14634.4-3786.5v12.6l-11.324,19.535s-3.1,5.277,2.389,5.767h25.564s4.82-.538,3.152-5.767c-2.166-3.727-11.754-19.535-11.754-19.535v-12.6" transform="translate(14796.096 5502)"/>
    </g>
  </g>
</svg>
