<svg xmlns="http://www.w3.org/2000/svg" viewBox="0 0 14 12.923" id="date">
    <g transform="translate(-3.375 -4.5)">
        <path d="M16.029,6.75H14.683v.808a.27.27,0,0,1-.269.269h-.538a.27.27,0,0,1-.269-.269V6.75H7.144v.808a.27.27,0,0,1-.269.269H6.337a.27.27,0,0,1-.269-.269V6.75H4.721A1.35,1.35,0,0,0,3.375,8.1V17.25A1.35,1.35,0,0,0,4.721,18.6H16.029a1.35,1.35,0,0,0,1.346-1.346V8.1A1.35,1.35,0,0,0,16.029,6.75Zm.269,10.1a.675.675,0,0,1-.673.673H5.125a.675.675,0,0,1-.673-.673V10.788a.27.27,0,0,1,.269-.269H16.029a.27.27,0,0,1,.269.269Z" transform="translate(0 -1.173)"></path>
        <path d="M10.077,4.769A.27.27,0,0,0,9.808,4.5H9.269A.27.27,0,0,0,9,4.769v.808h1.077Z" transform="translate(-2.933 0)"></path>
        <path d="M25.827,4.769a.27.27,0,0,0-.269-.269h-.538a.27.27,0,0,0-.269.269v.808h1.077Z" transform="translate(-11.144 0)"></path>
    </g>
</svg>