<svg xmlns="http://www.w3.org/2000/svg" viewBox="0 0 20 20" id="double-refresh-icon">
    <g transform="translate(0 -0.003)">
        <g transform="translate(0 0.003)">
            <path d="M24.656,1.083a.818.818,0,0,0-1.172,0l-1.693,1.68A10.085,10.085,0,0,0,18.6.726,9.827,9.827,0,0,0,14.9,0a9.615,9.615,0,0,0-6.25,2.168A10.155,10.155,0,0,0,5.137,7.828V7.92a.422.422,0,0,0,.417.417H8.145a.391.391,0,0,0,.391-.3,15.742,15.742,0,0,1,.69-1.523A6.641,6.641,0,0,1,14.9,3.336,6.47,6.47,0,0,1,19.447,5.12l-1.8,1.8a.833.833,0,0,0,.586,1.419H24.07A.845.845,0,0,0,24.9,7.5V1.669A.8.8,0,0,0,24.656,1.083Z" transform="translate(-4.903 -0.003)"></path>
            <path d="M19.258,255.8h-2.5a.39.39,0,0,0-.39.3,15.753,15.753,0,0,1-.69,1.523A6.641,6.641,0,0,1,10,260.8a6.5,6.5,0,0,1-2.435-.469A6.722,6.722,0,0,1,5.469,259l1.784-1.784a.834.834,0,0,0-.586-1.42H.833a.8.8,0,0,0-.586.248.8.8,0,0,0-.247.586v5.833a.8.8,0,0,0,.247.586.8.8,0,0,0,.586.248.8.8,0,0,0,.586-.248l1.68-1.68a9.943,9.943,0,0,0,3.171,2.044,9.752,9.752,0,0,0,3.678.716,9.546,9.546,0,0,0,6.224-2.168,10.12,10.12,0,0,0,3.49-5.658.223.223,0,0,0,.013-.091.422.422,0,0,0-.417-.417Z" transform="translate(0 -244.135)"></path>
        </g>
    </g>
</svg>