<svg xmlns="http://www.w3.org/2000/svg" viewBox="0 0 11.436 10" id="double-right-arrow">
    <g transform="translate(-1261.563 -348.999)">
        <path d="M15.241,11.194,11.456,7.413a.712.712,0,0,1,0-1.009.721.721,0,0,1,1.012,0l4.287,4.284a.713.713,0,0,1,.021.985l-4.305,4.314a.715.715,0,0,1-1.012-1.009Z" transform="translate(1256.035 342.803)"></path>
        <path d="M15.241,11.194,11.456,7.413a.712.712,0,0,1,0-1.009.721.721,0,0,1,1.012,0l4.287,4.284a.713.713,0,0,1,.021.985l-4.305,4.314a.715.715,0,0,1-1.012-1.009Z" transform="translate(1250.316 342.803)"></path>
    </g>
</svg>