<svg xmlns="http://www.w3.org/2000/svg" viewBox="0 0 20 20.002" id="double-check-icon">
    <path d="M19.725,6.827,18.178,5.28a.934.934,0,0,0-1.324,0L7.5,14.636,3.147,10.28a.934.934,0,0,0-1.324,0L.272,11.831a.938.938,0,0,0,0,1.328l6.562,6.566a.934.934,0,0,0,1.324,0L19.721,8.155A.942.942,0,0,0,19.725,6.827ZM7.057,10.968a.62.62,0,0,0,.883,0l8.125-8.133a.627.627,0,0,0,0-.883L14.3.183a.62.62,0,0,0-.883,0L7.5,6.1,5.334,3.933a.62.62,0,0,0-.883,0L2.682,5.7a.627.627,0,0,0,0,.883Z" transform="translate(0.004 0.002)"></path>
</svg>