<svg xmlns="http://www.w3.org/2000/svg" viewBox="0 0 16 16" id="double-refresh-icon">
  <path d="M1.922,8.738A6.33,6.33,0,0,1,1.875,8,6.1,6.1,0,0,1,12.109,3.491l-.541.55a.479.479,0,0,0-.122.469.491.491,0,0,0,.356.319c.094.019,3.194,1.018,3,.978a.474.474,0,0,0,.553-.553c-.019-.094-.705-3.538-.666-3.341a.464.464,0,0,0-.787-.234l-.459.45A8.005,8.005,0,0,0,0,8v.019c0,.264.012.469.026.625A.469.469,0,0,0,.4,9.061l.963.193A.469.469,0,0,0,1.922,8.738Zm0,0"/>
  <path d="M35.407,215.628l-.966-.2a.469.469,0,0,0-.559.516,6.381,6.381,0,0,1,.048.742,6.092,6.092,0,0,1-10.234,4.5l.541-.541a.479.479,0,0,0,.122-.469.49.49,0,0,0-.356-.319c-.094-.019-3.194-1.018-3-.978a.459.459,0,0,0-.422.131.467.467,0,0,0-.131.422l.666,3.309a.469.469,0,0,0,.328.356.45.45,0,0,0,.459-.122l.45-.45a7.988,7.988,0,0,0,13.45-5.841v-.028c0-.208-.008-.412-.025-.615A.469.469,0,0,0,35.407,215.628Zm0,0" transform="translate(-19.806 -208.69)"/>
</svg>
