<svg xmlns="http://www.w3.org/2000/svg" viewBox="0 0 37.444 36" id="fb-icon">
    <path d="M7.677 0l22.467.654a7.485 7.485 0 017.267 8.174l-1.43 17.694a7.486 7.486 0 01-6.5 6.734l-17.514 2.682a7.486 7.486 0 01-8.316-6.045L.13 8.866A7.486 7.486 0 017.677 0z" fill="#3b3b3b"></path>
    <path d="M16.476 17.974h-2.247v-3.089h2.247v-1.826a5.007 5.007 0 01.772-3.071 3.46 3.46 0 012.879-1h3.089v3.089h-2.141q-.807 0-1.018.281a1.7 1.7 0 00-.21.983v1.545h3.37l-.316 3.089h-3.054v8.987h-3.37z" fill="#fff"></path>
</svg>