<svg xmlns="http://www.w3.org/2000/svg" viewBox="0 0 16 16" id="floppy-icon">
    <g transform="translate(-4.5 -4.5)">
        <path d="M18.438,4.5h-.667a.334.334,0,0,0-.333.333v3c0,.183.317.333.5.333h.5a.334.334,0,0,0,.333-.333v-3A.334.334,0,0,0,18.438,4.5Z" transform="translate(-5.271)"></path>
        <path d="M19.913,7.254,17.75,5.092A2.016,2.016,0,0,0,16.329,4.5H15.163a.673.673,0,0,0-.667.675V8.508a.669.669,0,0,1-.667.667H8.5a.669.669,0,0,1-.667-.667V5.175A.676.676,0,0,0,7.167,4.5H5.833A1.337,1.337,0,0,0,4.5,5.833V19.167A1.337,1.337,0,0,0,5.833,20.5H19.167A1.337,1.337,0,0,0,20.5,19.167V8.667A2,2,0,0,0,19.913,7.254ZM15.25,18.5a.709.709,0,0,1-.742.667H7.825a.709.709,0,0,1-.742-.667v-4a.709.709,0,0,1,.742-.667h6.683a.709.709,0,0,1,.742.667v4Z" transform="translate(0 0)"></path>
    </g>
</svg>