<svg xmlns="http://www.w3.org/2000/svg" viewBox="0 0 22 15.75" id="home-discussion-reorder-icon">
    <g transform="translate(-4.5 -10.125)">
        <path d="M25.583,12.375H5.417A1.04,1.04,0,0,1,4.5,11.25h0a1.04,1.04,0,0,1,.917-1.125H25.583A1.04,1.04,0,0,1,26.5,11.25h0A1.04,1.04,0,0,1,25.583,12.375Z"></path>
        <path d="M25.583,19.125H5.417A1.04,1.04,0,0,1,4.5,18h0a1.04,1.04,0,0,1,.917-1.125H25.583A1.04,1.04,0,0,1,26.5,18h0A1.04,1.04,0,0,1,25.583,19.125Z"></path>
        <path d="M25.583,25.875H5.417A1.04,1.04,0,0,1,4.5,24.75h0a1.04,1.04,0,0,1,.917-1.125H25.583A1.04,1.04,0,0,1,26.5,24.75h0A1.04,1.04,0,0,1,25.583,25.875Z"></path>
    </g>
</svg>