<svg xmlns="http://www.w3.org/2000/svg" viewBox="0 0 22.043 21.2" id="home-discussion-star-icon">
    <path stroke="var(--starColor)" fill="var(--starColorLight)" stroke-width="2px" d="M266.449,254.433a1.06,1.06,0,0,0-.916-.73l-5.772-.524-2.283-5.343a1.063,1.063,0,0,0-1.954,0l-2.282,5.342-5.775.524a1.064,1.064,0,0,0-.6,1.86l4.363,3.827-1.287,5.668a1.061,1.061,0,0,0,1.581,1.148l4.98-2.975,4.977,2.975a1.063,1.063,0,0,0,1.582-1.148l-1.287-5.668,4.363-3.827A1.063,1.063,0,0,0,266.449,254.433Z" transform="translate(-245.479 -246.191)"></path>
</svg>