<svg xmlns="http://www.w3.org/2000/svg" viewBox="0 0 15 20" id="hourglass-icon">
    <path id="Icon_awesome-hourglass-start" data-name="Icon awesome-hourglass-start" d="M14.063,0H.938A.937.937,0,0,0,0,.938v.625A.937.937,0,0,0,.938,2.5c0,3.553,1.993,6.552,4.72,7.5-2.728.948-4.72,3.947-4.72,7.5A.937.937,0,0,0,0,18.438v.625A.937.937,0,0,0,.938,20H14.063A.937.937,0,0,0,15,19.063v-.625a.937.937,0,0,0-.937-.937c0-3.553-1.993-6.552-4.72-7.5,2.728-.948,4.72-3.947,4.72-7.5A.937.937,0,0,0,15,1.563V.938A.937.937,0,0,0,14.063,0Zm-2.5,17.5H3.438c0-3.026,1.8-5.625,4.063-5.625S11.563,14.473,11.563,17.5Z"></path>
</svg>