<svg xmlns="http://www.w3.org/2000/svg" viewBox="0 0 37.444 36" id="linked-in-icon">
    <path d="M29.766 35.997l-22.47-.652a7.485 7.485 0 01-7.265-8.173l1.43-17.694a7.486 7.486 0 016.5-6.734L25.479.062a7.487 7.487 0 018.316 6.045l3.521 21.027a7.486 7.486 0 01-7.55 8.863z" fill="#3b3b3b"></path>
    <path d="M27.705 26.94v-6.585c0-3.221-.693-5.7-4.459-5.7a3.911 3.911 0 00-3.521 1.935h-.055v-1.635h-3.571v11.986h3.718v-5.936c0-1.562.3-3.073 2.231-3.073 1.907 0 1.935 1.783 1.935 3.174v5.835zM10.048 14.953h3.722v11.984h-3.722zm1.865-5.967a2.166 2.166 0 102.156 2.176v-.019a2.157 2.157 0 00-2.156-2.157z"></path>
</svg>