<svg xmlns="http://www.w3.org/2000/svg" viewBox="0 0 18 18" id="magnifying-glass">
    <path d="M8.899,0c0.857,0.249,1.761,0.395,2.563,0.763 c4.758,2.187,6.223,7.986,3.122,12.212c-0.019,0.026-0.031,0.057-0.08,0.148c0.919,0.91,1.854,1.834,2.785,2.76 c0.154,0.152,0.313,0.302,0.446,0.472c0.346,0.438,0.331,0.954-0.021,1.314c-0.371,0.379-0.921,0.428-1.353,0.064 c-0.406-0.343-0.773-0.732-1.15-1.109c-0.694-0.693-1.383-1.393-2.018-2.033c-0.885,0.422-1.678,0.885-2.527,1.189 C6.05,17.442,0.82,14.278,0.106,9.425C0.085,9.281,0.036,9.141,0,8.999c0-0.6,0-1.2,0-1.8c0.031-0.093,0.075-0.185,0.091-0.281 c0.404-2.467,1.691-4.345,3.77-5.71C4.882,0.537,6.034,0.258,7.199,0C7.766,0,8.333,0,8.899,0z M14.209,8.121 c0.026-3.301-2.713-6.1-5.99-6.119C4.814,1.982,2.032,4.663,2,7.994c-0.033,3.421,2.691,6.2,6.096,6.218 C11.443,14.229,14.182,11.501,14.209,8.121z"></path>
</svg>