<svg xmlns="http://www.w3.org/2000/svg" viewBox="0 0 18.281 24" id="marker">
    <g transform="translate(132.234 -150)">
        <g transform="translate(-132.234 150)">
            <path d="M-123.094,150a9.151,9.151,0,0,0-9.14,9.14,9.058,9.058,0,0,0,1.823,5.48l6.754,9.1c.017.022.043.031.061.05a.68.68,0,0,0,1.065-.05c1.945-2.6,5.51-7.441,6.88-9.269v0l.008-.011a9.071,9.071,0,0,0,1.688-5.293A9.151,9.151,0,0,0-123.094,150Zm0,14.072a4.944,4.944,0,0,1-4.931-4.931,4.944,4.944,0,0,1,4.931-4.931,4.944,4.944,0,0,1,4.931,4.931A4.944,4.944,0,0,1-123.094,164.072Z" transform="translate(132.234 -150)"></path>
        </g>
    </g>
</svg>