<svg xmlns="http://www.w3.org/2000/svg" viewBox="0 0 28 15.75" id="money">
    <path d="M2.571,24.426V8.676h28v15.75h-28Zm1.75-14.054v12.3h24.5v-12.3Zm16.625,6.179c0-2.9-1.958-5.25-4.375-5.25H27.946V21.8H16.571c2.417,0,4.375-2.351,4.375-5.25Zm-2.522-2.207a.223.223,0,0,1-.054.1.134.134,0,0,1-.1.032.457.457,0,0,1-.192-.075c-.088-.052-.2-.106-.322-.165a3.226,3.226,0,0,0-.443-.164A1.965,1.965,0,0,0,16.766,14a1.31,1.31,0,0,0-.41.057.847.847,0,0,0-.292.157.63.63,0,0,0-.175.242.8.8,0,0,0-.057.3.661.661,0,0,0,.129.408,1.233,1.233,0,0,0,.345.306,3.55,3.55,0,0,0,.49.251c.181.079.368.162.557.248a5.61,5.61,0,0,1,.557.3,2.219,2.219,0,0,1,.487.4,1.889,1.889,0,0,1,.345.546,1.915,1.915,0,0,1,.13.741,2.187,2.187,0,0,1-.207.978,2.025,2.025,0,0,1-.564.7,2.443,2.443,0,0,1-.83.423c-.04.012-.084.018-.125.027v.956h-.86V20.2l-.031,0a3.688,3.688,0,0,1-.681-.059A4.061,4.061,0,0,1,15.018,20a2.433,2.433,0,0,1-.4-.176,1.13,1.13,0,0,1-.232-.163.411.411,0,0,1-.1-.2,1.868,1.868,0,0,1-.031-.386c0-.113,0-.207.011-.284A.848.848,0,0,1,14.3,18.6a.2.2,0,0,1,.066-.1.161.161,0,0,1,.1-.03.455.455,0,0,1,.216.09,3.734,3.734,0,0,0,.358.2,3.273,3.273,0,0,0,.522.2,2.5,2.5,0,0,0,.7.09,1.616,1.616,0,0,0,.47-.063,1.044,1.044,0,0,0,.353-.178.767.767,0,0,0,.221-.284.9.9,0,0,0,.077-.379.669.669,0,0,0-.131-.413,1.313,1.313,0,0,0-.342-.306,3.568,3.568,0,0,0-.478-.251q-.268-.118-.552-.248a4.951,4.951,0,0,1-.552-.3,2.224,2.224,0,0,1-.478-.4,1.875,1.875,0,0,1-.341-.549,1.98,1.98,0,0,1-.131-.759,2.013,2.013,0,0,1,.188-.893,1.83,1.83,0,0,1,.508-.639,2.179,2.179,0,0,1,.754-.38,3.066,3.066,0,0,1,.46-.1v-.9h.86v.9c.034,0,.068,0,.1.008a3.409,3.409,0,0,1,.47.1,2.51,2.51,0,0,1,.389.146.9.9,0,0,1,.224.136.414.414,0,0,1,.074.092.5.5,0,0,1,.032.1.977.977,0,0,1,.018.159c0,.063.005.143.005.237s0,.2-.008.269a1.222,1.222,0,0,1-.03.178ZM12.2,16.551c0,2.9,1.958,5.25,4.375,5.25H5.2V11.3H16.571C14.154,11.3,12.2,13.652,12.2,16.551Z" transform="translate(-2.571 -8.676)"></path>
</svg>