<svg xmlns="http://www.w3.org/2000/svg" viewBox="0 0 12.501 15.301" id="move-icon">
    <g transform="translate(-1169.16 -533.246)">
        <path d="M1175.605,541.373h-2.212v2.949h2.212V545.8l2.949-2.949-2.949-2.951Z"></path>
        <path d="M1181.611,538.546a.65.65,0,0,0-.141-.21l-4.9-4.9a.635.635,0,0,0-.209-.14.646.646,0,0,0-.251-.051h-4.9a2.053,2.053,0,0,0-2.051,2.05v11.2a2.053,2.053,0,0,0,2.051,2.051h8.4a2.053,2.053,0,0,0,2.051-2.051v-7.7A.664.664,0,0,0,1181.611,538.546Zm-4.85-3.08,2.68,2.68h-2.68Zm2.849,11.78h-8.4a.75.75,0,0,1-.75-.75V535.3a.75.75,0,0,1,.75-.75h4.249v4.25a.65.65,0,0,0,.65.65h4.25v7.05A.75.75,0,0,1,1179.61,547.246Z"></path>
    </g>
</svg>