<svg xmlns="http://www.w3.org/2000/svg" viewBox="0 0 8 9" id="paging-first-icon">
    <g transform="translate(3 9) rotate(-90)">
        <path class="a" d="M4.5,0a.5.5,0,0,0-.354.147l-4,4a.5.5,0,0,0,.707.707L4.5,1.207,8.146,4.854a.5.5,0,0,0,.707-.707l-4-4A.5.5,0,0,0,4.5,0Z"></path>
    </g>
    <g transform="translate(0 9) rotate(-90)">
        <path class="a" d="M4.5,0a.5.5,0,0,0-.354.147l-4,4a.5.5,0,0,0,.707.707L4.5,1.207,8.146,4.854a.5.5,0,0,0,.707-.707l-4-4A.5.5,0,0,0,4.5,0Z"></path>
    </g>
</svg>