<svg xmlns="http://www.w3.org/2000/svg" viewBox="0 0 8 9" id="paging-last-icon">
    <g transform="translate(-563 -755)">
        <g transform="translate(172.453 1179.663) rotate(-90)">
            <path d="M420.164,395.547a.5.5,0,0,1-.354-.147l-4-4a.5.5,0,1,1,.707-.707l3.647,3.647,3.646-3.647a.5.5,0,0,1,.707.707l-4,4A.5.5,0,0,1,420.164,395.547Z"></path>
        </g>
        <g transform="translate(175.453 1179.663) rotate(-90)">
            <path d="M420.164,395.547a.5.5,0,0,1-.354-.147l-4-4a.5.5,0,1,1,.707-.707l3.647,3.647,3.646-3.647a.5.5,0,0,1,.707.707l-4,4A.5.5,0,0,1,420.164,395.547Z"></path>
        </g>
    </g>
</svg>