<svg xmlns="http://www.w3.org/2000/svg" viewBox="0 0 16.003 16" id="program-icon">
    <g transform="translate(-245.998 -245.999)">
        <g transform="translate(245.998 245.999)">
            <path d="M261.328,255.518l-.337-.206.337-.206a1.1,1.1,0,0,0,0-2.03l-.337-.206.337-.207a1.406,1.406,0,0,0,0-2.4l-6.6-4.058a1.4,1.4,0,0,0-1.467,0h0l-6.592,4.056a1.406,1.406,0,0,0,0,2.4l.338.208-.337.206a1.1,1.1,0,0,0,0,2.029l.338.207-.337.206a1.249,1.249,0,0,0,0,2.217l6.594,4.058a1.4,1.4,0,0,0,1.468,0l6.6-4.056A1.25,1.25,0,0,0,261.328,255.518Zm-14.166-4.455,6.593-4.057h0a.467.467,0,0,1,.486,0l6.6,4.058a.469.469,0,0,1,0,.8l-6.594,4.056a.464.464,0,0,1-.488,0l-6.594-4.058A.469.469,0,0,1,247.162,251.062Zm-.226,3.028c0-.016.042-.1.224-.215l.743-.454,5.361,3.3a1.4,1.4,0,0,0,1.468,0l5.362-3.3.744.454c.182.112.224.2.224.215s-.042.1-.226.216l-6.6,4.056a.466.466,0,0,1-.487,0l-6.594-4.058C246.978,254.194,246.936,254.106,246.936,254.09Zm13.9,2.846-6.6,4.056a.466.466,0,0,1-.487,0l-6.594-4.058c-.3-.182-.3-.435,0-.618l.743-.454,5.361,3.3a1.4,1.4,0,0,0,1.468,0l5.362-3.3.744.454a.325.325,0,0,1,0,.618Z" transform="translate(-245.998 -245.999)"></path>
        </g>
    </g>
</svg>