<svg xmlns="http://www.w3.org/2000/svg" viewBox="0 0 13.985 14.634" id="resume-icon">
    <path d="M6.101 5.563a.406.406 0 00-.616.348v3.417a.411.411 0 00.206.355.424.424 0 00.2.052.4.4 0 00.209-.058l2.847-1.708a.407.407 0 000-.7z"></path>
    <path d="M7.228 14.635a7.228 7.228 0 113.664-13.46.5.5 0 11-.508.862 6.228 6.228 0 102.636 7.665.5.5 0 01.93.369 7.193 7.193 0 01-6.722 4.564z"></path>
    <path d="M10.969.075l-1.4 2.7a.2.2 0 00.238.288l2.226-.662-.806-2.309a.139.139 0 00-.258-.017z"></path>
</svg>