<svg xmlns="http://www.w3.org/2000/svg" viewBox="0 0 18.621 18.621" id="unview-ouline-icon">
    <g transform="translate(-0.439 -0.439)">
        <path fill="none" stroke-linecap="round" stroke-linejoin="round" stroke-width="1.5px" d="M14.2,16.455A7.553,7.553,0,0,1,9.75,18C4.5,18,1.5,12,1.5,12A13.837,13.837,0,0,1,5.3,7.545M8.175,6.18A6.84,6.84,0,0,1,9.75,6C15,6,18,12,18,12a13.875,13.875,0,0,1-1.62,2.392m-5.04-.8a2.25,2.25,0,1,1-3.18-3.18" transform="translate(0 -2.25)"></path>
        <path fill="none" stroke-linecap="round" stroke-linejoin="round" stroke-width="1.5px" d="M1.5,1.5,18,18"></path>
    </g>
</svg>