<svg xmlns="http://www.w3.org/2000/svg" xmlns:xlink="http://www.w3.org/1999/xlink" width="30" height="30" viewBox="0 0 30 30"><defs><style>.a{fill:#f44336;}.b{fill:#f5f5f5;}.c{clip-path:url(#a);}</style><clipPath id="a"><rect class="a" width="13.603" height="10.021"/></clipPath></defs><g transform="translate(-1087 -409)"><circle class="b" cx="15" cy="15" r="15" transform="translate(1087 409)"/><g transform="translate(1095 419)"><g class="c"><path class="a" d="M7.195,94.015a.773.773,0,0,1-.8,0L0,90.112V95.3a2.008,2.008,0,0,0,2.007,2.007H11.6A2.008,2.008,0,0,0,13.6,95.3V90.112Z" transform="translate(0 -87.285)"/><path class="a" d="M13.579,0H3.991A2,2,0,0,0,2.048,1.574L8.793,5.685l6.729-4.111A2,2,0,0,0,13.579,0" transform="translate(-1.984)"/></g></g></g></svg>