<svg xmlns="http://www.w3.org/2000/svg" width="30" height="30" viewBox="0 0 30 30"><defs><style>.a{fill:#f5f5f5;}.b{fill:#1da1f2;}</style></defs><g transform="translate(-799 -819)"><circle class="a" cx="15" cy="15" r="15" transform="translate(799 819)"/><g transform="translate(808 828.969)"><path class="b" d="M4619.1,4136.515a5.008,5.008,0,0,0,1.406-.4,5.021,5.021,0,0,1-1.219,1.289v.305a6.9,6.9,0,0,1-.469,2.473,7.807,7.807,0,0,1-1.324,2.25,6.32,6.32,0,0,1-2.215,1.652,7.018,7.018,0,0,1-3,.633,6.9,6.9,0,0,1-3.773-1.1c.2.016.4.024.586.024a4.787,4.787,0,0,0,3.047-1.055,2.251,2.251,0,0,1-1.418-.481,2.581,2.581,0,0,1-.879-1.23,2.411,2.411,0,0,0,.469.047,3.2,3.2,0,0,0,.656-.07,2.432,2.432,0,0,1-1.418-.868,2.39,2.39,0,0,1-.551-1.546v-.047a2.135,2.135,0,0,0,1.1.3,2.413,2.413,0,0,1-.75-3.281,6.882,6.882,0,0,0,5.062,2.578,2.307,2.307,0,0,1-.07-.562,2.47,2.47,0,0,1,4.265-1.688,4.994,4.994,0,0,0,1.571-.586A2.448,2.448,0,0,1,4619.1,4136.515Z" transform="translate(-4608.508 -4134.968)"/></g></g></svg>