<svg xmlns="http://www.w3.org/2000/svg" width="55.345" height="52.095" viewBox="0 0 55.345 52.095"><defs><style>.a{fill:#7ea1c9;}.b{fill:#fd7c23;}.c{fill:#1166ef;}</style></defs><g transform="translate(-229.802 -258.906)"><path class="a" d="M-128.944,108.76h-24.142l16.078,16.078a1.633,1.633,0,0,0,2.257.069,24.375,24.375,0,0,0,7.441-14.326,1.631,1.631,0,0,0-1.43-1.812A1.608,1.608,0,0,0-128.944,108.76Z" transform="translate(412.445 179.45)"/><path class="b" d="M-129.968,111.22a24.476,24.476,0,0,0-22.71-22.71,1.635,1.635,0,0,0-1.708,1.561c0,.029,0,.058,0,.087v22.771h22.768a1.638,1.638,0,0,0,1.653-1.621C-129.967,111.278-129.967,111.249-129.968,111.22Z" transform="translate(411.863 170.397)"/><path class="c" d="M-150.721,116.727V92.584a1.631,1.631,0,0,0-1.618-1.645,1.691,1.691,0,0,0-.191.01,24.4,24.4,0,0,0-20.968,25,24.72,24.72,0,0,0,24.713,23.566,24.242,24.242,0,0,0,13.761-4.486,1.618,1.618,0,0,0,.323-2.263,1.543,1.543,0,0,0-.164-.187Z" transform="translate(403.314 171.484)"/></g></svg>