<svg xmlns="http://www.w3.org/2000/svg" width="429.721" height="297.258" viewBox="0 0 429.721 297.258"><defs><style>.a{fill:#f0f2f7;}.a,.b,.d,.e,.f,.i,.k,.n,.o,.p{stroke:#000;}.a,.b,.d,.i,.n,.o,.p{stroke-linejoin:round;}.b,.m{fill:#e31278;}.b,.i,.p{stroke-linecap:round;}.c,.o{fill:#fff;}.d,.k{fill:#ebebeb;}.e,.f,.i,.j,.n,.p{fill:none;}.e,.f,.j,.k{stroke-miterlimit:10;}.e{stroke-dasharray:4;}.g{fill:#e6e6e6;}.h{fill:#e30c78;}.j{stroke:#1a1818;}.l{fill:#c9c9c9;}.p{stroke-width:2px;}</style></defs><g transform="translate(-323.326 -380.777)"><g transform="translate(440.414 495.126)"><g transform="translate(54.61)"><path d="M551.973,563.865v98.109l-10.62-18.721V545.145Z" transform="translate(-541.353 -543.787)"/><path class="a" d="M605.15,550.495v98.1l-18.6,16.445v-98.1Z" transform="translate(-550.958 -544.924)"/><path class="b" d="M595.546,548.992l-18.6,16.447a63.887,63.887,0,0,0-24.973-1.94l-10.62-18.72A120.2,120.2,0,0,1,595.546,548.992Z" transform="translate(-541.353 -543.42)"/><path class="a" d="M579.811,570.733v98.1a63.833,63.833,0,0,0-24.974-1.939v-98.1A63.88,63.88,0,0,1,579.811,570.733Z" transform="translate(-544.218 -548.714)"/><g transform="translate(14.982 2.235)"><path class="c" d="M569.752,561.6l-6.908-3.989-1.523.88-.943-.545a2.588,2.588,0,0,0,.862-.922,1.029,1.029,0,0,0,.1-.928l1.261-.726,8.974,5.183Z" transform="translate(-560.378 -548.194)"/><path class="c" d="M578.234,554.218a1.154,1.154,0,0,1,.679,1.361,2.662,2.662,0,0,1-1.391,1.521,6.263,6.263,0,0,1-2.655.8,4.015,4.015,0,0,1-2.347-.392l-4.915-2.838a1.159,1.159,0,0,1-.681-1.365,2.653,2.653,0,0,1,1.4-1.525,6.2,6.2,0,0,1,2.652-.8,4.013,4.013,0,0,1,2.345.4Zm-6.814-1.775a1.453,1.453,0,0,0-.854-.134,2.272,2.272,0,0,0-.966.293.951.951,0,0,0-.5.553.425.425,0,0,0,.247.492l4.925,2.843a1.467,1.467,0,0,0,.851.142,2.21,2.21,0,0,0,.955-.289.968.968,0,0,0,.509-.558.419.419,0,0,0-.242-.492Z" transform="translate(-561.761 -547.255)"/><path class="c" d="M578.158,549.059a.347.347,0,0,1,.2.412.82.82,0,0,1-.424.466,1.928,1.928,0,0,1-.8.246,1.225,1.225,0,0,1-.714-.117l-1.492-.863a.354.354,0,0,1-.211-.415.812.812,0,0,1,.425-.469,1.911,1.911,0,0,1,.811-.242,1.217,1.217,0,0,1,.718.119Zm-1.214.691a.424.424,0,0,0,.26.044.7.7,0,0,0,.3-.091.285.285,0,0,0,.151-.167.124.124,0,0,0-.075-.15l-1.5-.863a.427.427,0,0,0-.261-.046.689.689,0,0,0-.291.09.3.3,0,0,0-.156.169.133.133,0,0,0,.077.151Zm3.563,1.585-.616.356-1.671-5.078.611-.354Zm.293-3.321a1.861,1.861,0,0,1,.8-.243,1.219,1.219,0,0,1,.714.12l1.492.862a.347.347,0,0,1,.2.413.82.82,0,0,1-.423.463,1.938,1.938,0,0,1-.8.245,1.193,1.193,0,0,1-.714-.118l-1.491-.859a.353.353,0,0,1-.207-.417A.791.791,0,0,1,580.8,548.014Zm.95.2a.463.463,0,0,0-.268-.044.679.679,0,0,0-.293.09.291.291,0,0,0-.157.17.134.134,0,0,0,.08.151l1.489.86a.429.429,0,0,0,.267.044.649.649,0,0,0,.293-.09.28.28,0,0,0,.157-.169.126.126,0,0,0-.076-.15Z" transform="translate(-563.422 -546.259)"/></g></g><g transform="translate(1.033 34.798)"><path d="M507.308,630.267l-.189,66.247-33.8-2.156.191-66.246Z" transform="translate(-473.319 -596.215)"/><path class="a" d="M537.9,611.381l-.189,66.245A39.517,39.517,0,0,0,521.6,685.68a19.232,19.232,0,0,0-5.363,7.273l.189-66.246a19.233,19.233,0,0,1,5.363-7.273A39.537,39.537,0,0,1,537.9,611.381Z" transform="translate(-482.439 -592.66)"/><path class="b" d="M518.209,587.608l10.632,18.726a39.522,39.522,0,0,0-16.114,8.053,19.244,19.244,0,0,0-5.363,7.273l-33.8-2.155A34.465,34.465,0,0,1,484.379,603.6C492.653,596.294,504.294,590.794,518.209,587.608Z" transform="translate(-473.372 -587.608)"/><g transform="translate(16.994 9.18)"><path class="c" d="M495.968,613.289q-1.275-.735-1.031-1.654a2.822,2.822,0,0,1,1.489-1.541,6.075,6.075,0,0,1,2.677-.781,4.2,4.2,0,0,1,2.391.414,2.844,2.844,0,0,1,1.33,1.4,6.368,6.368,0,0,1,.24,1.74c.013.234.047.591.1,1.07l.042.4a5,5,0,0,0,.1.6c.014.069.031.109.044.117l3.545-2.044,1.328.767-5.734,3.311-1.239-.716a1.389,1.389,0,0,1-.091-.515c-.024-.15-.041-.317-.054-.5l-.047-.565q-.012-.483-.06-1.527a4.519,4.519,0,0,0-.34-1.628,2,2,0,0,0-.856-.88,1.89,1.89,0,0,0-1-.223,2.439,2.439,0,0,0-1.158.32c-.5.291-.636.623-.41.995a1.111,1.111,0,0,0,.4.356l.346.2-1.777,1.026Z" transform="translate(-494.898 -601.393)"/><path class="c" d="M515.532,607.224a1.148,1.148,0,0,1,.669,1.361,2.654,2.654,0,0,1-1.391,1.522,6.263,6.263,0,0,1-2.653.8,4.015,4.015,0,0,1-2.347-.392l-4.916-2.84a1.157,1.157,0,0,1-.676-1.356,2.666,2.666,0,0,1,1.4-1.529,6.2,6.2,0,0,1,2.655-.8,4.024,4.024,0,0,1,2.345.395Zm-6.814-1.774a1.466,1.466,0,0,0-.855-.142,2.285,2.285,0,0,0-.967.294.951.951,0,0,0-.5.553.422.422,0,0,0,.249.491l4.924,2.843a1.45,1.45,0,0,0,.851.142,2.218,2.218,0,0,0,.954-.287.973.973,0,0,0,.512-.558.418.418,0,0,0-.245-.492Z" transform="translate(-496.871 -600.262)"/><path class="c" d="M515.455,602.062a.348.348,0,0,1,.2.414.811.811,0,0,1-.423.465,1.91,1.91,0,0,1-.8.246,1.227,1.227,0,0,1-.713-.117l-1.493-.862a.356.356,0,0,1-.21-.417.8.8,0,0,1,.426-.467,1.894,1.894,0,0,1,.8-.243,1.235,1.235,0,0,1,.72.119Zm-1.212.691a.428.428,0,0,0,.259.044.69.69,0,0,0,.3-.09.287.287,0,0,0,.151-.169.134.134,0,0,0-.076-.15l-1.495-.863a.447.447,0,0,0-.261-.046.73.73,0,0,0-.291.088.3.3,0,0,0-.157.17.134.134,0,0,0,.076.151Zm3.563,1.585-.615.356-1.677-5.078.611-.352Zm.292-3.321a1.9,1.9,0,0,1,.8-.245,1.257,1.257,0,0,1,.716.122l1.491.862a.347.347,0,0,1,.206.413.82.82,0,0,1-.424.461,1.93,1.93,0,0,1-.8.248,1.234,1.234,0,0,1-.716-.118l-1.491-.862a.352.352,0,0,1-.208-.415A.805.805,0,0,1,518.1,601.018Zm.95.2a.438.438,0,0,0-.268-.046.706.706,0,0,0-.294.092.3.3,0,0,0-.157.17.134.134,0,0,0,.079.15l1.491.862a.434.434,0,0,0,.259.044.7.7,0,0,0,.3-.091.29.29,0,0,0,.155-.17.124.124,0,0,0-.075-.15Z" transform="translate(-498.533 -599.265)"/></g></g><g transform="translate(97.888 63.133)"><path class="d" d="M610.2,661.822V705.14c.019-5.9-3.945-11.736-11.433-16.056-.784-.454-1.606-.887-2.457-1.3V644.466c.857.411,1.673.846,2.457,1.3C606.25,650.087,610.216,655.917,610.2,661.822Z" transform="translate(-596.309 -628.024)"/><path class="a" d="M655.453,666.612c-.061,22.27.064,21.048,0,43.318a27.5,27.5,0,0,1-5.645,16.171V682.784A27.491,27.491,0,0,0,655.453,666.612Z" transform="translate(-607.677 -632.73)"/><g transform="translate(11.664 41.257)"><path d="M641.587,684.774v43.318l-30.467-8.8V675.977Z" transform="translate(-611.12 -675.977)"/></g><path class="b" d="M622.649,627.462c21.043,12.15,27.187,30.488,15.789,46.18l-30.456-8.8c4.982-8.11,1.472-17.354-9.211-23.516-.784-.454-1.606-.888-2.457-1.3l18.611-16.442A75.41,75.41,0,0,1,622.649,627.462Z" transform="translate(-596.31 -623.588)"/></g><g transform="translate(0 110.545)"><path class="a" d="M472.008,713.8c.063-22.27.134-5.407.19-27.678-.034,11.209,7.569,21.943,21.355,29.9a79.379,79.379,0,0,0,11.576,5.446c16.234,6.18,35.658,8.336,54.7,6.058s35.365-8.7,45.983-18.078c.727-.639,1.431-1.317,2.128-2.007l-.191,27.677c-.695.693-1.4,1.37-2.128,2.014-10.618,9.382-26.948,15.8-45.981,18.075s-38.47.122-54.7-6.058a79.548,79.548,0,0,1-11.578-5.444C479.576,735.74,471.976,725.014,472.008,713.8Z" transform="translate(-472.008 -684.289)"/><path class="d" d="M607.995,706.94c-.7.7-1.4,1.373-2.128,2.007-10.619,9.385-26.95,15.808-45.983,18.078s-38.47.122-54.7-6.058A79.375,79.375,0,0,1,493.6,715.52c-14.537-8.392-22.2-19.86-21.282-31.726l33.789,2.164c.105,5.887,4.176,11.539,11.417,15.72a43.421,43.421,0,0,0,6.18,2.906,62.747,62.747,0,0,0,29.236,3.233c10.168-1.2,18.9-4.64,24.574-9.66Z" transform="translate(-472.059 -683.794)"/></g><g transform="translate(113.231 78.314)"><path class="c" d="M624.8,658.355q1.24-.716.375-1.215l-.536-.31a3.192,3.192,0,0,0-3.311.316l-1.16-.669q1.042-.6,1.1-1.144.06-.487-.649-.9l-.214-.124a1.808,1.808,0,0,0-1.912.087q-.57.33-.511.676a.837.837,0,0,0,.457.491l.236.134-1.765,1.018-.212-.124q-.952-.549-.909-1.275.052-.819,1.384-1.588a5.858,5.858,0,0,1,2.676-.8,3.8,3.8,0,0,1,2.129.435l.394.228a1.27,1.27,0,0,1,.775,1.219,1.479,1.479,0,0,1-.231.639,6.249,6.249,0,0,1,2.263-.126,2.784,2.784,0,0,1,1.08.359l.718.414a1.212,1.212,0,0,1,.731,1.472,2.92,2.92,0,0,1-1.472,1.563,6.2,6.2,0,0,1-2.649.8,4.009,4.009,0,0,1-2.339-.393l-.222-.134,1.615-1.045.353.159a1.744,1.744,0,0,0,.87.134A2.217,2.217,0,0,0,624.8,658.355Z" transform="translate(-615.792 -645.001)"/><path class="c" d="M636.305,650.826a1.15,1.15,0,0,1,.678,1.361,2.659,2.659,0,0,1-1.39,1.521,6.246,6.246,0,0,1-2.653.8,4,4,0,0,1-2.347-.392l-4.916-2.838a1.159,1.159,0,0,1-.682-1.362,2.662,2.662,0,0,1,1.4-1.528,6.2,6.2,0,0,1,2.654-.8,4.009,4.009,0,0,1,2.344.395Zm-6.812-1.777a1.475,1.475,0,0,0-.855-.134,2.3,2.3,0,0,0-.967.294.943.943,0,0,0-.5.553.421.421,0,0,0,.249.491l4.923,2.844a1.445,1.445,0,0,0,.851.142,2.225,2.225,0,0,0,.955-.287.97.97,0,0,0,.512-.559.422.422,0,0,0-.245-.494Z" transform="translate(-617.74 -643.862)"/><path class="c" d="M636.231,645.665a.349.349,0,0,1,.2.415.824.824,0,0,1-.424.465,1.914,1.914,0,0,1-.8.246,1.231,1.231,0,0,1-.713-.117L633,645.811a.356.356,0,0,1-.212-.416.8.8,0,0,1,.425-.469,1.9,1.9,0,0,1,.811-.242,1.23,1.23,0,0,1,.718.119Zm-1.215.692a.463.463,0,0,0,.268.044.693.693,0,0,0,.294-.091.287.287,0,0,0,.153-.167.134.134,0,0,0-.076-.151l-1.495-.863a.449.449,0,0,0-.268-.044.7.7,0,0,0-.289.088.29.29,0,0,0-.158.17.133.133,0,0,0,.076.15Zm3.565,1.584-.617.356-1.669-5.076.612-.354Zm.293-3.321a1.886,1.886,0,0,1,.8-.243,1.243,1.243,0,0,1,.716.122l1.489.862a.343.343,0,0,1,.206.413.825.825,0,0,1-.423.461,1.924,1.924,0,0,1-.8.247,1.234,1.234,0,0,1-.716-.117l-1.489-.862a.353.353,0,0,1-.208-.417A.8.8,0,0,1,638.873,644.62Zm.948.2a.451.451,0,0,0-.261-.044.722.722,0,0,0-.3.091.289.289,0,0,0-.155.17.134.134,0,0,0,.079.151l1.491.86a.445.445,0,0,0,.259.046.7.7,0,0,0,.294-.092.29.29,0,0,0,.157-.17c.019-.061-.011-.111-.076-.15Z" transform="translate(-619.4 -642.866)"/></g><g transform="translate(50.713 136.435)"><path d="M538.9,732.713l-2.492-5.112,1.8-1.043,5.675,3.278,1.155-.669,1.362.787-1.156.669,1.939,1.118-1.8,1.041-1.937-1.12L540.26,733.5Zm3.182-1.837-2.791-1.606,1.3,2.47Z" transform="translate(-536.405 -718.771)"/><path d="M555.095,724.629a1.148,1.148,0,0,1,.676,1.36,2.649,2.649,0,0,1-1.39,1.523,6.26,6.26,0,0,1-2.654.8,4.01,4.01,0,0,1-2.347-.391l-4.916-2.838a1.163,1.163,0,0,1-.681-1.365,2.675,2.675,0,0,1,1.4-1.525,6.23,6.23,0,0,1,2.656-.8,4.021,4.021,0,0,1,2.344.4Zm-6.814-1.776a1.465,1.465,0,0,0-.855-.134,2.293,2.293,0,0,0-.968.293.946.946,0,0,0-.5.553.423.423,0,0,0,.247.492l4.925,2.844a1.475,1.475,0,0,0,.85.142,2.222,2.222,0,0,0,.955-.289.963.963,0,0,0,.511-.558.417.417,0,0,0-.245-.492Z" transform="translate(-537.965 -717.666)"/><path d="M555.018,719.469a.348.348,0,0,1,.2.413.823.823,0,0,1-.425.465,1.911,1.911,0,0,1-.8.246,1.22,1.22,0,0,1-.713-.117l-1.495-.863a.353.353,0,0,1-.209-.415.806.806,0,0,1,.424-.469,1.906,1.906,0,0,1,.81-.242,1.228,1.228,0,0,1,.72.119Zm-1.213.691a.429.429,0,0,0,.261.044.7.7,0,0,0,.294-.091.289.289,0,0,0,.152-.167.134.134,0,0,0-.076-.145l-1.494-.862a.451.451,0,0,0-.268-.046.677.677,0,0,0-.291.09.288.288,0,0,0-.157.169.134.134,0,0,0,.076.151Zm3.565,1.585-.617.356-1.671-5.078.613-.353Zm.29-3.321a1.874,1.874,0,0,1,.81-.243,1.228,1.228,0,0,1,.716.121l1.489.862a.346.346,0,0,1,.206.413.828.828,0,0,1-.424.463,1.932,1.932,0,0,1-.8.245,1.2,1.2,0,0,1-.717-.118l-1.489-.859a.356.356,0,0,1-.209-.417.8.8,0,0,1,.421-.465Zm.951.2a.448.448,0,0,0-.261-.044.708.708,0,0,0-.3.09.3.3,0,0,0-.157.17.134.134,0,0,0,.079.153l1.492.858a.418.418,0,0,0,.258.044.672.672,0,0,0,.3-.089.3.3,0,0,0,.157-.17.135.135,0,0,0-.075-.15Z" transform="translate(-539.626 -716.67)"/></g></g><g transform="translate(638.252 559.316)"><path class="c" d="M773.893,709.263a50.982,50.982,0,0,1-9.669-1.116,52.454,52.454,0,0,1-34.887-26.027,49.535,49.535,0,0,1-6.108-23.8c0-32.954,27.438-47.294,54.87-50.526,38.041-4.486,57.617,25.541,59.726,53.084C840.812,700.011,809.782,709.959,773.893,709.263Z" transform="translate(-723.229 -607.345)"/></g><g transform="translate(323.326 481.135)"><path class="c" d="M323.326,554.066c0-29.739,24.758-42.674,49.511-45.593,34.326-4.048,51.992,23.05,53.891,47.9,2.7,35.309-25.3,44.285-57.686,43.659C344.129,599.549,323.326,578.99,323.326,554.066Z" transform="translate(-323.326 -508.069)"/></g><path class="e" d="M359.612,477.549s-14.211-26.238,9.84-53.025c12.3-15.033,48.923-21.592,54.116-6.559.547,8.746-20.225,12.573-24.6-4.92s24.871-34.164,59.855-31.431c25.692,2.186,49.744,14.761,57.942,22.411" transform="translate(-6.825 0)"/><g transform="translate(628.723 454.009)"><path class="f" d="M756.063,558.448q-1.376,0-2.787-.028a43.021,43.021,0,0,1-29.688-12.736,41.744,41.744,0,0,1-12.459-29.64c0-12.641,4.8-22.836,14.276-30.3,9.913-7.811,22.513-10.692,31.34-11.731a46.363,46.363,0,0,1,18.3,1.274,38.986,38.986,0,0,1,14.092,7.417,45.532,45.532,0,0,1,12.236,16.1,56.27,56.27,0,0,1,5.05,19.345c.886,11.589-1.821,20.807-8.048,27.4C790.274,554.113,776.051,558.448,756.063,558.448Z" transform="translate(-711.129 -473.624)"/></g><g transform="translate(626.017 450.153)"><path class="c" d="M707.693,510.955c0-27.3,22.732-39.179,45.458-41.857,31.516-3.716,47.735,21.163,49.48,43.979,2.477,32.418-23.228,40.661-52.961,40.085C726.784,552.714,707.693,533.839,707.693,510.955Z" transform="translate(-707.693 -468.727)"/></g><g transform="translate(503.625 385.102)"><path class="c" d="M552.276,422.191c0-23.318,19.414-33.463,38.825-35.75,26.916-3.175,40.768,18.073,42.259,37.561,2.116,27.688-19.84,34.727-45.232,34.235C568.585,457.857,552.276,441.736,552.276,422.191Z" transform="translate(-552.276 -386.123)"/></g><g transform="translate(400.79 405.336)"><path class="f" d="M458.181,480.684q-1.117,0-2.262-.021a34.934,34.934,0,0,1-24.109-10.345,33.894,33.894,0,0,1-10.118-24.07c0-10.267,3.9-18.549,11.593-24.609,8.048-6.343,18.277-8.681,25.444-9.525,10.144-1.2,19.241,1.243,26.305,7.058,7.906,6.506,13.151,17.265,14.03,28.783.72,9.412-1.479,16.9-6.538,22.254C485.955,477.163,474.406,480.684,458.181,480.684Z" transform="translate(-421.692 -411.817)"/></g><g transform="translate(398.342 401.53)"><path class="c" d="M418.584,441.248c0-22.153,18.444-31.788,36.884-33.964,25.571-3.011,38.731,17.171,40.145,35.683,2.011,26.3-18.847,32.991-42.971,32.523C434.078,475.13,418.584,459.815,418.584,441.248Z" transform="translate(-418.584 -406.984)"/></g><path class="e" d="M728.682,580.77s-26.232,5.132-29.653,24.521c-.57,8.554,7.984,21.671,12.545,5.133,1.14-11.406-3.991-21.1-18.249-23.951s-21.1,18.248-15.4,30.795c3.422,7.414,14.257,6.272,19.96,22.239,5.133,10.834,7.413,18.248,22.81,17.675" transform="translate(-74.924 -42.383)"/><path class="e" d="M620.763,404.209S677.612,378.517,688,418.422c2.733,12.572-3.28,26.785-10.386,20.225-5.466-6.559,12.025-15.306,20.226-14.762s29.518,4.37,30.065,28.972" transform="translate(-63.204 -3.135)"/><g transform="translate(351.295 504.833)"><circle class="g" cx="10.828" cy="10.828" r="10.828" transform="translate(25.594 24.122)"/><circle class="h" cx="10.828" cy="10.828" r="10.828" transform="translate(1.575 1.575)"/><circle class="i" cx="10.828" cy="10.828" r="10.828"/><line class="i" y1="15.065" transform="translate(10.828 21.656)"/><line class="i" x2="8.474" transform="translate(6.591 32.014)"/><circle class="j" cx="10.828" cy="10.828" r="10.828" transform="translate(22.838 22.94)"/><line class="i" y2="15.065" transform="translate(33.666 7.875)"/><path class="i" d="M394.616,553.171l5.494-5.494,5.494,5.494" transform="translate(-366.444 -540.183)"/></g><g transform="translate(417.33 419.74)"><path class="k" d="M465.993,430.107h0a5.187,5.187,0,0,1,5.187,5.187v1.44a5.187,5.187,0,0,1-5.187,5.187h0a5.186,5.186,0,0,1-5.186-5.187v-1.44A5.187,5.187,0,0,1,465.993,430.107Z" transform="translate(-446.544 -430.107)"/><path class="f" d="M482.3,433.583h0a3.746,3.746,0,0,1,3.746,3.746v1.7a3.746,3.746,0,0,1-3.746,3.746h0a3.746,3.746,0,0,1-3.745-3.746v-1.7A3.746,3.746,0,0,1,482.3,433.583Z" transform="translate(-450.315 -430.846)"/><path class="f" d="M450.465,433.583h0a3.746,3.746,0,0,1,3.746,3.746v1.7a3.746,3.746,0,0,1-3.746,3.746h0a3.746,3.746,0,0,1-3.745-3.746v-1.7A3.746,3.746,0,0,1,450.465,433.583Z" transform="translate(-443.55 -430.846)"/><path class="f" d="M482.212,448.116l4.034-1.729h1.729a2.051,2.051,0,0,1,2.306,2.305v10.662H482.5" transform="translate(-451.092 -433.564)"/><path class="f" d="M450.763,448.116l-4.034-1.729H445a2.051,2.051,0,0,0-2.305,2.305v10.662h7.78" transform="translate(-442.695 -433.564)"/><path class="h" d="M456.038,465.946h21.035v-14.83s.287-3.17-6.051-3.458l-4.322,2.593-4.9-2.593s-5.475.287-5.763,3.458Z" transform="translate(-445.53 -433.836)"/><path class="f" d="M454.038,462.371h21.035V449.116s.287-3.17-6.051-3.458l-4.322,2.593-4.9-2.593s-5.475.287-5.763,3.458Z" transform="translate(-445.105 -433.411)"/></g><g transform="translate(516.798 399.12)"><circle class="l" cx="10.506" cy="10.506" r="10.506" transform="translate(33.867 23.087)"/><circle class="m" cx="15.75" cy="15.75" r="15.75" transform="translate(2.49 2.363)"/><g transform="translate(0)"><circle class="n" cx="15.75" cy="15.75" r="15.75"/><path class="o" d="M585.439,413.874a1.217,1.217,0,0,0-1.89,1.015V428.6a1.218,1.218,0,0,0,1.89,1.015l10.37-6.854a1.219,1.219,0,0,0,0-2.033Z" transform="translate(-572.094 -405.995)"/></g><g transform="translate(31.843 20.725)"><circle class="n" cx="10.506" cy="10.506" r="10.506"/><path class="o" d="M620.4,436.878a.813.813,0,0,0-1.261.677V446.7a.812.812,0,0,0,1.261.677l6.918-4.572a.815.815,0,0,0,0-1.357Z" transform="translate(-611.5 -431.623)"/></g></g><g transform="translate(642.915 472.498)"><path class="l" d="M785.679,499.712l-3.16,6.408-7.072,1.032a1.55,1.55,0,0,0-.857,2.643l5.117,4.984-1.209,7.042a1.548,1.548,0,0,0,2.246,1.631l6.326-3.325,6.326,3.325a1.548,1.548,0,0,0,2.243-1.631l-1.208-7.042,5.116-4.984a1.55,1.55,0,0,0-.857-2.643l-7.072-1.032-3.16-6.408a1.55,1.55,0,0,0-2.778,0Z" transform="translate(-738.707 -497.473)"/><path class="n" d="M783.931,497.964l-3.16,6.408L773.7,505.4a1.55,1.55,0,0,0-.857,2.643l5.116,4.983-1.208,7.043A1.548,1.548,0,0,0,779,521.7l6.326-3.325,6.326,3.325a1.549,1.549,0,0,0,2.242-1.631l-1.208-7.043,5.116-4.983a1.55,1.55,0,0,0-.858-2.643l-7.071-1.032-3.16-6.408a1.55,1.55,0,0,0-2.778,0Z" transform="translate(-738.336 -497.102)"/><path class="h" d="M745.6,509.773l-3.907,7.922-8.742,1.276a1.916,1.916,0,0,0-1.059,3.267l6.325,6.161-1.494,8.705a1.914,1.914,0,0,0,2.776,2.017l7.82-4.11,7.821,4.11a1.914,1.914,0,0,0,2.772-2.017l-1.493-8.705,6.325-6.161a1.916,1.916,0,0,0-1.06-3.267l-8.741-1.276-3.907-7.922a1.916,1.916,0,0,0-3.434,0Z" transform="translate(-729.61 -499.568)"/><path class="n" d="M743.437,507.611l-3.906,7.922-8.742,1.276a1.916,1.916,0,0,0-1.059,3.267l6.324,6.161-1.493,8.705a1.914,1.914,0,0,0,2.776,2.017l7.82-4.11,7.821,4.11a1.914,1.914,0,0,0,2.772-2.017l-1.493-8.705,6.324-6.161a1.916,1.916,0,0,0-1.06-3.267l-8.741-1.276-3.907-7.922a1.917,1.917,0,0,0-3.435,0Z" transform="translate(-729.151 -499.109)"/></g><g transform="translate(677.143 586.298)"><path class="h" d="M775.449,672.169V647.5s8.741,3.641,15.437,1.41,8.927-5.952,19.343-1.488v24.923a14.393,14.393,0,0,0-10.416-1.86C793.862,671.227,791.631,677.2,775.449,672.169Z" transform="translate(-773.217 -642.398)"/><line class="p" y2="47.986"/><path class="i" d="M772.615,669.335v-24.67s8.741,3.641,15.438,1.409,8.927-5.951,19.343-1.488v24.923a14.392,14.392,0,0,0-10.416-1.86C791.028,668.393,788.8,674.368,772.615,669.335Z" transform="translate(-772.615 -641.796)"/></g></g></svg>