<svg xmlns="http://www.w3.org/2000/svg" xmlns:xlink="http://www.w3.org/1999/xlink" width="429.722" height="296.692" viewBox="0 0 429.722 296.692"><defs><style>.a{fill:#053398;}.b{fill:#8db2ff;}.c{fill:#2763e8;}.d{fill:#d0dffe;}.e{fill:#fff;}.f{fill:#8db2fd;}.g{fill:#d0dfff;}.h{fill:#7ca5ff;}.i{fill:none;stroke:#000;stroke-miterlimit:10;stroke-dasharray:4;}.j{fill:#1ca1f2;}.k{fill:url(#a);}.l{fill:url(#b);}.m{fill:#febd59;}.n{fill:#e31278;}.o{fill:#1166ef;}</style><linearGradient id="a" x1="0.5" x2="0.5" y2="1" gradientUnits="objectBoundingBox"><stop offset="0" stop-color="#fed630"/><stop offset="1" stop-color="#fd5c1f"/></linearGradient><linearGradient id="b" x1="0.5" x2="0.5" y2="1" gradientUnits="objectBoundingBox"><stop offset="0" stop-color="#fed931"/><stop offset="1" stop-color="#fd6520"/></linearGradient></defs><g transform="translate(-433.182 -237.008)"><g transform="translate(604.879 351.357)"><path class="a" d="M551.973,563.865v98.109l-10.62-18.721V545.145Z" transform="translate(-541.353 -543.787)"/><path class="b" d="M605.15,550.495v98.1l-18.6,16.445v-98.1Z" transform="translate(-550.958 -544.924)"/><path class="c" d="M595.546,548.992l-18.6,16.447a63.887,63.887,0,0,0-24.973-1.94l-10.62-18.72A120.2,120.2,0,0,1,595.546,548.992Z" transform="translate(-541.353 -543.42)"/><path class="d" d="M579.811,570.733v98.1a63.833,63.833,0,0,0-24.974-1.939v-98.1A63.88,63.88,0,0,1,579.811,570.733Z" transform="translate(-544.218 -548.714)"/><g transform="translate(14.982 2.235)"><path class="e" d="M569.752,561.6l-6.908-3.989-1.523.88-.943-.545a2.588,2.588,0,0,0,.862-.922,1.029,1.029,0,0,0,.1-.928l1.261-.726,8.974,5.183Z" transform="translate(-560.378 -548.194)"/><path class="e" d="M578.234,554.218a1.154,1.154,0,0,1,.679,1.361,2.662,2.662,0,0,1-1.391,1.521,6.263,6.263,0,0,1-2.655.8,4.015,4.015,0,0,1-2.347-.392l-4.915-2.838a1.159,1.159,0,0,1-.681-1.365,2.653,2.653,0,0,1,1.4-1.525,6.2,6.2,0,0,1,2.652-.8,4.013,4.013,0,0,1,2.345.4Zm-6.814-1.775a1.453,1.453,0,0,0-.854-.134,2.272,2.272,0,0,0-.966.293.951.951,0,0,0-.5.553.425.425,0,0,0,.247.492l4.925,2.843a1.467,1.467,0,0,0,.851.142,2.21,2.21,0,0,0,.955-.289.968.968,0,0,0,.509-.558.419.419,0,0,0-.242-.492Z" transform="translate(-561.761 -547.255)"/><path class="e" d="M578.158,549.059a.347.347,0,0,1,.2.412.82.82,0,0,1-.424.466,1.928,1.928,0,0,1-.8.246,1.225,1.225,0,0,1-.714-.117l-1.492-.863a.354.354,0,0,1-.211-.415.812.812,0,0,1,.425-.469,1.911,1.911,0,0,1,.811-.242,1.217,1.217,0,0,1,.718.119Zm-1.214.691a.424.424,0,0,0,.26.044.7.7,0,0,0,.3-.091.285.285,0,0,0,.151-.167.124.124,0,0,0-.075-.15l-1.5-.863a.427.427,0,0,0-.261-.046.689.689,0,0,0-.291.09.3.3,0,0,0-.156.169.133.133,0,0,0,.077.151Zm3.563,1.585-.616.356-1.671-5.078.611-.354Zm.293-3.321a1.861,1.861,0,0,1,.8-.243,1.219,1.219,0,0,1,.714.12l1.492.862a.347.347,0,0,1,.2.413.82.82,0,0,1-.423.463,1.938,1.938,0,0,1-.8.245,1.193,1.193,0,0,1-.714-.118l-1.491-.859a.353.353,0,0,1-.207-.417A.791.791,0,0,1,580.8,548.014Zm.95.2a.463.463,0,0,0-.268-.044.679.679,0,0,0-.293.09.291.291,0,0,0-.157.17.134.134,0,0,0,.08.151l1.489.86a.429.429,0,0,0,.267.044.649.649,0,0,0,.293-.09.28.28,0,0,0,.157-.169.126.126,0,0,0-.076-.15Z" transform="translate(-563.422 -546.259)"/></g></g><g transform="translate(551.303 386.155)"><path class="a" d="M507.308,630.267l-.189,66.247-33.8-2.156.191-66.246Z" transform="translate(-473.319 -596.215)"/><path class="d" d="M537.9,611.381l-.189,66.245A39.517,39.517,0,0,0,521.6,685.68a19.232,19.232,0,0,0-5.363,7.273l.189-66.246a19.233,19.233,0,0,1,5.363-7.273A39.537,39.537,0,0,1,537.9,611.381Z" transform="translate(-482.439 -592.66)"/><path class="c" d="M518.209,587.608l10.632,18.726a39.522,39.522,0,0,0-16.114,8.053,19.244,19.244,0,0,0-5.363,7.273l-33.8-2.155A34.465,34.465,0,0,1,484.379,603.6C492.653,596.294,504.294,590.794,518.209,587.608Z" transform="translate(-473.372 -587.608)"/><g transform="translate(16.994 9.18)"><path class="e" d="M495.968,613.289q-1.275-.735-1.031-1.654a2.822,2.822,0,0,1,1.489-1.541,6.075,6.075,0,0,1,2.677-.781,4.2,4.2,0,0,1,2.391.414,2.844,2.844,0,0,1,1.33,1.4,6.368,6.368,0,0,1,.24,1.74c.013.234.047.591.1,1.07l.042.4a5,5,0,0,0,.1.6c.014.069.031.109.044.117l3.545-2.044,1.328.767-5.734,3.311-1.239-.716a1.389,1.389,0,0,1-.091-.515c-.024-.15-.041-.317-.054-.5l-.047-.565q-.012-.483-.06-1.527a4.519,4.519,0,0,0-.34-1.628,2,2,0,0,0-.856-.88,1.89,1.89,0,0,0-1-.223,2.439,2.439,0,0,0-1.158.32c-.5.291-.636.623-.41.995a1.111,1.111,0,0,0,.4.356l.346.2-1.777,1.026Z" transform="translate(-494.898 -601.393)"/><path class="e" d="M515.532,607.224a1.148,1.148,0,0,1,.669,1.361,2.654,2.654,0,0,1-1.391,1.522,6.263,6.263,0,0,1-2.653.8,4.015,4.015,0,0,1-2.347-.392l-4.916-2.84a1.157,1.157,0,0,1-.676-1.356,2.666,2.666,0,0,1,1.4-1.529,6.2,6.2,0,0,1,2.655-.8,4.024,4.024,0,0,1,2.345.395Zm-6.814-1.774a1.466,1.466,0,0,0-.855-.142,2.285,2.285,0,0,0-.967.294.951.951,0,0,0-.5.553.422.422,0,0,0,.249.491l4.924,2.843a1.45,1.45,0,0,0,.851.142,2.218,2.218,0,0,0,.954-.287.973.973,0,0,0,.512-.558.418.418,0,0,0-.245-.492Z" transform="translate(-496.871 -600.262)"/><path class="e" d="M515.455,602.062a.348.348,0,0,1,.2.414.811.811,0,0,1-.423.465,1.91,1.91,0,0,1-.8.246,1.227,1.227,0,0,1-.713-.117l-1.493-.862a.356.356,0,0,1-.21-.417.8.8,0,0,1,.426-.467,1.894,1.894,0,0,1,.8-.243,1.235,1.235,0,0,1,.72.119Zm-1.212.691a.428.428,0,0,0,.259.044.69.69,0,0,0,.3-.09.287.287,0,0,0,.151-.169.134.134,0,0,0-.076-.15l-1.495-.863a.447.447,0,0,0-.261-.046.73.73,0,0,0-.291.088.3.3,0,0,0-.157.17.134.134,0,0,0,.076.151Zm3.563,1.585-.615.356-1.677-5.078.611-.352Zm.292-3.321a1.9,1.9,0,0,1,.8-.245,1.257,1.257,0,0,1,.716.122l1.491.862a.347.347,0,0,1,.206.413.82.82,0,0,1-.424.461,1.93,1.93,0,0,1-.8.248,1.234,1.234,0,0,1-.716-.118l-1.491-.862a.352.352,0,0,1-.208-.415A.805.805,0,0,1,518.1,601.018Zm.95.2a.438.438,0,0,0-.268-.046.706.706,0,0,0-.294.092.3.3,0,0,0-.157.17.134.134,0,0,0,.079.15l1.491.862a.434.434,0,0,0,.259.044.7.7,0,0,0,.3-.091.29.29,0,0,0,.155-.17.124.124,0,0,0-.075-.15Z" transform="translate(-498.533 -599.265)"/></g></g><g transform="translate(648.158 414.489)"><path class="d" d="M610.2,661.822V705.14c.019-5.9-3.945-11.736-11.433-16.056-.784-.454-1.606-.887-2.457-1.3V644.466c.857.411,1.673.846,2.457,1.3C606.25,650.087,610.216,655.917,610.2,661.822Z" transform="translate(-596.309 -628.024)"/><path class="f" d="M655.453,666.612c-.061,22.27.064,21.048,0,43.318a27.5,27.5,0,0,1-5.645,16.171V682.784A27.491,27.491,0,0,0,655.453,666.612Z" transform="translate(-607.677 -632.73)"/><g transform="translate(11.664 41.257)"><path class="a" d="M641.587,684.774v43.318l-30.467-8.8V675.977Z" transform="translate(-611.12 -675.977)"/></g><path class="c" d="M622.649,627.462c21.043,12.15,27.187,30.488,15.789,46.18l-30.456-8.8c4.982-8.11,1.472-17.354-9.211-23.516-.784-.454-1.606-.888-2.457-1.3l18.611-16.442A75.41,75.41,0,0,1,622.649,627.462Z" transform="translate(-596.31 -623.588)"/></g><g transform="translate(550.27 461.902)"><path class="g" d="M472.008,713.8c.063-22.27.134-5.407.19-27.678-.034,11.209,7.569,21.943,21.355,29.9a79.379,79.379,0,0,0,11.576,5.446c16.234,6.18,35.658,8.336,54.7,6.058s35.365-8.7,45.983-18.078c.727-.639,1.431-1.317,2.128-2.007l-.191,27.677c-.695.693-1.4,1.37-2.128,2.014-10.618,9.382-26.948,15.8-45.981,18.075s-38.47.122-54.7-6.058a79.548,79.548,0,0,1-11.578-5.444C479.576,735.74,471.976,725.014,472.008,713.8Z" transform="translate(-472.008 -684.289)"/><path class="h" d="M607.995,706.94c-.7.7-1.4,1.373-2.128,2.007-10.619,9.385-26.95,15.808-45.983,18.078s-38.47.122-54.7-6.058A79.375,79.375,0,0,1,493.6,715.52c-14.537-8.392-22.2-19.86-21.282-31.726l33.789,2.164c.105,5.887,4.176,11.539,11.417,15.72a43.421,43.421,0,0,0,6.18,2.906,62.747,62.747,0,0,0,29.236,3.233c10.168-1.2,18.9-4.64,24.574-9.66Z" transform="translate(-472.059 -683.794)"/></g><g transform="translate(663.5 429.671)"><path class="e" d="M624.8,658.355q1.24-.716.375-1.215l-.536-.31a3.192,3.192,0,0,0-3.311.316l-1.16-.669q1.042-.6,1.1-1.144.06-.487-.649-.9l-.214-.124a1.808,1.808,0,0,0-1.912.087q-.57.33-.511.676a.837.837,0,0,0,.457.491l.236.134-1.765,1.018-.212-.124q-.952-.549-.909-1.275.052-.819,1.384-1.588a5.858,5.858,0,0,1,2.676-.8,3.8,3.8,0,0,1,2.129.435l.394.228a1.27,1.27,0,0,1,.775,1.219,1.479,1.479,0,0,1-.231.639,6.249,6.249,0,0,1,2.263-.126,2.784,2.784,0,0,1,1.08.359l.718.414a1.212,1.212,0,0,1,.731,1.472,2.92,2.92,0,0,1-1.472,1.563,6.2,6.2,0,0,1-2.649.8,4.009,4.009,0,0,1-2.339-.393l-.222-.134,1.615-1.045.353.159a1.744,1.744,0,0,0,.87.134A2.217,2.217,0,0,0,624.8,658.355Z" transform="translate(-615.792 -645.001)"/><path class="e" d="M636.305,650.826a1.15,1.15,0,0,1,.678,1.361,2.659,2.659,0,0,1-1.39,1.521,6.246,6.246,0,0,1-2.653.8,4,4,0,0,1-2.347-.392l-4.916-2.838a1.159,1.159,0,0,1-.682-1.362,2.662,2.662,0,0,1,1.4-1.528,6.2,6.2,0,0,1,2.654-.8,4.009,4.009,0,0,1,2.344.395Zm-6.812-1.777a1.475,1.475,0,0,0-.855-.134,2.3,2.3,0,0,0-.967.294.943.943,0,0,0-.5.553.421.421,0,0,0,.249.491l4.923,2.844a1.445,1.445,0,0,0,.851.142,2.225,2.225,0,0,0,.955-.287.97.97,0,0,0,.512-.559.422.422,0,0,0-.245-.494Z" transform="translate(-617.74 -643.862)"/><path class="e" d="M636.231,645.665a.349.349,0,0,1,.2.415.824.824,0,0,1-.424.465,1.914,1.914,0,0,1-.8.246,1.231,1.231,0,0,1-.713-.117L633,645.811a.356.356,0,0,1-.212-.416.8.8,0,0,1,.425-.469,1.9,1.9,0,0,1,.811-.242,1.23,1.23,0,0,1,.718.119Zm-1.215.692a.463.463,0,0,0,.268.044.693.693,0,0,0,.294-.091.287.287,0,0,0,.153-.167.134.134,0,0,0-.076-.151l-1.495-.863a.449.449,0,0,0-.268-.044.7.7,0,0,0-.289.088.29.29,0,0,0-.158.17.133.133,0,0,0,.076.15Zm3.565,1.584-.617.356-1.669-5.076.612-.354Zm.293-3.321a1.886,1.886,0,0,1,.8-.243,1.243,1.243,0,0,1,.716.122l1.489.862a.343.343,0,0,1,.206.413.825.825,0,0,1-.423.461,1.924,1.924,0,0,1-.8.247,1.234,1.234,0,0,1-.716-.117l-1.489-.862a.353.353,0,0,1-.208-.417A.8.8,0,0,1,638.873,644.62Zm.948.2a.451.451,0,0,0-.261-.044.722.722,0,0,0-.3.091.289.289,0,0,0-.155.17.134.134,0,0,0,.079.151l1.491.86a.445.445,0,0,0,.259.046.7.7,0,0,0,.294-.092.29.29,0,0,0,.157-.17c.019-.061-.011-.111-.076-.15Z" transform="translate(-619.4 -642.866)"/></g><g transform="translate(600.982 487.792)"><path d="M538.9,732.713l-2.492-5.112,1.8-1.043,5.675,3.278,1.155-.669,1.362.787-1.156.669,1.939,1.118-1.8,1.041-1.937-1.12L540.26,733.5Zm3.182-1.837-2.791-1.606,1.3,2.47Z" transform="translate(-536.405 -718.771)"/><path d="M555.095,724.629a1.148,1.148,0,0,1,.676,1.36,2.649,2.649,0,0,1-1.39,1.523,6.26,6.26,0,0,1-2.654.8,4.01,4.01,0,0,1-2.347-.391l-4.916-2.838a1.163,1.163,0,0,1-.681-1.365,2.675,2.675,0,0,1,1.4-1.525,6.23,6.23,0,0,1,2.656-.8,4.021,4.021,0,0,1,2.344.4Zm-6.814-1.776a1.465,1.465,0,0,0-.855-.134,2.293,2.293,0,0,0-.968.293.946.946,0,0,0-.5.553.423.423,0,0,0,.247.492l4.925,2.844a1.475,1.475,0,0,0,.85.142,2.222,2.222,0,0,0,.955-.289.963.963,0,0,0,.511-.558.417.417,0,0,0-.245-.492Z" transform="translate(-537.965 -717.666)"/><path d="M555.018,719.469a.348.348,0,0,1,.2.413.823.823,0,0,1-.425.465,1.911,1.911,0,0,1-.8.246,1.22,1.22,0,0,1-.713-.117l-1.495-.863a.353.353,0,0,1-.209-.415.806.806,0,0,1,.424-.469,1.906,1.906,0,0,1,.81-.242,1.228,1.228,0,0,1,.72.119Zm-1.213.691a.429.429,0,0,0,.261.044.7.7,0,0,0,.294-.091.289.289,0,0,0,.152-.167.134.134,0,0,0-.076-.145l-1.494-.862a.451.451,0,0,0-.268-.046.677.677,0,0,0-.291.09.288.288,0,0,0-.157.169.134.134,0,0,0,.076.151Zm3.565,1.585-.617.356-1.671-5.078.613-.353Zm.29-3.321a1.874,1.874,0,0,1,.81-.243,1.228,1.228,0,0,1,.716.121l1.489.862a.346.346,0,0,1,.206.413.828.828,0,0,1-.424.463,1.932,1.932,0,0,1-.8.245,1.2,1.2,0,0,1-.717-.118l-1.489-.859a.356.356,0,0,1-.209-.417.8.8,0,0,1,.421-.465Zm.951.2a.448.448,0,0,0-.261-.044.708.708,0,0,0-.3.09.3.3,0,0,0-.157.17.134.134,0,0,0,.079.153l1.492.858a.418.418,0,0,0,.258.044.672.672,0,0,0,.3-.089.3.3,0,0,0,.157-.17.135.135,0,0,0-.075-.15Z" transform="translate(-539.626 -716.67)"/></g><path class="e" d="M773.893,709.263a50.982,50.982,0,0,1-9.669-1.116,52.454,52.454,0,0,1-34.887-26.027,49.535,49.535,0,0,1-6.108-23.8c0-32.954,27.438-47.294,54.87-50.526,38.041-4.486,57.617,25.541,59.726,53.084C840.812,700.011,809.782,709.959,773.893,709.263Z" transform="translate(24.879 -191.799)"/><g transform="translate(433.182 337.366)"><path class="e" d="M323.326,554.066c0-29.739,24.758-42.674,49.511-45.593,34.326-4.048,51.992,23.05,53.891,47.9,2.7,35.309-25.3,44.285-57.686,43.659C344.129,599.549,323.326,578.99,323.326,554.066Z" transform="translate(-323.326 -508.069)"/></g><path class="i" d="M359.612,477.549s-14.211-26.238,9.84-53.025c12.3-15.033,48.923-21.592,54.116-6.559.547,8.746-20.225,12.573-24.6-4.92s24.871-34.164,59.855-31.431c25.692,2.186,49.744,14.761,57.942,22.411" transform="translate(103.031 -143.769)"/><g transform="translate(613.482 241.333)"><path class="e" d="M552.276,422.191c0-23.318,19.414-33.463,38.825-35.75,26.916-3.175,40.768,18.073,42.259,37.561,2.116,27.688-19.84,34.727-45.232,34.235C568.585,457.857,552.276,441.736,552.276,422.191Z" transform="translate(-552.276 -386.123)"/></g><g transform="translate(508.199 257.761)"><path class="e" d="M418.584,441.248c0-22.153,18.444-31.788,36.884-33.964,25.571-3.011,38.731,17.171,40.145,35.683,2.011,26.3-18.847,32.991-42.971,32.523C434.078,475.13,418.584,459.815,418.584,441.248Z" transform="translate(-418.584 -406.984)"/></g><path class="i" d="M728.682,580.77s-26.232,5.132-29.653,24.521c-.57,8.554,7.984,21.671,12.545,5.133,1.14-11.406-3.991-21.1-18.249-23.951s-21.1,18.248-15.4,30.795c3.422,7.414,14.257,6.272,19.96,22.239,5.133,10.834,7.413,18.248,22.81,17.675" transform="translate(34.932 -186.151)"/><path class="i" d="M620.763,404.209S677.612,378.517,688,418.422c2.733,12.572-3.28,26.785-10.386,20.225-5.466-6.559,12.025-15.306,20.226-14.762s29.518,4.37,30.065,28.972" transform="translate(46.652 -146.904)"/><g transform="translate(626.654 255.351)"><circle class="j" cx="15.75" cy="15.75" r="15.75"/><path class="e" d="M585.439,413.874a1.217,1.217,0,0,0-1.89,1.015V428.6a1.218,1.218,0,0,0,1.89,1.015l10.37-6.854a1.219,1.219,0,0,0,0-2.033Z" transform="translate(-572.094 -405.995)"/></g><g transform="translate(658.498 276.076)"><circle class="j" cx="10.506" cy="10.506" r="10.506"/><path class="e" d="M620.4,436.878a.813.813,0,0,0-1.261.677V446.7a.812.812,0,0,0,1.261.677l6.918-4.572a.815.815,0,0,0,0-1.357Z" transform="translate(-611.5 -431.623)"/></g><g transform="translate(733.555 309.125)"><path class="e" d="M707.693,510.955c0-27.3,22.732-39.179,45.458-41.857,31.516-3.716,47.735,21.163,49.48,43.979,2.477,32.418-23.228,40.661-52.961,40.085C726.784,552.714,707.693,533.839,707.693,510.955Z" transform="translate(-707.693 -468.727)"/></g><path class="k" d="M785.679,499.712l-3.16,6.408-7.072,1.032a1.55,1.55,0,0,0-.857,2.643l5.117,4.984-1.209,7.042a1.548,1.548,0,0,0,2.246,1.631l6.326-3.325,6.326,3.325a1.548,1.548,0,0,0,2.243-1.631l-1.208-7.042,5.116-4.984a1.55,1.55,0,0,0-.857-2.643l-7.072-1.032-3.16-6.408a1.55,1.55,0,0,0-2.778,0Z" transform="translate(14.064 -168.744)"/><path class="l" d="M745.6,509.773l-3.907,7.922-8.742,1.276a1.916,1.916,0,0,0-1.059,3.267l6.325,6.161-1.494,8.705a1.914,1.914,0,0,0,2.776,2.017l7.82-4.11,7.821,4.11a1.914,1.914,0,0,0,2.772-2.017l-1.493-8.705,6.325-6.161a1.916,1.916,0,0,0-1.06-3.267l-8.741-1.276-3.907-7.922a1.916,1.916,0,0,0-3.434,0Z" transform="translate(23.162 -170.838)"/><path class="m" d="M6.75,15.75a4.5,4.5,0,1,0-4.5-4.5A4.5,4.5,0,0,0,6.75,15.75Zm31.5,0a4.5,4.5,0,1,0-4.5-4.5A4.5,4.5,0,0,0,38.25,15.75ZM40.5,18H36a4.487,4.487,0,0,0-3.171,1.308A10.285,10.285,0,0,1,38.109,27H42.75A2.248,2.248,0,0,0,45,24.75V22.5A4.5,4.5,0,0,0,40.5,18Zm-18,0a7.875,7.875,0,1,0-7.875-7.875A7.871,7.871,0,0,0,22.5,18Zm5.4,2.25h-.584a10.873,10.873,0,0,1-9.633,0H17.1A8.1,8.1,0,0,0,9,28.35v2.025a3.376,3.376,0,0,0,3.375,3.375h20.25A3.376,3.376,0,0,0,36,30.375V28.35A8.1,8.1,0,0,0,27.9,20.25Zm-15.729-.942A4.487,4.487,0,0,0,9,18H4.5A4.5,4.5,0,0,0,0,22.5v2.25A2.248,2.248,0,0,0,2.25,27H6.884A10.311,10.311,0,0,1,12.171,19.308Z" transform="translate(524.281 273.826)"/><g transform="translate(60.475 -96.965)"><path class="n" d="M135.039,50.717V47.475h1.953v-4.1h-1.953V40.445h-4.882v2.929H128.01v4.1h2.148v3.207a12.471,12.471,0,1,0,4.882.035ZM132.57,70.48a7.571,7.571,0,1,1,7.571-7.571A7.579,7.579,0,0,1,132.57,70.48Z" transform="translate(301.365 426.399)"/><path class="o" d="M24.914,40.088A12.457,12.457,0,1,0,10.089,52.317v5.466L8.491,56.4,5.86,59.537l6.7,5.652,6.9-5.63-2.624-3.177-1.862,1.5v-5.6A12.49,12.49,0,0,0,24.914,40.088Zm-19.991,0a7.571,7.571,0,1,1,7.571,7.571A7.579,7.579,0,0,1,4.923,40.088Z" transform="translate(398 436.708)"/></g><g transform="translate(763.748 444.639)"><path class="o" d="M67.832,18.136c2.159-1.285,6.411-3.124,10.939-1.239,6.191,2.576,8.395,7.676,17.785.93.805-.579,1.435-.276,1.435.715V36.118a4.554,4.554,0,0,1-1.3,3.034c-1.635,1.413-4.622,3.515-7.827,3.415-4.8-.151-9.457-5.254-13.811-5.254a15.134,15.134,0,0,0-7.2,2.319c-.854.5-1.5.179-1.5-.812V20.943A3.615,3.615,0,0,1,67.832,18.136Z" transform="translate(-33.08 -13.435)"/><path class="o" d="M29.368,0a2.636,2.636,0,0,0-2.635,2.635,2.589,2.589,0,0,0,.22,1.047,7.46,7.46,0,0,1,.62,2.667V45.2a1.8,1.8,0,0,0,3.59,0V6.35a7.483,7.483,0,0,1,.619-2.667A2.59,2.59,0,0,0,32,2.635,2.635,2.635,0,0,0,29.368,0Z"/></g></g></svg>