<svg xmlns="http://www.w3.org/2000/svg" xmlns:xlink="http://www.w3.org/1999/xlink" width="111.043" height="60" viewBox="0 0 111.043 60"><defs><style>.a{fill:#4d7efb;}.b{fill:#fff;}.c{fill:#c9c9c9;}.d{fill:url(#a);}.e{fill:#5a5a5a;}</style><linearGradient id="a" x1="0.5" x2="0.5" y2="1" gradientUnits="objectBoundingBox"><stop offset="0" stop-color="#fdd430"/><stop offset="1" stop-color="#fd6920"/></linearGradient></defs><g transform="translate(-377.66 -652.249)"><g transform="translate(405.16 658.06)"><circle class="a" cx="20.449" cy="20.449" r="20.449"/><path class="b" d="M697.792,518.694a1.581,1.581,0,0,0-2.454,1.318v17.8a1.581,1.581,0,0,0,2.454,1.318l13.464-8.9a1.584,1.584,0,0,0,0-2.64Z" transform="translate(-680.466 -508.464)"/></g><g transform="translate(443.375 681.9)"><circle class="c" cx="15.175" cy="15.175" r="15.175"/><path class="b" d="M730.321,546.752a1.174,1.174,0,0,0-1.821.979v13.211a1.173,1.173,0,0,0,1.173,1.173,1.185,1.185,0,0,0,.648-.194l9.991-6.605a1.174,1.174,0,0,0,.331-1.628,1.156,1.156,0,0,0-.331-.329Z" transform="translate(-717.464 -539.161)"/></g><rect class="d" width="42.027" height="16.359" rx="8" transform="translate(377.66 652.249)"/><path class="b" d="M667.122,507.325a3.782,3.782,0,1,0,5.573,3.756A5.991,5.991,0,0,0,667.122,507.325Zm0,6.263a2.506,2.506,0,1,1,2.533-2.507,2.506,2.506,0,0,1-2.533,2.507Zm0-4.009a1.5,1.5,0,1,0,1.521,1.5,1.5,1.5,0,0,0-1.521-1.5Z" transform="translate(-279.637 149.346)"/><rect class="e" width="32.207" height="16.359" rx="8" transform="translate(456.496 671.833)"/><g transform="translate(397.66 655.906)"><path class="b" d="M675.345,509.073a2.557,2.557,0,0,1,.677-1.915,2.069,2.069,0,0,1,1.533-.581,1.972,1.972,0,0,1,1.488.653,2.153,2.153,0,0,1,.617,1.528,4.2,4.2,0,0,1-.4,1.843,12.784,12.784,0,0,1-1.02,1.6q-.218.308-.648.962l-.242.363c-.154.235-.271.421-.349.556a.49.49,0,0,0-.057.121l2.611.005v1.306h-4.227v-1.219a2.9,2.9,0,0,1,.294-.484c.087-.138.187-.29.3-.455l.342-.5q.305-.416.953-1.329a8.85,8.85,0,0,0,.914-1.553,2.921,2.921,0,0,0,.247-1.171,1.049,1.049,0,0,0-.227-.682.785.785,0,0,0-.632-.294.819.819,0,0,0-.786.643,1.434,1.434,0,0,0-.077.5v.338h-1.311Z" transform="translate(-675.326 -506.577)"/><path class="b" d="M684.85,513.517a2.106,2.106,0,1,1-4.212,0v-4.832a2.109,2.109,0,0,1,3.6-1.49,2.044,2.044,0,0,1,.611,1.49Zm-1.378-4.861a.764.764,0,0,0-1.529,0V513.5a.74.74,0,0,0,.223.54.73.73,0,0,0,.537.225.742.742,0,0,0,.544-.225.735.735,0,0,0,.225-.54Z" transform="translate(-675.207 -506.577)"/><path class="b" d="M690.093,513.517a2.106,2.106,0,1,1-4.212,0v-4.832a2.109,2.109,0,0,1,3.6-1.49,2.044,2.044,0,0,1,.611,1.49Zm-1.378-4.861a.768.768,0,0,0-.769-.764.723.723,0,0,0-.537.225.738.738,0,0,0-.223.539V513.5a.741.741,0,0,0,.223.54.727.727,0,0,0,.537.225.768.768,0,0,0,.769-.765Z" transform="translate(-675.089 -506.577)"/></g><path class="b" d="M741.122,533.325a3.782,3.782,0,1,0,5.573,3.756A5.991,5.991,0,0,0,741.122,533.325Zm0,6.263a2.506,2.506,0,1,1,2.533-2.507,2.506,2.506,0,0,1-2.533,2.507Zm0-4.009a1.5,1.5,0,1,0,1.521,1.5,1.5,1.5,0,0,0-1.521-1.5Z" transform="translate(-274.402 142.93)"/><g transform="translate(476.254 674.9)"><path class="b" d="M755.211,540.049a2.443,2.443,0,1,1-4.885,0v-5.6a2.443,2.443,0,1,1,4.885,0Zm-1.6-5.637a.89.89,0,0,0-.892-.886.843.843,0,0,0-.623.261.858.858,0,0,0-.258.626v5.614a.856.856,0,0,0,.258.625.844.844,0,0,0,.623.261.86.86,0,0,0,.631-.261.851.851,0,0,0,.261-.625Z" transform="translate(-750.326 -532)"/></g></g></svg>