<svg xmlns="http://www.w3.org/2000/svg" width="69.553" height="60" viewBox="0 0 69.553 60"><defs><style>.a{fill:#b0d0f7;}.b{fill:#d8eaff;}.c{fill:#4d7efb;}</style></defs><g transform="translate(-607 -656)"><path class="a" d="M278.413,292.932a34.529,34.529,0,0,0-21.1,8.742l9.092,9.094a21.787,21.787,0,0,1,12.007-4.975Z" transform="translate(361.326 363.068)"/><path class="b" d="M266.322,310.852l-9.094-9.092a34.543,34.543,0,0,0-8.754,21.1h12.862a21.791,21.791,0,0,1,4.986-12.009Z" transform="translate(358.527 365.863)"/><path class="a" d="M292.729,322.861h12.862a34.543,34.543,0,0,0-8.754-21.1l-9.094,9.092A21.791,21.791,0,0,1,292.729,322.861Z" transform="translate(370.961 365.863)"/><path class="c" d="M292.078,320.882a21.693,21.693,0,0,1-2.241,7.856c1.034,1.593,1.895,2.94,2.465,3.835a6.119,6.119,0,0,1-2.511,8.794l2.118,2.118a2.041,2.041,0,0,0,2.886,0,34.58,34.58,0,0,0,10.148-22.6Z" transform="translate(371.609 371.917)"/><path class="a" d="M261.339,320.882H248.473a34.58,34.58,0,0,0,10.148,22.6,2.041,2.041,0,0,0,2.886,0l6.183-6.183a2.043,2.043,0,0,0,0-2.887,21.875,21.875,0,0,1-6.351-13.533Z" transform="translate(358.527 371.917)"/><path class="b" d="M297.534,301.674a34.528,34.528,0,0,0-21.1-8.742v12.861a21.787,21.787,0,0,1,12.007,4.975Z" transform="translate(367.379 363.068)"/><path class="c" d="M280.952,316.372a6.4,6.4,0,1,0-9.054,9.054c3.153,3.155,18.652,13.05,20.41,14.168a2.037,2.037,0,0,0,2.812-2.812C294,335.024,284.107,319.525,280.952,316.372Z" transform="translate(365.352 369.896)"/></g></svg>