<svg xmlns="http://www.w3.org/2000/svg" width="59.431" height="59.189" viewBox="0 0 59.431 59.189"><defs><style>.a{fill:#1ca1f2;}.b{fill:#fd7c23;}</style></defs><g transform="translate(-322 -481.498)"><g transform="translate(322 498.272)"><path class="a" d="M39.08,38.706a17.789,17.789,0,0,0-.113-4.3l3.257-1.452a21.454,21.454,0,0,0-3.932-8.831l-3.259,1.451a17.848,17.848,0,0,0-3.12-2.96l1.278-3.329a21.55,21.55,0,0,0-9.025-3.468l-1.279,3.332a17.789,17.789,0,0,0-4.3.113L17.142,16.02A21.534,21.534,0,0,0,8.32,19.975l1.434,3.22a17.818,17.818,0,0,0-2.962,3.12l-3.32-1.273a21.166,21.166,0,0,0-2.257,4.313A21.789,21.789,0,0,0,0,34.062l3.329,1.278a17.789,17.789,0,0,0,.113,4.3L.185,41.091a21.437,21.437,0,0,0,3.933,8.831l3.257-1.451A17.783,17.783,0,0,0,10.5,51.433L9.219,54.764a21.55,21.55,0,0,0,9.025,3.468L19.522,54.9a17.844,17.844,0,0,0,4.3-.114l1.443,3.24A21.532,21.532,0,0,0,34.09,54.07l-1.435-3.22a17.819,17.819,0,0,0,2.962-3.12L38.936,49a21.186,21.186,0,0,0,2.257-4.311,21.556,21.556,0,0,0,1.217-4.71Zm-8.848,1.781A9.669,9.669,0,1,1,24.667,28,9.669,9.669,0,0,1,30.232,40.486Z" transform="translate(0 -15.816)"/></g><g transform="translate(356.081 481.498)"><g transform="translate(0 0)"><path class="b" d="M54.937,13.233a10.4,10.4,0,0,0-.179-1.89l2.5-1.442a13.1,13.1,0,0,0-3.447-5.983L51.3,5.363a10.286,10.286,0,0,0-3.272-1.887V.589a12.776,12.776,0,0,0-6.905,0V3.478a10.318,10.318,0,0,0-3.272,1.887l-2.5-1.445A13.132,13.132,0,0,0,31.9,9.9l2.5,1.442a9.98,9.98,0,0,0,0,3.779l-2.5,1.442A13.126,13.126,0,0,0,35.35,22.55l2.5-1.445a10.3,10.3,0,0,0,3.272,1.887v2.889a12.776,12.776,0,0,0,6.905,0V22.991A10.306,10.306,0,0,0,51.3,21.1l2.5,1.445a13.1,13.1,0,0,0,3.447-5.983l-2.5-1.442A10.324,10.324,0,0,0,54.937,13.233ZM44.58,18.068a4.834,4.834,0,1,1,4.833-4.835A4.835,4.835,0,0,1,44.58,18.068Z" transform="translate(-31.903 -0.114)"/></g></g></g></svg>