<svg xmlns="http://www.w3.org/2000/svg" width="75.871" height="57.394" viewBox="0 0 75.871 57.394"><defs><style>.a,.b{fill:#fff;}.a,.b,.c{stroke:#1a1818;}.a,.c{stroke-miterlimit:10;}.b{stroke-linejoin:round;}.c{fill:#e6e6e6;}</style></defs><g transform="translate(-913.149 -1014.836)"><path class="a" d="M939.9,1019.812s5.248.4,8.017,3.345c1.672-.692,3.979-1.787,3.979-1.787s.865-.288,1.326.231,2.019,2.019,2.019,2.422a17.02,17.02,0,0,1-1.73,4.268,17.171,17.171,0,0,1,2.711,8.305c2.019.923,3.806,1.557,3.921,2.249a20.27,20.27,0,0,1-.692,5.018,23.74,23.74,0,0,1-4.037.461,13.108,13.108,0,0,1-4.672,7.267c1.326,2.711,1.557,3.576,1.557,3.864a10.033,10.033,0,0,1-3.287,2.364c-.52,0-1.788-1.384-3.4-2.422a13.344,13.344,0,0,1-9.17,1.73,34.976,34.976,0,0,1-2.711,3.922,16.142,16.142,0,0,0-3.46-.923c-.115-.981.23-3.922-.347-4.383s-5.248-1.442-8.42-7.556c-.692-.288-1.961-.173-4.672.577-.576-.288-1.615-4.671-2.768-5.422,1.326-.865,3.634-2.191,4.037-2.884-.346-2.364-1.326-5.479,2.307-9.8-1.384-1.787-3.576-2.364-3.46-3.057s2.25-3.979,3-4.152c.865.288,2.883,1.384,3.518,1.615a14.727,14.727,0,0,1,9.747-5.421c.346-2.019.749-3.692,1.1-3.979a6.723,6.723,0,0,1,4.268.057A16.013,16.013,0,0,1,939.9,1019.812Z" transform="translate(0 0)"/><path class="b" d="M938.8,1042.189c1.442-2.307,5.94-4.211,9.689-.346a7.5,7.5,0,0,1,0,9.574c-1.153,1.442-5.825,2.48-9.458-1.442C937.189,1048.129,936.612,1045.361,938.8,1042.189Z" transform="translate(-7.032 -7.323)"/><path class="c" d="M1000.133,1056.522s3.287,2.307,3.576,5.191c1.038.115,3.4.634,3.4.634a9.21,9.21,0,0,1,.173,2.48,9.242,9.242,0,0,0-2.48,1.73,11.7,11.7,0,0,1-2.422,7.151c.981,1.788,1.788,2.422,1.788,2.884a30.28,30.28,0,0,1-2.538,3.172c-.75-.347-2.48-1.73-3.057-1.9-.635.634-2.365,3-6.748,1.615-.519,2.019-.346,2.826-.865,3.057-.577-.057-2.826-.115-3.345-.577a20.137,20.137,0,0,1-.116-2.941,8.973,8.973,0,0,1-6.113-4.384,11.855,11.855,0,0,1-2.883.519c-.115-.576-1.442-2.307-1.384-2.71a13.689,13.689,0,0,1,2.365-1.788s-.98-1.9-.231-6.4c-1.846-1.269-2.711-1.673-2.768-2.192s1.268-2.365,1.268-2.365a10.065,10.065,0,0,1,3.115-.173,13.96,13.96,0,0,1,4.326-3.98c0-1.615-.231-2.941.173-3.172a11.2,11.2,0,0,1,3.634-1.154,8.939,8.939,0,0,1,1.269,2.654c1.5-.231,3.4-.75,5.652.634,1.038-.981,2.134-1.9,2.134-1.9a3.929,3.929,0,0,1,2.422,1.327C1000.536,1054.5,1000.017,1056.349,1000.133,1056.522Z" transform="translate(-18.819 -10.814)"/><path class="b" d="M993.622,1069.219c-.519.98-1.268,4.787,1.846,6.229,2.077.75,4.788.865,6.056-3.345.231-2.076.058-3.806-2.134-5.133A4.84,4.84,0,0,0,993.622,1069.219Z" transform="translate(-23.843 -15.494)"/></g></svg>