<svg xmlns="http://www.w3.org/2000/svg" width="223.936" height="170.5" viewBox="0 0 223.936 170.5"><defs><style>.a{fill:#f4f4f4;}.a,.b,.c{stroke:#d3d3d3;stroke-miterlimit:10;}.b{fill:#ececec;}.c{fill:#e5e5e5;}.d{fill:#f7f7f7;}.e{fill:#aaa;}.f{fill:#666;}.g{fill:#5b5d66;}.h{fill:#878787;}.i{fill:#6a6b72;}.j{fill:#b2b2b2;}.k{fill:#fff;}.l{fill:#939393;}.m{fill:#c4c4c4;}.n{fill:#706f6f;}</style></defs><g transform="translate(-1480.697 -1072.5)"><path class="a" d="M1560.253,1073h-74.5a4.571,4.571,0,0,0-4.558,4.558v50.64a4.571,4.571,0,0,0,4.558,4.558h49.556c2.887,7.076,10.133,18.158,27.912,23.107,0,0-12.2-10.623-9.872-23.107h6.9a4.571,4.571,0,0,0,4.558-4.558v-50.64A4.571,4.571,0,0,0,1560.253,1073Z" transform="translate(0)"/><path class="b" d="M2329.792,1370.968c1.421-1.5,2.833-2.462,3.156-2.156.236.225-.185,1.076-.991,2.107-.789,1.155,4.152,4.344,8.655,5.387l-3.056,6.623c-1.426-3.758-6.089-10.781-7.7-9.8-.988.857-1.816,1.323-2.053,1.1C2327.48,1373.925,2328.371,1372.464,2329.792,1370.968Z" transform="translate(-753.753 -263.339)"/><path class="c" d="M2327.8,1393.67c.236.225,1.065-.24,2.053-1.1,1.613-.985,6.276,6.038,7.7,9.8l1.615-3.5-9.548-8.28C2328.3,1392.019,2327.49,1393.377,2327.8,1393.67Z" transform="translate(-753.751 -282.779)"/><path class="b" d="M2870.352,1370.968c-1.421-1.5-2.834-2.462-3.156-2.156-.237.225.185,1.076.99,2.107.788,1.155-4.151,4.344-8.655,5.387l3.056,6.623c1.426-3.758,6.089-10.781,7.7-9.8.988.857,1.816,1.323,2.053,1.1C2872.664,1373.925,2871.772,1372.464,2870.352,1370.968Z" transform="translate(-1227.26 -263.339)"/><path class="c" d="M2882.22,1390.588l-9.548,8.28,1.616,3.5c1.426-3.758,6.089-10.781,7.7-9.8.988.857,1.816,1.323,2.053,1.1C2884.351,1393.377,2883.541,1392.019,2882.22,1390.588Z" transform="translate(-1238.961 -282.779)"/><path class="d" d="M2693.809,2022.093c22.927-.123,64.63-1.458,80.6-7.39,10.6-2.927,22.215-14.345-21.64-20.636l-59.126-3.918Z" transform="translate(-1079.553 -816.624)"/><path class="e" d="M2343.332,1984.451c-16.306-6.675-42.743-6.675-59.048,0s-16.307,17.5,0,24.173,42.742,6.675,59.048,0S2359.637,1991.125,2343.332,1984.451Z" transform="translate(-704.175 -807.093)"/><path class="f" d="M2284.3,1989.945c16.306-6.675,42.742-6.675,59.048,0,6.44,2.636,10.334,5.92,11.687,9.339,2.073-5.238-1.822-10.794-11.687-14.833-16.305-6.675-42.742-6.675-59.048,0-9.865,4.039-13.76,9.6-11.687,14.834C2273.968,1995.865,2277.863,1992.581,2284.3,1989.945Z" transform="translate(-704.194 -807.093)"/><path class="b" d="M2412.188,1327.291a26.168,26.168,0,0,0-26.071-23.914H2385a25.061,25.061,0,0,0-24.968,22.9l-6.825,78.841c14.278,8.393,49.89,9.718,65.709,0C2416.723,1379.9,2414.377,1352.611,2412.188,1327.291Z" transform="translate(-776.435 -205.126)"/><path class="a" d="M2363.6,1408.487a13.617,13.617,0,0,1,2.007-4.956,14.849,14.849,0,0,1,3.457-2.873c4.878-3.645-.214-8.49-1.054-12.825-.852-4.4-1.746-8.406.349-12.562a18.27,18.27,0,0,0,2.289-6.916,38.5,38.5,0,0,0-.609-8.019,56.04,56.04,0,0,1-.264-14.714,69.672,69.672,0,0,1,3.6-14.783c1.341-3.851,3.483-8.107,3.839-12.243a25.088,25.088,0,0,0-16.015,21.255l-6.68,77.065c1.614-.368,5.389-3.046,5.986-3.464C2362.444,1412.094,2363.034,1410.748,2363.6,1408.487Z" transform="translate(-777.6 -218.678)"/><path class="a" d="M2774.083,1346.677a61.51,61.51,0,0,1,3.275,14.866,66.827,66.827,0,0,1-.619,14.75c-.371,2.733-.788,5.635-.12,8.355a27.35,27.35,0,0,0,2.35,5.771,10.978,10.978,0,0,1,.917,6.623,39.251,39.251,0,0,1-1.352,7.088c-.724,2.137-2.547,4.027-2.735,6.322-.216,2.638.97,3.925,3,5.323a9.241,9.241,0,0,1,3.441,3.623,48.444,48.444,0,0,1,1.564,5.219c.661,2,2.013,2.847,3.656,4.019.247.176,1.2.856,2.268,1.521-2.186-25.09-4.367-50.507-6.544-75.694a26.191,26.191,0,0,0-13.306-20.592,32.106,32.106,0,0,0,1.7,5.613Q2772.857,1343.068,2774.083,1346.677Z" transform="translate(-1147.433 -232.277)"/><g transform="translate(1620.744 1157.348)"><path class="a" d="M2761.789,1846.573a4.02,4.02,0,1,1,4.02,4.02A4.02,4.02,0,0,1,2761.789,1846.573Z" transform="translate(-2760.975 -1842.553)"/><path class="a" d="M2756.214,1924.247a1.849,1.849,0,1,1-1.849,1.849A1.849,1.849,0,0,1,2756.214,1924.247Z" transform="translate(-2754.365 -1915.293)"/></g><g transform="translate(1588.929 1185.227)"><circle class="a" cx="4.02" cy="4.02" r="4.02" transform="translate(0 0)"/><path class="a" d="M2512.978,2178.6a1.849,1.849,0,1,0,1.849,1.849A1.849,1.849,0,0,0,2512.978,2178.6Z" transform="translate(-2505.974 -2169.65)"/></g><path class="b" d="M1754.281,2314.1c-18.706-6.623-49.035-6.623-67.741,0s-18.707,17.364,0,23.988,49.035,6.624,67.741,0S1772.987,2320.722,1754.281,2314.1Z" transform="translate(-170.344 -1100.643)"/><path class="g" d="M1745.372,2328.989c-1.25-3.48-5.145-6.833-11.689-9.512-16.181-6.624-42.415-6.624-58.6,0-6.544,2.679-10.439,6.031-11.689,9.511h-.446v3.56c.614,3.975,4.715,7.878,12.135,10.917,16.18,6.624,42.414,6.624,58.6,0,7.42-3.037,11.521-6.91,12.136-10.885v-3.591Z" transform="translate(-161.833 -1105.433)"/><path class="h" d="M1734.881,2297.048c-16.181-6.623-42.416-6.623-58.6,0s-16.181,17.363,0,23.987,42.415,6.624,58.6,0S1751.061,2303.672,1734.881,2297.048Z" transform="translate(-162.899 -1085.463)"/><path class="i" d="M1683.323,2305c15.821-6.624,41.47-6.624,57.292,0,7.134,2.987,11.039,6.811,11.739,10.717.852-4.756-3.053-9.633-11.739-13.27-15.821-6.624-41.471-6.624-57.292,0-8.687,3.637-12.593,8.515-11.74,13.27C1672.283,2311.808,1676.189,2307.984,1683.323,2305Z" transform="translate(-169.417 -1090.266)"/><g transform="translate(1501.118 1206.569)"><path class="j" d="M1704.452,2325.6h0c-10.94,0-21.24-1.69-29-4.757-8.058-3.183-12.5-7.527-12.5-12.23s4.438-9.047,12.5-12.231c7.764-3.067,18.064-4.756,29-4.756s21.239,1.689,29,4.756c8.057,3.183,12.495,7.527,12.495,12.23s-4.438,9.047-12.5,12.23C1725.689,2323.913,1715.39,2325.6,1704.452,2325.6Zm0-31.969c-10.675,0-20.7,1.636-28.216,4.607-7.122,2.814-11.206,6.595-11.206,10.375s4.085,7.561,11.205,10.375c7.518,2.97,17.539,4.606,28.215,4.606h0c10.675,0,20.694-1.636,28.214-4.607,7.122-2.814,11.206-6.6,11.206-10.375s-4.084-7.562-11.205-10.375C1725.146,2295.27,1715.127,2293.634,1704.451,2293.634Z" transform="translate(-1662.951 -2291.629)"/></g><g transform="translate(1557.931 1180.404)"><path class="a" d="M2192.035,2059.267a25.763,25.763,0,0,1-8.4,1.332s-4.323-.066-1.232-4.082c1.861-1.964,5.6-2.772,8.722-3.364,2.492-.365,6.9-1.386,6.564,6.936l-.019,7.265C2196.289,2065.884,2192.321,2062.484,2192.035,2059.267Z" transform="translate(-2181.286 -2052.911)"/><path class="b" d="M2191.938,2111.8a25.748,25.748,0,0,1-7.866,3.242s-4.221.938-2.144-3.685c1.355-2.342,4.806-3.994,7.7-5.293,0,0,7.274-2.747,7.992,5.226l.229,6.785C2196.174,2116.969,2192.962,2114.868,2191.938,2111.8Z" transform="translate(-2181.346 -2099.835)"/></g><g transform="translate(1644.96 1180.379)"><path class="b" d="M2981.8,2059.038a25.745,25.745,0,0,0,8.4,1.332s4.323-.066,1.232-4.082c-1.861-1.964-5.6-2.772-8.721-3.364-2.492-.364-6.9-1.386-6.564,6.936l.019,7.265C2977.547,2065.654,2981.515,2062.255,2981.8,2059.038Z" transform="translate(-2976.042 -2052.682)"/><path class="a" d="M2981.222,2111.576a25.754,25.754,0,0,0,7.866,3.242s4.221.938,2.144-3.685c-1.355-2.342-4.805-3.994-7.7-5.293,0,0-7.274-2.747-7.992,5.226l-.229,6.727C2976.985,2116.681,2980.2,2114.639,2981.222,2111.576Z" transform="translate(-2975.305 -2099.606)"/></g><path class="k" d="M2558.653,1507.538c-6.864,0-12.428,7.679-12.428,17.152s5.564,17.152,12.428,17.152,12.428-7.679,12.428-17.152S2565.518,1507.538,2558.653,1507.538Z" transform="translate(-948.295 -386.91)"/><path class="l" d="M2616.694,1680.638a5.256,5.256,0,0,0-2.02.4,1.758,1.758,0,0,1-2.59,2.3,5.282,5.282,0,1,0,4.61-2.706Z" transform="translate(-1006.335 -541.037)"/><g transform="translate(1601.838 1167.191)"><path class="m" d="M2582.885,1937.978a1.005,1.005,0,0,1-.784-1.634,10.586,10.586,0,0,1,8.3-3.986h0a10.584,10.584,0,0,1,8.3,3.986,1.005,1.005,0,0,1-1.569,1.257,8.624,8.624,0,0,0-13.462,0A1,1,0,0,1,2582.885,1937.978Z" transform="translate(-2581.88 -1932.359)"/></g><path class="m" d="M2554.572,1503.06c-7.141,0-12.931,7.99-12.931,17.845s25.862,9.856,25.862,0S2561.714,1503.06,2554.572,1503.06Z" transform="translate(-944.213 -382.923)"/><g transform="translate(1493.851 1092.749)"><g transform="translate(0 0)"><path class="n" d="M1607.588,1255.035a6.214,6.214,0,0,1,1.277,2.243,9.476,9.476,0,0,1,.444,3.012,9.347,9.347,0,0,1-.453,3.016,6.17,6.17,0,0,1-1.268,2.22,5.425,5.425,0,0,1-1.991,1.392,7.509,7.509,0,0,1-5.236-.009,5.4,5.4,0,0,1-2-1.383,6.192,6.192,0,0,1-1.268-2.225,10.414,10.414,0,0,1,0-6,6.359,6.359,0,0,1,1.282-2.266,5.257,5.257,0,0,1,2-1.373,6.976,6.976,0,0,1,2.6-.476,6.861,6.861,0,0,1,2.632.481A5.491,5.491,0,0,1,1607.588,1255.035Zm-.165,5.255a6.275,6.275,0,0,0-1.19-4.1,4.4,4.4,0,0,0-6.514,0,6.289,6.289,0,0,0-1.185,4.1,6.177,6.177,0,0,0,1.208,4.106,4.4,4.4,0,0,0,6.477,0A6.194,6.194,0,0,0,1607.423,1260.29Z" transform="translate(-1596.648 -1253.186)"/><path class="n" d="M1744.252,1289.658a5.74,5.74,0,0,1-1.282,3.946,4.814,4.814,0,0,1-6.88,0,6.741,6.741,0,0,1,0-7.9,4.8,4.8,0,0,1,6.88,0A5.759,5.759,0,0,1,1744.252,1289.658Zm-1.776,0a4.657,4.657,0,0,0-.778-2.952,2.914,2.914,0,0,0-4.335,0,5.935,5.935,0,0,0,0,5.868,2.86,2.86,0,0,0,4.326.009A4.633,4.633,0,0,0,1742.476,1289.658Z" transform="translate(-1719.669 -1280.851)"/><path class="n" d="M1858.5,1289.53a6.9,6.9,0,0,1-.357,2.275,4.97,4.97,0,0,1-1.007,1.744,4.222,4.222,0,0,1-1.423,1.048,4.164,4.164,0,0,1-1.735.371,5.535,5.535,0,0,1-1.442-.174,5.97,5.97,0,0,1-1.314-.54v4.284H1849.5v-14h1.721v1.071a6.683,6.683,0,0,1,1.543-.966,4.363,4.363,0,0,1,1.826-.389,3.373,3.373,0,0,1,2.879,1.4A6.42,6.42,0,0,1,1858.5,1289.53Zm-1.776.046a4.9,4.9,0,0,0-.632-2.765,2.2,2.2,0,0,0-1.941-.916,3.774,3.774,0,0,0-1.492.32,6.756,6.756,0,0,0-1.437.842v5.795a6.854,6.854,0,0,0,1.259.448,5.433,5.433,0,0,0,1.195.119,2.754,2.754,0,0,0,2.243-.97A4.411,4.411,0,0,0,1856.727,1289.576Z" transform="translate(-1821.789 -1280.851)"/><path class="n" d="M1962.083,1292.117a2.782,2.782,0,0,1-1.158,2.3,5.038,5.038,0,0,1-3.163.9,7.574,7.574,0,0,1-2.083-.27,9.245,9.245,0,0,1-1.588-.59v-1.931h.091a6.91,6.91,0,0,0,1.813.975,5.607,5.607,0,0,0,1.913.361,3.6,3.6,0,0,0,1.776-.366,1.234,1.234,0,0,0,.641-1.153,1.166,1.166,0,0,0-.348-.915,3.136,3.136,0,0,0-1.337-.531q-.367-.082-.957-.192t-1.075-.238a3.575,3.575,0,0,1-1.909-1.048,2.6,2.6,0,0,1-.563-1.7,2.774,2.774,0,0,1,.261-1.19,2.873,2.873,0,0,1,.792-1,3.792,3.792,0,0,1,1.3-.682,5.829,5.829,0,0,1,1.771-.252,7.962,7.962,0,0,1,1.854.224,7,7,0,0,1,1.561.545v1.84h-.092a6.159,6.159,0,0,0-1.6-.819,5.513,5.513,0,0,0-1.849-.334,3.236,3.236,0,0,0-1.593.361,1.269,1.269,0,0,0-.256,2.028,3.075,3.075,0,0,0,1.245.522q.476.11,1.067.22t.984.2a3.647,3.647,0,0,1,1.849.943A2.484,2.484,0,0,1,1962.083,1292.117Z" transform="translate(-1914.913 -1281.15)"/></g><g transform="translate(49.164 13.277)"><path class="n" d="M2092.222,1374.322a.876.876,0,1,0,.876.876A.876.876,0,0,0,2092.222,1374.322Z" transform="translate(-2086.288 -1374.322)"/><path class="n" d="M2046.074,1374.489a.876.876,0,1,0,.876.876A.876.876,0,0,0,2046.074,1374.489Z" transform="translate(-2045.198 -1374.471)"/><path class="n" d="M2138.376,1374.489a.876.876,0,1,0,.875.876A.876.876,0,0,0,2138.376,1374.489Z" transform="translate(-2127.383 -1374.471)"/></g></g><path class="j" d="M1930.063,2313.586l28.835,27.489-4.524.941-27.941-28.063Z" transform="translate(-396.436 -1104.61)"/><path class="i" d="M1926.434,2316.938v1.252l26.476,26.975,1.465-.163Z" transform="translate(-396.436 -1107.595)"/></g></svg>