<svg xmlns="http://www.w3.org/2000/svg" width="367.211" height="152.499" viewBox="0 0 367.211 152.499"><defs><style>.a{fill:#d0dffe;}.b{fill:#4d7efb;}.c,.i{fill:#fff;}.c{stroke:#4d7efb;}.d,.e,.h,.l{fill:none;}.d{stroke:#295de3;stroke-width:4px;}.d,.e,.h{stroke-miterlimit:10;}.e{stroke:#333;}.f{fill:#333;}.g{fill:#ff4f5b;}.h{stroke:#f9f7f7;}.j{fill:#053398;}.k{stroke:none;}</style></defs><g transform="translate(-366.89 -126.754)"><g transform="translate(21.395)"><g transform="translate(0 17.281)"><path class="a" d="M461.673,208.177,423.55,288.534h25.612l-.19-28.94h32.839v28.94H499.4v27.172H481.811v29.719H448.972V315.706H387V291.653l40.655-83.476Z" transform="translate(-41.505 -84.06)"/><path class="b" d="M59.5,0h0A59.5,59.5,0,0,1,119,59.5V152a0,0,0,0,1,0,0H0a0,0,0,0,1,0,0V59.5A59.5,59.5,0,0,1,59.5,0Z" transform="translate(476.495 109.473)"/><path class="c" d="M33.217,0h0A33.217,33.217,0,0,1,66.433,33.217v91.57a0,0,0,0,1,0,0H0a0,0,0,0,1,0,0V33.217A33.217,33.217,0,0,1,33.217,0Z" transform="translate(502.605 136.237)"/><g class="d" transform="translate(502.605 136.237)"><path class="k" d="M33.217,0h0A33.217,33.217,0,0,1,66.433,33.217v91.57a0,0,0,0,1,0,0H0a0,0,0,0,1,0,0V33.217A33.217,33.217,0,0,1,33.217,0Z"/><path class="l" d="M33.217,2h0A31.217,31.217,0,0,1,64.433,33.217v88.933a.637.637,0,0,1-.637.637H2.637A.637.637,0,0,1,2,122.149V33.217A31.217,31.217,0,0,1,33.217,2Z"/></g><g transform="translate(523.253 158.856)"><g transform="translate(1.645 0)"><path class="e" d="M932.5,331.014l9.143-14.763a2.025,2.025,0,0,1,3.057.062l8.52,12.728" transform="translate(-932.5 -315.342)"/><circle class="f" cx="1.436" cy="1.436" r="1.436" transform="translate(9.066)"/></g><g transform="translate(0 7.904)"><circle class="g" cx="12.568" cy="12.568" r="12.568" transform="translate(0 0)"/><circle class="h" cx="9.875" cy="9.875" r="9.875" transform="translate(2.693 2.693)"/><rect class="i" width="10.773" height="2.693" transform="translate(7.182 11.671)"/></g></g><g transform="translate(510.684 207.159)"><circle class="b" cx="4.04" cy="4.04" r="4.04" transform="translate(0 0)"/><rect class="j" width="11.671" height="2.693" rx="1.347" transform="translate(2.693 2.693)"/></g><g transform="translate(611.659 123.669)"><path class="a" d="M1292.326,244.153q0,20.035-20.033,29.388,25.062,8.562,25.063,31.682a36.176,36.176,0,0,1-6.4,21.136,41.413,41.413,0,0,1-17.782,14.253,62.9,62.9,0,0,1-25.681,5.03q-47.745,0-51.186-43.508l28.946-2.383q.175,23.3,19.15,23.3,8.737,0,14.208-5.471a18.347,18.347,0,0,0,5.472-13.5,17.2,17.2,0,0,0-5.78-13.458q-5.782-5.163-16.37-5.163-1.678,0-7.413.441V261.627q12.265-.176,19.151-4.324a13.152,13.152,0,0,0,6.883-11.914,12.518,12.518,0,0,0-4.633-10.061,17.587,17.587,0,0,0-11.693-3.883q-15.885,0-15.885,17.739l-27.975-2.383q1.41-18.089,13.591-28.2t32.123-10.1q21.091,0,33.668,9.575T1292.326,244.153Z" transform="translate(-1196.309 -208.5)"/></g></g></g><rect class="j" width="166" height="5" rx="2.5" transform="translate(474.5 274.253)"/></g></svg>