<svg xmlns="http://www.w3.org/2000/svg" width="360.666" height="200.5" viewBox="0 0 360.666 200.5"><defs><style>.a{fill:#f2f2f2;}.b{fill:#ececec;}.b,.h,.k{stroke:#d3d3d3;stroke-miterlimit:10;}.c{fill:#aaa;}.d{fill:#636363;}.e{fill:#c3c3c3;}.f,.h{fill:#ddd;}.g{fill:#f2dad4;}.i{fill:#999;}.j{fill:#969696;}.k{fill:#fff;}.l{fill:#20d357;}.m{fill:#ffac00;}.n{fill:#e64d4e;}.o{fill:#898989;}</style></defs><g transform="translate(-794.391 -471.45)"><ellipse class="a" cx="66.12" cy="8.743" rx="66.12" ry="8.743" transform="translate(1021.24 634.847)"/><g transform="translate(990.222 549.851)"><rect class="b" width="28.074" height="28.074" rx="4.9" transform="translate(0.534 0.534)"/><circle class="c" cx="10.304" cy="10.304" r="10.304" transform="translate(0 14.572) rotate(-45)"/><g transform="translate(9.369 12.729)"><path class="d" d="M985.877,556.719a1.843,1.843,0,1,1-1.844-1.843A1.843,1.843,0,0,1,985.877,556.719Z" transform="translate(-982.191 -554.876)"/><path class="d" d="M992.024,556.719a1.843,1.843,0,1,1-1.843-1.843A1.843,1.843,0,0,1,992.024,556.719Z" transform="translate(-981.62 -554.876)"/></g></g><g transform="translate(1048.695 533.298)"><path class="c" d="M1094.773,629.541h-15.219a6.048,6.048,0,0,1,0-12.1h15.219a22.331,22.331,0,0,0,22.306-22.3V561.692a6.047,6.047,0,0,1,12.094,0v33.449A34.439,34.439,0,0,1,1094.773,629.541Z" transform="translate(-1022.811 -525.523)"/><path class="e" d="M0,0H60.339a0,0,0,0,1,0,0V2.22A18.805,18.805,0,0,1,41.534,21.025H18.805A18.805,18.805,0,0,1,0,2.22V0A0,0,0,0,1,0,0Z" transform="translate(67.919 110.745) rotate(180)"/><path class="f" d="M0,0H41.864a0,0,0,0,1,0,0V22.9A19.152,19.152,0,0,1,22.711,42.05H19.152A19.152,19.152,0,0,1,0,22.9V0A0,0,0,0,1,0,0Z" transform="translate(56.404 110.745) rotate(180)"/><path class="g" d="M1096.69,528.083h0a4.716,4.716,0,0,1,4.716,4.716v40.387h-28.592V551.958A23.876,23.876,0,0,1,1096.69,528.083Z" transform="translate(-1022.876 -528.083)"/><path class="h" d="M1031.838,528.083h0a4.716,4.716,0,0,0-4.717,4.716v40.387h28.593V551.958A23.876,23.876,0,0,0,1031.838,528.083Z" transform="translate(-1027.121 -528.083)"/><path class="c" d="M1043.994,558.266h-7.132a1.166,1.166,0,0,1-1.166-1.166v-17.71a1.165,1.165,0,0,1,1.166-1.166h0a8.3,8.3,0,0,1,8.3,8.3V557.1A1.167,1.167,0,0,1,1043.994,558.266Z" transform="translate(-1026.324 -527.141)"/><path class="h" d="M1096.69,528.083h0a4.716,4.716,0,0,1,4.716,4.716v40.387h-28.592V551.958A23.876,23.876,0,0,1,1096.69,528.083Z" transform="translate(-1022.876 -528.083)"/><path class="c" d="M1082.907,558.266h7.132a1.167,1.167,0,0,0,1.166-1.166v-17.71a1.166,1.166,0,0,0-1.166-1.166h0a8.3,8.3,0,0,0-8.3,8.3V557.1A1.167,1.167,0,0,0,1082.907,558.266Z" transform="translate(-1022.047 -527.141)"/><rect class="b" width="78.529" height="58.447" rx="26.739" transform="translate(78.529 76.515) rotate(-180)"/><path class="e" d="M1055.978,599.7h16.776a9.445,9.445,0,0,0,9.445-9.445h0a9.445,9.445,0,0,0-9.445-9.445h-16.776a9.445,9.445,0,0,0-9.445,9.445h0A9.445,9.445,0,0,0,1055.978,599.7Z" transform="translate(-1025.318 -523.185)"/><path class="i" d="M1057.25,590.6a2.016,2.016,0,0,1,2.829-.342,4.861,4.861,0,0,0,1.99.9v-2.708a2.826,2.826,0,0,1-1.139-1.1l-1.376-2.383a2.863,2.863,0,0,1,2.48-4.3h2.751a2.864,2.864,0,0,1,2.481,4.3l-1.376,2.383a2.834,2.834,0,0,1-1.139,1.1v2.743a4.959,4.959,0,0,0,2.038-.849,2.015,2.015,0,0,1,2.391,3.245,10.044,10.044,0,0,1-11.589-.154A2.015,2.015,0,0,1,1057.25,590.6Z" transform="translate(-1024.362 -523.198)"/><path class="d" d="M1052.794,630.014h14.117a7.059,7.059,0,1,0-14.117,0Z" transform="translate(-1024.736 -519.269)"/><path class="d" d="M1036.4,630.014h14.117a7.058,7.058,0,1,0-14.117,0Z" transform="translate(-1026.259 -519.269)"/><g transform="translate(17.06 45.881)"><circle class="i" cx="4.832" cy="4.832" r="4.832" transform="translate(34.313)"/><circle class="i" cx="4.832" cy="4.832" r="4.832"/></g></g><g transform="translate(1090.905 601.759)"><path class="d" d="M1076.9,614.308a1.093,1.093,0,0,1-1.073-.9l-.224-1.237c-1.125-6.248-2.4-13.331-9.485-19.532a1.093,1.093,0,1,1,1.438-1.646c7.666,6.706,9.011,14.189,10.2,20.791l.224,1.229a1.093,1.093,0,0,1-.878,1.272A1.039,1.039,0,0,1,1076.9,614.308Z" transform="translate(-1065.743 -590.725)"/></g><g transform="translate(1096.477 623.966)"><path class="c" d="M1071.674,615.72V620.4h9.352V615.72a4.677,4.677,0,0,0-4.677-4.677h0A4.676,4.676,0,0,0,1071.674,615.72Z" transform="translate(-1070.764 -611.044)"/><g transform="translate(2.552 10.919)"><path class="d" d="M1077.109,624.093v-2.174a.884.884,0,0,1,.884-.884h0a.884.884,0,0,1,.884.884v2.174a.884.884,0,0,1-.884.884h0A.884.884,0,0,1,1077.109,624.093Z" transform="translate(-1072.812 -621.035)"/><path class="d" d="M1073.177,624.093v-2.174a.885.885,0,0,1,.885-.884h0a.884.884,0,0,1,.884.884v2.174a.884.884,0,0,1-.884.884h0A.885.885,0,0,1,1073.177,624.093Z" transform="translate(-1073.177 -621.035)"/></g><rect class="j" width="3.286" height="11.171" rx="1.503" transform="translate(11.171 8.24) rotate(90)"/></g><g transform="translate(941.393 602.005)"><path class="d" d="M1039.036,660.894h-35.844c-28.839,0-30.341-2.43-30.835-3.229a1.4,1.4,0,0,1-.206-.948c.084-1.608,1.8-3.61,17.5-6.884,4-.836,8.21-1.6,11.735-2.192q-.543,0-1.138,0H975.7c-.355.016-10.229.353-13.831-15.083-4.382-19.281-22.552-18.951-30.317-18.815-.569.011-1.078.019-1.516.019a1.093,1.093,0,0,1,0-2.186c.427,0,.922-.008,1.478-.018,7.581-.13,27.712-.5,32.486,20.509,3.163,13.562,11.31,13.411,11.649,13.39h24.6c10.1,0,10.2.6,10.363,1.6.066.4,0,1.121-1.179,1.513l-.191.046c-15.3,2.186-32.285,5.849-34.686,8.062,1.331.591,6.821,2.037,28.639,2.037h35.844c6.184,0,11.526,0,16.165-12.066,1.624-3.612,3.021-11.738,4.5-20.342,2.722-15.835,5.538-32.21,11.229-35.224a1.093,1.093,0,1,1,1.023,1.932c-4.742,2.512-7.713,19.785-10.1,33.664-1.569,9.122-2.923,17-4.638,20.812C1052.063,660.894,1045.441,660.894,1039.036,660.894Z" transform="translate(-928.94 -590.95)"/></g><g transform="translate(794.891 471.95)"><rect class="c" width="115.398" height="6.588" transform="translate(12.502 37.505)"/><rect class="b" width="140.402" height="37.505" rx="7"/><path class="k" d="M4.208,0H64.078a4.208,4.208,0,0,1,4.208,4.208V8.04a0,0,0,0,1,0,0H0a0,0,0,0,1,0,0V4.208A4.208,4.208,0,0,1,4.208,0Z" transform="translate(12.502 29.465)"/><circle class="l" cx="2.747" cy="2.747" r="2.747" transform="translate(12.502 11.935)"/><circle class="m" cx="2.747" cy="2.747" r="2.747" transform="translate(20.634 11.935)"/><circle class="n" cx="2.747" cy="2.747" r="2.747" transform="translate(28.766 11.935)"/><circle class="e" cx="6.126" cy="6.126" r="6.126" transform="translate(121.846 8.557)"/><path class="e" d="M1.243,0H26.848a1.243,1.243,0,0,1,1.243,1.243V3.176a1.242,1.242,0,0,1-1.242,1.242H1.242A1.242,1.242,0,0,1,0,3.176V1.243A1.243,1.243,0,0,1,1.243,0Z" transform="translate(91.098 12.473)"/><g transform="translate(0 44.191)"><rect class="c" width="115.398" height="6.588" transform="translate(12.502 37.505)"/><rect class="b" width="140.402" height="37.505" rx="7"/><path class="k" d="M4.208,0h59.87a4.208,4.208,0,0,1,4.208,4.208V8.04a0,0,0,0,1,0,0H0a0,0,0,0,1,0,0V4.208A4.208,4.208,0,0,1,4.208,0Z" transform="translate(12.502 29.465)"/><circle class="l" cx="2.747" cy="2.747" r="2.747" transform="translate(12.502 11.935)"/><circle class="m" cx="2.747" cy="2.747" r="2.747" transform="translate(20.634 11.935)"/><circle class="n" cx="2.747" cy="2.747" r="2.747" transform="translate(28.766 11.935)"/><circle class="e" cx="6.126" cy="6.126" r="6.126" transform="translate(121.846 8.557)"/><path class="e" d="M1.243,0H26.848a1.243,1.243,0,0,1,1.243,1.243V3.176a1.242,1.242,0,0,1-1.242,1.242H1.242A1.242,1.242,0,0,1,0,3.176V1.243A1.243,1.243,0,0,1,1.243,0Z" transform="translate(91.098 12.473)"/></g><g transform="translate(0 88.381)"><rect class="c" width="115.398" height="6.588" transform="translate(12.502 37.505)"/><rect class="b" width="140.402" height="37.505" rx="7"/><path class="k" d="M4.208,0h59.87a4.208,4.208,0,0,1,4.208,4.208V8.04a0,0,0,0,1,0,0H0a0,0,0,0,1,0,0V4.208A4.208,4.208,0,0,1,4.208,0Z" transform="translate(12.502 29.465)"/><circle class="l" cx="2.747" cy="2.747" r="2.747" transform="translate(12.502 11.935)"/><circle class="m" cx="2.747" cy="2.747" r="2.747" transform="translate(20.634 11.935)"/><circle class="n" cx="2.747" cy="2.747" r="2.747" transform="translate(28.766 11.935)"/><circle class="e" cx="6.126" cy="6.126" r="6.126" transform="translate(121.846 8.557)"/><path class="e" d="M1.243,0H26.848a1.243,1.243,0,0,1,1.243,1.243V3.176a1.242,1.242,0,0,1-1.242,1.242H1.242A1.242,1.242,0,0,1,0,3.176V1.243A1.243,1.243,0,0,1,1.243,0Z" transform="translate(91.098 12.473)"/></g><g transform="translate(0 132.572)"><rect class="c" width="115.398" height="6.588" transform="translate(12.502 37.505)"/><rect class="b" width="140.402" height="37.505" rx="7"/><path class="k" d="M4.208,0h59.87a4.208,4.208,0,0,1,4.208,4.208V8.04a0,0,0,0,1,0,0H0a0,0,0,0,1,0,0V4.208A4.208,4.208,0,0,1,4.208,0Z" transform="translate(12.502 29.465)"/><circle class="l" cx="2.747" cy="2.747" r="2.747" transform="translate(12.502 11.935)"/><circle class="m" cx="2.747" cy="2.747" r="2.747" transform="translate(20.634 11.935)"/><circle class="n" cx="2.747" cy="2.747" r="2.747" transform="translate(28.766 11.935)"/><circle class="e" cx="6.126" cy="6.126" r="6.126" transform="translate(121.846 8.557)"/><path class="e" d="M1.243,0H26.848a1.243,1.243,0,0,1,1.243,1.243V3.176a1.242,1.242,0,0,1-1.242,1.242H1.242A1.242,1.242,0,0,1,0,3.176V1.243A1.243,1.243,0,0,1,1.243,0Z" transform="translate(91.098 12.473)"/></g></g><path class="o" d="M0,0H1.6A1.348,1.348,0,0,1,2.946,1.348V5.035A1.348,1.348,0,0,1,1.6,6.383H0a0,0,0,0,1,0,0V0A0,0,0,0,1,0,0Z" transform="translate(939.54 620.775)"/><path class="c" d="M1.348,0H4.419a0,0,0,0,1,0,0V9.329a0,0,0,0,1,0,0H1.348A1.348,1.348,0,0,1,0,7.981V1.348A1.348,1.348,0,0,1,1.348,0Z" transform="translate(939.54 628.631) rotate(180)"/></g></svg>