<svg xmlns="http://www.w3.org/2000/svg" width="347.117" height="152" viewBox="0 0 347.117 152"><defs><style>.a{fill:#d0dffe;}.b{fill:#7aade3;opacity:0.3;}.c{fill:#4d7efb;}.d{opacity:0.05;}.d,.l{mix-blend-mode:multiply;isolation:isolate;}.e{fill:#bc6c4d;}.f{fill:#9e5d44;}.g{fill:#8a4f3a;}.h{fill:#7e4835;}.i{fill:#f3be65;}.j{fill:#afafaf;}.k{fill:#444;}.l{fill:#231f20;opacity:0.1;}.m{fill:#4d7efa;}.n{fill:#333;}.o{opacity:0.58;}.p{opacity:0.39;}.q{opacity:0.15;}</style></defs><g transform="translate(-512.447 -195.629)"><path class="a" d="M1033.214,2250.076v-28.723h-32.588l.192,28.723H975.4l37.831-79.741H979.478l-32.173,66.054-8.175,16.782v23.866h61.5v29.494h32.588v-29.494h17.461v-26.961Z" transform="translate(-191.11 -1959.845)"/><path class="b" d="M957.652,2279.111a28.349,28.349,0,0,0-2.032-13.788,44.176,44.176,0,0,1-2.595,13.788h-13.9v-23.866l8.175-16.782a33.087,33.087,0,0,1,5.767,10.516c.238.646.454,1.3.661,1.955.008.031.016.053.023.085.362,1.186.678,2.387.932,3.587.008.015.008.039.016.054.023.123.047.239.076.362.071.355.149.711.2,1.07.069.354.123.716.184,1.071.008.061.016.131.023.192.008.031.008.062.016.092q.093.624.162,1.248a.231.231,0,0,1,.008.076.1.1,0,0,1,.008.047v-.031s6.9,6.782,6.944,20.324Z" transform="translate(-191.11 -1961.919)"/><path class="a" d="M770.261,2170.334l-37.832,79.741h25.416l-.189-28.718h32.588v28.718H807.7v26.964H790.244v29.492H757.656v-29.492h-61.5V2253.17l40.344-82.837Z" transform="translate(-183.713 -1959.845)"/><path class="c" d="M874.637,2155.007c-38.054,0-58.786,26.945-58.786,75.9,0,15.775,2.156,29.285,6.352,40.356,8.815,23.273,26.644,35.745,52.435,35.745,14.52,0,26.553-4.042,35.86-11.817a47.419,47.419,0,0,0,4.6-4.388,51.909,51.909,0,0,0,4.033-4.958q.925-1.281,1.779-2.64c7.8-12.271,12.017-29.109,12.294-50.064.008-.739.016-1.486.016-2.233C933.215,2181.952,912.268,2155.007,874.637,2155.007Zm-21.078,87.779c-.208-3.664-.3-7.614-.3-11.879,0-34.42,6.2-48.539,21.379-48.539,13.442,0,19.809,11.385,20.964,38.623q.208,4.642.2,9.916c0,34.2-6.19,48.524-21.163,48.524C861.349,2279.431,854.944,2268.46,853.559,2242.786Z" transform="translate(-187.357 -1959.378)"/><g transform="translate(634.56 260.53)"><path class="d" d="M921.332,2289.89a51.991,51.991,0,0,1-4.033,4.958c-11.579,1.786-27.746,6.89-28.932-3.333a4.369,4.369,0,0,1,.016-1.786C889.268,2285.294,910,2290.421,921.332,2289.89Z" transform="translate(-824.122 -2223.954)"/><path class="d" d="M933.388,2235.177c-.276,20.958-4.491,37.792-12.291,50.067-6.238.291-19.923-3.2-25.948-.076a1.643,1.643,0,0,1-.295.136,7.851,7.851,0,0,1-.787.277c-.031.008-.069.02-.1.026s-.068.019-.106.031c-.085.02-.17.043-.254.064l-.258.057c-.072.019-.147.034-.223.049a2.26,2.26,0,0,0-.242.049c-.136.027-.273.051-.409.072-.007,0-.015,0-.026,0-.144.027-.292.05-.443.073H892c-.85.124-1.705.207-2.564.265a.111.111,0,0,1-.03,0c-.208.014-.424.03-.644.041h-.008c-9.278.534-22.018.838-30.559-3.187-1.423.03-2.242.044-2.242.044-.106,0-.208,0-.314-.007l-.016-.012-.871.019c-.106,0-.208,0-.314-.007a69.493,69.493,0,0,1-21.612-3.314c-.631-.185-1.243-.439-1.867-.646-.223-.083-.446-.171-.662-.254-.053-.023-.1-.042-.155-.06-.542-.216-1.069-.457-1.605-.682a26.517,26.517,0,0,1-2.586-1.353c-.034-.022-.072-.041-.107-.064-.394-.244-.775-.5-1.151-.773-.1-.076-.193-.147-.284-.223a1.1,1.1,0,0,1-.11-.083c-.141-.119-.281-.24-.42-.36-.087-.075-.167-.155-.246-.234a4.7,4.7,0,0,1-.693-.795,1.02,1.02,0,0,1-.072-.107c-2.158-2.466.866-9.385,2.049-11.393.038-.09.072-.173.1-.239-2.185-7.008-1-11.155-1-11.155,3.283.818,5.934,4.036,5.934,4.036,2.3-2.832,7.276-4.081,10.746-4.244-.049-5.347,1.118-6.42,1.118-6.42,9.059,2.895,2.111,7.623,11.933.017.827,15.28,5.083,42.4,26.969,35.758,19.283-5.846,15.7-43.428,15.079-57.549,13.6-2.977,29.386-.1,37.6,12.146C933.112,2256.134,930.1,2230.266,933.388,2235.177Z" transform="translate(-822.107 -2221.946)"/></g><g transform="translate(630.167 255.797)"><path class="e" d="M933.443,2264.656a17.414,17.414,0,0,1-2.741,4.332,17.733,17.733,0,0,1-3.412,3.047c-9.386,6.483-24.074,4.275-29.768,4.805-.788.072-2.019.147-3.586.223q-.471.023-.988.045c-1.568.073-3.408.145-5.418.212-9.944.348-24.187.686-31.87.852-3.313.075-5.4.118-5.4.118-.106,0-.208,0-.314-.008s-.182,0-.272-.008a75.96,75.96,0,0,1-21.534-3.367,28.93,28.93,0,0,1-7.94-3.771,8.987,8.987,0,0,1-1.5-1.367,5.591,5.591,0,0,1-.4-.534c-.049-.076-.091-.148-.133-.223-2.124-3.877,2.143-10.9,2.359-11.25l0-.008v0l0,0c-2.208-7.035-1.011-11.2-1.011-11.2,3.283.817,5.934,4.036,5.934,4.036a7.348,7.348,0,0,1,1.73-1.518,11.9,11.9,0,0,1,1.78-.958,17.429,17.429,0,0,1,2.071-.761,26.476,26.476,0,0,1,3.184-.746c1.182-.2,1.981-.262,1.981-.262-.049-5.346,1.606-7.523,1.606-7.523,2.37.757,4.4,6.248,5.255,6.2.674-.034,1.741-1.976,9.887-7.834.571-.412,1.177-.841,1.821-1.295,1.579-1.1,3.382-2.329,5.445-3.688.272-.178.549-.36.833-.545q.67-.438,1.351-.872c1.753-1.117,3.555-2.21,5.4-3.264q1.249-.716,2.526-1.4,2.078-1.119,4.221-2.147,1.034-.494,2.079-.961c1.242-.556,2.5-1.087,3.764-1.583,1.7-.666,3.427-1.272,5.169-1.806,1.874-.576,3.764-1.068,5.672-1.462a.077.077,0,0,1,.03,0c.133-.03.269-.056.4-.083a50.514,50.514,0,0,1,8.709-.989c.178-.008.353-.011.53-.015a42.471,42.471,0,0,1,6.119.349,40.4,40.4,0,0,1,8.428,2,27.567,27.567,0,0,1,13.953,11.654,37.928,37.928,0,0,1,2.852,5.46c.326.761.624,1.529.9,2.31a42.928,42.928,0,0,1,2.359,10.912A30.94,30.94,0,0,1,933.443,2264.656Z" transform="translate(-817.576 -2217.065)"/><path class="f" d="M932.122,2267.157a17.559,17.559,0,0,1-1.4,1.867c-8.762,10.162-26.733,7.254-33.18,7.852-.788.072-2.019.147-3.586.223q-.471.023-.988.046c-1.568.073-3.408.145-5.418.213-9.944.348-24.187.685-31.87.852-3.313.076-5.4.118-5.4.118-.106,0-.208,0-.314-.008s-.182,0-.272-.008a75.963,75.963,0,0,1-21.534-3.366,28.929,28.929,0,0,1-7.94-3.771,8.99,8.99,0,0,1-1.5-1.368,5.568,5.568,0,0,1-.4-.534c-1.14-3.971,2.316-11.76,2.316-11.76-2.208-7.035-.59-9.792-.59-9.792,3.283.818,5.934,4.036,5.934,4.036a7.379,7.379,0,0,1,1.731-1.519,12.09,12.09,0,0,1,1.779-.958,17.664,17.664,0,0,1,2.071-.761,26.354,26.354,0,0,1,3.185-.746c1.181-.2,1.98-.26,1.98-.26-.049-5.347,1.435-7.5,1.435-7.5,2.371.758,4.574,6.225,5.426,6.175.675-.034,1.742-1.977,9.887-7.833.572-.413,1.178-.841,1.822-1.3,1.578-1.1,3.381-2.329,5.444-3.688.273-.177.55-.36.834-.545q.669-.438,1.352-.871c1.753-1.117,3.555-2.211,5.4-3.263q1.249-.716,2.525-1.4c2.056-1.106,4.161-2.152,6.3-3.109q1.863-.835,3.764-1.582c1.7-.666,3.427-1.272,5.168-1.806a62.934,62.934,0,0,1,6.1-1.548,50.645,50.645,0,0,1,9.239-1,42.666,42.666,0,0,1,6.118.348,40.435,40.435,0,0,1,8.429,2,27.574,27.574,0,0,1,13.952,11.655,37.018,37.018,0,0,1,2.348,4.324C936.821,2247.248,936.825,2259.959,932.122,2267.157Z" transform="translate(-817.592 -2217.101)"/><path class="g" d="M944.549,2269.875c0,13.631-13.128,19.311-30.67,22.59-15.365,2.874-22.5.814-23.362-3.135a4.441,4.441,0,0,1,.012-1.787c1.011-5.048,19.436-2.522,31.048-3.911s17.542-5.555,18.3-13.885a27.723,27.723,0,0,0-2.144-14.009l-.117-5.7-.012-.6S944.549,2256.244,944.549,2269.875Z" transform="translate(-819.794 -2218.051)"/><path class="f" d="M941.9,2266.865c0,13.631-13.315,20.045-30.857,23.325-10.231,1.916-19.759,1.959-20.525-.842a4.442,4.442,0,0,1,.012-1.787c1.011-5.048,19.436-2.522,31.048-3.911s17.542-5.555,18.3-13.886a27.725,27.725,0,0,0-2.144-14.009l-.117-5.7c.193.326.386.671.583,1.041A33.279,33.279,0,0,1,941.9,2266.865Z" transform="translate(-819.794 -2218.069)"/><path class="f" d="M942.921,2269.938c0,13.631-13,16.978-30.544,20.257-10.231,1.915-17.945.881-21.455-.683a4.936,4.936,0,0,1,.094-1.117c1.011-5.048,19.436-2.522,31.048-3.911s17.543-5.556,18.3-13.885a31.7,31.7,0,0,0-2.5-15.09l-.24-6.038C941.99,2253.945,942.921,2262.679,942.921,2269.938Z" transform="translate(-819.809 -2218.052)"/><g transform="translate(35.373 0)"><path class="g" d="M860.644,2247.012a20.781,20.781,0,0,0-6.584-9.239c.571-.412,1.177-.841,1.821-1.294A24.6,24.6,0,0,1,860.644,2247.012Z" transform="translate(-854.06 -2217.656)"/><path class="g" d="M869.153,2243.444a24.9,24.9,0,0,0-7.6-10.813c.273-.178.549-.36.833-.545.447-.292.9-.584,1.352-.872A29.521,29.521,0,0,1,869.153,2243.444Z" transform="translate(-854.288 -2217.496)"/><path class="g" d="M877.85,2239.261c-2.5-6.33-5.922-9.7-8.474-11.457q1.249-.716,2.526-1.4C876.608,2231.722,877.85,2239.261,877.85,2239.261Z" transform="translate(-854.526 -2217.349)"/><path class="g" d="M890.146,2238.156c-3.491-8.83-8.414-13.063-11.667-15.009,1.242-.557,2.5-1.087,3.764-1.583C888.4,2228.115,890.088,2237.8,890.146,2238.156Z" transform="translate(-854.803 -2217.202)"/><path class="g" d="M904.413,2240.133c-5.119-12.957-12.6-18.371-16.721-20.48a62.5,62.5,0,0,1,6.1-1.549C902.076,2226.7,904.333,2239.664,904.413,2240.133Z" transform="translate(-855.084 -2217.097)"/><path class="g" d="M914.818,2239.4c-2.28-12.321-7.6-19.023-11.3-22.329a42.47,42.47,0,0,1,6.119.349C915.182,2227.361,914.818,2239.4,914.818,2239.4Z" transform="translate(-855.566 -2217.065)"/></g><path class="g" d="M849.705,2279.658c-15.944-.36-27.773-4.722-30.972-8.5l1.741-1.673s.03.886,2.3,1.326.035-4.545,1.325-6.343a4.394,4.394,0,0,1,6.88-.6c2.681,2.526,3.173,12.635,18.13,11.6Z" transform="translate(-817.611 -2218.447)"/><path class="g" d="M932.438,2267.561a17.519,17.519,0,0,1-1.4,1.867c-8.762,10.162-26.732,7.254-33.18,7.853-.788.072-2.019.147-3.586.223q-.471.023-.988.045c-1.568.073-3.408.145-5.418.212-9.944.348-24.187.686-31.87.852-3.313.075-5.4.117-5.4.117-.106,0-.208,0-.314-.007s-.182,0-.272-.008a75.952,75.952,0,0,1-21.534-3.366,148.253,148.253,0,0,0,19.754.542c8.331-.569,28.492-18.838,43.639-15.714s47.519-7.763,38.242-27.83c-.133-.284-.258-.564-.371-.841C936.99,2242.968,937.974,2259.083,932.438,2267.561Z" transform="translate(-817.908 -2217.505)"/><path class="g" d="M889.7,2278.809c-14.233.5-37.273.969-37.273.969-.107,0-.208,0-.314-.008a6.861,6.861,0,0,1,.662-11.306,17.079,17.079,0,0,1,10.348-2.506c9.656.821,11.359,8.833,19.814,10.537C886.617,2277.237,888.609,2278.025,889.7,2278.809Z" transform="translate(-818.547 -2218.552)"/><path class="h" d="M894.035,2278.576c-1.568.073-3.408.144-5.418.212-9.944.348-24.187.686-31.87.852a6.85,6.85,0,0,1-.133-11.825,17.107,17.107,0,0,1,10.348-2.511c9.656.823,11.359,8.838,19.815,10.542C891.1,2276.717,893.1,2277.656,894.035,2278.576Z" transform="translate(-818.664 -2218.532)"/><path class="e" d="M892.38,2280.888c.026.318-.224.606-.713.86-1.163.613-3.677,1.03-7,1.177a72.782,72.782,0,0,1-7.49-.08c-5.779-.337-16.065-.083-22.536-3.172a6.851,6.851,0,0,1-3.2-9.175,6.742,6.742,0,0,1,2.643-2.878,17.117,17.117,0,0,1,10.348-2.51c9.655.822,11.359,8.838,19.814,10.541.262.054.511.107.757.155C892.671,2277.477,892.259,2279.359,892.38,2280.888Z" transform="translate(-818.586 -2218.526)"/><path class="f" d="M891.667,2281.783a1.572,1.572,0,0,1-.235.113c-.083.034-.171.072-.265.106-.137.057-.288.106-.451.156-.11.03-.223.064-.34.094-.254.068-.53.132-.83.188l-.287.058c-.682.125-1.462.227-2.325.306-.322.031-.659.057-1.007.083-.216.016-.435.03-.659.042-.2.011-.4.023-.6.03a72.921,72.921,0,0,1-7.49-.08c-5.779-.336-16.065-.083-22.536-3.172a5.948,5.948,0,0,1-1.254-10.916,17.11,17.11,0,0,1,10.348-2.51c9.656.822,11.359,8.838,19.815,10.541.261.053.511.106.757.155.428.1.833.189,1.211.281C891.532,2278.759,891.588,2280.394,891.667,2281.783Z" transform="translate(-818.586 -2218.562)"/><path class="i" d="M934.963,2254.491A55.231,55.231,0,0,1,933.1,2269.8c-8.762,10.162-26.733,7.254-33.18,7.852-.788.072-2.019.148-3.586.223A5.481,5.481,0,0,1,897,2275.6c1.044-1.987,12.305-2.46,11.646-3.975s-5.68-2.366-5.68-12.4c0-.208,0-.416.008-.62a15.405,15.405,0,0,1,13.953-14.706C924.146,2243.188,934.963,2243.892,934.963,2254.491Z" transform="translate(-819.974 -2217.876)"/><path class="j" d="M938.126,2254.493c0,.424-.008.84-.016,1.256s-.023.815-.046,1.216c-.593,12.072-5.443,19.678-9.523,22.395a8.008,8.008,0,0,1-1.178.647c-.1.039-.192.078-.292.116-.146.053-.293.1-.439.146-.17.047-.332.093-.5.123a.174.174,0,0,1-.054.008,38.7,38.7,0,0,1-4.2.617c-.031,0-.062.008-.093.008-4.719.438-10.231.354-15.943.354a13.239,13.239,0,0,1-3.626-.424c-3.6-1.04-3.472-3.179-2.055-5.35s12.31-2.464,11.648-3.981-5.682-2.363-5.682-12.4c0-.208.008-.416.016-.617a15.379,15.379,0,0,1,13.942-14.7c3.656-.362,8.222-.362,11.84,1.1h.008a11.237,11.237,0,0,1,2.617,1.463q.324.253.624.53c.169.154.331.309.485.478s.307.338.446.516.262.338.377.516a.6.6,0,0,1,.062.092c.092.139.178.277.262.416a7.757,7.757,0,0,1,.439.877,5.19,5.19,0,0,1,.223.563.1.1,0,0,1,.023.053,7.293,7.293,0,0,1,.223.717c.069.246.123.493.178.747,0,.015.007.031.007.046.031.146.054.3.078.454s.047.316.061.477A14.107,14.107,0,0,1,938.126,2254.493Z" transform="translate(-820.062 -2217.876)"/><path class="g" d="M938.162,2254.5c0,.424-.008.84-.016,1.256s-.023.815-.047,1.216c-.592,12.072-5.443,19.678-9.523,22.395a7.954,7.954,0,0,1-1.178.647c-.1.039-.192.078-.292.117-.146.053-.293.1-.439.145-.17.047-.332.093-.5.123a.174.174,0,0,1-.054.008c-.323.093.947.047.408.123-1.385.216-2.941.378-4.6.493-.031,0-.062.008-.093.008-4.957.354-10.816.354-15.943.354a13.225,13.225,0,0,1-3.626-.424c-2.564-1.209-1.909-3.579-1.155-5.027,1.047-1.979,12.3-2.456,11.648-3.973-.67-1.516-5.681-2.363-5.681-12.395,0-.208.008-.424.016-.624a15.4,15.4,0,0,1,13.942-14.712,28.159,28.159,0,0,1,10.94.778h.008a11.248,11.248,0,0,1,2.617,1.463c.216.169.424.346.624.53.169.155.331.308.485.479s.307.338.446.516.262.338.377.516a.593.593,0,0,1,.062.092c.092.139.177.277.262.416a7.751,7.751,0,0,1,.439.877,5.2,5.2,0,0,1,.223.562.1.1,0,0,1,.023.053,7.289,7.289,0,0,1,.223.716c.069.246.123.493.177.747,0,.016.007.031.007.046.031.146.054.3.078.454s.046.316.061.477A14.078,14.078,0,0,1,938.162,2254.5Z" transform="translate(-820.099 -2217.886)"/><path class="g" d="M820.2,2272.417a9.009,9.009,0,0,1-1.5-1.367,4.626,4.626,0,0,1-.53-.757c-2.124-3.877,2.143-10.9,2.359-11.25-.137.349-2.76,7-.087,10.333A2.213,2.213,0,0,1,820.2,2272.417Z" transform="translate(-817.576 -2218.344)"/><path class="h" d="M821.237,2256.934s-1.088-5.065-.662-7.621a6.1,6.1,0,0,1,3.786,3.124S821.616,2255.656,821.237,2256.934Z" transform="translate(-817.664 -2218.047)"/><path class="h" d="M838.806,2241.015s-1.136,4.022-.9,6.246a22.007,22.007,0,0,1,4.78-.567S840.793,2242.718,838.806,2241.015Z" transform="translate(-818.194 -2217.794)"/><g transform="translate(2.876 41.721)"><g transform="translate(0 1.935)"><path class="k" d="M820.543,2264.855a2.45,2.45,0,0,1,.188-.841,3.241,3.241,0,0,1,.178-.382,2.906,2.906,0,0,1,.259-.4,3.271,3.271,0,0,1,.341-.386,3.449,3.449,0,0,1,.427-.334,2.5,2.5,0,0,1,.488-.248,1.965,1.965,0,0,1,.512-.142,1.9,1.9,0,0,1,.491-.03c.078.005.152,0,.224.012l.206.047a1.818,1.818,0,0,1,.345.1c.1.043.18.088.247.122.134.073.2.12.2.12s-.09.013-.236.027c-.074.006-.161.015-.258.017s-.206.036-.321.047a1.849,1.849,0,0,0-.361.075,2.187,2.187,0,0,0-.378.114c-.063.026-.128.047-.193.07l-.188.093a2.874,2.874,0,0,0-.371.211c-.125.071-.235.169-.354.25-.107.1-.228.18-.327.282s-.207.19-.3.287-.181.188-.268.273Z" transform="translate(-820.543 -2262.092)"/></g><g transform="translate(8.273)"><path class="k" d="M829.076,2261.315a1.606,1.606,0,0,1,.182-.239,2.219,2.219,0,0,1,.251-.239,2.549,2.549,0,0,1,.369-.262,2.95,2.95,0,0,1,.487-.239,2.831,2.831,0,0,1,.587-.168,4.065,4.065,0,0,1,.652-.073,5.179,5.179,0,0,1,.673.053,4.049,4.049,0,0,1,.649.163,3.856,3.856,0,0,1,.592.247c.183.095.359.192.516.293s.293.218.42.32a2.081,2.081,0,0,1,.326.3c.093.093.169.18.231.251.124.141.189.228.189.228s-.1-.036-.278-.107-.4-.193-.694-.3c-.144-.055-.3-.116-.455-.189s-.337-.109-.509-.179-.364-.1-.545-.158a5.487,5.487,0,0,0-.562-.12c-.189-.037-.38-.044-.566-.068-.187.008-.374-.025-.553,0a4.876,4.876,0,0,0-.52.051c-.165.028-.323.058-.468.094A5.366,5.366,0,0,0,829.076,2261.315Z" transform="translate(-829.076 -2260.096)"/></g><g transform="translate(4.893 3.959)"><path class="k" d="M825.819,2264.775a.66.66,0,0,0-.114.873c.382.557,1.226,1.4,1.821,1.225s.8-1.963.589-2.38S826.754,2263.986,825.819,2264.775Z" transform="translate(-825.589 -2264.179)"/></g><g transform="translate(6.518 6.139)"><rect class="k" width="0.378" height="2.47" transform="translate(0 0.149) rotate(-23.227)"/></g><g transform="translate(4.982 5.718)"><path class="k" d="M825.681,2267.956a3.971,3.971,0,0,0,.779.547,3.4,3.4,0,0,0,.933.351,2,2,0,0,0,.589.031.8.8,0,0,0,.1-.014l.067-.019c.046-.015.086-.022.137-.044a1.586,1.586,0,0,0,.294-.173,2.518,2.518,0,0,0,.428-.421,3.754,3.754,0,0,0,.326-.457,6.218,6.218,0,0,0,.45-.867,6.379,6.379,0,0,0,.309-.9l-.138.22c-.083.143-.215.338-.364.574s-.331.506-.534.781c-.1.14-.212.276-.328.408a2.154,2.154,0,0,1-.375.354,1.5,1.5,0,0,1-.182.123,1.026,1.026,0,0,1-.127.044l-.067.021c.023-.006-.028,0-.039,0a1.971,1.971,0,0,1-.492,0,4.663,4.663,0,0,1-.9-.22c-.261-.092-.48-.174-.628-.244Z" transform="translate(-825.681 -2265.994)"/></g></g></g><path class="l" d="M902.593,2220.928l-1.7,49.791s-9.583,5.4-11.125,4.733a45.931,45.931,0,0,0-5.978-1.514s22.888-48.625-7.452-49.965q1.034-.494,2.079-.962,1.863-.834,3.764-1.583c1.7-.666,3.427-1.272,5.169-1.805,1.874-.576,3.764-1.068,5.672-1.461a.065.065,0,0,1,.03,0c4.794-.632,8.436-1.056,9.11-1.071Z" transform="translate(-189.198 -1961.268)"/><path class="m" d="M897.225,2213.647a186.832,186.832,0,0,1,.844,19.034c0,20.814-2.709,35.316-7.88,42.659a16.94,16.94,0,0,1,2.052,1.057,8.138,8.138,0,0,1,.773.694,4.3,4.3,0,0,1,.558,2.313c.873.414,1.588,4.226,1.588,4.226a34.291,34.291,0,0,1,3.8-.409c4.459-.288,9.33-.149,13.248-.288,4.607-.164,8.478-.3,12.7-.834,6.18-12.167,10.565-30.23,10.565-49.418a143.639,143.639,0,0,0-1.221-19.25" transform="translate(-189.62 -1961.157)"/><g transform="translate(625.685 227.393)"><g transform="translate(0.957 47.058)"><path class="n" d="M819,2236.3l.5,1.151-1.4,4.363,2.878-1.254.632,1.45-5.256,2.29-.5-1.152,1.4-4.363-2.676,1.166-.636-1.46Z" transform="translate(-813.94 -2236.305)"/></g><g transform="translate(8.47 32.748)"><path class="n" d="M827.173,2221.546l.13,1.25-2.651,3.735,3.122-.325.164,1.573-5.7.594-.13-1.249,2.651-3.738-2.9.3-.165-1.584Z" transform="translate(-821.689 -2221.546)"/></g><g class="o" transform="translate(0 19.503)"><path class="n" d="M817.139,2207.884l.1.954-2.023,2.853,2.383-.248.125,1.2-4.352.452-.1-.953,2.023-2.853-2.215.231-.126-1.209Z" transform="translate(-812.953 -2207.884)"/></g><g class="p" transform="translate(11.48 5.919)"><path class="n" d="M828.747,2194.631l-.171.693-2.137,1.487,1.732.427-.215.872-3.163-.78.172-.692,2.136-1.489-1.61-.4.217-.879Z" transform="translate(-824.793 -2193.874)"/></g><g class="q" transform="translate(0.372)"><path class="n" d="M816.306,2187.769l.229.676-1,2.4,1.689-.572.289.851-3.086,1.045-.229-.676,1-2.4-1.572.531-.29-.857Z" transform="translate(-813.337 -2187.769)"/></g></g></g></svg>