<svg xmlns="http://www.w3.org/2000/svg" width="298.888" height="220" viewBox="0 0 298.888 220"><defs><style>.a{fill:#f8f8f8;}.b{fill:#e2e2e2;}.c{fill:#ececec;}.d{fill:#d0dffe;}.e{fill:#ccc;}.f{fill:none;}.g{fill:#8db2fd;}.h{fill:#ca741c;}.i{fill:#fd9c3c;}.j{opacity:0.1;}.j,.n{mix-blend-mode:multiply;isolation:isolate;}.k{fill:#febd59;}.l,.m{fill:#fff;}.m{opacity:0.21;}.n{fill:#757575;opacity:0.11;}</style></defs><g transform="translate(-525 -140.872)"><ellipse class="a" cx="134.5" cy="16.709" rx="134.5" ry="16.709" transform="translate(525 275.59)"/><g transform="translate(553 140.872)"><path class="b" d="M418.171,701.88h12.115l25.22-146.332H442.684Z" transform="translate(-418.171 -555.548)"/><path class="c" d="M470.945,555.548h9.711l25.416,158.446H495.7Z" transform="translate(-443.32 -555.548)"/><path class="b" d="M684.938,701.482H697.02l25.152-145.935H709.384Z" transform="translate(-545.299 -555.548)"/><path class="c" d="M737.568,555.548h9.685L772.6,713.563H762.257Z" transform="translate(-570.38 -555.548)"/><g transform="translate(12.37 17.725)"><path class="d" d="M451.665,627.688l-5.7-38.278H629.7l5.7,38.278Z" transform="translate(-445.961 -589.409)"/></g><g transform="translate(20.62 69.595)"><path class="e" d="M463.861,726.781l-5.7-38.278H637.622l5.7,38.278Z" transform="translate(-457.846 -688.502)"/><path class="d" d="M467.425,726.781l-5.7-38.278H645.456l5.7,38.278Z" transform="translate(-461.721 -688.502)"/></g><g transform="translate(16.641 17.725)"><path class="f" d="M779.279,638.233h12.788l-3.978-26.7Z" transform="translate(-606.898 -599.954)"/><path class="f" d="M510.023,589.409l-12.632,38.278h17.587l12.632-38.278Z" transform="translate(-472.564 -589.409)"/><path class="f" d="M449.961,589.409l5.648,37.9,12.508-37.9Z" transform="translate(-449.961 -589.409)"/><path class="f" d="M650.967,589.409l-12.632,38.278h17.586l12.632-38.278Z" transform="translate(-539.731 -589.409)"/><path class="f" d="M721.439,589.409l-12.632,38.278h17.587l12.632-38.278Z" transform="translate(-573.315 -589.409)"/><path class="f" d="M580.495,589.409l-12.632,38.278h17.587l12.632-38.278Z" transform="translate(-506.147 -589.409)"/><path class="g" d="M473.26,589.409l-12.508,37.9.056.374h19.123l12.632-38.278Z" transform="translate(-455.104 -589.409)"/><path class="g" d="M543.62,589.409l-12.632,38.278h19.3l12.632-38.278Z" transform="translate(-488.575 -589.409)"/><path class="g" d="M614.092,589.409,601.46,627.688h19.3l12.632-38.278Z" transform="translate(-522.158 -589.409)"/><path class="g" d="M684.564,589.409l-12.632,38.278h19.3l12.632-38.278Z" transform="translate(-555.742 -589.409)"/><path class="g" d="M768.79,589.409H755.036L742.4,627.688h19.3l8.81-26.7Z" transform="translate(-589.326 -589.409)"/></g><g transform="translate(24.89 69.595)"><path class="f" d="M737.025,726.781,749.657,688.5H732.071l-12.632,38.278Z" transform="translate(-586.631 -688.502)"/><path class="f" d="M666.553,726.781,679.185,688.5H661.6l-12.632,38.278Z" transform="translate(-553.047 -688.502)"/><path class="f" d="M481.194,688.5H465.721l4.813,32.3Z" transform="translate(-465.721 -688.502)"/><path class="f" d="M525.609,726.781,538.241,688.5H520.654l-12.632,38.278Z" transform="translate(-485.88 -688.502)"/><path class="f" d="M596.081,726.781,608.713,688.5H591.127l-12.632,38.278Z" transform="translate(-519.464 -688.502)"/><path class="f" d="M805.383,732.223l-4.813-32.3-10.659,32.3Z" transform="translate(-620.214 -693.945)"/><path class="g" d="M560.922,726.781,573.554,688.5h-19.3L541.62,726.781Z" transform="translate(-501.891 -688.502)"/><path class="g" d="M560.922,726.781,573.554,688.5h-19.3L541.62,726.781Z" transform="translate(-537.119 -688.502)"/><path class="g" d="M631.394,726.781,644.026,688.5h-19.3l-12.632,38.278Z" transform="translate(-535.474 -688.502)"/><path class="g" d="M701.866,726.781,714.5,688.5H695.2l-12.632,38.278Z" transform="translate(-569.058 -688.502)"/><path class="g" d="M772.338,726.781,783,694.48l-.891-5.978H765.668l-12.632,38.278Z" transform="translate(-602.642 -688.502)"/></g><g transform="translate(184.704 108.6)"><path class="h" d="M813.8,852.384,771.869,866.9a1.478,1.478,0,0,0,0,2.664l41.93,14.517a.986.986,0,0,0,.647,0l41.93-14.517a1.478,1.478,0,0,0,0-2.664l-41.93-14.517A.98.98,0,0,0,813.8,852.384Z" transform="translate(-771.031 -803.069)"/><path class="i" d="M856.557,866.9l-41.93-14.517a.98.98,0,0,0-.647,0L772.049,866.9a.608.608,0,1,0,0,1.211l41.93,14.517a.981.981,0,0,0,.647,0l41.93-14.517a.608.608,0,1,0,0-1.211Z" transform="translate(-771.211 -803.069)"/><path class="j" d="M859.849,885.2c18.046,0,34.76-3.4,34.245-6.957s-9.844-5.856-20.435-4.8S859.849,885.2,859.849,885.2Z" transform="translate(-816.757 -813.807)"/><path class="k" d="M858.182,815.754c-.763-3.076-16.572-61.553-16.572-61.553H821.632s-15.81,58.476-16.572,61.553c-.748,3.016,8.847,8.19,26.561,8.19h0C849.335,823.943,858.93,818.77,858.182,815.754Z" transform="translate(-788.529 -752.55)"/><path class="l" d="M858.8,793.918c-1.273-4.716-2.5-9.277-3.573-13.233a62.642,62.642,0,0,1-13.47,1.369l-.024.051v-.051a62.68,62.68,0,0,1-13.43-1.36c-1.069,3.957-2.3,8.518-3.573,13.233a81.32,81.32,0,0,0,17,1.73v-.048l.024.048A81.261,81.261,0,0,0,858.8,793.918Z" transform="translate(-798.679 -766.185)"/><path class="l" d="M854.839,834.7a55.475,55.475,0,0,1-20.52,3.5l-.024.051V838.2a55.479,55.479,0,0,1-20.521-3.5c-1.307,4.854-2.534,9.41-3.538,13.148,9.751,4.222,24.058,3.951,24.058,3.951v-.048l.024.048s14.308.271,24.058-3.951C857.373,844.109,856.147,839.553,854.839,834.7Z" transform="translate(-791.215 -793.993)"/><path class="m" d="M814.322,820.2a40.5,40.5,0,0,0,10.65,2.932l7.986-68.929h-4.036Z" transform="translate(-793.318 -752.55)"/><path class="n" d="M874.709,754.336h-4.316l-1.083.463s7.663,43.258,8.971,49.8S880.9,821.5,869.5,823.947c14.65-.822,22.462-5.326,21.784-8.059C890.518,812.812,874.709,754.336,874.709,754.336Z" transform="translate(-821.628 -752.619)"/><ellipse class="m" cx="9.968" cy="1.651" rx="9.968" ry="1.651" transform="translate(33.103)"/><path class="i" d="M849.652,754.124c-5.555,0-9.1-.725-9.569-1.255.471-.529,4.014-1.255,9.569-1.255s9.1.725,9.57,1.255C858.75,753.4,855.207,754.124,849.652,754.124Z" transform="translate(-806.581 -751.218)"/><path class="n" d="M849.652,751.614c-5.555,0-9.1.725-9.569,1.255.324.364,2.1.82,4.972,1.07.466-1.018,1.856-2.186,5.754-2.313C850.432,751.619,850.049,751.614,849.652,751.614Z" transform="translate(-806.581 -751.218)"/></g><g transform="translate(71.063 117.878)"><path class="h" d="M604.18,845.2l-3.465-54.357a1.813,1.813,0,0,0-3.151-.871l-30.887,44.864a1.208,1.208,0,0,0-.212.766l3.465,54.357a1.814,1.814,0,0,0,3.152.871l30.887-44.863A1.206,1.206,0,0,0,604.18,845.2Z" transform="translate(-566.463 -789.344)"/><path class="i" d="M574.293,891.2l30.887-44.863a1.206,1.206,0,0,0,.211-.766l-3.465-54.357a.747.747,0,1,0-1.433-.4l-30.886,44.864a1.2,1.2,0,0,0-.212.766l3.465,54.357a.747.747,0,1,0,1.432.4Z" transform="translate(-567.674 -789.706)"/><path class="j" d="M582.162,872.911c-5.9,21.352-7.344,42.239-2.967,42.792s10.147-9.732,12.36-22.608S582.162,872.911,582.162,872.911Z" transform="translate(-570.673 -823.887)"/><path class="k" d="M584.763,886.6c3.89.1,78.247.52,78.247.52l3.267-11.819,3.266-11.818s-64.017-37.827-67.409-39.735c-3.324-1.871-12.582,7.789-18.375,28.748h0C577.966,873.453,580.95,886.5,584.763,886.6Z" transform="translate(-572.27 -803.47)"/><path class="l" d="M664.608,903.2l16.825.1a76.929,76.929,0,0,1,2.785-16.384l-.052-.046.06.016a76.927,76.927,0,0,1,6-15.446l-14.489-8.554a99.826,99.826,0,0,0-7.607,19.552l.057.016-.065.013A99.753,99.753,0,0,0,664.608,903.2Z" transform="translate(-607.033 -819.742)"/><path class="l" d="M624.44,891.213c-.684-6.385-.35-14.841,2.574-25.422l-.052-.045.06.017c2.924-10.581,6.98-18.008,10.846-23.136-5.315-3.135-10.306-6.076-14.4-8.485-8.184,10.155-12.542,27.173-12.542,27.173l.057.016-.065.013s-5,16.841-3.192,29.757C612.477,891.134,618.269,891.173,624.44,891.213Z" transform="translate(-583.358 -807.861)"/><path class="m" d="M601.014,830.449a49.715,49.715,0,0,0-6.952,11.642l78.944,31.989,1.32-4.776Z" transform="translate(-577.871 -806.335)"/><path class="n" d="M662.877,911.511l1.411-5.107-.194-1.433s-53.687-5.079-61.851-5.669-20.862-2.433-20.024-16.721c-3.818,17.6-1.044,28.318,2.41,28.41C588.521,911.1,662.877,911.511,662.877,911.511Z" transform="translate(-572.216 -827.885)"/><ellipse class="m" cx="12.236" cy="2.027" rx="12.236" ry="2.027" transform="translate(88.8 83.059) rotate(-74.551)"/><path class="i" d="M722.89,903.356c1.816-6.572,3.833-10.526,4.614-10.911.472.731.172,5.16-1.644,11.732s-3.833,10.527-4.614,10.912C720.774,914.358,721.074,909.929,722.89,903.356Z" transform="translate(-630.362 -831.962)"/><path class="n" d="M728.372,904.177c1.816-6.572,2.116-11,1.644-11.732-.536.264-1.655,2.212-2.892,5.534,1.052.885,1.979,2.911.855,7.563C728.111,905.1,728.242,904.647,728.372,904.177Z" transform="translate(-632.875 -831.962)"/></g></g></g></svg>