<svg xmlns="http://www.w3.org/2000/svg" width="369" height="183.119" viewBox="0 0 369 183.119"><defs><style>.a{fill:#f48423;}.b{fill:#2763e8;}.c,.d{fill:#b7c1cb;}.d{stroke:#b7c1cb;}.d,.e,.f,.j{stroke-miterlimit:10;}.e{fill:#93a1af;stroke:#93a1af;}.f{fill:#c0ccd8;stroke:#c0ccd8;}.g{fill:#fff;}.h{fill:#1b51c9;}.i{fill:#8195ac;}.j,.o{fill:#566c76;}.j{stroke:#566c76;}.k{fill:#9696b2;}.l{fill:#d9e3ed;}.m{fill:#849db1;}.n{fill:#648198;}.p{fill:#ef8522;}.q{fill:#d1731b;}.r{fill:#3c4759;}</style></defs><g transform="translate(-581.005 -940.917)"><path class="a" d="M13.515,0h0A13.515,13.515,0,0,1,27.031,13.515v33.86a3.841,3.841,0,0,1-3.841,3.841H3.841A3.841,3.841,0,0,1,0,47.375V13.515A13.515,13.515,0,0,1,13.515,0Z" transform="translate(807.595 1059.289) rotate(180)"/><path class="b" d="M0,0H27.031a0,0,0,0,1,0,0V36.426A13.515,13.515,0,0,1,13.515,49.941h0A13.515,13.515,0,0,1,0,36.426V0A0,0,0,0,1,0,0Z" transform="translate(725.9 1009.347)"/><path class="c" d="M1006.775,1239.971v66.644a10.534,10.534,0,0,1-10.534,10.533H839.7a10.533,10.533,0,0,0,10.533-10.533v-66.644a10.535,10.535,0,0,0-10.533-10.533H996.242A10.533,10.533,0,0,1,1006.775,1239.971Z" transform="translate(-115.743 -198.221)"/><path class="d" d="M15.4,0h0a15.4,15.4,0,0,1,15.4,15.4V68.472a0,0,0,0,1,0,0H0a0,0,0,0,1,0,0V15.4A15.4,15.4,0,0,1,15.4,0Z" transform="translate(672.969 962.747)"/><path class="e" d="M788.672,1099.393v53.068h-9.157v-53.068a15.4,15.4,0,0,0-15.4-15.4h9.157A15.4,15.4,0,0,1,788.672,1099.393Z" transform="translate(-75.74 -121.244)"/><path class="e" d="M15.4,0h0a15.4,15.4,0,0,1,15.4,15.4V68.472a0,0,0,0,1,0,0H0a0,0,0,0,1,0,0V15.4A15.4,15.4,0,0,1,15.4,0Z" transform="translate(836.028 962.747)"/><path class="f" d="M1135.042,1099.393v53.068h-9.157v-53.068a15.4,15.4,0,0,0-15.4-15.4h9.157A15.4,15.4,0,0,1,1135.042,1099.393Z" transform="translate(-259.051 -121.244)"/><path class="c" d="M0,0H131.616a8.03,8.03,0,0,1,8.03,8.03v0a8.03,8.03,0,0,1-8.03,8.03H0a0,0,0,0,1,0,0V0A0,0,0,0,1,0,0Z" transform="translate(712.932 976.518)"/><rect class="g" width="16.061" height="16.061" rx="8.03" transform="translate(680.342 976.518)"/><rect class="h" width="35.256" height="11.249" rx="5.415" transform="translate(721.787 998.099)"/><path class="i" d="M851.924,1059.271l4.474,6.285a2.732,2.732,0,0,1,.507,1.585v28.222h8.911v-28.222a2.733,2.733,0,0,1,.507-1.585l4.474-6.285a2.733,2.733,0,0,0,.4-2.358l-4.8-16.271a2.733,2.733,0,0,0-2.621-1.96h-4.824a2.733,2.733,0,0,0-2.621,1.96l-4.8,16.271A2.732,2.732,0,0,0,851.924,1059.271Z" transform="translate(-121.945 -97.265)"/><rect class="j" width="15.342" height="39.07" transform="translate(801.751 1008.073) rotate(180)"/><path class="j" d="M910.116,1054.668a2.044,2.044,0,0,0,3.255,2.242,12.7,12.7,0,0,1,8.234-3.384c8.192,0,11.258,4.141,12.381,7.7a13.329,13.329,0,0,1,.445,1.9,3.755,3.755,0,0,0,3.718,3.141h18.7a3.114,3.114,0,0,0,3.107-2.913L961.331,1042a3.114,3.114,0,0,0-3.107-3.314H931.353C918.539,1038.682,912.724,1047.518,910.116,1054.668Z" transform="translate(-152.941 -97.265)"/><rect class="j" width="13.488" height="22.536" rx="4.352" transform="translate(831.231 966.477) rotate(180)"/><path class="k" d="M1016.795,1067.3h10.418v-10.974h-9.675Z" transform="translate(-209.469 -106.603)"/><path class="j" d="M1016.795,1067.3h10.418v-10.974h-9.675Z" transform="translate(-209.469 -106.603)"/><rect class="l" width="92.232" height="87.71" rx="10" transform="translate(642.5 1030.916)"/><path class="b" d="M988.9,1363.976l-16.4-2.892-9.75,7.78a11.788,11.788,0,0,1-9.4,2.4l-28.665-5.054a3.139,3.139,0,0,0-3.66,3.485l.44,3.484a9.754,9.754,0,0,0,7.983,8.384l20.771,3.662a8.948,8.948,0,0,0,6.708-1.554,18.271,18.271,0,0,1,14.741-2.567,19,19,0,0,1,8.984,4.926,2.739,2.739,0,0,0,4.624-1.472Z" transform="translate(-158.769 -267.892)"/><path class="b" d="M995.336,1325.627l-16.4-2.892-6.5-10.646a11.792,11.792,0,0,0-8.015-5.466l-28.665-5.055a3.14,3.14,0,0,1-2.247-4.527l1.6-3.123a9.755,9.755,0,0,1,10.369-5.147l20.771,3.662a8.949,8.949,0,0,1,5.772,3.754A18.272,18.272,0,0,0,985,1303.642a19,19,0,0,0,10.127-1.556,2.739,2.739,0,0,1,3.842,2.964Z" transform="translate(-165.204 -229.543)"/><rect class="m" width="30.523" height="10.79" rx="4.125" transform="matrix(0.174, -0.985, 0.985, 0.174, 827.509, 1110.96)"/><circle class="n" cx="9.557" cy="9.557" r="9.557" transform="translate(833.197 1088.752)"/><circle class="c" cx="4.216" cy="4.216" r="4.216" transform="matrix(0.819, -0.574, 0.574, 0.819, 836.883, 1097.274)"/><path class="m" d="M1110.767,1382.662a5.737,5.737,0,0,1-4.706-6.267l-5.184-.914a9.558,9.558,0,0,1-9.934,7.884l1.539,4.211a4.947,4.947,0,0,0,3.788,3.175l9.521,1.679a19.969,19.969,0,0,0,17.484-5.32,13.122,13.122,0,0,0,3.973-6.979l-9.915-1.749A5.736,5.736,0,0,1,1110.767,1382.662Z" transform="translate(-248.711 -275.511)"/><path class="m" d="M1116.333,1354.127a5.737,5.737,0,0,0-6.566,4.28l-5.184-.914a9.559,9.559,0,0,0-6.638-10.806l2.886-3.431a4.947,4.947,0,0,1,4.646-1.688l9.522,1.679a19.969,19.969,0,0,1,14.61,10.979,13.124,13.124,0,0,1,1.346,7.917l-9.915-1.748A5.736,5.736,0,0,0,1116.333,1354.127Z" transform="translate(-252.416 -257.523)"/><path class="o" d="M440.244,1186.539l-1.228,3.172a18.633,18.633,0,0,0,.025,13.541c4.564,9.351-.984,16.084-9.817,17.806a.754.754,0,0,1-.839-1.014l2.848-7.361a1.1,1.1,0,0,0-.628-1.421l-7.858-3.04a1.128,1.128,0,0,0-1.458.645l-2.872,7.425a.937.937,0,0,1-1.631.214l-.8-1.1a12.794,12.794,0,0,1,5.325-19.306c.267-.114.536-.213.816-.309l-.816.309a8.718,8.718,0,0,0,.816-.309c2.91-1.19,4.38-3.161,5.593-6.3l.135-.35-.135.35.135-.35,2.061-5.326-1.021,2.646,4.5-11.631a18.64,18.64,0,0,0-.025-13.542c-4.6-9.433,1.081-16.2,10.047-17.85a.624.624,0,0,1,.694.839l-2.875,7.431a1.26,1.26,0,0,0,.721,1.63l7.487,2.9a1.363,1.363,0,0,0,1.763-.78l2.8-7.227a.924.924,0,0,1,1.608-.211l.816,1.12a12.794,12.794,0,0,1-5.326,19.305c-.267.114-.535.214-.815.31l.815-.31c-.285.094-.553.194-.815.31-2.91,1.19-4.381,3.161-5.594,6.3l-.135.35.135-.35-.135.35-5.333,13.784" transform="matrix(1, 0.017, -0.017, 1, 203.634, -109.861)"/><g transform="translate(461.702 -325.679)"><path class="p" d="M473.1,1526.18h0a9.5,9.5,0,0,1-11.494-6.966l-3.545-14.45a.8.8,0,0,1,.588-.97l16.834-4.129a.872.872,0,0,1,1.055.639l3.528,14.382A9.5,9.5,0,0,1,473.1,1526.18Z" transform="translate(-16.903 -82.096)"/><rect class="q" width="11.88" height="6.063" transform="translate(442.947 1415.161) rotate(-13.782)"/><path class="i" d="M443.828,1363.473l2.006,8.179a2.626,2.626,0,0,1,.008,1.221l-1.551,6.666a2.632,2.632,0,0,0,.007,1.221l6.078,24.777-6.926,1.7-6.078-24.777a2.625,2.625,0,0,0-.559-1.086l-4.462-5.19a2.629,2.629,0,0,1-.559-1.087l-2.017-8.223a1.673,1.673,0,0,1,1.227-2.024l10.746-2.636A1.719,1.719,0,0,1,443.828,1363.473Z" transform="translate(0)"/><rect class="p" width="19.007" height="7.578" rx="2" transform="matrix(0.971, -0.238, 0.238, 0.971, 437.713, 1408.642)"/></g><rect class="r" width="166" height="5" rx="2.5" transform="translate(691.005 1119.035)"/><rect class="r" width="100" height="5" rx="2.5" transform="translate(581.005 1119.035)"/><rect class="r" width="79" height="5" rx="2.5" transform="translate(871.005 1119.035)"/></g></svg>