<svg xmlns="http://www.w3.org/2000/svg" xmlns:xlink="http://www.w3.org/1999/xlink" width="202.398" height="250" viewBox="0 0 202.398 250"><defs><style>.a,.d{fill:none;}.b{clip-path:url(#a);}.c{fill:#f7f7f7;}.d{stroke:#e60078;}</style><clipPath id="a"><rect class="a" width="202.398" height="250"/></clipPath></defs><g transform="translate(-651.495 -438.449)"><g class="b" transform="translate(651.495 438.449)"><g transform="translate(13.261 6.853)"><path class="c" d="M749.894,819.035a58.412,58.412,0,0,0,82.039,9.685L952.29,733.78c33.133-26.138,28.469-77.706-8.817-97.473L796.242,558.255A58.414,58.414,0,0,0,721.8,575.283l-49.765,67.745A58.413,58.413,0,0,0,671.894,712l76.642,105.243Q749.2,818.153,749.894,819.035Z" transform="translate(-660.7 -395.528)"/><path class="d" d="M723.513,547.458a61.082,61.082,0,0,0-3.673,86.306L828.26,751.83c29.85,32.5,83.258,23.6,100.95-16.828l69.86-159.635a61.081,61.081,0,0,0-23.585-76.286l-74.54-46.59a61.083,61.083,0,0,0-71.926,5.252L725.276,545.9Q724.379,546.663,723.513,547.458Z" transform="translate(-641.739 -443.207)"/></g></g></g></svg>