<svg xmlns="http://www.w3.org/2000/svg" viewBox="0 0 14 14" width="14" height="14">
	<style>
		tspan { white-space:pre }
		.shp0 { fill: #4c70aa } 
	</style>
	<path id="Layer" class="shp0" d="M10.01 7.88L10.4 5.34L7.96 5.34L7.96 3.7C7.95 3.51 7.97 3.32 8.04 3.14C8.11 2.96 8.21 2.8 8.35 2.67C8.49 2.54 8.65 2.44 8.83 2.38C9.01 2.32 9.2 2.3 9.39 2.33L10.5 2.33L10.5 0.17C10.34 0.14 10.17 0.12 10.01 0.1C9.85 0.08 9.68 0.06 9.52 0.05C9.36 0.04 9.19 0.02 9.03 0.02C8.87 0.01 8.7 0 8.54 0C8.08 -0.03 7.63 0.03 7.21 0.19C6.78 0.35 6.4 0.6 6.08 0.93C5.77 1.25 5.53 1.65 5.38 2.07C5.23 2.5 5.18 2.96 5.23 3.41L5.23 5.34L3 5.34L3 7.88L5.23 7.88L5.23 14L7.96 14L7.96 7.88L10.01 7.88Z" />
</svg>