<svg xmlns="http://www.w3.org/2000/svg" viewBox="0 0 14 14" width="14" height="14">
	<style>
		tspan { white-space:pre }
		.shp0 { fill: #1074b3 } 
	</style>
	<path id="Layer" class="shp0" d="M3.13 14L0.23 14L0.23 4.65L3.13 4.65L3.13 14ZM1.68 3.38C1 3.38 0.38 2.97 0.12 2.34C-0.15 1.71 -0.01 0.99 0.47 0.5C0.95 0.02 1.68 -0.13 2.31 0.12C2.94 0.38 3.36 1 3.36 1.68C3.36 1.9 3.32 2.12 3.23 2.32C3.15 2.53 3.03 2.72 2.87 2.87C2.71 3.03 2.53 3.16 2.33 3.24C2.12 3.33 1.9 3.38 1.68 3.38L1.68 3.38ZM14 14L11.1 14L11.1 9.45C11.1 8.37 11.08 6.97 9.59 6.97C8.08 6.97 7.85 8.15 7.85 9.37L7.85 14L4.95 14L4.95 4.65L7.74 4.65L7.74 5.93L7.78 5.93C7.92 5.69 8.09 5.47 8.28 5.28C8.48 5.09 8.7 4.93 8.94 4.79C9.18 4.66 9.44 4.56 9.71 4.5C9.97 4.44 10.25 4.41 10.52 4.42C13.46 4.42 14 6.35 14 8.87L14 14Z" />
</svg>