<svg xmlns="http://www.w3.org/2000/svg" viewBox="0 0 14 14" width="14" height="14">
	<style>
		tspan { white-space:pre }
		.shp0 { fill: #1eb6ee } 
	</style>
	<path id="Layer" class="shp0" d="M12.56 4.19C12.57 4.31 12.57 4.43 12.57 4.56C12.58 5.61 12.37 6.66 11.96 7.64C11.56 8.62 10.95 9.51 10.19 10.26C9.44 11 8.53 11.6 7.54 12C6.54 12.4 5.48 12.6 4.41 12.59C4.02 12.6 3.63 12.57 3.25 12.52C2.86 12.46 2.48 12.38 2.11 12.27C1.74 12.17 1.37 12.03 1.02 11.87C0.67 11.71 0.33 11.53 0 11.32C0.06 11.33 0.12 11.34 0.17 11.34C0.23 11.34 0.29 11.35 0.35 11.35C0.4 11.35 0.46 11.36 0.52 11.36C0.58 11.36 0.64 11.36 0.69 11.36C1.01 11.36 1.33 11.33 1.65 11.28C1.96 11.23 2.27 11.15 2.58 11.05C2.88 10.95 3.17 10.82 3.45 10.67C3.74 10.52 4 10.35 4.26 10.15C3.96 10.15 3.66 10.1 3.38 10C3.1 9.91 2.84 9.77 2.6 9.6C2.36 9.42 2.15 9.21 1.97 8.97C1.8 8.74 1.67 8.47 1.58 8.2C1.62 8.2 1.66 8.21 1.71 8.21C1.75 8.22 1.8 8.22 1.84 8.23C1.89 8.23 1.94 8.23 1.98 8.24C2.03 8.24 2.07 8.24 2.12 8.24C2.18 8.24 2.24 8.24 2.31 8.23C2.37 8.23 2.43 8.22 2.5 8.21C2.56 8.21 2.62 8.2 2.69 8.18C2.75 8.17 2.81 8.16 2.87 8.14C2.55 8.08 2.24 7.96 1.96 7.79C1.68 7.63 1.43 7.41 1.22 7.16C1.01 6.91 0.85 6.63 0.74 6.32C0.62 6.02 0.57 5.69 0.57 5.37L0.57 5.34C0.67 5.39 0.77 5.44 0.87 5.48C0.98 5.52 1.09 5.56 1.2 5.59C1.3 5.62 1.42 5.64 1.53 5.66C1.64 5.68 1.75 5.69 1.87 5.69C1.56 5.5 1.3 5.24 1.1 4.95C0.89 4.66 0.74 4.33 0.66 3.98C0.58 3.63 0.56 3.27 0.62 2.92C0.67 2.56 0.79 2.22 0.98 1.92C1.34 2.35 1.74 2.75 2.18 3.1C2.63 3.45 3.11 3.76 3.62 4.01C4.12 4.27 4.66 4.47 5.21 4.61C5.76 4.76 6.32 4.84 6.89 4.87C6.88 4.82 6.87 4.77 6.86 4.71C6.86 4.66 6.85 4.6 6.84 4.55C6.84 4.5 6.83 4.44 6.83 4.39C6.83 4.33 6.83 4.28 6.82 4.22C6.83 3.66 7 3.1 7.32 2.64C7.65 2.17 8.11 1.81 8.64 1.6C9.18 1.39 9.76 1.34 10.32 1.47C10.89 1.59 11.4 1.88 11.79 2.29C11.95 2.26 12.11 2.22 12.27 2.18C12.42 2.14 12.58 2.09 12.73 2.03C12.88 1.97 13.03 1.91 13.18 1.84C13.33 1.77 13.47 1.69 13.61 1.61C13.56 1.77 13.49 1.93 13.41 2.08C13.33 2.23 13.23 2.37 13.13 2.5C13.02 2.63 12.9 2.76 12.77 2.87C12.64 2.98 12.5 3.08 12.35 3.17C12.49 3.15 12.63 3.13 12.77 3.1C12.91 3.08 13.05 3.04 13.19 3.01C13.33 2.97 13.47 2.93 13.6 2.88C13.74 2.84 13.87 2.79 14 2.73C13.9 2.87 13.8 3.01 13.69 3.14C13.58 3.27 13.46 3.4 13.34 3.52C13.22 3.64 13.1 3.76 12.97 3.87C12.84 3.99 12.7 4.09 12.56 4.19L12.56 4.19Z" />
</svg>