<svg xmlns="http://www.w3.org/2000/svg" width="12" height="12" viewBox="0 0 12 12"><defs><style>.a{fill:#999;}</style></defs><path class="a" d="M934.479,609.644a6.018,6.018,0,1,1-1.763-4.238A5.778,5.778,0,0,1,934.479,609.644Zm-3.213-2.788a.343.343,0,0,0-.563.013l-2.2,2.2-1.975-2.2a.4.4,0,1,0-.575.55l1.975,2.2-2.225,2.25a.365.365,0,0,0,0,.55.327.327,0,0,0,.55,0l2.2-2.2,1.975,2.2a.4.4,0,1,0,.575-.55l-1.975-2.2,2.225-2.25A.343.343,0,0,0,931.266,606.856Z" transform="translate(-922.479 -603.644)"/></svg>