<svg xmlns="http://www.w3.org/2000/svg" width="19" height="13" viewBox="0 0 19 13"><defs><style>.a{fill:#333;}</style></defs><g transform="translate(-665.75 -461.323)"><path class="a" d="M674.616,464.828a.406.406,0,0,0-.616.348v3.417a.411.411,0,0,0,.206.355.424.424,0,0,0,.2.052.4.4,0,0,0,.209-.058l2.847-1.708a.407.407,0,0,0,0-.7Z" transform="translate(0 1)"/><path class="a" d="M684.25,472.323h-1v-9.172a1.831,1.831,0,0,0-1.829-1.828H669.079a1.831,1.831,0,0,0-1.829,1.828v9.172h-1a.5.5,0,0,0-.5.5v1a.5.5,0,0,0,.5.5h18a.5.5,0,0,0,.5-.5v-1A.5.5,0,0,0,684.25,472.323Zm-16-9.172a.829.829,0,0,1,.829-.828h12.342a.829.829,0,0,1,.829.828v9.172h-14Z"/></g></svg>
