<svg xmlns="http://www.w3.org/2000/svg" width="37.444" height="36" viewBox="0 0 37.444 36"><defs><style>.a{fill:#3b3b3b;}.b{fill:#fff;}</style></defs><g transform="translate(-1453 -8294)"><path class="a" d="M2236.563,1026.046l-22.47-.652a7.485,7.485,0,0,1-7.265-8.173l1.43-17.694a7.486,7.486,0,0,1,6.5-6.734l17.518-2.682a7.487,7.487,0,0,1,8.316,6.045l3.521,21.027A7.486,7.486,0,0,1,2236.563,1026.046Z" transform="translate(-753.797 7303.951)"/><g transform="translate(1462.736 8302.986)"><path class="b" d="M2450.486,1021.085h0V1014.5c0-3.221-.693-5.7-4.459-5.7a3.911,3.911,0,0,0-3.521,1.935h-.055V1009.1h-3.571v11.986h3.718v-5.936c0-1.562.3-3.073,2.231-3.073,1.907,0,1.935,1.783,1.935,3.174v5.835Z" transform="translate(-2432.517 -1003.131)"/><path class="b" d="M2430.8,1009.2h3.722v11.984H2430.8Z" transform="translate(-2430.488 -1003.233)"/><path class="b" d="M2432.559,1001.232a2.166,2.166,0,1,0,2.156,2.176v-.019A2.157,2.157,0,0,0,2432.559,1001.232Z" transform="translate(-2430.382 -1001.232)"/></g></g></svg>