<svg xmlns="http://www.w3.org/2000/svg" width="12.54" height="18" viewBox="0 0 12.54 18"><defs><style>.a{fill:#fff;}</style></defs><g transform="translate(238.349 45)"><path class="a" d="M-158.068,307.988a2.107,2.107,0,0,1-.721-.127l-1.089-.4-1.089.4a2.107,2.107,0,0,1-.724.128,2.116,2.116,0,0,1-1.826-1.054l-.007-.012,0,4.572a1.052,1.052,0,0,0,.566.935,1.055,1.055,0,0,0,.49.121,1.054,1.054,0,0,0,.6-.189L-159.9,311l1.966,1.365a1.052,1.052,0,0,0,1.091.068,1.052,1.052,0,0,0,.566-.935v-4.509a2.117,2.117,0,0,1-1.794,1Z" transform="translate(-72.194 -339.553)"/><path class="a" d="M-226.187-40.383l-1.183-.991-.269-1.519a1.054,1.054,0,0,0-1.039-.871h-1.544l-1.183-.991a1.054,1.054,0,0,0-1.357,0l-1.181.993h-1.543a1.054,1.054,0,0,0-1.039.873l-.267,1.52-1.181.993a1.054,1.054,0,0,0-.234,1.336l.773,1.336-.267,1.52a1.054,1.054,0,0,0,.679,1.174l1.45.526.773,1.336a1.054,1.054,0,0,0,.913.527,1.057,1.057,0,0,0,.363-.064l1.449-.529,1.45.526a1.054,1.054,0,0,0,1.275-.465l.77-1.337,1.449-.529a1.054,1.054,0,0,0,.677-1.176l-.269-1.519.77-1.337a1.054,1.054,0,0,0-.237-1.336Zm-5.892,4.751a3.046,3.046,0,0,1-3.043-3.043,3.046,3.046,0,0,1,3.043-3.043,3.047,3.047,0,0,1,3.043,3.043,3.047,3.047,0,0,1-3.043,3.043Z"/><circle class="a" cx="1.988" cy="1.988" r="1.988" transform="translate(-234.887 -38.674) rotate(-45)"/></g></svg>