<svg xmlns="http://www.w3.org/2000/svg" width="16" height="14" viewBox="0 0 16 14"><defs><style>.a{fill:#666;}</style></defs><g transform="translate(-542.5 -499.5)"><path class="a" d="M554.25,513.5h-7.5a.5.5,0,0,1-.433-.25l-3.75-6.5a.5.5,0,0,1,0-.5l3.75-6.5a.5.5,0,0,1,.433-.25h7.5a.5.5,0,0,1,.433.25l3.75,6.5a.5.5,0,0,1,0,.5l-3.75,6.5A.5.5,0,0,1,554.25,513.5Zm-7.211-1h6.922l3.462-6-3.462-6h-6.922l-3.462,6Z"/><path class="a" d="M550.5,509a2.5,2.5,0,1,1,2.5-2.5A2.5,2.5,0,0,1,550.5,509Zm0-4a1.5,1.5,0,1,0,1.5,1.5A1.5,1.5,0,0,0,550.5,505Z"/></g></svg>