<svg xmlns="http://www.w3.org/2000/svg" width="441.493" height="250" viewBox="0 0 441.493 250"><defs><style>.a{fill:#fff;}.b{fill:#ececec;}.b,.l{stroke:#d3d3d3;stroke-miterlimit:10;}.c,.g{fill:#afafaf;}.c{opacity:0.3;}.d{opacity:0.05;}.d,.j{mix-blend-mode:multiply;isolation:isolate;}.e{fill:#d8d8d8;}.f{fill:#c4c4c4;}.h{fill:#f3be65;}.i{fill:#444;}.j{fill:#231f20;opacity:0.1;}.k{fill:#ebeded;}.l{fill:none;}.m{fill:#333;}.n{opacity:0.58;}.o{opacity:0.39;}.p{opacity:0.15;}</style></defs><g transform="translate(-641.482 -2083.434)"><g transform="translate(641.482 2083.434)"><path class="a" d="M1064.456,2243.882a110.517,110.517,0,0,1-.623,11.672A90.342,90.342,0,0,1,961.1,2335.533l-11.132-1.587a491.483,491.483,0,0,0-104.765-3.683l-62.01,4.451A135.2,135.2,0,0,1,643.526,2237a53.279,53.279,0,0,1,12.1-50.765l2.013-2.178a25.679,25.679,0,1,0,32.235-34.85l4.306-4.658a51.931,51.931,0,0,1,69.325-6.235l2.012,1.514a50.414,50.414,0,0,0,53.317,4.99c.53-.27,1.058-.54,1.6-.809a199.867,199.867,0,0,1,84.513-21.507,25.056,25.056,0,0,0-.674,5.821,25.678,25.678,0,0,0,51.356,0c0-.281,0-.55-.021-.82a199.921,199.921,0,0,1,51.937,19.889A110.286,110.286,0,0,1,1064.456,2243.882Z" transform="translate(-641.482 -2086.457)"/><circle class="a" cx="24.035" cy="24.035" r="24.035" transform="translate(124.858 46.442) rotate(-75.047)"/><circle class="a" cx="12.969" cy="12.969" r="12.969" transform="translate(377.687 29.423)"/><circle class="a" cx="4.669" cy="4.669" r="4.669" transform="translate(432.155 122.105)"/></g><path class="b" d="M1028.66,2246.216v-27.333h-31.01l.183,27.333H973.649l36-75.882H977.525l-30.615,62.857-7.78,15.969v22.711h58.519v28.066h31.01v-28.066h16.615v-25.656Z" transform="translate(-23.03 -6.723)"/><path class="c" d="M956.756,2277.143a26.975,26.975,0,0,0-1.934-13.121,42.036,42.036,0,0,1-2.469,13.121H939.13v-22.71l7.78-15.97a31.486,31.486,0,0,1,5.488,10.007c.227.615.432,1.238.629,1.861.007.03.015.051.022.081.344,1.128.645,2.271.887,3.414.007.015.007.037.015.052.022.117.044.227.073.344.067.338.142.677.191,1.019.065.337.117.681.175,1.019.007.058.015.125.022.182.007.03.007.059.015.088q.088.594.154,1.188a.219.219,0,0,1,.007.073.093.093,0,0,1,.007.044v-.03s6.563,6.454,6.608,19.34Z" transform="translate(-23.03 -11.995)"/><path class="b" d="M766.674,2170.334l-36,75.881h24.186l-.18-27.328h31.01v27.328H802.3v25.659H785.69v28.064h-31.01v-28.064H696.16v-22.713l38.391-78.827Z" transform="translate(-4.231 -6.724)"/><path class="b" d="M871.792,2155.007c-36.212,0-55.941,25.641-55.941,72.226,0,15.011,2.052,27.868,6.044,38.4,8.389,22.147,25.355,34.014,49.9,34.014,13.817,0,25.268-3.847,34.124-11.245a45.127,45.127,0,0,0,4.374-4.176,49.4,49.4,0,0,0,3.838-4.718q.88-1.219,1.693-2.512c7.421-11.677,11.435-27.7,11.7-47.641.007-.7.015-1.414.015-2.125C927.535,2180.648,907.6,2155.007,871.792,2155.007Zm-20.058,83.53c-.2-3.487-.286-7.245-.286-11.3,0-32.754,5.9-46.189,20.344-46.189,12.791,0,18.85,10.834,19.949,36.754q.2,4.417.19,9.436c0,32.542-5.89,46.176-20.139,46.176C859.147,2273.408,853.052,2262.969,851.734,2238.537Z" transform="translate(-13.492 -5.538)"/><g transform="translate(808.132 2211.229)"><path class="d" d="M919.732,2289.794a49.471,49.471,0,0,1-3.838,4.718c-11.019,1.7-26.4,6.556-27.531-3.172a4.157,4.157,0,0,1,.015-1.7C889.22,2285.42,908.949,2290.3,919.732,2289.794Z" transform="translate(-827.228 -2227.05)"/><path class="d" d="M928,2234.536c-.263,19.943-4.274,35.963-11.7,47.644-5.936.277-18.959-3.05-24.692-.073a1.565,1.565,0,0,1-.281.13,7.489,7.489,0,0,1-.749.263c-.03.007-.066.019-.1.025s-.065.018-.1.029c-.081.019-.161.041-.242.061l-.245.054c-.068.018-.14.033-.212.046a2.167,2.167,0,0,0-.231.047c-.129.026-.259.048-.389.068-.006,0-.014,0-.025,0-.137.026-.278.047-.422.07h-.007c-.809.118-1.623.2-2.439.252a.1.1,0,0,1-.029,0c-.2.014-.4.029-.613.039h-.007c-8.829.509-20.952.8-29.08-3.033-1.354.029-2.133.042-2.133.042-.1,0-.2,0-.3-.006l-.015-.011-.828.018c-.1,0-.2,0-.3-.006a66.13,66.13,0,0,1-20.566-3.154c-.6-.176-1.183-.417-1.777-.615-.212-.079-.424-.162-.63-.241-.051-.021-.1-.04-.148-.057-.516-.205-1.018-.435-1.528-.649a25.193,25.193,0,0,1-2.461-1.287c-.032-.021-.068-.039-.1-.061-.375-.232-.737-.479-1.1-.735-.093-.072-.184-.14-.27-.212a1.048,1.048,0,0,1-.1-.08c-.134-.113-.268-.228-.4-.342-.083-.072-.159-.147-.234-.223a4.473,4.473,0,0,1-.66-.756,1,1,0,0,1-.068-.1c-2.054-2.346.824-8.931,1.95-10.842.036-.086.068-.165.093-.227-2.079-6.669-.948-10.615-.948-10.615,3.124.778,5.646,3.841,5.646,3.841,2.188-2.695,6.924-3.883,10.225-4.038-.047-5.088,1.064-6.109,1.064-6.109,8.62,2.754,2.009,7.254,11.356.016.787,14.54,4.837,40.344,25.664,34.027,18.349-5.563,14.94-41.326,14.349-54.763,12.944-2.833,27.964-.1,35.776,11.559C927.739,2254.479,924.871,2229.863,928,2234.536Z" transform="translate(-822.107 -2221.946)"/></g><g transform="translate(803.951 2206.725)"><path class="e" d="M927.835,2262.353a16.575,16.575,0,0,1-2.608,4.122,16.884,16.884,0,0,1-3.247,2.9c-8.932,6.169-22.909,4.068-28.327,4.573-.75.068-1.921.14-3.413.212q-.448.022-.94.043c-1.492.069-3.243.137-5.156.2-9.462.331-23.017.652-30.328.811-3.153.072-5.142.112-5.142.112-.1,0-.2,0-.3-.007s-.173,0-.259-.007a72.277,72.277,0,0,1-20.491-3.2,27.529,27.529,0,0,1-7.555-3.588,8.546,8.546,0,0,1-1.426-1.3,5.3,5.3,0,0,1-.378-.508c-.047-.072-.087-.14-.126-.212-2.021-3.69,2.039-10.37,2.245-10.706l0-.007v0l0,0c-2.1-6.695-.962-10.658-.962-10.658,3.124.778,5.646,3.841,5.646,3.841a7,7,0,0,1,1.646-1.445,11.328,11.328,0,0,1,1.694-.912,16.6,16.6,0,0,1,1.971-.724,25.163,25.163,0,0,1,3.03-.71c1.125-.191,1.885-.249,1.885-.249-.047-5.087,1.528-7.159,1.528-7.159,2.255.721,4.19,5.946,5,5.9.641-.032,1.657-1.88,9.408-7.455.543-.392,1.12-.8,1.733-1.232,1.5-1.049,3.218-2.216,5.181-3.51.259-.17.522-.343.793-.518q.638-.417,1.286-.83c1.668-1.063,3.383-2.1,5.138-3.106q1.189-.681,2.4-1.333,1.978-1.065,4.017-2.043.984-.47,1.978-.915,1.773-.794,3.582-1.507c1.622-.634,3.261-1.21,4.919-1.718,1.783-.548,3.582-1.016,5.4-1.391a.075.075,0,0,1,.029,0c.126-.029.256-.054.382-.079a48.082,48.082,0,0,1,8.287-.941c.17-.007.336-.011.5-.014a40.392,40.392,0,0,1,5.823.332,38.441,38.441,0,0,1,8.02,1.9,26.233,26.233,0,0,1,13.277,11.09,36.08,36.08,0,0,1,2.714,5.2c.31.725.594,1.455.857,2.2a40.851,40.851,0,0,1,2.245,10.384A29.443,29.443,0,0,1,927.835,2262.353Z" transform="translate(-817.576 -2217.065)"/><path class="f" d="M926.6,2264.789a16.7,16.7,0,0,1-1.336,1.777c-8.338,9.67-25.439,6.9-31.574,7.472-.75.068-1.921.14-3.413.212q-.448.022-.94.043c-1.492.069-3.243.137-5.156.2-9.463.331-23.017.652-30.328.811-3.153.072-5.142.112-5.142.112-.1,0-.2,0-.3-.008s-.173,0-.259-.007a72.287,72.287,0,0,1-20.491-3.2,27.528,27.528,0,0,1-7.555-3.588,8.56,8.56,0,0,1-1.426-1.3,5.289,5.289,0,0,1-.378-.508c-1.085-3.779,2.2-11.19,2.2-11.19-2.1-6.695-.562-9.319-.562-9.319,3.124.779,5.646,3.841,5.646,3.841a7.023,7.023,0,0,1,1.647-1.445,11.515,11.515,0,0,1,1.693-.911,16.827,16.827,0,0,1,1.971-.724,25.043,25.043,0,0,1,3.031-.709c1.124-.191,1.884-.248,1.884-.248-.047-5.088,1.365-7.138,1.365-7.138,2.256.721,4.353,5.924,5.163,5.876.642-.032,1.658-1.881,9.408-7.454.544-.393,1.121-.8,1.734-1.233,1.5-1.048,3.217-2.216,5.181-3.51.26-.169.523-.343.793-.519q.637-.417,1.286-.829c1.668-1.063,3.383-2.1,5.138-3.105q1.189-.682,2.4-1.333c1.957-1.053,3.96-2.048,6-2.959q1.773-.794,3.582-1.506c1.621-.634,3.261-1.21,4.918-1.719a59.883,59.883,0,0,1,5.809-1.473,48.2,48.2,0,0,1,8.792-.955,40.588,40.588,0,0,1,5.822.331,38.474,38.474,0,0,1,8.021,1.9,26.24,26.24,0,0,1,13.277,11.091,35.224,35.224,0,0,1,2.235,4.115C931.074,2245.844,931.078,2257.94,926.6,2264.789Z" transform="translate(-817.616 -2217.156)"/><path class="g" d="M941.929,2268.885c0,12.971-12.492,18.376-29.185,21.5-14.622,2.735-21.413.774-22.232-2.983a4.226,4.226,0,0,1,.011-1.7c.962-4.8,18.5-2.4,29.545-3.722s16.693-5.286,17.414-13.213a26.382,26.382,0,0,0-2.04-13.331l-.112-5.427-.011-.576S941.929,2255.914,941.929,2268.885Z" transform="translate(-823.213 -2219.569)"/><path class="f" d="M939.407,2266.051c0,12.971-12.67,19.075-29.363,22.2-9.736,1.823-18.8,1.864-19.531-.8a4.228,4.228,0,0,1,.011-1.7c.962-4.8,18.5-2.4,29.545-3.721s16.693-5.286,17.414-13.214a26.382,26.382,0,0,0-2.04-13.331l-.112-5.427c.184.31.367.639.554.991A31.667,31.667,0,0,1,939.407,2266.051Z" transform="translate(-823.213 -2219.617)"/><path class="f" d="M940.4,2268.948c0,12.971-12.371,16.156-29.065,19.277-9.736,1.823-17.077.838-20.417-.65a4.7,4.7,0,0,1,.089-1.063c.962-4.8,18.495-2.4,29.545-3.722s16.694-5.287,17.415-13.213a30.16,30.16,0,0,0-2.38-14.359l-.228-5.746C939.518,2253.728,940.4,2262.04,940.4,2268.948Z" transform="translate(-823.251 -2219.573)"/><g transform="translate(33.661 0)"><path class="g" d="M860.326,2246.5a19.774,19.774,0,0,0-6.266-8.792c.543-.392,1.12-.8,1.733-1.231A23.411,23.411,0,0,1,860.326,2246.5Z" transform="translate(-854.06 -2218.567)"/><path class="g" d="M868.786,2242.852a23.7,23.7,0,0,0-7.232-10.29c.259-.169.522-.343.793-.518.425-.277.854-.555,1.286-.83A28.092,28.092,0,0,1,868.786,2242.852Z" transform="translate(-854.64 -2218.16)"/><path class="g" d="M877.44,2238.639c-2.378-6.023-5.635-9.235-8.064-10.9q1.189-.681,2.4-1.333C876.258,2231.465,877.44,2238.639,877.44,2238.639Z" transform="translate(-855.245 -2217.788)"/><path class="g" d="M889.581,2237.353c-3.322-8.4-8.007-12.431-11.1-14.282,1.182-.53,2.379-1.034,3.582-1.507C887.919,2227.8,889.526,2237.018,889.581,2237.353Z" transform="translate(-855.949 -2217.413)"/><path class="g" d="M903.6,2239.067c-4.871-12.33-11.988-17.482-15.912-19.489a59.509,59.509,0,0,1,5.808-1.474C901.38,2226.28,903.528,2238.621,903.6,2239.067Z" transform="translate(-856.662 -2217.146)"/><path class="h" d="M914.271,2238.317c-2.169-11.725-7.232-18.1-10.755-21.248a40.392,40.392,0,0,1,5.823.332C914.617,2226.862,914.271,2238.317,914.271,2238.317Z" transform="translate(-857.887 -2217.065)"/></g><path class="g" d="M848.206,2278.826c-15.173-.342-26.429-4.493-29.473-8.092l1.657-1.592s.029.843,2.19,1.261.033-4.325,1.261-6.036a4.181,4.181,0,0,1,6.547-.569c2.551,2.4,3.02,12.023,17.252,11.037Z" transform="translate(-817.666 -2220.578)"/><path class="g" d="M927.406,2265.816a16.671,16.671,0,0,1-1.336,1.777c-8.338,9.67-25.439,6.9-31.574,7.472-.75.068-1.921.14-3.413.212q-.448.022-.94.043c-1.492.069-3.243.138-5.156.2-9.462.331-23.017.652-30.328.811-3.153.072-5.142.112-5.142.112-.1,0-.2,0-.3-.007s-.173,0-.259-.008a72.277,72.277,0,0,1-20.491-3.2,141.042,141.042,0,0,0,18.8.516c7.927-.541,27.113-17.926,41.527-14.953s45.219-7.387,36.391-26.483c-.126-.27-.245-.537-.353-.8C931.737,2242.413,932.674,2257.749,927.406,2265.816Z" transform="translate(-818.419 -2218.182)"/><path class="g" d="M887.751,2278.184c-13.544.476-35.469.922-35.469.922-.1,0-.2,0-.3-.007a6.529,6.529,0,0,1,.63-10.759,16.252,16.252,0,0,1,9.847-2.385c9.188.781,10.81,8.406,18.855,10.027C884.818,2276.688,886.714,2277.438,887.751,2278.184Z" transform="translate(-820.042 -2220.844)"/><path class="g" d="M892.063,2277.931c-1.492.069-3.243.137-5.156.2-9.463.331-23.017.652-30.328.811a6.519,6.519,0,0,1-.126-11.252,16.28,16.28,0,0,1,9.847-2.39c9.188.783,10.809,8.41,18.856,10.032C889.274,2276.162,891.173,2277.055,892.063,2277.931Z" transform="translate(-820.339 -2220.793)"/><path class="e" d="M890.365,2280.121c.025.3-.213.577-.678.818-1.106.584-3.5.98-6.665,1.12a69.328,69.328,0,0,1-7.127-.076c-5.5-.321-15.288-.079-21.446-3.019a6.519,6.519,0,0,1-3.048-8.731,6.416,6.416,0,0,1,2.515-2.739,16.287,16.287,0,0,1,9.847-2.389c9.188.782,10.81,8.41,18.855,10.031.249.051.486.1.721.148C890.642,2276.875,890.25,2278.666,890.365,2280.121Z" transform="translate(-820.143 -2220.778)"/><path class="f" d="M889.687,2281.03a1.5,1.5,0,0,1-.223.108c-.079.032-.162.068-.252.1-.13.054-.274.1-.429.148-.1.029-.212.061-.324.09-.242.064-.5.126-.79.179l-.273.055c-.649.119-1.391.216-2.212.292-.306.03-.627.054-.959.079-.206.015-.414.029-.627.04-.187.011-.382.022-.576.029a69.4,69.4,0,0,1-7.127-.076c-5.5-.32-15.288-.079-21.446-3.019a5.66,5.66,0,0,1-1.193-10.388,16.28,16.28,0,0,1,9.847-2.389c9.189.782,10.81,8.41,18.856,10.031.248.051.486.1.721.148.407.091.793.18,1.152.267C889.558,2278.152,889.611,2279.708,889.687,2281.03Z" transform="translate(-820.143 -2220.869)"/><path class="h" d="M933.093,2253.969a52.556,52.556,0,0,1-1.772,14.567c-8.338,9.67-25.439,6.9-31.574,7.472-.75.068-1.921.14-3.413.212a5.216,5.216,0,0,1,.635-2.166c.994-1.891,11.71-2.342,11.083-3.783s-5.4-2.252-5.4-11.8c0-.2,0-.4.007-.59a14.66,14.66,0,0,1,13.278-13.994C922.8,2243.213,933.093,2243.883,933.093,2253.969Z" transform="translate(-823.67 -2219.126)"/><path class="g" d="M936.244,2253.97c0,.4-.007.8-.015,1.2s-.022.776-.044,1.157c-.564,11.488-5.18,18.725-9.062,21.311a7.612,7.612,0,0,1-1.121.615l-.278.111c-.139.051-.279.095-.418.138-.161.044-.316.088-.476.117a.168.168,0,0,1-.052.007,36.83,36.83,0,0,1-3.992.587c-.03,0-.059.007-.089.007-4.49.417-9.736.337-15.172.337a12.6,12.6,0,0,1-3.451-.4c-3.421-.989-3.3-3.025-1.956-5.091s11.715-2.344,11.084-3.789-5.407-2.248-5.407-11.8c0-.2.007-.4.015-.587a14.635,14.635,0,0,1,13.267-13.992c3.479-.344,7.824-.344,11.267,1.048h.007a10.685,10.685,0,0,1,2.49,1.392q.309.241.594.5c.161.147.315.293.461.455s.292.322.424.491.249.322.359.49a.574.574,0,0,1,.059.088c.088.132.169.264.249.4a7.374,7.374,0,0,1,.418.835,4.931,4.931,0,0,1,.212.535.092.092,0,0,1,.022.051,6.926,6.926,0,0,1,.212.682c.065.234.117.469.169.711,0,.015.006.029.006.044.03.138.052.285.074.432s.044.3.058.454A13.422,13.422,0,0,1,936.244,2253.97Z" transform="translate(-823.895 -2219.126)"/><path class="g" d="M936.336,2254c0,.4-.007.8-.015,1.2s-.022.776-.044,1.157c-.564,11.488-5.18,18.726-9.062,21.311a7.582,7.582,0,0,1-1.121.615c-.095.037-.183.074-.278.111-.139.051-.279.095-.418.138-.161.045-.316.089-.476.117a.168.168,0,0,1-.052.007c-.307.089.9.044.388.117-1.318.206-2.8.36-4.38.469-.03,0-.059.008-.089.008-4.717.337-10.293.337-15.172.337a12.586,12.586,0,0,1-3.451-.4c-2.44-1.15-1.817-3.406-1.1-4.783,1-1.883,11.707-2.337,11.084-3.78s-5.406-2.249-5.406-11.795c0-.2.007-.4.015-.593a14.652,14.652,0,0,1,13.267-14,26.8,26.8,0,0,1,10.41.74h.007a10.7,10.7,0,0,1,2.49,1.392c.206.161.4.33.594.5.16.147.314.293.461.455s.292.322.424.491.249.322.359.491a.563.563,0,0,1,.059.088c.088.132.169.264.249.4a7.378,7.378,0,0,1,.418.835,4.927,4.927,0,0,1,.212.535.093.093,0,0,1,.022.051,6.942,6.942,0,0,1,.212.682c.065.234.117.469.169.71,0,.015.006.03.006.044.03.139.052.285.074.432s.044.3.058.454A13.4,13.4,0,0,1,936.336,2254Z" transform="translate(-823.987 -2219.152)"/><path class="g" d="M820.07,2271.77a8.579,8.579,0,0,1-1.426-1.3,4.4,4.4,0,0,1-.5-.721c-2.021-3.689,2.039-10.37,2.245-10.705-.13.332-2.627,6.658-.083,9.833A2.106,2.106,0,0,1,820.07,2271.77Z" transform="translate(-817.576 -2220.313)"/><path class="g" d="M821.2,2256.565s-1.035-4.82-.63-7.252a5.805,5.805,0,0,1,3.6,2.973S821.561,2255.349,821.2,2256.565Z" transform="translate(-817.8 -2219.56)"/><path class="g" d="M838.761,2241.015a21.483,21.483,0,0,0-.855,5.944,20.937,20.937,0,0,1,4.548-.54S840.652,2242.636,838.761,2241.015Z" transform="translate(-819.147 -2218.918)"/><g transform="translate(2.737 39.701)"><g transform="translate(0 1.842)"><path class="i" d="M820.543,2264.721a2.332,2.332,0,0,1,.179-.8,3.089,3.089,0,0,1,.17-.363,2.772,2.772,0,0,1,.246-.378,3.108,3.108,0,0,1,.325-.367,3.282,3.282,0,0,1,.406-.318,2.388,2.388,0,0,1,.464-.236,1.873,1.873,0,0,1,.487-.135,1.816,1.816,0,0,1,.468-.029c.074,0,.145,0,.213.012l.2.044a1.712,1.712,0,0,1,.328.1c.093.041.172.083.235.116.127.069.195.115.195.115s-.086.013-.225.026c-.07.005-.153.014-.245.016s-.2.034-.305.044a1.755,1.755,0,0,0-.343.071,2.083,2.083,0,0,0-.36.108c-.06.025-.122.045-.184.067l-.179.088a2.734,2.734,0,0,0-.353.2c-.119.067-.223.161-.337.238-.1.094-.217.172-.311.268s-.2.181-.285.273-.173.179-.255.26Z" transform="translate(-820.543 -2262.092)"/></g><g transform="translate(7.873)"><path class="i" d="M829.076,2261.256a1.529,1.529,0,0,1,.173-.227,2.127,2.127,0,0,1,.239-.227,2.409,2.409,0,0,1,.351-.25,2.814,2.814,0,0,1,.463-.227,2.7,2.7,0,0,1,.558-.16,3.877,3.877,0,0,1,.62-.069,4.933,4.933,0,0,1,.64.051,3.859,3.859,0,0,1,.617.155,3.682,3.682,0,0,1,.564.235c.174.09.341.182.491.279s.279.208.4.3a1.994,1.994,0,0,1,.31.284c.088.089.161.172.22.239.118.135.18.217.18.217s-.1-.034-.265-.1-.384-.184-.661-.286c-.137-.052-.283-.11-.433-.18s-.321-.1-.484-.17-.346-.091-.519-.15a5.232,5.232,0,0,0-.535-.114c-.18-.035-.362-.042-.539-.065-.178.007-.356-.024-.526,0a4.675,4.675,0,0,0-.495.048c-.157.027-.307.055-.446.089A5.11,5.11,0,0,0,829.076,2261.256Z" transform="translate(-829.076 -2260.096)"/></g><g transform="translate(4.656 3.767)"><path class="i" d="M825.808,2264.746a.628.628,0,0,0-.109.831c.363.53,1.167,1.331,1.733,1.165s.766-1.868.561-2.265S826.7,2264,825.808,2264.746Z" transform="translate(-825.589 -2264.179)"/></g><g transform="translate(6.203 5.842)"><rect class="i" width="0.36" height="2.35" transform="translate(0 0.142) rotate(-23.227)"/></g><g transform="translate(4.74 5.442)"><path class="i" d="M825.681,2267.861a3.781,3.781,0,0,0,.741.521,3.244,3.244,0,0,0,.887.334,1.9,1.9,0,0,0,.56.03.774.774,0,0,0,.093-.013l.064-.019c.043-.015.082-.021.13-.042a1.493,1.493,0,0,0,.28-.165,2.4,2.4,0,0,0,.407-.4,3.57,3.57,0,0,0,.31-.435,5.916,5.916,0,0,0,.428-.825,6.07,6.07,0,0,0,.294-.853l-.131.209c-.079.136-.2.321-.346.546s-.315.482-.508.743c-.095.133-.2.262-.312.388a2.059,2.059,0,0,1-.357.337,1.436,1.436,0,0,1-.173.117.953.953,0,0,1-.121.042l-.064.02c.022-.005-.027,0-.037,0a1.874,1.874,0,0,1-.468,0,4.451,4.451,0,0,1-.853-.209c-.248-.088-.457-.166-.6-.233Z" transform="translate(-825.681 -2265.994)"/></g></g></g><path class="j" d="M901.322,2220.742l-1.621,47.381s-9.119,5.134-10.586,4.5a43.693,43.693,0,0,0-5.689-1.441s21.78-46.271-7.091-47.547q.984-.47,1.978-.916,1.773-.794,3.582-1.506c1.622-.634,3.261-1.21,4.919-1.718,1.783-.548,3.582-1.017,5.4-1.391a.062.062,0,0,1,.029,0c4.562-.6,8.028-1,8.669-1.019Z" transform="translate(-18.172 -10.341)"/><path class="k" d="M896.884,2213.637a177.785,177.785,0,0,1,.8,18.113c0,19.807-2.578,33.606-7.5,40.594a16.121,16.121,0,0,1,1.952,1.006,7.75,7.75,0,0,1,.735.661,4.094,4.094,0,0,1,.531,2.2c.83.394,1.511,4.021,1.511,4.021a32.671,32.671,0,0,1,3.617-.389c4.243-.274,8.878-.142,12.607-.274,4.384-.156,8.067-.288,12.088-.794,5.881-11.578,10.054-28.767,10.054-47.026a136.685,136.685,0,0,0-1.162-18.318" transform="translate(-19.244 -10.059)"/><path class="l" d="M896.884,2213.654a177.785,177.785,0,0,1,.8,18.113c0,19.807-2.578,33.606-7.5,40.594" transform="translate(-19.244 -10.076)"/><path class="l" d="M926,2278.776c5.881-11.578,10.054-28.767,10.054-47.026a136.706,136.706,0,0,0-1.161-18.318" transform="translate(-22.015 -10.059)"/><g transform="translate(799.685 2179.696)"><g transform="translate(0.911 44.78)"><path class="m" d="M818.752,2236.3l.478,1.1-1.329,4.152,2.738-1.193.6,1.379-5,2.179-.477-1.1,1.33-4.152-2.546,1.109-.605-1.389Z" transform="translate(-813.94 -2236.305)"/></g><g transform="translate(8.06 31.163)"><path class="m" d="M826.907,2221.546l.124,1.189-2.522,3.555,2.971-.309.156,1.5-5.426.566-.124-1.188,2.523-3.557-2.762.288-.157-1.508Z" transform="translate(-821.689 -2221.546)"/></g><g class="n" transform="translate(0 18.559)"><path class="m" d="M816.936,2207.884l.095.908-1.925,2.715,2.268-.236.119,1.142-4.142.431-.094-.907,1.925-2.714-2.108.22-.12-1.151Z" transform="translate(-812.953 -2207.884)"/></g><g class="o" transform="translate(10.924 5.633)"><path class="m" d="M828.555,2194.594l-.162.66-2.033,1.415,1.648.406-.2.83-3.01-.743.163-.658,2.032-1.417-1.532-.377.207-.837Z" transform="translate(-824.793 -2193.874)"/></g><g class="p" transform="translate(0.354)"><path class="m" d="M816.162,2187.769l.218.643-.951,2.287,1.607-.544.275.81-2.937.994-.218-.643.952-2.288-1.5.505-.276-.815Z" transform="translate(-813.337 -2187.769)"/></g></g></g></svg>