<svg id="svg" version="1.1" xmlns="http://www.w3.org/2000/svg" xmlns:xlink="http://www.w3.org/1999/xlink" width="400" height="398.961937716263" viewBox="0, 0, 400,398.961937716263"><g id="svgg"><path id="path0" d="M42.865 0.188 C 20.237 2.581,2.879 19.883,0.240 42.672 C -3.421 74.289,22.919 100.390,54.498 96.437 C 85.282 92.583,104.480 61.323,94.068 32.007 C 86.481 10.645,65.757 -2.234,42.865 0.188 M296.194 125.539 C 263.095 127.769,240.362 140.125,222.700 165.484 L 221.254 167.561 221.301 150.779 C 221.352 132.062,221.414 133.064,220.176 132.390 C 219.259 131.891,143.255 131.939,142.406 132.439 C 142.083 132.630,141.654 133.005,141.454 133.274 L 141.090 133.762 141.003 264.416 C 140.915 398.684,140.908 397.061,141.514 397.912 C 142.325 399.051,139.171 398.975,183.399 398.923 C 227.916 398.870,224.086 398.976,224.618 397.785 C 224.779 397.425,224.853 381.133,224.940 326.298 C 225.003 287.236,225.102 254.849,225.161 254.325 C 225.220 253.802,225.386 251.933,225.530 250.173 C 227.881 221.371,239.404 205.050,260.514 200.624 C 268.392 198.972,279.772 199.112,286.937 200.948 C 303.724 205.251,313.124 219.588,315.583 244.637 C 315.909 247.959,316.078 281.285,316.063 339.389 C 316.046 403.579,315.933 397.603,317.184 398.518 L 317.672 398.875 357.756 398.920 C 401.792 398.968,399.133 399.032,399.701 397.919 C 400.080 397.177,400.063 257.093,399.683 248.183 C 399.574 245.614,399.365 240.709,399.219 237.284 C 398.124 211.518,397.415 205.283,394.125 192.474 C 383.346 150.521,359.055 130.256,314.273 125.855 C 311.659 125.598,298.683 125.371,296.194 125.539 M8.416 132.174 C 6.972 132.316,6.643 132.738,6.496 134.636 C 6.188 138.607,6.481 397.133,6.794 397.706 C 7.497 398.992,3.334 398.875,48.466 398.875 L 88.902 398.875 89.390 398.518 C 89.659 398.322,90.019 397.880,90.189 397.537 C 90.688 396.535,90.703 134.645,90.205 133.628 C 89.804 132.810,89.001 132.254,88.024 132.118 C 87.078 131.986,9.770 132.040,8.416 132.174 " stroke="none" fill="#1c74bc" fill-rule="evenodd"></path><path id="path1" d="" stroke="none" fill="#2074bc" fill-rule="evenodd"></path><path id="path2" d="" stroke="none" fill="#2074bc" fill-rule="evenodd"></path><path id="path3" d="" stroke="none" fill="#2074bc" fill-rule="evenodd"></path><path id="path4" d="" stroke="none" fill="#2074bc" fill-rule="evenodd"></path></g></svg>