<svg id="svg" version="1.1" xmlns="http://www.w3.org/2000/svg" xmlns:xlink="http://www.w3.org/1999/xlink" width="400" height="400" viewBox="0, 0, 400,400"><g id="svgg"><path id="path0" d="M182.227 0.593 C 37.222 13.868,-46.115 173.276,26.125 299.185 C 62.343 362.310,127.268 399.831,200.195 399.783 C 327.736 399.699,421.850 283.597,395.837 158.434 C 375.398 60.091,282.460 -8.583,182.227 0.593 M212.500 9.777 C 347.489 19.167,430.553 162.314,371.275 283.398 C 320.456 387.204,190.149 422.529,94.341 358.473 C -5.748 291.555,-19.680 150.478,65.399 65.399 C 98.989 31.810,140.356 13.216,189.453 9.640 C 193.650 9.334,207.302 9.415,212.500 9.777 M190.234 28.533 C 138.405 31.376,90.220 58.011,59.990 100.527 C 58.333 102.858,56.889 104.993,56.782 105.272 C 56.216 106.748,79.093 106.376,106.205 104.468 C 115.187 103.836,116.471 103.958,118.300 105.615 C 121.820 108.804,121.204 114.748,117.139 116.822 C 115.576 117.619,109.431 118.422,100.977 118.934 C 98.828 119.064,96.509 119.258,95.823 119.364 L 94.576 119.558 96.540 125.306 C 97.620 128.468,111.678 170.245,127.780 218.143 C 156.156 302.558,157.258 305.787,157.564 305.436 C 157.906 305.044,194.922 193.482,194.922 192.843 C 194.922 191.995,168.830 120.335,168.265 119.629 C 168.047 119.358,167.021 119.141,165.959 119.141 C 161.466 119.141,148.779 117.569,147.338 116.834 C 143.595 114.924,143.004 109.264,146.202 105.949 C 148.129 103.952,149.254 103.821,158.854 104.476 C 189.562 106.572,204.200 106.568,235.096 104.457 L 243.826 103.860 245.623 104.762 C 250.646 107.283,250.691 114.413,245.700 116.994 C 244.547 117.590,236.270 118.571,228.798 118.998 C 226.309 119.140,224.093 119.368,223.874 119.503 C 223.527 119.717,284.956 303.446,285.585 304.075 C 285.703 304.193,289.285 292.645,293.545 278.414 C 297.805 264.183,303.294 246.035,305.743 238.086 C 316.920 201.809,318.272 189.555,313.255 170.030 C 310.716 160.150,307.046 152.425,297.059 135.938 C 285.540 116.922,282.773 105.776,286.683 94.141 C 290.886 81.637,302.990 72.602,314.331 73.504 C 316.647 73.689,316.606 73.628,311.426 69.246 C 277.229 40.318,234.863 26.086,190.234 28.533 M350.511 119.043 C 353.390 139.513,350.258 163.752,341.591 188.086 C 339.222 194.738,314.070 267.178,296.564 317.773 C 290.765 334.531,286.082 348.307,286.157 348.387 C 286.785 349.058,302.485 338.217,310.156 331.814 C 371.679 280.467,389.946 188.805,352.286 120.410 C 350.516 117.195,350.219 116.967,350.511 119.043 M42.602 131.152 C 11.325 199.414,32.305 285.612,91.837 333.438 C 101.825 341.462,124.197 355.621,125.240 354.578 C 125.449 354.369,43.612 130.093,43.324 130.085 C 43.198 130.081,42.873 130.562,42.602 131.152 M201.459 218.815 C 200.708 221.035,189.769 252.822,177.150 289.453 C 164.531 326.084,153.542 358.014,152.729 360.410 L 151.252 364.765 155.835 365.977 C 183.605 373.325,213.342 373.606,241.029 366.782 C 248.033 365.055,257.031 362.231,257.031 361.758 C 257.031 361.588,256.777 360.938,256.466 360.314 C 256.155 359.690,244.098 326.836,229.674 287.305 C 215.250 247.773,203.308 215.283,203.137 215.104 C 202.965 214.925,202.211 216.595,201.459 218.815 " stroke="none" fill="#24749c" fill-rule="evenodd"></path><path id="path1" d="" stroke="none" fill="#28749c" fill-rule="evenodd"></path><path id="path2" d="" stroke="none" fill="#28749c" fill-rule="evenodd"></path><path id="path3" d="" stroke="none" fill="#28749c" fill-rule="evenodd"></path><path id="path4" d="" stroke="none" fill="#28749c" fill-rule="evenodd"></path></g></svg>