<svg xmlns="http://www.w3.org/2000/svg" width="18" height="18" viewBox="0 0 18 18"><defs><style>.a{fill:#f44336;}.b{fill:#4caf50;}.c{fill:#ffc107;}.d{fill:#2196f3;}</style></defs><path class="a" d="M22.478,458.62l-2.733-1.975a9,9,0,0,1,14.14-2.119.145.145,0,0,1,0,.207l-2.152,2.152a.145.145,0,0,1-.2,0,5.669,5.669,0,0,0-9.056,1.732Z" transform="translate(-18.627 -451.994)"/><path class="b" d="M33.947,485.563a9,9,0,0,1-14.654-2.091l2.791-1.912a5.669,5.669,0,0,0,9.13,2.029Z" transform="translate(-18.345 -470.447)"/><path class="c" d="M20.1,468.718a5.648,5.648,0,0,0,.407,2.113l-2.791,1.912a9.016,9.016,0,0,1,.17-8.374l2.733,1.975A5.649,5.649,0,0,0,20.1,468.718Z" transform="translate(-16.77 -459.718)"/><path class="d" d="M29.452,485.942q-.136-.141-.262-.291Q29.316,485.8,29.452,485.942Z" transform="translate(-24.522 -473.001)"/><path class="d" d="M28.229,484.39c.092.136.189.268.292.394C28.418,484.658,28.321,484.526,28.229,484.39Z" transform="translate(-23.922 -472.214)"/><path class="d" d="M30.184,486.72q.131.127.27.247Q30.315,486.848,30.184,486.72Z" transform="translate(-25.142 -473.668)"/><path class="d" d="M27.534,483.253c.061.11.126.216.194.322Q27.626,483.417,27.534,483.253Z" transform="translate(-23.488 -471.504)"/><path class="d" d="M39.094,499.826c.181.012.362.02.546.021h.027C39.475,499.846,39.283,499.838,39.094,499.826Z" transform="translate(-30.703 -481.848)"/><path class="d" d="M31.175,487.612c.127.1.257.2.393.3C31.432,487.815,31.3,487.716,31.175,487.612Z" transform="translate(-25.761 -474.225)"/><path class="d" d="M37.927,499.708c-.167-.014-.332-.031-.5-.053Q37.677,499.688,37.927,499.708Z" transform="translate(-29.665 -481.741)"/><path class="d" d="M26.9,481.966q.076.174.163.342Q26.975,482.14,26.9,481.966Z" transform="translate(-23.092 -470.701)"/><path class="d" d="M42.672,499.778l-.138.011Z" transform="translate(-32.85 -481.818)"/><path class="d" d="M37.914,490.748q.184.034.372.057Q38.1,490.783,37.914,490.748Z" transform="translate(-29.967 -476.182)"/><path class="d" d="M39.317,490.948c.173.016.348.027.525.027C39.665,490.975,39.49,490.964,39.317,490.948Z" transform="translate(-30.842 -476.307)"/><path class="d" d="M34.941,489.868c.154.063.31.122.47.172C35.251,489.991,35.095,489.932,34.941,489.868Z" transform="translate(-28.111 -475.633)"/><path class="d" d="M36.328,490.365c.145.044.292.082.441.114C36.62,490.447,36.473,490.409,36.328,490.365Z" transform="translate(-28.977 -475.943)"/><path class="d" d="M33.715,489.288q.161.085.328.159C33.932,489.4,33.822,489.344,33.715,489.288Z" transform="translate(-27.346 -475.271)"/><path class="d" d="M32.409,488.518q.172.113.352.215Q32.581,488.632,32.409,488.518Z" transform="translate(-26.531 -474.79)"/><path class="d" d="M48.856,488.575l-.048.033Z" transform="translate(-36.766 -474.826)"/><path class="d" d="M43.625,490.662c-.062.014-.124.027-.187.039C43.5,490.689,43.563,490.676,43.625,490.662Z" transform="translate(-33.415 -476.128)"/><path class="d" d="M49.57,471.506H40.86a.145.145,0,0,0-.145.145v3.042a.145.145,0,0,0,.145.145h5.274a5.664,5.664,0,0,1-1.6,2.521c.017-.015.036-.029.053-.045l2.726,1.97a8.94,8.94,0,0,0,2.4-6.111v-1.521A.145.145,0,0,0,49.57,471.506Z" transform="translate(-31.715 -464.172)"/><path class="d" d="M44.938,490.316c-.061.019-.123.037-.185.054C44.815,490.353,44.877,490.335,44.938,490.316Z" transform="translate(-34.235 -475.912)"/><path class="d" d="M42.256,490.9c-.055.006-.109.015-.164.02C42.147,490.913,42.2,490.9,42.256,490.9Z" transform="translate(-32.574 -476.276)"/><path class="d" d="M46.21,489.865c-.056.023-.113.044-.169.065C46.1,489.909,46.155,489.888,46.21,489.865Z" transform="translate(-35.039 -475.631)"/><path class="d" d="M49.989,487.656c-.04.032-.079.066-.12.1C49.91,487.722,49.949,487.689,49.989,487.656Z" transform="translate(-37.428 -474.252)"/><path class="d" d="M47.468,489.314c-.041.022-.085.04-.127.061C47.383,489.354,47.426,489.336,47.468,489.314Z" transform="translate(-35.851 -475.287)"/><path class="d" d="M52.682,496.659l-.022.014Z" transform="translate(-39.17 -479.871)"/><path class="d" d="M48.859,498.385l-.118.042Z" transform="translate(-36.724 -480.948)"/><path class="d" d="M50.833,497.551l-.112.053Z" transform="translate(-37.96 -480.428)"/><path class="d" d="M46.9,499.063l-.029.007Z" transform="translate(-35.557 -481.372)"/><path class="d" d="M56.007,494.216l-.1.084Z" transform="translate(-41.197 -478.346)"/><path class="d" d="M57.506,492.916c.018-.017.035-.036.053-.054C57.541,492.88,57.524,492.9,57.506,492.916Z" transform="translate(-42.195 -477.501)"/><path class="d" d="M44.867,499.483l-.113.021Z" transform="translate(-34.236 -481.634)"/><path class="d" d="M54.34,495.521l-.091.062Z" transform="translate(-40.162 -479.161)"/></svg>