<svg id="svg" version="1.1" xmlns="http://www.w3.org/2000/svg" xmlns:xlink="http://www.w3.org/1999/xlink" width="400" height="770.3333333333334" viewBox="0, 0, 400,770.3333333333334"><g id="svgg"><path id="path0" d="M282.183 0.187 C 281.388 0.254,278.427 0.467,275.602 0.659 C 271.368 0.947,265.203 1.595,262.119 2.078 C 253.432 3.437,246.078 4.798,243.499 5.525 C 242.072 5.927,241.916 5.966,240.770 6.208 C 238.156 6.759,227.037 10.022,225.843 10.588 C 225.490 10.756,223.348 11.555,221.083 12.366 C 188.821 23.905,159.141 48.670,142.990 77.526 C 142.299 78.761,141.589 80.003,141.413 80.287 C 140.296 82.082,135.881 91.096,134.490 94.423 C 133.576 96.608,132.570 98.973,132.255 99.679 C 131.483 101.405,127.517 112.940,126.766 115.643 C 123.682 126.737,121.843 135.570,120.543 145.534 C 120.101 148.917,119.593 152.769,119.414 154.093 C 118.411 161.508,118.350 165.063,118.232 223.034 L 118.112 281.862 59.056 281.862 L 0.000 281.862 0.000 350.562 L 0.000 419.262 59.069 419.262 L 118.138 419.262 118.138 594.864 L 118.138 770.465 188.925 770.465 L 259.711 770.465 259.711 594.864 L 259.711 419.262 318.722 419.262 L 377.733 419.262 379.075 408.748 C 380.397 398.390,383.836 371.689,385.992 355.056 C 386.598 350.377,387.188 345.754,387.302 344.783 C 387.417 343.812,387.851 340.417,388.267 337.239 C 388.683 334.061,390.047 323.515,391.300 313.804 C 394.844 286.312,395.142 284.018,395.309 282.905 L 395.465 281.862 327.588 281.862 L 259.711 281.862 259.717 237.640 C 259.723 193.620,259.906 183.755,260.854 176.404 C 264.618 147.230,279.908 132.822,311.095 129.060 C 317.404 128.300,328.246 128.098,363.162 128.094 L 400.000 128.090 400.000 66.659 L 400.000 5.228 397.994 5.016 C 389.574 4.125,370.738 2.560,362.761 2.088 C 353.092 1.515,341.403 0.915,334.510 0.637 C 326.166 0.300,285.023 -0.054,282.183 0.187 " stroke="none" fill="#3c5c9c" fill-rule="evenodd"></path><path id="path1" d="" stroke="none" fill="#405c9c" fill-rule="evenodd"></path><path id="path2" d="" stroke="none" fill="#405c9c" fill-rule="evenodd"></path><path id="path3" d="" stroke="none" fill="#405c9c" fill-rule="evenodd"></path><path id="path4" d="" stroke="none" fill="#405c9c" fill-rule="evenodd"></path></g></svg>